<svg width="290" height="290" viewBox="0 0 290 290" fill="none" xmlns="http://www.w3.org/2000/svg">
<g opacity="0.75" filter="url(#filter0_d_1006_410)">
<path d="M251 276H31C17.1929 276 6 264.807 6 251V31C6 17.1929 17.1929 6 31 6H251C264.807 6 276 17.1929 276 31V251C276 264.807 264.807 276 251 276Z" fill="url(#paint0_linear_1006_410)"/>
</g>
<path d="M225.75 65.438C225.748 63.201 224.858 61.0563 223.276 59.475C221.694 57.8936 219.55 57.0039 217.313 57.001H175.125C172.888 57.0042 170.744 57.8942 169.162 59.4759C167.58 61.0577 166.69 63.2021 166.687 65.439V107.625C166.686 109.702 167.454 111.706 168.843 113.25C167.454 114.794 166.686 116.798 166.687 118.875V125.279L165.607 124.4L162.143 128.831C167.684 133.155 171.736 139.102 173.735 145.84C175.733 152.578 175.578 159.772 173.292 166.418C171.005 173.064 166.7 178.83 160.978 182.912C155.257 186.994 148.403 189.188 141.375 189.187C139.636 189.188 137.899 189.055 136.18 188.79L135.321 194.349C137.325 194.658 139.349 194.813 141.376 194.813C150.64 194.821 159.608 191.547 166.688 185.572V217.313C166.688 217.682 166.615 218.048 166.474 218.388C166.332 218.729 166.125 219.039 165.864 219.3C165.336 219.828 164.622 220.124 163.876 220.125H118.876C118.13 220.124 117.416 219.828 116.888 219.3C116.36 218.772 116.064 218.058 116.063 217.313V181.821L118.01 179.792C113.15 175.129 109.797 169.12 108.38 162.536C107.321 157.614 107.377 152.517 108.543 147.62C109.71 142.722 111.957 138.147 115.12 134.231C118.284 130.314 122.284 127.155 126.827 124.985C131.369 122.814 136.34 121.688 141.375 121.688C142.243 121.688 143.11 121.721 143.975 121.786L144.4 116.177C143.393 116.101 142.384 116.063 141.375 116.063C135.245 116.073 129.202 117.512 123.725 120.266C115.464 124.419 108.924 131.343 105.249 139.828C101.574 148.313 100.997 157.82 103.619 166.687H65.438C63.2013 166.69 61.0571 167.581 59.4756 169.162C57.8941 170.744 57.0042 172.888 57.001 175.125V217.313C57.0039 219.55 57.8936 221.694 59.475 223.276C61.057 224.858 63.201 225.748 65.438 225.75H107.625C109.702 225.751 111.706 224.984 113.25 223.595C114.794 224.984 116.798 225.751 118.875 225.75H163.875C165.952 225.751 167.956 224.984 169.5 223.595C171.044 224.984 173.048 225.751 175.125 225.75H217.313C219.549 225.748 221.694 224.858 223.276 223.276C224.858 221.694 225.748 219.549 225.75 217.313V175.125C225.751 173.048 224.984 171.044 223.595 169.5C224.984 167.956 225.751 165.952 225.75 163.875V118.875C225.751 116.798 224.984 114.794 223.595 113.25C224.984 111.706 225.751 109.702 225.75 107.625V65.438V65.438ZM90.75 172.314H99.188V189.188H90.751V172.314H90.75ZM110.438 217.314C110.438 217.683 110.365 218.049 110.223 218.39C110.082 218.731 109.874 219.04 109.613 219.301C109.085 219.828 108.371 220.125 107.625 220.126H65.438C64.692 220.125 63.978 219.829 63.45 219.301C62.922 218.773 62.626 218.059 62.625 217.314V175.125C62.626 174.379 62.922 173.665 63.45 173.137C63.711 172.876 64.0209 172.669 64.362 172.527C64.7031 172.386 65.0687 172.313 65.438 172.313H85.125V192C85.1246 192.37 85.1971 192.735 85.3383 193.077C85.4795 193.418 85.6867 193.729 85.948 193.99C86.2093 194.251 86.5196 194.458 86.861 194.6C87.2025 194.741 87.5685 194.813 87.938 194.813H102.001C102.747 194.813 103.462 194.516 103.99 193.989C104.251 193.728 104.459 193.418 104.6 193.077C104.741 192.735 104.814 192.369 104.814 192V172.313H105.773C107.04 174.978 108.605 177.492 110.439 179.804V217.313L110.438 217.314ZM200.438 62.626H208.876V79.501H200.438V62.625V62.626ZM220.126 217.314C220.126 217.683 220.054 218.049 219.912 218.39C219.771 218.732 219.564 219.042 219.303 219.303C219.042 219.564 218.732 219.771 218.39 219.912C218.049 220.054 217.683 220.126 217.314 220.126H175.125C174.379 220.125 173.665 219.829 173.137 219.301C172.876 219.04 172.669 218.73 172.527 218.389C172.386 218.049 172.313 217.683 172.313 217.314V179.769C174.129 177.464 175.683 174.963 176.946 172.314H194.813V192.001C194.813 192.747 195.109 193.462 195.636 193.99C195.897 194.251 196.207 194.459 196.548 194.6C196.89 194.741 197.256 194.814 197.625 194.814H211.687C212.434 194.814 213.149 194.517 213.676 193.99C213.937 193.729 214.145 193.419 214.286 193.078C214.427 192.736 214.5 192.37 214.5 192.001V172.314H217.313C217.682 172.314 218.048 172.387 218.388 172.528C218.729 172.67 219.039 172.877 219.3 173.138C219.828 173.666 220.124 174.38 220.125 175.126V217.314H220.126ZM200.438 189.188V172.314H208.876V189.188H200.438ZM220.125 163.875C220.124 164.621 219.828 165.335 219.3 165.863C219.039 166.124 218.729 166.331 218.388 166.473C218.048 166.614 217.682 166.687 217.313 166.687H179.11C180.911 160.639 181.234 154.246 180.051 148.047C178.869 141.848 176.215 136.023 172.313 131.063V118.875C172.313 118.506 172.386 118.14 172.527 117.799C172.669 117.458 172.876 117.148 173.137 116.887C173.665 116.36 174.379 116.063 175.125 116.062H194.813V135.75C194.813 136.496 195.109 137.211 195.636 137.739C195.897 138 196.207 138.208 196.548 138.349C196.89 138.49 197.256 138.563 197.625 138.563H211.687C212.056 138.563 212.422 138.491 212.764 138.35C213.105 138.209 213.415 138.002 213.677 137.74C213.938 137.479 214.145 137.169 214.286 136.828C214.428 136.486 214.5 136.12 214.5 135.751V116.063H217.313C217.682 116.063 218.048 116.136 218.389 116.278C218.73 116.419 219.039 116.627 219.3 116.888C219.827 117.416 220.124 118.13 220.125 118.876V163.876V163.875ZM200.437 132.938V116.063H208.875V132.938H200.437ZM220.125 107.625C220.124 108.371 219.828 109.085 219.3 109.613C218.772 110.141 218.058 110.437 217.313 110.438H175.125C174.379 110.437 173.665 110.141 173.137 109.613C172.876 109.352 172.669 109.042 172.527 108.701C172.386 108.36 172.313 107.994 172.313 107.625V65.438C172.313 64.692 172.61 63.978 173.137 63.45C173.664 62.922 174.379 62.626 175.125 62.625H194.813V82.313C194.813 83.059 195.109 83.774 195.636 84.302C195.897 84.5633 196.207 84.7706 196.548 84.912C196.89 85.0534 197.256 85.1261 197.625 85.126H211.687C212.056 85.1264 212.422 85.0539 212.764 84.9128C213.105 84.7716 213.415 84.5645 213.677 84.3033C213.938 84.0421 214.145 83.732 214.286 83.3906C214.428 83.0493 214.5 82.6834 214.5 82.314V62.625H217.313C217.682 62.6253 218.048 62.6982 218.389 62.8398C218.73 62.9814 219.039 63.1887 219.3 63.45C219.827 63.9775 220.124 64.6923 220.125 65.438V107.625V107.625ZM69.074 137.739C69.602 138.266 70.317 138.563 71.063 138.563C71.4324 138.563 71.7983 138.49 72.1395 138.349C72.4808 138.208 72.7909 138 73.052 137.739L100.594 110.196L109.855 119.457C110.383 119.984 111.098 120.281 111.844 120.281C112.213 120.281 112.579 120.208 112.921 120.067C113.262 119.926 113.572 119.718 113.833 119.457L147.001 86.289L156.262 95.55C156.656 95.943 157.157 96.211 157.702 96.32C158.248 96.429 158.814 96.3736 159.328 96.1606C159.842 95.9477 160.281 95.5869 160.59 95.124C160.899 94.6617 161.064 94.1181 161.064 93.562V59.813C161.064 59.067 160.767 58.352 160.24 57.824C159.979 57.5627 159.669 57.3553 159.328 57.214C158.986 57.0726 158.62 56.9999 158.251 57H124.501C123.945 56.9997 123.401 57.1646 122.938 57.4736C122.476 57.7826 122.116 58.222 121.903 58.736C121.69 59.25 121.634 59.815 121.743 60.361C121.851 60.9066 122.119 61.4078 122.513 61.801L131.775 71.062L111.846 90.991L102.585 81.729C102.324 81.4678 102.014 81.2607 101.672 81.1195C101.331 80.9783 100.965 80.9057 100.596 80.906C99.85 80.906 99.135 81.202 98.607 81.729L57.824 122.511C57.297 123.038 57 123.754 57 124.5C56.9999 124.869 57.0726 125.235 57.214 125.577C57.3553 125.918 57.5627 126.228 57.824 126.489L69.074 137.739V137.739ZM100.594 87.696L109.855 96.958C110.383 97.485 111.098 97.782 111.844 97.782C112.213 97.7821 112.579 97.7094 112.921 97.568C113.262 97.4267 113.572 97.2193 113.833 96.958L137.739 73.052C138.001 72.791 138.208 72.481 138.35 72.1397C138.491 71.7984 138.564 71.4325 138.564 71.063C138.564 70.6935 138.491 70.3276 138.35 69.9863C138.208 69.645 138.001 69.335 137.739 69.074L131.29 62.625H155.437V86.773L148.989 80.324C148.462 79.797 147.746 79.501 147 79.501C146.254 79.501 145.539 79.797 145.011 80.324L111.844 113.492L102.583 104.23C102.322 103.968 102.012 103.761 101.671 103.619C101.329 103.478 100.963 103.405 100.594 103.405C100.225 103.405 99.8586 103.478 99.5173 103.619C99.176 103.761 98.866 103.968 98.605 104.23L71.063 131.773L63.79 124.5L100.594 87.696V87.696ZM163.629 137.889L158.924 133.184C158.477 132.738 157.893 132.454 157.266 132.38C156.639 132.306 156.005 132.445 155.466 132.775L151.093 135.455L148.627 134.433L147.437 129.47C147.29 128.855 146.94 128.308 146.444 127.917C145.948 127.525 145.334 127.313 144.702 127.313H138.048C137.416 127.313 136.802 127.525 136.306 127.917C135.81 128.308 135.46 128.855 135.313 129.47L134.123 134.433L131.657 135.455L127.284 132.775C126.745 132.445 126.111 132.306 125.484 132.38C124.857 132.454 124.273 132.738 123.826 133.184L119.121 137.889C118.675 138.336 118.391 138.92 118.317 139.547C118.243 140.174 118.382 140.808 118.712 141.347L121.392 145.72L120.37 148.186L115.407 149.376C114.792 149.523 114.245 149.873 113.854 150.369C113.462 150.865 113.25 151.479 113.25 152.111V158.764C113.25 159.396 113.463 160.01 113.854 160.506C114.245 161.002 114.792 161.352 115.407 161.499L120.37 162.69L121.392 165.155L118.712 169.528C118.382 170.067 118.243 170.701 118.317 171.328C118.391 171.955 118.674 172.539 119.121 172.986L123.826 177.691C124.273 178.138 124.857 178.421 125.484 178.495C126.111 178.569 126.745 178.43 127.284 178.1L131.657 175.421L134.123 176.443L135.313 181.406C135.46 182.02 135.81 182.567 136.306 182.959C136.802 183.351 137.415 183.563 138.047 183.563H144.701C145.333 183.563 145.946 183.35 146.442 182.959C146.938 182.568 147.288 182.021 147.435 181.406L148.625 176.443L151.091 175.421L155.464 178.1C156.002 178.43 156.636 178.569 157.264 178.495C157.891 178.421 158.475 178.138 158.922 177.691L163.627 172.986C164.073 172.539 164.356 171.955 164.431 171.328C164.505 170.701 164.366 170.067 164.036 169.528L161.356 165.155L162.378 162.69L167.341 161.499C167.956 161.352 168.503 161.002 168.894 160.506C169.285 160.01 169.498 159.396 169.498 158.764V152.111C169.498 151.479 169.285 150.865 168.894 150.369C168.503 149.873 167.956 149.523 167.341 149.376L162.378 148.186L161.356 145.72L164.036 141.347C164.366 140.808 164.505 140.174 164.431 139.547C164.356 138.92 164.073 138.336 163.627 137.889H163.629ZM163.875 154.329V156.546L159.675 157.554C159.243 157.657 158.842 157.861 158.505 158.149C158.167 158.438 157.902 158.802 157.732 159.212L155.613 164.326C155.443 164.736 155.372 165.18 155.407 165.623C155.442 166.066 155.581 166.494 155.813 166.872L158.083 170.576L156.514 172.146L152.81 169.875C152.431 169.643 152.003 169.505 151.561 169.47C151.119 169.435 150.674 169.505 150.264 169.675L145.15 171.795C144.74 171.965 144.376 172.229 144.088 172.567C143.8 172.905 143.596 173.306 143.492 173.737L142.485 177.937H140.267L139.259 173.737C139.156 173.306 138.952 172.905 138.663 172.567C138.375 172.229 138.011 171.965 137.601 171.795L132.487 169.675C132.077 169.506 131.632 169.435 131.19 169.47C130.748 169.505 130.32 169.644 129.941 169.875L126.237 172.146L124.668 170.576L126.938 166.872C127.17 166.494 127.309 166.066 127.344 165.623C127.379 165.18 127.308 164.736 127.138 164.326L125.019 159.212C124.849 158.802 124.584 158.438 124.247 158.149C123.91 157.86 123.508 157.657 123.077 157.554L118.877 156.546V154.329L123.077 153.321C123.509 153.218 123.91 153.014 124.247 152.726C124.584 152.437 124.849 152.073 125.019 151.663L127.138 146.549C127.308 146.139 127.378 145.694 127.344 145.252C127.31 144.81 127.17 144.382 126.938 144.003L124.668 140.299L126.237 138.73L129.941 141C130.319 141.232 130.747 141.371 131.19 141.405C131.632 141.44 132.077 141.369 132.487 141.2L137.601 139.081C138.011 138.911 138.375 138.646 138.663 138.309C138.951 137.971 139.155 137.57 139.259 137.139L140.266 132.939H142.484L143.492 137.139C143.595 137.571 143.8 137.972 144.088 138.309C144.376 138.647 144.741 138.911 145.151 139.081L150.265 141.2C150.675 141.37 151.12 141.44 151.562 141.406C152.004 141.371 152.432 141.232 152.811 141L156.515 138.73L158.084 140.299L155.814 144.003C155.582 144.381 155.443 144.809 155.408 145.252C155.373 145.695 155.444 146.139 155.614 146.549L157.733 151.663C157.903 152.073 158.168 152.437 158.506 152.726C158.843 153.014 159.244 153.218 159.676 153.321L163.876 154.329H163.875ZM141.375 144.188C139.15 144.188 136.975 144.848 135.125 146.084C133.275 147.32 131.833 149.077 130.981 151.133C130.13 153.188 129.907 155.45 130.341 157.633C130.775 159.815 131.847 161.82 133.42 163.393C134.993 164.967 136.998 166.038 139.18 166.472C141.362 166.906 143.624 166.684 145.68 165.832C147.736 164.981 149.493 163.539 150.729 161.688C151.965 159.838 152.625 157.663 152.625 155.438C152.621 152.456 151.435 149.596 149.326 147.487C147.217 145.378 144.358 144.191 141.375 144.188V144.188ZM141.375 161.064C140.263 161.064 139.175 160.734 138.25 160.116C137.325 159.498 136.604 158.619 136.178 157.591C135.752 156.563 135.641 155.432 135.858 154.341C136.021 153.526 136.363 152.756 136.858 152.089C137.354 151.421 137.991 150.871 138.725 150.479C139.458 150.087 140.269 149.863 141.1 149.822C141.93 149.78 142.759 149.924 143.528 150.241C144.556 150.666 145.434 151.387 146.053 152.312C146.671 153.237 147.001 154.324 147.001 155.437C147 156.929 146.407 158.359 145.352 159.414C144.297 160.469 142.867 161.062 141.375 161.063V161.064Z" fill="#100023"/>
<path d="M65.438 79.5C67.675 79.503 69.82 80.392 71.401 81.974C72.9824 83.5559 73.8721 85.7003 73.875 87.937C73.8746 88.3065 73.9471 88.6725 74.0883 89.014C74.2296 89.3554 74.4367 89.6657 74.698 89.927C74.9593 90.1883 75.2696 90.3955 75.611 90.5367C75.9525 90.6779 76.3185 90.7504 76.688 90.75C77.0575 90.7504 77.4235 90.6779 77.765 90.5367C78.1064 90.3955 78.4167 90.1883 78.678 89.927C78.9393 89.6657 79.1465 89.3554 79.2877 89.014C79.4289 88.6725 79.5014 88.3065 79.501 87.937C79.504 85.7 80.393 83.555 81.975 81.974C83.5569 80.3926 85.7012 79.503 87.938 79.5C88.3075 79.5004 88.6735 79.4279 89.015 79.2867C89.3564 79.1455 89.6667 78.9383 89.928 78.677C90.1893 78.4157 90.3965 78.1054 90.5377 77.764C90.6789 77.4225 90.7514 77.0565 90.751 76.687C90.7514 76.3175 90.6789 75.9515 90.5377 75.6101C90.3965 75.2686 90.1893 74.9583 89.928 74.6971C89.6667 74.4358 89.3564 74.2286 89.015 74.0873C88.6735 73.9461 88.3075 73.8736 87.938 73.874C85.701 73.871 83.556 72.982 81.975 71.4C80.3936 69.8181 79.5039 67.6738 79.501 65.437C79.5014 65.0675 79.4289 64.7015 79.2877 64.3601C79.1465 64.0186 78.9393 63.7083 78.678 63.4471C78.4167 63.1858 78.1064 62.9786 77.765 62.8373C77.4235 62.6961 77.0575 62.6236 76.688 62.624C76.3185 62.6236 75.9525 62.6961 75.611 62.8373C75.2696 62.9786 74.9593 63.1858 74.698 63.4471C74.4367 63.7083 74.2296 64.0186 74.0883 64.3601C73.9471 64.7015 73.8746 65.0675 73.875 65.437C73.872 67.674 72.983 69.819 71.401 71.4C69.8191 72.9814 67.6748 73.8711 65.438 73.874C65.0685 73.8736 64.7025 73.9461 64.361 74.0873C64.0196 74.2286 63.7093 74.4358 63.448 74.6971C63.1867 74.9583 62.9796 75.2686 62.8383 75.6101C62.6971 75.9515 62.6246 76.3175 62.625 76.687C62.6246 77.0565 62.6971 77.4225 62.8383 77.764C62.9796 78.1054 63.1867 78.4157 63.448 78.677C63.7093 78.9383 64.0196 79.1455 64.361 79.2867C64.7025 79.4279 65.0685 79.5004 65.438 79.5V79.5ZM76.688 73.866C77.4906 74.9347 78.4403 75.8844 79.509 76.687C78.4403 77.4896 77.4906 78.4394 76.688 79.508C75.8854 78.4394 74.9357 77.4896 73.867 76.687C74.9357 75.8844 75.8854 74.9347 76.688 73.866V73.866ZM147 96.375C145.331 96.3751 143.7 96.87 142.312 97.797C140.925 98.724 139.843 100.042 139.205 101.584C138.728 102.737 138.513 103.981 138.574 105.227C138.635 106.473 138.972 107.689 139.56 108.789C140.148 109.89 140.973 110.846 141.975 111.589C142.977 112.332 144.131 112.844 145.354 113.088C146.991 113.414 148.687 113.247 150.229 112.608C151.771 111.969 153.088 110.888 154.015 109.5C154.943 108.113 155.438 106.481 155.438 104.812C155.435 102.575 154.545 100.43 152.964 98.848C151.382 97.2668 149.237 96.3774 147 96.375ZM147 107.625C146.444 107.625 145.9 107.46 145.437 107.151C144.974 106.842 144.614 106.403 144.401 105.888C144.187 105.374 144.13 104.808 144.238 104.262C144.346 103.715 144.614 103.213 145.008 102.82C145.401 102.426 145.903 102.158 146.45 102.05C146.996 101.942 147.562 101.999 148.076 102.213C148.59 102.426 149.029 102.786 149.339 103.249C149.648 103.712 149.813 104.256 149.813 104.812C149.812 105.558 149.516 106.272 148.988 106.8C148.46 107.328 147.746 107.624 147 107.625V107.625ZM85.125 138.563C85.1254 138.194 85.0529 137.828 84.9117 137.486C84.7705 137.145 84.5633 136.834 84.302 136.573C84.0407 136.312 83.7304 136.105 83.389 135.963C83.0475 135.822 82.6815 135.75 82.312 135.75C81.9425 135.75 81.5765 135.822 81.235 135.963C80.8936 136.105 80.5833 136.312 80.322 136.573C80.0607 136.834 79.8536 137.145 79.7123 137.486C79.5711 137.828 79.4986 138.194 79.499 138.563C79.4958 140.8 78.6059 142.944 77.0244 144.526C75.4429 146.107 73.2988 146.998 71.062 147.001C70.6925 147.001 70.3265 147.073 69.985 147.214C69.6436 147.356 69.3333 147.563 69.072 147.824C68.8107 148.085 68.6036 148.396 68.4623 148.737C68.3211 149.079 68.2486 149.445 68.249 149.814C68.2486 150.184 68.3211 150.55 68.4623 150.891C68.6036 151.232 68.8107 151.543 69.072 151.804C69.3333 152.065 69.6436 152.272 69.985 152.414C70.3265 152.555 70.6925 152.627 71.062 152.627C73.299 152.629 75.4437 153.519 77.025 155.101C78.6066 156.683 79.4963 158.828 79.499 161.065C79.499 161.811 79.7954 162.527 80.3229 163.054C80.8505 163.582 81.5659 163.878 82.312 163.878C83.0581 163.878 83.7736 163.582 84.3011 163.054C84.8286 162.527 85.125 161.811 85.125 161.065C85.1277 158.828 86.0174 156.683 87.599 155.101C89.181 153.519 91.326 152.629 93.563 152.627C94.1201 152.628 94.665 152.464 95.1286 152.155C95.5922 151.846 95.9534 151.406 96.1665 150.892C96.3795 150.377 96.4348 149.81 96.3252 149.264C96.2156 148.718 95.9461 148.217 95.551 147.824C95.2899 147.563 94.9798 147.355 94.6385 147.214C94.2973 147.073 93.9314 147 93.562 147C91.3254 146.997 89.1814 146.107 87.5999 144.525C86.0184 142.944 85.1284 140.8 85.125 138.563V138.563ZM82.313 152.635C81.51 151.566 80.56 150.616 79.492 149.813C80.5607 149.01 81.5104 148.061 82.313 146.992C83.1156 148.061 84.0653 149.01 85.134 149.813C84.065 150.616 83.115 151.565 82.313 152.635ZM123.199 190.375C125.144 191.389 127.172 192.238 129.259 192.913L130.989 187.561C129.202 186.982 127.466 186.255 125.799 185.387L123.199 190.375V190.375ZM149.166 122.591C150.946 123.012 152.689 123.578 154.377 124.283L156.547 119.093C154.575 118.269 152.539 117.608 150.459 117.117L149.166 122.591Z" fill="#100023"/>
<defs>
<filter id="filter0_d_1006_410" x="0" y="0" width="290" height="290" filterUnits="userSpaceOnUse" color-interpolation-filters="sRGB">
<feFlood flood-opacity="0" result="BackgroundImageFix"/>
<feColorMatrix in="SourceAlpha" type="matrix" values="0 0 0 0 0 0 0 0 0 0 0 0 0 0 0 0 0 0 127 0" result="hardAlpha"/>
<feOffset dx="4" dy="4"/>
<feGaussianBlur stdDeviation="5"/>
<feColorMatrix type="matrix" values="0 0 0 0 0 0 0 0 0 0 0 0 0 0 0 0 0 0 0.1 0"/>
<feBlend mode="normal" in2="BackgroundImageFix" result="effect1_dropShadow_1006_410"/>
<feBlend mode="normal" in="SourceGraphic" in2="effect1_dropShadow_1006_410" result="shape"/>
</filter>
<linearGradient id="paint0_linear_1006_410" x1="141" y1="276" x2="141" y2="6" gradientUnits="userSpaceOnUse">
<stop stop-color="#6C17CD"/>
<stop offset="1" stop-color="#A761F7"/>
</linearGradient>
</defs>
</svg>
