<svg width="292" height="292" viewBox="0 0 292 292" fill="none" xmlns="http://www.w3.org/2000/svg">
<g filter="url(#filter0_d_975_11)">
<rect x="3.75" y="-3.75" width="262.5" height="262.5" rx="21.25" transform="matrix(1 0 0 -1 11 269.5)" stroke="url(#paint0_linear_975_11)" stroke-width="7.5" shape-rendering="crispEdges"/>
</g>
<path d="M220.312 78.7188C220.31 76.8546 219.569 75.0674 218.251 73.7493C216.933 72.4311 215.145 71.6896 213.281 71.6875H178.125C176.261 71.6896 174.474 72.4311 173.155 73.7493C171.837 75.0674 171.096 76.8546 171.094 78.7188V113.875C171.093 115.606 171.732 117.276 172.89 118.562C171.732 119.849 171.093 121.519 171.094 123.25V128.586C170.798 128.338 170.499 128.093 170.193 127.854L167.307 131.547C171.923 135.151 175.299 140.106 176.964 145.721C178.629 151.336 178.5 157.331 176.595 162.869C174.689 168.407 171.102 173.212 166.335 176.613C161.567 180.015 155.857 181.843 150 181.844C148.55 181.844 147.103 181.733 145.671 181.513L144.954 186.145C146.624 186.402 148.311 186.531 150 186.531C157.72 186.538 165.193 183.81 171.094 178.831V205.281C171.093 205.903 170.846 206.498 170.406 206.938C169.967 207.377 169.371 207.624 168.75 207.625H131.25C130.629 207.624 130.033 207.377 129.594 206.938C129.154 206.498 128.907 205.903 128.906 205.281V175.705L130.529 174.014C126.479 170.129 123.684 165.121 122.504 159.634C121.324 154.147 121.812 148.433 123.906 143.225C126 138.019 129.604 133.557 134.254 130.415C138.904 127.273 144.388 125.594 150 125.594C150.72 125.594 151.449 125.621 152.167 125.676L152.521 121.001C151.686 120.938 150.838 120.906 150 120.906C144.892 120.915 139.856 122.114 135.292 124.408C130.728 126.703 126.762 130.03 123.708 134.124C120.654 138.219 118.597 142.969 117.699 147.998C116.801 153.026 117.088 158.195 118.536 163.094H86.7188C84.8546 163.096 83.0674 163.837 81.7493 165.155C80.4311 166.474 79.6896 168.261 79.6875 170.125V205.281C79.6896 207.145 80.4311 208.933 81.7493 210.251C83.0674 211.569 84.8546 212.31 86.7188 212.312H121.875C123.606 212.314 125.276 211.674 126.562 210.516C127.849 211.674 129.519 212.314 131.25 212.312H168.75C170.481 212.314 172.151 211.674 173.438 210.516C174.724 211.674 176.394 212.314 178.125 212.312H213.281C215.145 212.31 216.933 211.569 218.251 210.251C219.569 208.933 220.31 207.145 220.312 205.281V170.125C220.314 168.394 219.674 166.724 218.516 165.438C219.674 164.151 220.314 162.481 220.312 160.75V123.25C220.314 121.519 219.674 119.849 218.516 118.562C219.674 117.276 220.314 115.606 220.312 113.875V78.7188ZM107.812 167.781H114.844V181.844H107.812V167.781ZM124.219 205.281C124.218 205.903 123.971 206.498 123.531 206.938C123.092 207.377 122.496 207.624 121.875 207.625H86.7188C86.0974 207.624 85.5016 207.377 85.0622 206.938C84.6229 206.498 84.3757 205.903 84.375 205.281V170.125C84.3757 169.504 84.6229 168.908 85.0622 168.469C85.5016 168.029 86.0974 167.782 86.7188 167.781H103.125V184.188C103.125 184.809 103.372 185.405 103.812 185.845C104.251 186.284 104.847 186.531 105.469 186.531H117.188C117.809 186.531 118.405 186.284 118.845 185.845C119.284 185.405 119.531 184.809 119.531 184.188V167.781H120.33C121.386 170.003 122.691 172.097 124.219 174.024V205.281ZM199.219 76.375H206.25V90.4375H199.219V76.375ZM215.625 205.281C215.624 205.903 215.377 206.498 214.938 206.938C214.498 207.377 213.903 207.624 213.281 207.625H178.125C177.504 207.624 176.908 207.377 176.469 206.938C176.029 206.498 175.782 205.903 175.781 205.281V173.994C177.295 172.073 178.59 169.989 179.642 167.781H194.531V184.188C194.531 184.809 194.778 185.405 195.218 185.845C195.657 186.284 196.253 186.531 196.875 186.531H208.594C209.215 186.531 209.811 186.284 210.251 185.845C210.691 185.405 210.938 184.809 210.938 184.188V167.781H213.281C213.903 167.782 214.498 168.029 214.938 168.469C215.377 168.908 215.624 169.504 215.625 170.125V205.281ZM199.219 181.844V167.781H206.25V181.844H199.219ZM215.625 160.75C215.624 161.371 215.377 161.967 214.938 162.406C214.498 162.846 213.903 163.093 213.281 163.094H181.446C182.947 158.053 183.216 152.726 182.23 147.56C181.245 142.394 179.033 137.54 175.781 133.407V123.25C175.782 122.629 176.029 122.033 176.469 121.594C176.908 121.154 177.504 120.907 178.125 120.906H194.531V137.312C194.531 137.934 194.778 138.53 195.218 138.97C195.657 139.409 196.253 139.656 196.875 139.656H208.594C209.215 139.656 209.811 139.409 210.251 138.97C210.691 138.53 210.938 137.934 210.938 137.312V120.906H213.281C213.903 120.907 214.498 121.154 214.938 121.594C215.377 122.033 215.624 122.629 215.625 123.25V160.75ZM199.219 134.969V120.906H206.25V134.969H199.219ZM215.625 113.875C215.624 114.496 215.377 115.092 214.938 115.531C214.498 115.971 213.903 116.218 213.281 116.219H178.125C177.504 116.218 176.908 115.971 176.469 115.531C176.029 115.092 175.782 114.496 175.781 113.875V78.7188C175.782 78.0974 176.029 77.5016 176.469 77.0622C176.908 76.6229 177.504 76.3757 178.125 76.375H194.531V92.7812C194.531 93.4028 194.778 93.999 195.218 94.4385C195.657 94.878 196.253 95.125 196.875 95.125H208.594C209.215 95.125 209.811 94.878 210.251 94.4385C210.691 93.999 210.938 93.4028 210.938 92.7812V76.375H213.281C213.903 76.3757 214.498 76.6229 214.938 77.0622C215.377 77.5016 215.624 78.0974 215.625 78.7188V113.875Z" fill="white"/>
<path d="M89.7489 138.97C90.1886 139.409 90.7847 139.656 91.4063 139.656C92.0279 139.656 92.6241 139.409 93.0637 138.97L116.016 116.017L123.733 123.735C124.173 124.175 124.769 124.422 125.391 124.422C126.012 124.422 126.608 124.175 127.048 123.735L154.688 96.0958L162.405 103.814C162.733 104.141 163.15 104.365 163.605 104.455C164.06 104.545 164.531 104.499 164.959 104.322C165.388 104.144 165.754 103.844 166.011 103.458C166.269 103.073 166.406 102.62 166.406 102.156V74.0312C166.406 73.4097 166.159 72.8135 165.72 72.374C165.28 71.9345 164.684 71.6875 164.062 71.6875H135.938C135.474 71.6876 135.021 71.825 134.636 72.0826C134.25 72.3401 133.95 72.7062 133.772 73.1344C133.595 73.5627 133.548 74.0339 133.639 74.4885C133.729 74.9432 133.952 75.3608 134.28 75.6886L141.998 83.4062L125.391 100.014L117.673 92.2957C117.233 91.8563 116.637 91.6095 116.016 91.6095C115.394 91.6095 114.798 91.8563 114.358 92.2957L80.3739 126.28C79.9344 126.72 79.6875 127.316 79.6875 127.938C79.6875 128.559 79.9344 129.155 80.3739 129.595L89.7489 138.97ZM116.016 97.2675L123.733 104.985C124.173 105.425 124.769 105.672 125.391 105.672C126.012 105.672 126.608 105.425 127.048 104.985L146.97 85.0636C147.41 84.6241 147.656 84.0279 147.656 83.4062C147.656 82.7846 147.41 82.1884 146.97 81.7489L141.596 76.375H161.719V96.4981L156.345 91.1239C155.905 90.6845 155.309 90.4376 154.688 90.4376C154.066 90.4376 153.47 90.6845 153.03 91.1239L125.391 118.764L117.673 111.046C117.233 110.606 116.637 110.359 116.016 110.359C115.394 110.359 114.798 110.606 114.358 111.046L91.4063 133.998L85.3458 127.938L116.016 97.2675Z" fill="white"/>
<path d="M168.545 139.095L164.624 135.174C164.252 134.802 163.765 134.566 163.242 134.504C162.72 134.442 162.191 134.558 161.742 134.833L158.098 137.066L156.043 136.214L155.051 132.079C154.929 131.567 154.637 131.111 154.223 130.785C153.81 130.458 153.299 130.281 152.772 130.281H147.228C146.701 130.281 146.19 130.458 145.777 130.785C145.363 131.111 145.071 131.567 144.949 132.079L143.957 136.214L141.902 137.066L138.258 134.833C137.809 134.558 137.28 134.442 136.758 134.504C136.235 134.566 135.748 134.802 135.376 135.174L131.455 139.095C131.083 139.467 130.847 139.954 130.785 140.477C130.724 140.999 130.839 141.528 131.114 141.977L133.347 145.621L132.496 147.675L128.36 148.667C127.848 148.79 127.392 149.082 127.066 149.495C126.74 149.909 126.562 150.42 126.562 150.946V156.491C126.562 157.018 126.74 157.529 127.066 157.942C127.392 158.356 127.848 158.647 128.36 158.77L132.496 159.762L133.347 161.817L131.114 165.461C130.839 165.91 130.724 166.438 130.785 166.961C130.847 167.484 131.083 167.971 131.455 168.343L135.376 172.263C135.749 172.635 136.235 172.872 136.758 172.933C137.28 172.995 137.809 172.879 138.258 172.604L141.902 170.371L143.957 171.223L144.949 175.359C145.071 175.871 145.363 176.327 145.777 176.653C146.19 176.979 146.701 177.156 147.228 177.156H152.772C153.299 177.156 153.81 176.979 154.223 176.653C154.637 176.327 154.929 175.871 155.051 175.359L156.043 171.223L158.098 170.371L161.742 172.604C162.191 172.879 162.72 172.995 163.242 172.933C163.765 172.872 164.252 172.635 164.624 172.263L168.545 168.343C168.917 167.97 169.153 167.484 169.215 166.961C169.276 166.438 169.161 165.91 168.886 165.461L166.653 161.817L167.504 159.762L171.64 158.77C172.152 158.647 172.608 158.356 172.934 157.942C173.26 157.529 173.438 157.018 173.438 156.491V150.946C173.438 150.42 173.26 149.909 172.934 149.495C172.608 149.082 172.152 148.79 171.64 148.667L167.504 147.675L166.653 145.621L168.886 141.977C169.161 141.528 169.276 140.999 169.215 140.477C169.153 139.954 168.917 139.467 168.545 139.095ZM168.75 152.795V154.643L165.25 155.482C164.89 155.569 164.556 155.738 164.275 155.979C163.993 156.219 163.773 156.522 163.631 156.864L161.865 161.126C161.723 161.468 161.665 161.838 161.694 162.207C161.723 162.575 161.839 162.932 162.032 163.248L163.923 166.335L162.616 167.642L159.529 165.75C159.214 165.557 158.857 165.441 158.488 165.412C158.119 165.383 157.749 165.442 157.407 165.584L153.145 167.35C152.804 167.492 152.5 167.712 152.26 167.993C152.02 168.275 151.85 168.609 151.763 168.969L150.924 172.469H149.076L148.236 168.969C148.15 168.609 147.98 168.275 147.74 167.993C147.5 167.712 147.196 167.492 146.855 167.35L142.593 165.584C142.251 165.442 141.881 165.383 141.512 165.412C141.143 165.441 140.786 165.557 140.471 165.75L137.384 167.642L136.077 166.335L137.968 163.248C138.161 162.932 138.277 162.575 138.306 162.207C138.335 161.838 138.277 161.468 138.135 161.126L136.369 156.864C136.227 156.522 136.007 156.219 135.725 155.979C135.444 155.738 135.11 155.569 134.75 155.482L131.25 154.643V152.795L134.75 151.955C135.11 151.869 135.444 151.699 135.725 151.459C136.007 151.219 136.227 150.915 136.369 150.573L138.135 146.312C138.277 145.97 138.335 145.599 138.306 145.231C138.277 144.862 138.161 144.505 137.968 144.19L136.077 141.103L137.384 139.795L140.471 141.687C140.786 141.88 141.143 141.996 141.512 142.025C141.881 142.054 142.251 141.995 142.593 141.854L146.855 140.088C147.196 139.946 147.5 139.726 147.74 139.444C147.98 139.163 148.15 138.829 148.237 138.469L149.076 134.969H150.924L151.764 138.469C151.85 138.829 152.02 139.163 152.26 139.444C152.5 139.726 152.804 139.946 153.145 140.088L157.407 141.854C157.749 141.995 158.119 142.054 158.488 142.025C158.857 141.996 159.214 141.88 159.529 141.687L162.616 139.795L163.923 141.103L162.032 144.19C161.839 144.505 161.723 144.862 161.694 145.231C161.665 145.599 161.723 145.97 161.865 146.312L163.631 150.573C163.773 150.915 163.993 151.219 164.275 151.459C164.556 151.699 164.89 151.869 165.25 151.955L168.75 152.795Z" fill="white"/>
<path d="M150 144.344C148.146 144.344 146.333 144.894 144.792 145.924C143.25 146.954 142.048 148.418 141.339 150.131C140.629 151.844 140.443 153.729 140.805 155.548C141.167 157.366 142.06 159.037 143.371 160.348C144.682 161.659 146.353 162.552 148.171 162.914C149.99 163.275 151.875 163.09 153.588 162.38C155.301 161.671 156.765 160.469 157.795 158.927C158.825 157.386 159.375 155.573 159.375 153.719C159.372 151.233 158.384 148.85 156.626 147.093C154.869 145.335 152.486 144.347 150 144.344ZM150 158.406C149.073 158.406 148.167 158.131 147.396 157.616C146.625 157.101 146.024 156.369 145.669 155.513C145.315 154.656 145.222 153.713 145.402 152.804C145.583 151.895 146.03 151.06 146.685 150.404C147.341 149.749 148.176 149.302 149.086 149.121C149.995 148.94 150.937 149.033 151.794 149.388C152.65 149.743 153.382 150.344 153.898 151.115C154.413 151.885 154.687 152.792 154.687 153.719C154.686 154.962 154.192 156.153 153.313 157.032C152.434 157.911 151.243 158.405 150 158.406Z" fill="white"/>
<path d="M86.7188 90.4375C88.5829 90.4396 90.3701 91.1811 91.6882 92.4993C93.0064 93.8174 93.7479 95.6046 93.75 97.4688C93.75 98.0904 93.9969 98.6866 94.4365 99.1261C94.876 99.5655 95.4722 99.8125 96.0938 99.8125C96.7153 99.8125 97.3115 99.5655 97.751 99.1261C98.1906 98.6866 98.4375 98.0904 98.4375 97.4688C98.4396 95.6046 99.1811 93.8174 100.499 92.4993C101.817 91.1811 103.605 90.4396 105.469 90.4375C106.09 90.4375 106.687 90.1906 107.126 89.751C107.566 89.3115 107.812 88.7153 107.812 88.0938C107.812 87.4722 107.566 86.876 107.126 86.4365C106.687 85.9969 106.09 85.75 105.469 85.75C103.605 85.7479 101.817 85.0064 100.499 83.6882C99.1811 82.3701 98.4396 80.5829 98.4375 78.7188C98.4375 78.0972 98.1906 77.501 97.751 77.0615C97.3115 76.6219 96.7153 76.375 96.0938 76.375C95.4722 76.375 94.876 76.6219 94.4365 77.0615C93.9969 77.501 93.75 78.0972 93.75 78.7188C93.7479 80.5829 93.0064 82.3701 91.6882 83.6882C90.3701 85.0064 88.5829 85.7479 86.7188 85.75C86.0972 85.75 85.501 85.9969 85.0615 86.4365C84.6219 86.876 84.375 87.4722 84.375 88.0938C84.375 88.7153 84.6219 89.3115 85.0615 89.751C85.501 90.1906 86.0972 90.4375 86.7188 90.4375ZM96.0938 85.7426C96.7627 86.6332 97.5543 87.4248 98.4449 88.0938C97.5543 88.7627 96.7627 89.5543 96.0938 90.4449C95.4248 89.5543 94.6332 88.7627 93.7426 88.0938C94.6332 87.4248 95.4248 86.6332 96.0938 85.7426Z" fill="white"/>
<path d="M154.688 104.5C153.297 104.5 151.937 104.912 150.781 105.685C149.625 106.458 148.724 107.556 148.192 108.841C147.659 110.125 147.52 111.539 147.791 112.903C148.063 114.267 148.732 115.52 149.716 116.503C150.699 117.486 151.952 118.156 153.316 118.427C154.68 118.699 156.094 118.56 157.378 118.027C158.663 117.495 159.761 116.594 160.534 115.438C161.306 114.281 161.719 112.922 161.719 111.531C161.717 109.667 160.975 107.88 159.657 106.562C158.339 105.244 156.552 104.502 154.688 104.5ZM154.688 113.875C154.224 113.875 153.771 113.738 153.385 113.48C153 113.223 152.699 112.856 152.522 112.428C152.345 112 152.298 111.529 152.389 111.074C152.479 110.619 152.702 110.202 153.03 109.874C153.358 109.546 153.776 109.323 154.23 109.233C154.685 109.142 155.156 109.188 155.584 109.366C156.013 109.543 156.379 109.844 156.636 110.229C156.894 110.615 157.031 111.068 157.031 111.531C157.031 112.153 156.783 112.748 156.344 113.188C155.905 113.627 155.309 113.874 154.688 113.875Z" fill="white"/>
<path d="M103.125 139.656C103.125 139.035 102.878 138.438 102.439 137.999C101.999 137.559 101.403 137.312 100.781 137.312C100.16 137.312 99.5635 137.559 99.124 137.999C98.6844 138.438 98.4375 139.035 98.4375 139.656C98.4354 141.52 97.6939 143.308 96.3757 144.626C95.0576 145.944 93.2704 146.685 91.4062 146.688C90.7847 146.688 90.1885 146.934 89.749 147.374C89.3094 147.813 89.0625 148.41 89.0625 149.031C89.0625 149.653 89.3094 150.249 89.749 150.689C90.1885 151.128 90.7847 151.375 91.4062 151.375C93.2704 151.377 95.0576 152.119 96.3757 153.437C97.6939 154.755 98.4354 156.542 98.4375 158.406C98.4375 159.028 98.6844 159.624 99.124 160.064C99.5635 160.503 100.16 160.75 100.781 160.75C101.403 160.75 101.999 160.503 102.439 160.064C102.878 159.624 103.125 159.028 103.125 158.406C103.127 156.542 103.869 154.755 105.187 153.437C106.505 152.119 108.292 151.377 110.156 151.375C110.778 151.375 111.374 151.128 111.814 150.689C112.253 150.249 112.5 149.653 112.5 149.031C112.5 148.41 112.253 147.813 111.814 147.374C111.374 146.934 110.778 146.688 110.156 146.688C108.292 146.685 106.505 145.944 105.187 144.626C103.869 143.308 103.127 141.52 103.125 139.656ZM100.781 151.382C100.112 150.492 99.3207 149.7 98.4301 149.031C99.3207 148.362 100.112 147.571 100.781 146.68C101.45 147.571 102.242 148.362 103.132 149.031C102.242 149.7 101.45 150.492 100.781 151.382Z" fill="white"/>
<path d="M134.854 182.833C136.475 183.678 138.164 184.386 139.904 184.948L141.345 180.488C139.856 180.006 138.409 179.4 137.02 178.677L134.854 182.833Z" fill="white"/>
<path d="M156.492 126.346C157.976 126.697 159.428 127.168 160.835 127.756L162.643 123.431C161 122.745 159.303 122.194 157.57 121.784L156.492 126.346Z" fill="white"/>
<defs>
<filter id="filter0_d_975_11" x="0" y="0" width="292" height="292" filterUnits="userSpaceOnUse" color-interpolation-filters="sRGB">
<feFlood flood-opacity="0" result="BackgroundImageFix"/>
<feColorMatrix in="SourceAlpha" type="matrix" values="0 0 0 0 0 0 0 0 0 0 0 0 0 0 0 0 0 0 127 0" result="hardAlpha"/>
<feMorphology radius="5" operator="dilate" in="SourceAlpha" result="effect1_dropShadow_975_11"/>
<feOffset dy="4"/>
<feGaussianBlur stdDeviation="3"/>
<feComposite in2="hardAlpha" operator="out"/>
<feColorMatrix type="matrix" values="0 0 0 0 0 0 0 0 0 0 0 0 0 0 0 0 0 0 0.1 0"/>
<feBlend mode="normal" in2="BackgroundImageFix" result="effect1_dropShadow_975_11"/>
<feBlend mode="normal" in="SourceGraphic" in2="effect1_dropShadow_975_11" result="shape"/>
</filter>
<linearGradient id="paint0_linear_975_11" x1="135" y1="0" x2="135" y2="270" gradientUnits="userSpaceOnUse">
<stop stop-color="#370372"/>
<stop offset="1" stop-color="#08A6A9"/>
</linearGradient>
</defs>
</svg>
