<svg xmlns="http://www.w3.org/2000/svg" viewBox="0 0 64 64"><rect width="2" height="2" x="28" y="16"/><rect width="2" height="2" x="34" y="16"/><polygon points="62 4 60 4 60 2 58 2 58 4 56 4 56 6 58 6 58 8 60 8 60 6 62 6 62 4"/><rect width="2" height="4" x="58" y="10"/><rect width="2" height="2" x="58" y="16"/><rect width="2" height="2" x="58" y="20"/><polygon points="51 18 53 18 53 16 55 16 55 14 53 14 53 12 51 12 51 14 49 14 49 16 51 16 51 18"/><rect width="2" height="4" x="51" y="20"/><rect width="2" height="2" x="51" y="26"/><rect width="2" height="2" x="51" y="30"/><polygon points="4 8 6 8 6 6 8 6 8 4 6 4 6 2 4 2 4 4 2 4 2 6 4 6 4 8"/><rect width="2" height="4" x="4" y="10"/><rect width="2" height="2" x="4" y="16"/><rect width="2" height="2" x="4" y="20"/><polygon points="11 18 13 18 13 16 15 16 15 14 13 14 13 12 11 12 11 14 9 14 9 16 11 16 11 18"/><rect width="2" height="4" x="11" y="20"/><rect width="2" height="2" x="11" y="26"/><rect width="2" height="2" x="11" y="30"/><path d="M58,41a1,1,0,0,0,1-1V37a1,1,0,0,0-1-1H45V34.9a7,7,0,0,0-4.15-6.39L36,26.35V24.92A8.06,8.06,0,0,0,39.74,20H40a3,3,0,0,0,0-6V9.39l3-1V13h2V7a1.014,1.014,0,0,0-.68-.95l-12-4a1,1,0,0,0-.64,0l-12,4a1,1,0,0,0,0,1.9L24,9.39V14a3,3,0,0,0,0,6h.26A8.06,8.06,0,0,0,28,24.92v1.43l-4.85,2.16A7,7,0,0,0,19,34.9V36H16a6.988,6.988,0,0,0-4.83,12.05A7,7,0,0,0,12,62H54a1,1,0,0,0,1-1V58a1,1,0,0,0-1-1,2,2,0,0,1,0-4,1,1,0,0,0,1-1V50h3a1,1,0,0,0,1-1V46a1,1,0,0,0-1-1,2,2,0,0,1,0-4ZM24,18a1,1,0,0,1,0-2ZM37,32a1,1,0,0,0,.48-.12,1.017,1.017,0,0,0,.49-.64l.41-1.64,1.65.73A5,5,0,0,1,43,34.9V36H35.75l-1.43-4.84,2.36.79A1.185,1.185,0,0,0,37,32Zm-.47-3.23-.24.94-1.58-.53-.37-.73.69-.34ZM38,13H26V10.05l5.68,1.9a1.049,1.049,0,0,0,.64,0L38,10.05Zm3,4a1,1,0,0,1-1,1V16A1,1,0,0,1,41,17ZM23.16,7,32,4.05,40.84,7,32,9.95ZM26,18V15H38v3a6,6,0,0,1-12,0Zm5.3,14.71a.99.99,0,0,0,1.4,0L33.66,36H30.34Zm-.08-2.91.4-.8h.76l.4.8-.78.79ZM32.76,27H31.24L30,26.38v-.64a7.822,7.822,0,0,0,4,0v.64Zm-3.79,1.11.69.34-.37.73-1.58.53-.24-.94ZM21,34.9a5,5,0,0,1,2.97-4.57l1.65-.73.41,1.64a1.017,1.017,0,0,0,.49.64A1,1,0,0,0,27,32a1.185,1.185,0,0,0,.32-.05l2.36-.79L28.25,36H21ZM54.56,41a3.851,3.851,0,0,0-.42,1H18v2H54.14a3.851,3.851,0,0,0,.42,1H16a2,2,0,0,1,0-4ZM11,43a5,5,0,0,1,5-5h3v1H16a4,4,0,0,0,0,8h3v1H16A5,5,0,0,1,11,43ZM50.14,56a3.851,3.851,0,0,0,.42,1H12a2,2,0,0,1,0-4H50.56a3.851,3.851,0,0,0-.42,1H14v2ZM18,60H12a5,5,0,0,1,0-10h6v1H12a4,4,0,0,0,0,8h6Zm35-1v1H20V59Zm0-8H20V50H53Zm4-4v1H21V47ZM21,39V38H57v1Z"/></svg>