<svg width="292" height="292" viewBox="0 0 292 292" fill="none" xmlns="http://www.w3.org/2000/svg">
<g filter="url(#filter0_d_975_7)">
<rect x="3.75" y="-3.75" width="262.5" height="262.5" rx="21.25" transform="matrix(1 0 0 -1 11 269.5)" stroke="url(#paint0_linear_975_7)" stroke-width="7.5" shape-rendering="crispEdges"/>
</g>
<path d="M145.312 104.5H140.625V109.188H145.312V104.5Z" fill="white"/>
<path d="M159.375 104.5H154.688V109.188H159.375V104.5Z" fill="white"/>
<path d="M220.312 76.375H215.625V71.6875H210.938V76.375H206.25V81.0625H210.938V85.75H215.625V81.0625H220.312V76.375Z" fill="white"/>
<path d="M215.625 90.4375H210.938V99.8125H215.625V90.4375Z" fill="white"/>
<path d="M215.625 104.5H210.938V109.188H215.625V104.5Z" fill="white"/>
<path d="M215.625 113.875H210.938V118.562H215.625V113.875Z" fill="white"/>
<path d="M194.531 109.188H199.219V104.5H203.906V99.8125H199.219V95.125H194.531V99.8125H189.844V104.5H194.531V109.188Z" fill="white"/>
<path d="M199.219 113.875H194.531V123.25H199.219V113.875Z" fill="white"/>
<path d="M199.219 127.938H194.531V132.625H199.219V127.938Z" fill="white"/>
<path d="M199.219 137.312H194.531V142H199.219V137.312Z" fill="white"/>
<path d="M84.375 85.75H89.0625V81.0625H93.75V76.375H89.0625V71.6875H84.375V76.375H79.6875V81.0625H84.375V85.75Z" fill="white"/>
<path d="M89.0625 90.4375H84.375V99.8125H89.0625V90.4375Z" fill="white"/>
<path d="M89.0625 104.5H84.375V109.188H89.0625V104.5Z" fill="white"/>
<path d="M89.0625 113.875H84.375V118.562H89.0625V113.875Z" fill="white"/>
<path d="M100.781 109.188H105.469V104.5H110.156V99.8125H105.469V95.125H100.781V99.8125H96.0938V104.5H100.781V109.188Z" fill="white"/>
<path d="M105.469 113.875H100.781V123.25H105.469V113.875Z" fill="white"/>
<path d="M105.469 127.938H100.781V132.625H105.469V127.938Z" fill="white"/>
<path d="M105.469 137.312H100.781V142H105.469V137.312Z" fill="white"/>
<path d="M210.937 163.094C211.559 163.094 212.155 162.847 212.594 162.407C213.034 161.968 213.281 161.372 213.281 160.75V153.719C213.281 153.097 213.034 152.501 212.594 152.062C212.155 151.622 211.559 151.375 210.937 151.375H180.468V148.797C180.467 145.628 179.547 142.527 177.821 139.869C176.095 137.212 173.636 135.111 170.742 133.821L159.375 128.758V125.406C161.523 124.156 163.402 122.493 164.907 120.514C166.411 118.536 167.51 116.279 168.14 113.875H168.75C170.614 113.875 172.403 113.134 173.722 111.816C175.04 110.497 175.781 108.709 175.781 106.844C175.781 104.979 175.04 103.191 173.722 101.872C172.403 100.553 170.614 99.8127 168.75 99.8127V89.008L175.781 86.6643V97.4689H180.468V83.4064C180.465 82.9163 180.31 82.4392 180.024 82.0406C179.739 81.642 179.338 81.3413 178.875 81.1799L150.75 71.8049C150.263 71.6406 149.736 71.6406 149.25 71.8049L121.125 81.1799C120.656 81.334 120.247 81.6322 119.958 82.032C119.669 82.4319 119.513 82.9129 119.513 83.4064C119.513 83.9 119.669 84.381 119.958 84.7808C120.247 85.1807 120.656 85.4789 121.125 85.633L131.25 89.008V99.8127C129.385 99.8127 127.596 100.553 126.278 101.872C124.959 103.191 124.218 104.979 124.218 106.844C124.218 108.709 124.959 110.497 126.278 111.816C127.596 113.134 129.385 113.875 131.25 113.875H131.859C132.49 116.279 133.589 118.536 135.093 120.514C136.597 122.493 138.477 124.156 140.625 125.406V128.758L129.257 133.821C126.363 135.111 123.904 137.212 122.178 139.869C120.452 142.527 119.533 145.628 119.531 148.797V151.375H112.5C109.223 151.369 106.021 152.346 103.305 154.18C100.59 156.013 98.487 158.619 97.268 161.66C96.049 164.701 95.7702 168.038 96.4674 171.239C97.1647 174.44 98.806 177.359 101.179 179.617C97.0288 180.116 93.2251 182.181 90.5452 185.389C87.8653 188.597 86.5112 192.708 86.7595 196.881C87.0077 201.054 88.8397 204.975 91.8812 207.843C94.9226 210.711 98.9442 212.31 103.125 212.313H201.562C202.184 212.313 202.78 212.066 203.219 211.626C203.659 211.187 203.906 210.591 203.906 209.969V202.938C203.906 202.316 203.659 201.72 203.219 201.28C202.78 200.841 202.184 200.594 201.562 200.594C200.319 200.594 199.127 200.1 198.248 199.221C197.369 198.342 196.875 197.15 196.875 195.906C196.875 194.663 197.369 193.471 198.248 192.592C199.127 191.713 200.319 191.219 201.562 191.219C202.184 191.219 202.78 190.972 203.219 190.532C203.659 190.093 203.906 189.497 203.906 188.875V184.188H210.937C211.559 184.188 212.155 183.941 212.594 183.501C213.034 183.062 213.281 182.466 213.281 181.844V174.813C213.281 174.191 213.034 173.595 212.594 173.155C212.155 172.716 211.559 172.469 210.937 172.469C209.694 172.469 208.502 171.975 207.623 171.096C206.744 170.217 206.25 169.025 206.25 167.781C206.25 166.538 206.744 165.346 207.623 164.467C208.502 163.588 209.694 163.094 210.937 163.094ZM131.25 109.188C130.628 109.188 130.032 108.941 129.592 108.501C129.153 108.062 128.906 107.466 128.906 106.844C128.906 106.222 129.153 105.626 129.592 105.187C130.032 104.747 130.628 104.5 131.25 104.5V109.188ZM161.718 142C162.111 142.002 162.498 141.905 162.843 141.719C163.127 141.56 163.375 141.346 163.573 141.088C163.77 140.83 163.913 140.534 163.992 140.219L164.953 136.375L168.82 138.086C170.892 139.007 172.653 140.509 173.888 142.41C175.124 144.311 175.781 146.53 175.781 148.797V151.375H158.789L155.437 140.031L160.968 141.883C161.212 141.956 161.464 141.996 161.718 142V142ZM160.617 134.43L160.054 136.633L156.351 135.391L155.484 133.68L157.101 132.883L160.617 134.43ZM164.062 97.4689H135.937V90.5549L149.25 95.008C149.737 95.1643 150.262 95.1643 150.75 95.008L164.062 90.5549V97.4689ZM171.093 106.844C171.093 107.466 170.846 108.062 170.407 108.501C169.967 108.941 169.371 109.188 168.75 109.188V104.5C169.371 104.5 169.967 104.747 170.407 105.187C170.846 105.626 171.093 106.222 171.093 106.844ZM129.281 83.4064L150 76.4924L170.718 83.4064L150 90.3205L129.281 83.4064ZM135.937 109.188V102.156H164.062V109.188C164.062 112.917 162.581 116.494 159.943 119.131C157.306 121.769 153.729 123.25 150 123.25C146.27 123.25 142.693 121.769 140.056 119.131C137.419 116.494 135.937 112.917 135.937 109.188ZM148.359 143.664C148.794 144.099 149.384 144.344 150 144.344C150.615 144.344 151.205 144.099 151.64 143.664L153.89 151.375H146.109L148.359 143.664ZM148.172 136.844L149.109 134.969H150.89L151.828 136.844L150 138.696L148.172 136.844ZM151.781 130.281H148.218L145.312 128.828V127.328C148.384 128.141 151.615 128.141 154.687 127.328V128.828L151.781 130.281ZM142.898 132.883L144.515 133.68L143.648 135.391L139.945 136.633L139.382 134.43L142.898 132.883ZM124.218 148.797C124.218 146.53 124.876 144.311 126.111 142.41C127.347 140.509 129.107 139.007 131.179 138.086L135.047 136.375L136.007 140.219C136.087 140.534 136.229 140.83 136.427 141.088C136.624 141.346 136.872 141.56 137.156 141.719C137.501 141.905 137.888 142.002 138.281 142C138.535 141.996 138.787 141.956 139.031 141.883L144.562 140.031L141.211 151.375H124.218V148.797ZM202.875 163.094C202.438 163.825 202.106 164.614 201.89 165.438H117.187V170.125H201.89C202.106 170.949 202.438 171.738 202.875 172.469H112.5C111.256 172.469 110.064 171.975 109.185 171.096C108.306 170.217 107.812 169.025 107.812 167.781C107.812 166.538 108.306 165.346 109.185 164.467C110.064 163.588 111.256 163.094 112.5 163.094H202.875ZM100.781 167.781C100.781 164.673 102.016 161.693 104.213 159.495C106.411 157.297 109.392 156.063 112.5 156.063H119.531V158.406H112.5C110.013 158.406 107.629 159.394 105.871 161.152C104.112 162.91 103.125 165.295 103.125 167.781C103.125 170.268 104.112 172.652 105.871 174.411C107.629 176.169 110.013 177.156 112.5 177.156H119.531V179.5H112.5C110.961 179.5 109.437 179.197 108.015 178.608C106.593 178.019 105.301 177.156 104.213 176.068C103.125 174.98 102.262 173.688 101.673 172.266C101.084 170.844 100.781 169.32 100.781 167.781ZM192.515 198.25C192.731 199.074 193.063 199.863 193.5 200.594H103.125C101.881 200.594 100.689 200.1 99.8101 199.221C98.931 198.342 98.4372 197.15 98.4372 195.906C98.4372 194.663 98.931 193.471 99.8101 192.592C100.689 191.713 101.881 191.219 103.125 191.219H193.5C193.063 191.95 192.731 192.739 192.515 193.563H107.812V198.25H192.515ZM117.187 207.625H103.125C100.017 207.625 97.036 206.391 94.8383 204.193C92.6406 201.995 91.4059 199.014 91.4059 195.906C91.4059 192.798 92.6406 189.818 94.8383 187.62C97.036 185.422 100.017 184.188 103.125 184.188H117.187V186.531H103.125C100.638 186.531 98.2537 187.519 96.4955 189.277C94.7374 191.035 93.7497 193.42 93.7497 195.906C93.7497 198.393 94.7374 200.777 96.4955 202.536C98.2537 204.294 100.638 205.281 103.125 205.281H117.187V207.625ZM199.218 205.281V207.625H121.875V205.281H199.218ZM199.218 186.531H121.875V184.188H199.218V186.531ZM208.593 177.156V179.5H124.218V177.156H208.593ZM124.218 158.406V156.063H208.593V158.406H124.218Z" fill="white"/>
<defs>
<filter id="filter0_d_975_7" x="0" y="0" width="292" height="292" filterUnits="userSpaceOnUse" color-interpolation-filters="sRGB">
<feFlood flood-opacity="0" result="BackgroundImageFix"/>
<feColorMatrix in="SourceAlpha" type="matrix" values="0 0 0 0 0 0 0 0 0 0 0 0 0 0 0 0 0 0 127 0" result="hardAlpha"/>
<feMorphology radius="5" operator="dilate" in="SourceAlpha" result="effect1_dropShadow_975_7"/>
<feOffset dy="4"/>
<feGaussianBlur stdDeviation="3"/>
<feComposite in2="hardAlpha" operator="out"/>
<feColorMatrix type="matrix" values="0 0 0 0 0 0 0 0 0 0 0 0 0 0 0 0 0 0 0.1 0"/>
<feBlend mode="normal" in2="BackgroundImageFix" result="effect1_dropShadow_975_7"/>
<feBlend mode="normal" in="SourceGraphic" in2="effect1_dropShadow_975_7" result="shape"/>
</filter>
<linearGradient id="paint0_linear_975_7" x1="135" y1="0" x2="135" y2="270" gradientUnits="userSpaceOnUse">
<stop stop-color="#370372"/>
<stop offset="1" stop-color="#08A6A9"/>
</linearGradient>
</defs>
</svg>
