<svg width="282" height="282" viewBox="0 0 282 282" fill="none" xmlns="http://www.w3.org/2000/svg">
<g opacity="0.75" filter="url(#filter0_d_1006_407)">
<path d="M251 272H31C17.1929 272 6 260.807 6 247V27C6 13.1929 17.1929 2 31 2H251C264.807 2 276 13.1929 276 27V247C276 260.807 264.807 272 251 272Z" fill="url(#paint0_linear_1006_407)"/>
</g>
<path d="M136.75 93.3828H131.125V99.0078H136.75V93.3828ZM153.625 93.3828H148V99.0078H153.625V93.3828ZM226.75 59.6328H221.125V54.0078H215.5V59.6328H209.875V65.2578H215.5V70.8828H221.125V65.2578H226.75V59.6328ZM221.125 76.5078H215.5V87.7578H221.125V76.5078ZM221.125 93.3828H215.5V99.0078H221.125V93.3828ZM221.125 104.633H215.5V110.258H221.125V104.633ZM195.813 99.0078H201.437V93.3828H207.063V87.7578H201.437V82.1328H195.813V87.7578H190.187V93.3828H195.813V99.0078ZM201.437 104.633H195.813V115.883H201.437V104.633ZM201.437 121.508H195.813V127.133H201.437V121.508ZM201.437 132.758H195.813V138.383H201.437V132.758ZM63.625 70.8828H69.25V65.2578H74.875V59.6328H69.25V54.0078H63.625V59.6328H58V65.2578H63.625V70.8828ZM69.25 76.5078H63.625V87.7578H69.25V76.5078ZM69.25 93.3828H63.625V99.0078H69.25V93.3828ZM69.25 104.633H63.625V110.258H69.25V104.633ZM83.313 99.0078H88.938V93.3828H94.563V87.7578H88.938V82.1328H83.313V87.7578H77.688V93.3828H83.313V99.0078ZM88.938 104.633H83.313V115.883H88.938V104.633ZM88.938 121.508H83.313V127.133H88.938V121.508ZM88.938 132.758H83.313V138.383H88.938V132.758Z" fill="#210047"/>
<path d="M215.499 163.695C216.245 163.695 216.961 163.399 217.488 162.872C218.015 162.345 218.312 161.629 218.312 160.883V152.445C218.312 151.7 218.015 150.984 217.488 150.457C217.227 150.195 216.917 149.988 216.576 149.847C216.234 149.705 215.869 149.633 215.499 149.633H178.937V146.539C178.935 142.736 177.832 139.015 175.76 135.826C173.688 132.637 170.738 130.116 167.265 128.567L153.624 122.492V118.47C156.202 116.969 158.458 114.974 160.263 112.599C162.068 110.224 163.386 107.517 164.143 104.632H164.874C167.112 104.632 169.258 103.743 170.84 102.161C172.422 100.579 173.312 98.4318 173.312 96.1948C173.312 93.9578 172.423 91.8108 170.84 90.2288C169.257 88.6468 167.112 87.7578 164.874 87.7578V74.7917L173.312 71.9797V84.9457H178.937V68.0698C178.932 67.4816 178.746 66.9093 178.404 66.4308C178.062 65.9522 177.58 65.5914 177.024 65.3977L143.274 54.1477C142.69 53.9507 142.058 53.9507 141.474 54.1477L107.724 65.3977C107.161 65.5824 106.671 65.9403 106.324 66.4201C105.976 66.9 105.79 67.4774 105.79 68.0698C105.79 68.6621 105.976 69.2395 106.324 69.7194C106.671 70.1992 107.161 70.5571 107.724 70.7417L119.874 74.7917V87.7578C117.637 87.7585 115.491 88.6478 113.909 90.2301C112.327 91.8124 111.438 93.9582 111.437 96.1958C111.438 98.4335 112.327 100.579 113.909 102.162C115.491 103.744 117.637 104.633 119.875 104.634H120.606C121.363 107.519 122.682 110.226 124.487 112.601C126.292 114.976 128.548 116.971 131.125 118.472V122.494L117.484 128.569C114.011 130.117 111.06 132.639 108.989 135.828C106.918 139.017 105.814 142.738 105.813 146.541V149.635H97.3761C93.4451 149.628 89.6011 150.8 86.3431 153C83.0851 155.2 80.5611 158.327 79.0981 161.976C77.6351 165.625 77.3011 169.63 78.1371 173.471C78.9731 177.312 80.9431 180.815 83.7911 183.526C78.8101 184.124 74.2461 186.601 71.0301 190.451C67.8146 194.301 66.19 199.234 66.4879 204.241C66.7858 209.249 68.9838 213.954 72.6331 217.396C76.2831 220.838 81.1091 222.756 86.1251 222.76H204.25C204.62 222.76 204.985 222.687 205.327 222.546C205.668 222.404 205.978 222.197 206.239 221.936C206.766 221.409 207.063 220.693 207.063 219.947V211.51C207.063 210.764 206.766 210.049 206.239 209.521C205.712 208.993 204.996 208.697 204.25 208.697C202.758 208.697 201.328 208.105 200.273 207.05C199.218 205.995 198.625 204.564 198.625 203.072C198.625 201.58 199.218 200.15 200.273 199.095C201.328 198.04 202.758 197.447 204.25 197.447C204.996 197.447 205.712 197.151 206.239 196.624C206.766 196.097 207.063 195.381 207.063 194.635V189.01H215.5C215.87 189.01 216.235 188.937 216.577 188.796C216.918 188.654 217.228 188.447 217.489 188.186C218.016 187.659 218.313 186.943 218.313 186.197V177.76C218.313 177.014 218.016 176.299 217.489 175.771C216.962 175.243 216.246 174.947 215.5 174.947C214.008 174.947 212.578 174.355 211.523 173.3C210.468 172.245 209.875 170.814 209.875 169.322C209.875 167.83 210.468 166.4 211.523 165.345C212.578 164.29 214.008 163.697 215.5 163.697L215.499 163.695ZM119.874 99.0078C119.128 99.0078 118.413 98.7118 117.885 98.1838C117.624 97.9228 117.416 97.6128 117.275 97.2716C117.133 96.9304 117.061 96.5646 117.061 96.1953C117.061 95.8259 117.133 95.4601 117.275 95.1189C117.416 94.7777 117.624 94.4677 117.885 94.2068C118.412 93.6798 119.128 93.3828 119.874 93.3828V99.0078V99.0078ZM156.437 138.383C156.908 138.385 157.372 138.269 157.787 138.046C158.127 137.856 158.425 137.598 158.662 137.288C158.899 136.978 159.07 136.624 159.165 136.246L160.318 131.634L164.959 133.687C167.445 134.791 169.558 136.594 171.04 138.875C172.523 141.156 173.312 143.819 173.312 146.54V149.634H152.921L148.899 136.021L155.537 138.243C155.829 138.331 156.132 138.378 156.437 138.384V138.383ZM155.115 129.299L154.44 131.943L149.996 130.452L148.955 128.399L150.896 127.443L155.115 129.299ZM159.249 84.9457H125.499V76.6488L141.474 81.9928C142.059 82.1803 142.689 82.1803 143.274 81.9928L159.249 76.6488V84.9457V84.9457ZM167.687 96.1958C167.687 96.9418 167.39 97.6567 166.863 98.1847C166.602 98.4461 166.292 98.6534 165.951 98.7948C165.609 98.9362 165.244 99.0089 164.874 99.0088V93.3828C165.244 93.3826 165.609 93.4553 165.951 93.5967C166.292 93.7381 166.602 93.9454 166.863 94.2068C167.39 94.7338 167.687 95.4498 167.687 96.1958ZM117.512 68.0698L142.374 59.7728L167.237 68.0698L142.374 76.3667L117.512 68.0698ZM125.499 99.0068V90.5698H159.249V99.0078C159.249 103.484 157.471 107.776 154.307 110.941C151.143 114.106 146.85 115.883 142.374 115.883C137.898 115.883 133.606 114.105 130.442 110.941C127.278 107.777 125.499 103.484 125.499 99.0078V99.0068ZM140.405 140.379C140.927 140.901 141.635 141.194 142.374 141.194C143.113 141.194 143.821 140.901 144.343 140.379L147.043 149.632H137.705L140.405 140.379ZM140.18 132.195L141.305 129.945H143.443L144.568 132.195L142.374 134.417L140.18 132.195ZM144.511 124.32H140.236L136.749 122.576V120.776C140.436 121.751 144.312 121.751 147.999 120.776V122.576L144.512 124.32H144.511ZM133.852 127.442L135.793 128.398L134.752 130.451L130.308 131.942L129.633 129.298L133.852 127.442ZM111.437 146.539C111.437 143.818 112.226 141.156 113.708 138.874C115.191 136.592 117.303 134.79 119.79 133.686L124.431 131.633L125.584 136.245C125.679 136.623 125.85 136.978 126.087 137.287C126.324 137.597 126.622 137.854 126.962 138.045C127.377 138.268 127.841 138.384 128.312 138.382C128.617 138.376 128.92 138.329 129.212 138.241L135.85 136.019L131.828 149.632H111.437V146.538V146.539ZM205.824 163.695C205.3 164.573 204.902 165.519 204.643 166.508H102.999V172.133H204.643C204.902 173.121 205.3 174.068 205.824 174.945H97.3741C95.8821 174.945 94.4511 174.353 93.3971 173.298C92.3431 172.243 91.7491 170.812 91.7491 169.32C91.7491 167.828 92.3421 166.398 93.3971 165.343C94.4521 164.288 95.8831 163.695 97.3741 163.695H205.824ZM83.3121 169.32C83.3121 167.473 83.6758 165.645 84.3826 163.939C85.0893 162.233 86.1252 160.682 87.4311 159.377C90.0681 156.74 93.6451 155.258 97.3751 155.258H105.813V158.07H97.3761C94.3921 158.07 91.5311 159.256 89.4211 161.365C88.3764 162.409 87.5477 163.65 86.9824 165.015C86.417 166.379 86.126 167.842 86.126 169.32C86.126 170.797 86.417 172.26 86.9824 173.625C87.5477 174.99 88.3764 176.23 89.4211 177.275C90.4658 178.319 91.706 179.148 93.0709 179.713C94.4358 180.279 95.8987 180.57 97.3761 180.57H105.814V183.383H97.3771C95.5302 183.383 93.7013 183.019 91.9951 182.312C90.2889 181.605 88.7387 180.57 87.4331 179.264C86.1271 177.958 85.0911 176.408 84.3851 174.702C83.6791 172.996 83.3151 171.167 83.3151 169.32H83.3121ZM193.393 205.883C193.652 206.871 194.05 207.818 194.574 208.695H86.1241C84.6321 208.695 83.2011 208.103 82.1461 207.048C81.0911 205.993 80.4981 204.562 80.4981 203.07C80.4981 201.578 81.0911 200.148 82.1461 199.093C83.2011 198.038 84.6321 197.445 86.1241 197.445H194.574C194.05 198.323 193.652 199.269 193.393 200.258H91.7491V205.883H193.393ZM102.999 217.133H86.1241C82.3941 217.133 78.8181 215.651 76.1801 213.014C74.874 211.708 73.838 210.158 73.1311 208.452C72.4243 206.746 72.0604 204.917 72.0604 203.07C72.0604 201.223 72.4243 199.395 73.1311 197.689C73.838 195.983 74.874 194.432 76.1801 193.127C78.8171 190.49 82.3941 189.008 86.1241 189.008H102.999V191.82H86.1241C83.1401 191.82 80.2791 193.006 78.1691 195.115C77.1244 196.159 76.2957 197.4 75.7304 198.765C75.165 200.129 74.874 201.592 74.874 203.07C74.874 204.547 75.165 206.01 75.7304 207.375C76.2957 208.74 77.1244 209.98 78.1691 211.025C79.2138 212.069 80.454 212.898 81.8189 213.463C83.1838 214.029 84.6467 214.32 86.1241 214.32H102.999V217.133V217.133ZM201.437 214.32V217.133H108.624V214.32H201.437ZM201.437 191.82H108.624V189.008H201.437V191.82ZM212.687 180.57V183.383H111.437V180.57H212.687ZM111.437 158.07V155.258H212.687V158.07H111.437V158.07Z" fill="#210047"/>
<defs>
<filter id="filter0_d_1006_407" x="0" y="0" width="282" height="282" filterUnits="userSpaceOnUse" color-interpolation-filters="sRGB">
<feFlood flood-opacity="0" result="BackgroundImageFix"/>
<feColorMatrix in="SourceAlpha" type="matrix" values="0 0 0 0 0 0 0 0 0 0 0 0 0 0 0 0 0 0 127 0" result="hardAlpha"/>
<feOffset dy="4"/>
<feGaussianBlur stdDeviation="3"/>
<feColorMatrix type="matrix" values="0 0 0 0 0 0 0 0 0 0 0 0 0 0 0 0 0 0 0.1 0"/>
<feBlend mode="normal" in2="BackgroundImageFix" result="effect1_dropShadow_1006_407"/>
<feBlend mode="normal" in="SourceGraphic" in2="effect1_dropShadow_1006_407" result="shape"/>
</filter>
<linearGradient id="paint0_linear_1006_407" x1="141" y1="272" x2="141" y2="2" gradientUnits="userSpaceOnUse">
<stop stop-color="#400D79"/>
<stop offset="1" stop-color="#9A42FF"/>
</linearGradient>
</defs>
</svg>
