<svg width="290" height="290" viewBox="0 0 290 290" fill="none" xmlns="http://www.w3.org/2000/svg">
<g opacity="0.75" filter="url(#filter0_d_1006_408)">
<path d="M251 276H31C17.1929 276 6 264.807 6 251V31C6 17.1929 17.1929 6 31 6H251C264.807 6 276 17.1929 276 31V251C276 264.807 264.807 276 251 276Z" fill="url(#paint0_linear_1006_408)"/>
</g>
<path d="M205.119 140.979H205.344C206.057 140.981 206.744 140.712 207.266 140.226C207.788 139.74 208.106 139.075 208.156 138.363C208.353 136.31 208.353 134.594 208.353 132.935V128.323C208.305 127.577 207.962 126.881 207.4 126.388C206.838 125.896 206.104 125.646 205.358 125.694C204.612 125.742 203.916 126.085 203.423 126.647C202.93 127.209 202.68 127.944 202.728 128.69V132.937L202.531 137.971C202.477 138.713 202.719 139.446 203.204 140.01C203.689 140.575 204.377 140.924 205.119 140.981V140.979ZM137.451 203.051L132.417 203.248H129.604V194.81C129.606 194.315 129.477 193.828 129.23 193.398C128.983 192.968 128.627 192.611 128.198 192.364L108.511 181.114C108.084 180.867 107.599 180.737 107.105 180.737C106.611 180.737 106.126 180.867 105.699 181.114C105.278 181.337 104.92 181.662 104.659 182.061C104.398 182.459 104.243 182.917 104.208 183.392L103.083 196.92C99.0288 195.045 95.1589 192.795 91.5241 190.198L90.2301 167.979L103.139 157.629C103.486 157.376 103.771 157.047 103.971 156.666C104.17 156.286 104.28 155.865 104.292 155.435V132.936C104.292 132.266 104.053 131.618 103.617 131.108L88.7951 113.839L103.026 104.333C103.544 103.994 103.935 103.492 104.138 102.908C104.341 102.323 104.346 101.687 104.151 101.099L98.5261 84.2234C98.2862 83.5251 97.7811 82.9492 97.1201 82.6204L88.3451 78.2044C94.1603 73.5138 100.682 69.7738 107.667 67.1234L115.936 80.9324C116.311 81.5638 116.919 82.0233 117.628 82.2124C118.338 82.4016 119.093 82.3054 119.733 81.9444L150.024 64.9004C153.821 65.8904 157.527 67.1984 161.105 68.8094L139.139 85.6864C138.821 85.9295 138.558 86.2378 138.369 86.5907C138.18 86.9435 138.068 87.3327 138.042 87.7322C138.015 88.1316 138.074 88.5322 138.215 88.907C138.356 89.2818 138.575 89.6222 138.858 89.9054L152.527 103.546L131.518 110.549C131.085 110.698 130.694 110.949 130.381 111.283C130.067 111.616 129.84 112.021 129.718 112.462L124.093 132.15C123.9 132.829 123.969 133.556 124.287 134.186C124.605 134.816 125.148 135.304 125.809 135.553L144.99 142.725L124.459 173.662C124.177 174.07 124.008 174.545 123.968 175.038C123.928 175.532 124.02 176.028 124.234 176.475C124.437 176.91 124.748 177.285 125.136 177.566C125.525 177.847 125.98 178.023 126.456 178.078L132.7 178.866H133.066C133.812 178.91 134.545 178.657 135.103 178.161C135.662 177.665 136.002 176.968 136.047 176.222C136.092 175.476 135.838 174.743 135.342 174.184C135.097 173.907 134.799 173.681 134.467 173.52C134.134 173.358 133.772 173.263 133.403 173.241L131.659 173.016L151.628 143.034C151.863 142.683 152.015 142.282 152.073 141.863C152.132 141.444 152.095 141.017 151.966 140.615C151.836 140.212 151.617 139.844 151.324 139.537C151.032 139.23 150.674 138.993 150.278 138.843L130.197 131.334L134.725 115.556L158.631 107.625C159.088 107.474 159.499 107.208 159.823 106.853C160.148 106.498 160.377 106.066 160.487 105.597C160.597 105.129 160.585 104.64 160.452 104.177C160.319 103.715 160.07 103.294 159.728 102.955L145.101 88.3574L166.673 71.7634C171.242 74.2904 175.515 77.3184 179.414 80.7914C179.682 81.0654 180.004 81.2812 180.359 81.4254C180.714 81.5703 181.095 81.6411 181.478 81.6334C181.861 81.6253 182.238 81.5396 182.587 81.3814C182.936 81.2224 183.249 80.9937 183.506 80.7094C183.763 80.4254 183.96 80.0914 184.083 79.7284C184.207 79.3657 184.255 78.9815 184.225 78.5994C184.195 78.2174 184.087 77.8454 183.907 77.5064C183.728 77.1673 183.481 76.8685 183.182 76.6284C178.55 72.4594 173.421 68.8794 167.91 65.9694H167.742C157.544 60.5177 146.236 57.4668 134.68 57.0495C123.124 56.6321 111.626 58.8593 101.061 63.5612C90.497 68.263 81.1458 75.3154 73.7211 84.1804C66.2964 93.0454 60.9943 103.489 58.2191 114.714C55.4441 125.939 55.2691 137.651 57.7091 148.954C60.1484 160.258 65.1365 170.855 72.2931 179.937C79.4501 189.02 88.5867 196.348 99.0061 201.362C109.425 206.376 120.853 208.946 132.416 208.873C134.075 208.873 135.791 208.873 137.872 208.648C138.241 208.621 138.602 208.521 138.932 208.354C139.263 208.187 139.558 207.956 139.799 207.676C140.041 207.395 140.225 207.07 140.341 206.718C140.456 206.366 140.502 205.995 140.474 205.625C140.446 205.256 140.346 204.896 140.179 204.565C140.013 204.234 139.782 203.94 139.501 203.698C139.221 203.457 138.895 203.273 138.543 203.157C138.192 203.041 137.82 202.996 137.451 203.023V203.051V203.051ZM109.551 188.201L123.979 196.442V202.714C118.737 202.102 113.584 200.884 108.623 199.085L109.551 188.201V188.201ZM141.445 63.2704L119.367 75.7014L113.123 65.4354C119.393 63.6065 125.886 62.6601 132.417 62.6234C135.437 62.641 138.453 62.8571 141.445 63.2704V63.2704ZM62.1041 132.936C62.1094 123.471 64.0336 114.104 67.7606 105.403C71.4876 96.7016 76.9399 88.8462 83.7881 82.3114L93.5471 87.2054L98.1311 100.93L83.0561 110.999C82.7247 111.217 82.4432 111.503 82.2301 111.837C82.0165 112.172 81.8764 112.548 81.8191 112.94C81.763 113.335 81.7916 113.738 81.9032 114.121C82.0147 114.504 82.2066 114.859 82.4661 115.162L98.6661 133.978V154.087L85.6721 164.494C85.3174 164.773 85.0351 165.133 84.8491 165.544C84.6632 165.956 84.5789 166.406 84.6031 166.856L85.7001 185.419C78.2884 178.83 72.3541 170.748 68.2871 161.703C64.2201 152.658 62.1131 142.855 62.1031 132.937L62.1041 132.936ZM222.416 82.3114H199.916C191.711 82.3116 183.842 85.5709 178.04 91.3724C172.238 97.1744 168.979 105.043 168.979 113.248V118.873C168.979 119.243 169.051 119.609 169.192 119.95C169.334 120.292 169.541 120.602 169.802 120.863C170.063 121.125 170.374 121.332 170.715 121.473C171.057 121.614 171.423 121.687 171.792 121.686C172.336 121.668 172.864 121.493 173.31 121.18L189.51 110.436H202.729C203.099 110.437 203.465 110.364 203.806 110.223C204.147 110.082 204.458 109.875 204.719 109.613C204.98 109.352 205.188 109.042 205.329 108.7C205.47 108.359 205.542 107.993 205.542 107.623C205.542 106.877 205.245 106.162 204.718 105.634C204.457 105.373 204.147 105.166 203.806 105.024C203.464 104.883 203.098 104.81 202.729 104.81H197.948L209.901 96.8514C210.21 96.6471 210.476 96.3837 210.683 96.0763C210.89 95.769 211.034 95.4237 211.107 95.0604C211.181 94.6974 211.181 94.3234 211.109 93.9594C211.002 93.4151 210.735 92.9147 210.344 92.5215C209.953 92.1282 209.454 91.8595 208.91 91.7494C208.183 91.6024 207.427 91.7474 206.807 92.1544L202.729 94.9674V93.5614C202.729 92.8155 202.432 92.1001 201.905 91.5728C201.377 91.0454 200.662 90.7493 199.916 90.7494C199.17 90.7495 198.455 91.046 197.927 91.5735C197.4 92.101 197.104 92.8165 197.104 93.5624V98.6254L191.479 102.366V99.1884C191.479 98.819 191.407 98.4533 191.265 98.112C191.124 97.7707 190.917 97.4606 190.656 97.1994C190.395 96.9381 190.085 96.7308 189.744 96.5894C189.403 96.4479 189.037 96.375 188.668 96.3749C188.298 96.3748 187.932 96.4474 187.591 96.5886C187.25 96.7298 186.94 96.9369 186.679 97.1979C186.417 97.459 186.21 97.769 186.069 98.1102C185.927 98.4513 185.854 98.817 185.854 99.1864V106.105L174.604 113.614V113.248C174.604 106.535 177.271 100.097 182.018 95.3494C184.368 92.9988 187.159 91.1343 190.23 89.8622C193.301 88.5901 196.592 87.9354 199.916 87.9354H219.604V90.7484C219.604 97.4614 216.937 103.899 212.19 108.647C209.84 110.998 207.049 112.862 203.978 114.135C200.908 115.407 197.616 116.061 194.292 116.061H191.479C191.11 116.061 190.744 116.133 190.402 116.275C190.061 116.416 189.75 116.623 189.489 116.884C189.228 117.146 189.021 117.456 188.879 117.797C188.738 118.139 188.666 118.505 188.666 118.874C188.666 119.62 188.963 120.335 189.49 120.863C189.751 121.125 190.061 121.332 190.403 121.473C190.744 121.615 191.11 121.688 191.479 121.687H194.292C198.355 121.687 202.378 120.887 206.131 119.332C213.711 116.191 219.733 110.169 222.874 102.589C224.429 98.8354 225.229 94.8134 225.229 90.7504V85.1234C225.229 84.754 225.157 84.3881 225.015 84.0467C224.874 83.7054 224.667 83.3952 224.406 83.1341C224.144 82.8729 223.834 82.6658 223.493 82.5246C223.151 82.3835 222.785 82.311 222.416 82.3114V82.3114ZM183.041 141.373C173.909 141.347 165.019 144.31 157.729 149.811C157.433 150.033 157.184 150.31 156.996 150.628C156.808 150.946 156.684 151.298 156.632 151.664C156.58 152.029 156.6 152.402 156.692 152.759C156.784 153.117 156.945 153.453 157.166 153.748C157.388 154.044 157.665 154.293 157.983 154.481C158.301 154.669 158.653 154.793 159.019 154.845C159.385 154.897 159.757 154.877 160.114 154.785C160.472 154.693 160.808 154.532 161.104 154.311C167.421 149.542 175.126 146.974 183.041 146.998C190.272 146.998 197.341 149.143 203.354 153.16C209.367 157.178 214.053 162.889 216.821 169.569C219.588 176.25 220.312 183.601 218.901 190.694C217.491 197.787 214.008 204.302 208.895 209.415C203.782 214.529 197.267 218.011 190.174 219.421C183.082 220.831 175.731 220.107 169.05 217.34C162.369 214.573 156.658 209.887 152.641 203.874C148.623 197.862 146.479 190.793 146.479 183.561C146.473 175.674 149.04 168.002 153.791 161.708C154.019 161.412 154.185 161.075 154.282 160.715C154.379 160.355 154.404 159.98 154.356 159.61C154.307 159.24 154.187 158.884 154 158.561C153.624 157.909 153.005 157.433 152.278 157.237C151.919 157.14 151.543 157.116 151.174 157.164C150.804 157.212 150.448 157.333 150.125 157.519C149.802 157.705 149.519 157.953 149.292 158.248C143.59 165.851 140.622 175.157 140.869 184.657C141.116 194.158 144.563 203.296 150.652 210.592C156.741 217.889 165.116 222.916 174.419 224.858C183.722 226.8 193.408 225.545 201.908 221.294C208.256 218.119 213.701 213.394 217.738 207.556C221.775 201.718 224.274 194.955 225.003 187.895C225.732 180.835 224.668 173.704 221.91 167.164C219.151 160.624 214.787 154.886 209.222 150.48C201.77 144.582 192.545 141.373 183.041 141.373ZM194.573 155.801C194.36 155.497 194.089 155.238 193.775 155.039C193.461 154.84 193.111 154.706 192.745 154.643C192.379 154.58 192.004 154.591 191.642 154.673C191.28 154.756 190.938 154.91 190.636 155.126L181.439 161.567C180.828 161.993 180.411 162.644 180.279 163.376C180.148 164.109 180.312 164.864 180.736 165.476L187.177 174.701C187.435 175.074 187.78 175.379 188.182 175.589C188.583 175.8 189.03 175.91 189.483 175.91C190.066 175.915 190.636 175.738 191.114 175.404C191.418 175.191 191.677 174.92 191.876 174.606C192.075 174.292 192.209 173.942 192.272 173.576C192.335 173.21 192.324 172.835 192.242 172.473C192.159 172.111 192.005 171.769 191.789 171.467L189.286 167.895C192.421 169.144 195.11 171.304 197.005 174.096C198.9 176.889 199.915 180.185 199.917 183.56C199.917 183.93 199.99 184.296 200.131 184.637C200.272 184.978 200.48 185.288 200.741 185.549C201.268 186.076 201.984 186.373 202.73 186.373C203.1 186.374 203.465 186.301 203.807 186.16C204.148 186.018 204.458 185.811 204.719 185.55C204.981 185.289 205.188 184.979 205.329 184.637C205.47 184.296 205.542 183.93 205.542 183.56C205.537 178.858 204.058 174.275 201.314 170.456C198.569 166.638 194.697 163.776 190.242 162.27L193.87 159.71C194.481 159.285 194.899 158.634 195.031 157.901C195.162 157.168 194.998 156.413 194.573 155.801ZM153.257 187.47C152.94 188.145 152.905 188.918 153.158 189.62C153.283 189.968 153.476 190.287 153.724 190.56C153.973 190.833 154.273 191.054 154.607 191.211L164.789 195.964C165.17 196.131 165.582 196.217 165.998 196.217C166.531 196.212 167.052 196.057 167.499 195.768C167.947 195.479 168.304 195.07 168.529 194.586L173.282 184.404C173.573 183.739 173.596 182.986 173.344 182.304C173.092 181.623 172.586 181.065 171.932 180.748C171.598 180.591 171.236 180.502 170.867 180.484C170.498 180.467 170.13 180.523 169.782 180.648C169.435 180.774 169.116 180.966 168.843 181.215C168.57 181.464 168.349 181.764 168.192 182.098L166.364 186.064C166.238 185.236 166.172 184.399 166.167 183.561C166.17 180.601 166.951 177.695 168.432 175.133C169.913 172.571 172.041 170.444 174.604 168.964C174.94 168.788 175.237 168.546 175.477 168.252C175.718 167.959 175.896 167.62 176.002 167.255C176.107 166.891 176.138 166.509 176.093 166.132C176.047 165.756 175.925 165.393 175.736 165.064C175.546 164.736 175.291 164.45 174.988 164.222C174.531 163.879 173.98 163.683 173.409 163.661C172.838 163.639 172.274 163.792 171.792 164.098C168.375 166.071 165.537 168.908 163.562 172.324C161.587 175.74 160.546 179.615 160.542 183.561C160.554 185.046 160.724 186.526 161.048 187.976L156.998 186.092C156.662 185.936 156.298 185.848 155.928 185.833C155.558 185.818 155.189 185.876 154.841 186.004C154.493 186.132 154.175 186.328 153.903 186.579C153.631 186.831 153.411 187.134 153.257 187.47V187.47ZM170.779 199.198C170.41 199.841 170.309 200.603 170.498 201.319C170.688 202.036 171.152 202.648 171.791 203.023C175.857 205.404 180.573 206.437 185.262 205.972C189.951 205.507 194.371 203.569 197.891 200.436L198.285 204.908C198.348 205.61 198.672 206.262 199.193 206.735C199.714 207.208 200.393 207.47 201.097 207.467H201.35C202.092 207.403 202.778 207.047 203.258 206.477C203.738 205.908 203.972 205.171 203.91 204.429L202.925 193.179C202.868 192.438 202.519 191.749 201.955 191.264C201.391 190.78 200.658 190.538 199.916 190.592L188.666 191.576C188.296 191.608 187.936 191.713 187.607 191.884C187.278 192.056 186.986 192.291 186.748 192.576C186.51 192.861 186.331 193.19 186.221 193.545C186.086 193.985 186.06 194.451 186.147 194.903C186.233 195.355 186.43 195.778 186.718 196.136C187.007 196.495 187.379 196.777 187.802 196.957C188.225 197.138 188.686 197.212 189.144 197.173L193.475 196.808C190.827 198.887 187.618 200.126 184.26 200.366C180.902 200.607 177.549 199.838 174.632 198.158C174.31 197.972 173.956 197.851 173.588 197.803C173.221 197.754 172.847 197.779 172.489 197.876C172.13 197.973 171.795 198.139 171.501 198.366C171.208 198.593 170.962 198.876 170.779 199.198V199.198Z" fill="#005424"/>
<defs>
<filter id="filter0_d_1006_408" x="0" y="0" width="290" height="290" filterUnits="userSpaceOnUse" color-interpolation-filters="sRGB">
<feFlood flood-opacity="0" result="BackgroundImageFix"/>
<feColorMatrix in="SourceAlpha" type="matrix" values="0 0 0 0 0 0 0 0 0 0 0 0 0 0 0 0 0 0 127 0" result="hardAlpha"/>
<feOffset dx="4" dy="4"/>
<feGaussianBlur stdDeviation="5"/>
<feColorMatrix type="matrix" values="0 0 0 0 0 0 0 0 0 0 0 0 0 0 0 0 0 0 0.1 0"/>
<feBlend mode="normal" in2="BackgroundImageFix" result="effect1_dropShadow_1006_408"/>
<feBlend mode="normal" in="SourceGraphic" in2="effect1_dropShadow_1006_408" result="shape"/>
</filter>
<linearGradient id="paint0_linear_1006_408" x1="141" y1="276" x2="141" y2="6" gradientUnits="userSpaceOnUse">
<stop stop-color="#07A249"/>
<stop offset="1" stop-color="#49FD96"/>
</linearGradient>
</defs>
</svg>
