<svg width="292" height="292" viewBox="0 0 292 292" fill="none" xmlns="http://www.w3.org/2000/svg">
<g filter="url(#filter0_d_975_9)">
<rect x="3.75" y="-3.75" width="262.5" height="262.5" rx="21.25" transform="matrix(1 0 0 -1 11 269.5)" stroke="url(#paint0_linear_975_9)" stroke-width="7.5" shape-rendering="crispEdges"/>
</g>
<path d="M199.555 141.672H199.743C200.337 141.673 200.909 141.449 201.344 141.045C201.78 140.64 202.045 140.085 202.086 139.492C202.25 137.781 202.25 136.352 202.25 134.969C202.25 133.586 202.25 132.391 202.25 131.125C202.21 130.503 201.924 129.923 201.456 129.512C200.988 129.101 200.376 128.893 199.754 128.934C199.133 128.974 198.553 129.26 198.142 129.728C197.731 130.196 197.522 130.808 197.563 131.43C197.563 132.602 197.563 133.773 197.563 134.969C197.563 136.164 197.563 137.781 197.399 139.164C197.354 139.782 197.555 140.393 197.959 140.863C198.363 141.333 198.937 141.624 199.555 141.672Z" fill="white"/>
<path d="M143.165 193.399C141.571 193.399 140.235 193.563 138.969 193.563C138.172 193.563 137.399 193.563 136.626 193.563V186.531C136.627 186.118 136.52 185.712 136.314 185.354C136.108 184.996 135.811 184.699 135.454 184.492L119.047 175.117C118.691 174.912 118.287 174.803 117.876 174.803C117.464 174.803 117.06 174.912 116.704 175.117C116.353 175.303 116.055 175.574 115.837 175.906C115.62 176.238 115.491 176.62 115.461 177.016L114.524 188.289C111.145 186.727 107.92 184.851 104.891 182.688L103.813 164.172L114.571 155.547C114.86 155.336 115.097 155.061 115.263 154.745C115.43 154.428 115.522 154.077 115.532 153.719V134.969C115.532 134.41 115.332 133.87 114.969 133.446L102.618 119.055L114.477 111.133C114.908 110.85 115.234 110.432 115.403 109.945C115.573 109.457 115.577 108.928 115.415 108.438L110.727 94.3752C110.527 93.7933 110.106 93.3135 109.555 93.0393L102.243 89.3596C107.089 85.4507 112.523 82.334 118.344 80.1252L125.235 91.633C125.442 91.9829 125.737 92.2729 126.091 92.4742C126.444 92.6755 126.844 92.7815 127.251 92.7815C127.653 92.7803 128.049 92.6753 128.399 92.4768L153.641 78.2736C156.805 79.099 159.894 80.1887 162.876 81.5315L144.571 95.594C144.305 95.7974 144.086 96.0552 143.928 96.3505C143.771 96.6456 143.678 96.9709 143.657 97.3049C143.635 97.6368 143.685 97.9691 143.802 98.2804C143.92 98.5916 144.102 98.8743 144.336 99.1096L155.727 110.477L138.219 116.313C137.858 116.436 137.533 116.646 137.272 116.924C137.01 117.201 136.821 117.539 136.719 117.906L132.032 134.313C131.871 134.878 131.928 135.484 132.193 136.01C132.458 136.535 132.911 136.942 133.461 137.149L149.446 143.125L132.336 168.906C132.102 169.246 131.961 169.641 131.927 170.053C131.895 170.465 131.971 170.878 132.149 171.25C132.318 171.612 132.577 171.925 132.901 172.159C133.225 172.393 133.603 172.54 134.001 172.586L139.204 173.242H139.508C140.13 173.28 140.741 173.068 141.207 172.655C141.673 172.242 141.955 171.661 141.993 171.039C142.03 170.418 141.819 169.807 141.406 169.341C140.992 168.875 140.411 168.592 139.79 168.555L138.336 168.367L154.977 143.383C155.173 143.09 155.299 142.756 155.348 142.407C155.397 142.058 155.366 141.703 155.258 141.367C155.15 141.031 154.968 140.724 154.724 140.468C154.481 140.212 154.183 140.015 153.852 139.891L137.118 133.633L140.891 120.485L160.813 113.875C161.194 113.749 161.536 113.528 161.807 113.232C162.077 112.937 162.268 112.576 162.359 112.186C162.451 111.795 162.441 111.388 162.33 111.003C162.22 110.617 162.012 110.267 161.727 109.985L149.54 97.8205L167.516 83.9924C171.324 86.0982 174.885 88.6216 178.133 91.5158C178.357 91.7439 178.625 91.9239 178.921 92.0446C179.217 92.1653 179.534 92.2241 179.853 92.2178C180.173 92.2115 180.487 92.1397 180.778 92.0073C181.069 91.8749 181.33 91.6843 181.544 91.4476C181.758 91.2107 181.922 90.9327 182.025 90.6301C182.128 90.3278 182.168 90.0075 182.143 89.6891C182.117 89.3706 182.027 89.0607 181.878 88.7783C181.729 88.496 181.523 88.2471 181.274 88.0471C177.414 84.5731 173.139 81.5896 168.547 79.1643H168.407C159.909 74.6209 150.486 72.0782 140.856 71.7302C131.226 71.3822 121.643 73.2381 112.84 77.1563C104.036 81.0745 96.2432 86.9515 90.0561 94.3391C83.8689 101.727 79.4506 110.43 77.1382 119.785C74.8257 129.139 74.6802 138.898 76.7128 148.318C78.7453 157.737 82.9022 166.568 88.8664 174.137C94.8306 181.706 102.445 187.813 111.127 191.991C119.811 196.17 129.333 198.311 138.969 198.25C140.352 198.25 141.782 198.25 143.516 198.063C144.138 198.016 144.715 197.725 145.122 197.252C145.528 196.78 145.731 196.165 145.684 195.543C145.637 194.922 145.346 194.344 144.873 193.937C144.401 193.531 143.786 193.329 143.165 193.375V193.399ZM119.915 181.024L131.938 187.891V193.117C127.57 192.607 123.276 191.593 119.141 190.094L119.915 181.024ZM146.493 76.9143L128.094 87.2736L122.891 78.719C128.116 77.1948 133.527 76.406 138.969 76.3752C141.486 76.3898 143.999 76.5699 146.493 76.9143ZM80.3755 134.969C80.38 127.081 81.9837 119.275 85.0895 112.024C88.1954 104.773 92.739 98.2272 98.4458 92.7815L106.579 96.8596L110.399 108.297L97.8365 116.688C97.5601 116.869 97.3255 117.107 97.1479 117.386C96.97 117.665 96.8533 117.978 96.8052 118.305C96.7586 118.634 96.7825 118.969 96.8755 119.289C96.9683 119.608 97.1282 119.904 97.3443 120.156L110.844 135.836V152.594L100.016 161.266C99.7206 161.499 99.4853 161.799 99.3304 162.141C99.1755 162.484 99.1051 162.859 99.1255 163.235L100.04 178.703C93.863 173.213 88.9178 166.477 85.5288 158.94C82.1398 151.402 80.3836 143.233 80.3755 134.969Z" fill="white"/>
<path d="M213.969 92.7812H195.219C188.381 92.7812 181.824 95.4974 176.989 100.332C172.154 105.167 169.438 111.725 169.438 118.562V123.25C169.438 123.872 169.685 124.468 170.124 124.907C170.563 125.347 171.16 125.594 171.781 125.594C172.235 125.579 172.675 125.432 173.047 125.172L186.547 116.219H197.562C198.184 116.219 198.78 115.972 199.22 115.532C199.659 115.093 199.906 114.497 199.906 113.875C199.906 113.253 199.659 112.657 199.22 112.218C198.78 111.778 198.184 111.531 197.562 111.531H193.578L203.539 104.898C203.797 104.728 204.018 104.509 204.191 104.252C204.363 103.996 204.483 103.709 204.544 103.406C204.605 103.103 204.606 102.791 204.546 102.488C204.486 102.186 204.367 101.897 204.195 101.641C203.852 101.127 203.319 100.77 202.713 100.647C202.108 100.524 201.478 100.645 200.961 100.984L197.562 103.328V102.156C197.562 101.535 197.315 100.938 196.876 100.499C196.437 100.06 195.84 99.8125 195.219 99.8125C194.597 99.8125 194.001 100.06 193.561 100.499C193.122 100.938 192.875 101.535 192.875 102.156V106.375L188.188 109.492V106.844C188.188 106.222 187.94 105.626 187.501 105.186C187.062 104.747 186.465 104.5 185.844 104.5C185.222 104.5 184.626 104.747 184.186 105.186C183.747 105.626 183.5 106.222 183.5 106.844V112.609L174.125 118.867V118.562C174.125 112.968 176.347 107.603 180.303 103.647C184.259 99.6911 189.624 97.4688 195.219 97.4688H211.625V99.8125C211.625 105.407 209.403 110.772 205.447 114.728C201.491 118.684 196.126 120.906 190.531 120.906H188.188C187.566 120.906 186.97 121.153 186.53 121.593C186.091 122.032 185.844 122.628 185.844 123.25C185.844 123.872 186.091 124.468 186.53 124.907C186.97 125.347 187.566 125.594 188.188 125.594H190.531C193.917 125.594 197.269 124.927 200.397 123.631C203.525 122.336 206.367 120.437 208.761 118.043C211.155 115.649 213.054 112.806 214.35 109.679C215.646 106.551 216.312 103.198 216.312 99.8125V95.125C216.312 94.5034 216.065 93.9072 215.626 93.4677C215.187 93.0283 214.59 92.7812 213.969 92.7812Z" fill="white"/>
<path d="M181.156 142C173.546 141.978 166.137 144.447 160.062 149.031C159.816 149.216 159.609 149.447 159.452 149.712C159.295 149.977 159.192 150.27 159.149 150.575C159.105 150.88 159.122 151.19 159.198 151.488C159.275 151.786 159.409 152.066 159.594 152.313C159.778 152.559 160.01 152.766 160.275 152.923C160.539 153.08 160.833 153.183 161.137 153.227C161.442 153.27 161.752 153.253 162.05 153.177C162.349 153.1 162.629 152.966 162.875 152.781C168.139 148.808 174.56 146.667 181.156 146.688C187.182 146.688 193.073 148.475 198.084 151.823C203.094 155.171 207 159.929 209.306 165.496C211.612 171.064 212.215 177.19 211.039 183.101C209.864 189.011 206.962 194.44 202.701 198.701C198.44 202.962 193.011 205.864 187.1 207.04C181.19 208.215 175.064 207.612 169.496 205.306C163.929 203 159.17 199.095 155.822 194.084C152.474 189.073 150.687 183.183 150.687 177.156C150.682 170.585 152.822 164.191 156.781 158.945C156.971 158.699 157.109 158.418 157.19 158.118C157.271 157.818 157.291 157.505 157.251 157.197C157.211 156.89 157.11 156.593 156.955 156.324C156.8 156.054 156.594 155.818 156.348 155.629C156.101 155.44 155.82 155.301 155.52 155.22C155.22 155.139 154.908 155.119 154.6 155.159C154.292 155.199 153.995 155.3 153.726 155.455C153.456 155.61 153.221 155.816 153.031 156.063C148.279 162.398 145.806 170.153 146.012 178.07C146.218 185.987 149.09 193.602 154.165 199.683C159.239 205.763 166.218 209.952 173.971 211.571C181.723 213.189 189.795 212.143 196.879 208.601C203.962 205.059 209.642 199.23 212.999 192.057C216.355 184.883 217.192 176.787 215.372 169.079C213.552 161.371 209.184 154.504 202.974 149.589C196.763 144.674 189.076 142 181.156 142Z" fill="white"/>
<path d="M190.765 154.024C190.588 153.77 190.361 153.554 190.1 153.389C189.839 153.223 189.547 153.111 189.242 153.059C188.937 153.006 188.624 153.015 188.323 153.084C188.021 153.153 187.736 153.281 187.484 153.461L179.82 158.828C179.311 159.183 178.963 159.726 178.853 160.336C178.744 160.947 178.88 161.576 179.234 162.086L184.601 169.774C184.817 170.084 185.104 170.338 185.438 170.513C185.773 170.689 186.145 170.781 186.523 170.781C187.009 170.785 187.484 170.638 187.882 170.36C188.136 170.182 188.352 169.956 188.517 169.694C188.683 169.433 188.795 169.141 188.847 168.836C188.9 168.531 188.891 168.219 188.822 167.917C188.753 167.615 188.625 167.33 188.445 167.078L186.359 164.102C188.972 165.142 191.212 166.943 192.792 169.27C194.371 171.597 195.216 174.344 195.218 177.156C195.218 177.778 195.465 178.374 195.905 178.814C196.344 179.253 196.94 179.5 197.562 179.5C198.184 179.5 198.78 179.253 199.219 178.814C199.659 178.374 199.906 177.778 199.906 177.156C199.901 173.238 198.669 169.419 196.382 166.236C194.095 163.054 190.869 160.668 187.156 159.414L190.179 157.281C190.688 156.927 191.036 156.385 191.146 155.774C191.256 155.163 191.119 154.534 190.765 154.024Z" fill="white"/>
<path d="M156.335 180.414C156.071 180.977 156.042 181.621 156.252 182.206C156.463 182.79 156.898 183.267 157.46 183.531L165.945 187.492C166.263 187.632 166.606 187.703 166.953 187.703C167.397 187.7 167.831 187.57 168.205 187.33C168.578 187.089 168.875 186.747 169.062 186.344L173.023 177.859C173.265 177.305 173.284 176.678 173.074 176.11C172.864 175.542 172.443 175.077 171.898 174.813C171.335 174.548 170.691 174.519 170.106 174.73C169.522 174.941 169.045 175.375 168.781 175.938L167.257 179.242C167.153 178.552 167.098 177.855 167.093 177.156C167.096 174.69 167.747 172.268 168.981 170.133C170.215 167.998 171.989 166.225 174.124 164.992C174.405 164.846 174.652 164.644 174.852 164.4C175.052 164.155 175.201 163.872 175.289 163.568C175.377 163.265 175.403 162.947 175.365 162.633C175.327 162.319 175.226 162.016 175.067 161.743C174.909 161.469 174.697 161.23 174.444 161.041C174.191 160.851 173.903 160.714 173.596 160.639C173.289 160.564 172.97 160.552 172.658 160.603C172.346 160.654 172.047 160.768 171.781 160.938C168.933 162.582 166.568 164.946 164.923 167.792C163.277 170.639 162.409 173.868 162.406 177.156C162.416 178.394 162.557 179.628 162.828 180.836L159.453 179.266C159.173 179.136 158.87 179.062 158.561 179.05C158.253 179.037 157.945 179.085 157.655 179.192C157.366 179.299 157.1 179.462 156.874 179.672C156.647 179.881 156.464 180.134 156.335 180.414Z" fill="white"/>
<path d="M170.938 190.187C170.631 190.723 170.547 191.358 170.705 191.955C170.863 192.552 171.25 193.062 171.782 193.375C175.171 195.359 179.1 196.219 183.008 195.832C186.915 195.444 190.599 193.83 193.532 191.219L193.86 194.945C193.913 195.53 194.183 196.073 194.617 196.468C195.051 196.863 195.617 197.08 196.204 197.078H196.415C197.033 197.024 197.605 196.728 198.005 196.253C198.404 195.779 198.6 195.165 198.548 194.547L197.727 185.172C197.679 184.554 197.389 183.98 196.919 183.576C196.449 183.172 195.838 182.97 195.22 183.016L185.845 183.836C185.536 183.862 185.236 183.95 184.962 184.092C184.688 184.235 184.444 184.431 184.246 184.669C184.048 184.906 183.898 185.181 183.807 185.476C183.715 185.772 183.683 186.083 183.712 186.391C183.771 187.004 184.07 187.57 184.544 187.965C185.018 188.36 185.628 188.552 186.243 188.5L189.852 188.195C187.646 189.928 184.971 190.961 182.173 191.161C179.375 191.362 176.58 190.721 174.149 189.32C173.882 189.165 173.586 189.065 173.28 189.024C172.973 188.984 172.662 189.005 172.363 189.086C172.065 189.166 171.785 189.305 171.541 189.494C171.296 189.683 171.091 189.919 170.938 190.187Z" fill="white"/>
<defs>
<filter id="filter0_d_975_9" x="0" y="0" width="292" height="292" filterUnits="userSpaceOnUse" color-interpolation-filters="sRGB">
<feFlood flood-opacity="0" result="BackgroundImageFix"/>
<feColorMatrix in="SourceAlpha" type="matrix" values="0 0 0 0 0 0 0 0 0 0 0 0 0 0 0 0 0 0 127 0" result="hardAlpha"/>
<feMorphology radius="5" operator="dilate" in="SourceAlpha" result="effect1_dropShadow_975_9"/>
<feOffset dy="4"/>
<feGaussianBlur stdDeviation="3"/>
<feComposite in2="hardAlpha" operator="out"/>
<feColorMatrix type="matrix" values="0 0 0 0 0 0 0 0 0 0 0 0 0 0 0 0 0 0 0.1 0"/>
<feBlend mode="normal" in2="BackgroundImageFix" result="effect1_dropShadow_975_9"/>
<feBlend mode="normal" in="SourceGraphic" in2="effect1_dropShadow_975_9" result="shape"/>
</filter>
<linearGradient id="paint0_linear_975_9" x1="135" y1="0" x2="135" y2="270" gradientUnits="userSpaceOnUse">
<stop stop-color="#370372"/>
<stop offset="1" stop-color="#08A6A9"/>
</linearGradient>
</defs>
</svg>
