<?xml version="1.0" encoding="UTF-8" standalone="no"?> <svg width="64" height="64" viewBox="0 0 64 64" fill="none" xmlns="http://www.w3.org/2000/svg">
<path d="M54.85 31.86H54.93C55.1835 31.8606 55.4278 31.7649 55.6134 31.5923C55.7991 31.4196 55.9122 31.1829 55.93 30.93C56 30.2 56 29.59 56 29C56 28.41 56 27.9 56 27.36C55.9827 27.0948 55.8608 26.8473 55.6611 26.6719C55.4614 26.4966 55.2002 26.4078 54.935 26.425C54.6698 26.4422 54.4223 26.5641 54.2469 26.7638C54.0716 26.9636 53.9827 27.2248 54 27.49C54 27.99 54 28.49 54 29C54 29.51 54 30.2 53.93 30.79C53.9107 31.0538 53.9966 31.3144 54.1691 31.5149C54.3415 31.7155 54.5863 31.8395 54.85 31.86Z" fill="black"/>
<path d="M30.79 53.93C30.11 53.93 29.54 54 29 54C28.66 54 28.33 54 28 54V51C28.0007 50.8238 27.9548 50.6505 27.867 50.4977C27.7792 50.345 27.6526 50.2181 27.5 50.13L20.5 46.13C20.348 46.0422 20.1755 45.996 20 45.996C19.8244 45.996 19.652 46.0422 19.5 46.13C19.3503 46.2091 19.2231 46.3249 19.1304 46.4666C19.0377 46.6083 18.9825 46.7712 18.97 46.94L18.57 51.75C17.1284 51.0833 15.7524 50.2831 14.46 49.36L14 41.46L18.59 37.78C18.7134 37.6899 18.8145 37.5728 18.8855 37.4376C18.9566 37.3024 18.9958 37.1527 19 37V29C19 28.7617 18.9149 28.5311 18.76 28.35L13.49 22.21L18.55 18.83C18.7339 18.7091 18.8729 18.5308 18.9452 18.3229C19.0175 18.115 19.0192 17.889 18.95 17.68L16.95 11.68C16.8646 11.4317 16.685 11.227 16.45 11.11L13.33 9.54C15.3976 7.87223 17.7164 6.54243 20.2 5.6L23.14 10.51C23.2285 10.6593 23.3543 10.783 23.5051 10.8689C23.6559 10.9548 23.8264 11 24 11C24.1718 10.9995 24.3405 10.9547 24.49 10.87L35.26 4.81C36.6099 5.16214 37.9279 5.62711 39.2 6.2L31.39 12.2C31.2766 12.2868 31.1832 12.3968 31.1159 12.5228C31.0486 12.6487 31.0091 12.7875 31 12.93C30.9909 13.0716 31.0121 13.2134 31.0621 13.3462C31.1121 13.479 31.1898 13.5996 31.29 13.7L36.15 18.55L28.68 21.04C28.526 21.0927 28.3873 21.1822 28.2757 21.3007C28.1642 21.4192 28.0833 21.5631 28.04 21.72L26.04 28.72C25.9712 28.9614 25.9958 29.2199 26.1088 29.4441C26.2218 29.6682 26.415 29.8417 26.65 29.93L33.47 32.48L26.17 43.48C26.0698 43.6249 26.0096 43.7936 25.9955 43.9692C25.9815 44.1448 26.0141 44.321 26.09 44.48C26.1622 44.6345 26.2726 44.7679 26.4109 44.8677C26.5492 44.9675 26.7106 45.0302 26.88 45.05L29.1 45.33H29.23C29.4952 45.3459 29.7559 45.2558 29.9547 45.0795C30.1535 44.9032 30.2741 44.6552 30.29 44.39C30.3059 44.1248 30.2158 43.8641 30.0395 43.6653C29.8632 43.4665 29.6152 43.3459 29.35 43.33L28.73 43.25L35.83 32.59C35.9134 32.4649 35.9674 32.3226 35.9882 32.1737C36.009 32.0248 35.9959 31.8731 35.95 31.73C35.9039 31.5866 35.826 31.4554 35.7221 31.3463C35.6182 31.2372 35.491 31.153 35.35 31.1L28.21 28.43L29.82 22.82L38.32 20C38.4824 19.9463 38.6284 19.8519 38.7439 19.7257C38.8594 19.5995 38.9406 19.4457 38.9798 19.2792C39.0189 19.1126 39.0146 18.9388 38.9674 18.7744C38.9202 18.61 38.8315 18.4604 38.71 18.34L33.51 13.15L41.18 7.25C42.8045 8.14849 44.3239 9.22513 45.71 10.46C45.8054 10.5573 45.9198 10.6341 46.046 10.6856C46.1722 10.7371 46.3076 10.7622 46.4439 10.7595C46.5801 10.7568 46.7144 10.7262 46.8384 10.6697C46.9625 10.6132 47.0737 10.5319 47.1651 10.4309C47.2566 10.3298 47.3265 10.2112 47.3704 10.0821C47.4144 9.95311 47.4315 9.81646 47.4207 9.68059C47.4099 9.54471 47.3715 9.41247 47.3077 9.29199C47.244 9.17152 47.1563 9.06534 47.05 8.98C45.403 7.49778 43.5792 6.22479 41.62 5.19H41.56C37.9342 3.25148 33.9136 2.16662 29.8048 2.01815C25.696 1.86967 21.6076 2.66152 17.8513 4.33328C14.0951 6.00505 10.7702 8.51257 8.13036 11.6646C5.4905 14.8167 3.60536 18.5299 2.61872 22.5213C1.63208 26.5126 1.57 30.6766 2.43722 34.6955C3.30443 38.7145 5.07804 42.4824 7.62276 45.7117C10.1675 48.941 13.4161 51.5466 17.1208 53.3296C20.8256 55.1125 24.8886 56.0259 29 56C29.59 56 30.2 56 30.94 55.92C31.2052 55.9001 31.4517 55.7757 31.6251 55.5741C31.7986 55.3725 31.8849 55.1102 31.865 54.845C31.8451 54.5798 31.7207 54.3333 31.5191 54.1599C31.3175 53.9864 31.0552 53.9001 30.79 53.92V53.93ZM20.87 48.65L26 51.58V53.81C24.1363 53.5924 22.304 53.1595 20.54 52.52L20.87 48.65ZM32.21 4.23L24.36 8.65L22.14 5C24.3691 4.3497 26.678 4.01313 29 4C30.0739 4.00623 31.1462 4.08306 32.21 4.23V4.23ZM3.99999 29C4.00192 25.6344 4.68613 22.3041 6.0113 19.2103C7.33646 16.1165 9.27507 13.3235 11.71 11L15.18 12.74L16.81 17.62L11.45 21.2C11.3321 21.2775 11.232 21.379 11.1562 21.4979C11.0803 21.6168 11.0305 21.7505 11.01 21.89C10.9901 22.0305 11.0003 22.1735 11.04 22.3098C11.0796 22.446 11.1478 22.5722 11.24 22.68L17 29.37V36.52L12.38 40.22C12.2539 40.3193 12.1535 40.4474 12.0874 40.5936C12.0213 40.7398 11.9913 40.8998 12 41.06L12.39 47.66C9.75466 45.3173 7.64472 42.4435 6.19874 39.2276C4.75275 36.0116 4.00343 32.5261 3.99999 29V29Z" fill="black"/>
<path d="M61 11H53C50.0826 11 47.2847 12.1589 45.2218 14.2218C43.1589 16.2847 42 19.0826 42 22V24C42 24.2652 42.1054 24.5196 42.2929 24.7071C42.4804 24.8946 42.7348 25 43 25C43.1936 24.9936 43.3812 24.931 43.54 24.82V24.82L49.3 21H54C54.2652 21 54.5196 20.8946 54.7071 20.7071C54.8946 20.5196 55 20.2652 55 20C55 19.7348 54.8946 19.4804 54.7071 19.2929C54.5196 19.1054 54.2652 19 54 19H52.3L56.55 16.17C56.6599 16.0974 56.7544 16.0037 56.828 15.8944C56.9016 15.7851 56.9529 15.6624 56.9789 15.5332C57.005 15.404 57.0052 15.271 56.9796 15.1417C56.9541 15.0125 56.9032 14.8895 56.83 14.78C56.6834 14.5608 56.4561 14.4084 56.1976 14.3559C55.9392 14.3035 55.6705 14.3553 55.45 14.5L54 15.5V15C54 14.7348 53.8946 14.4804 53.7071 14.2929C53.5196 14.1054 53.2652 14 53 14C52.7348 14 52.4804 14.1054 52.2929 14.2929C52.1054 14.4804 52 14.7348 52 15V16.8L50 18.13V17C50 16.7348 49.8946 16.4804 49.7071 16.2929C49.5196 16.1054 49.2652 16 49 16C48.7348 16 48.4804 16.1054 48.2929 16.2929C48.1054 16.4804 48 16.7348 48 17V19.46L44 22.13V22C44 19.6131 44.9482 17.3239 46.636 15.636C48.3239 13.9482 50.6131 13 53 13H60V14C60 16.3869 59.0518 18.6761 57.364 20.364C55.6761 22.0518 53.3869 23 51 23H50C49.7348 23 49.4804 23.1054 49.2929 23.2929C49.1054 23.4804 49 23.7348 49 24C49 24.2652 49.1054 24.5196 49.2929 24.7071C49.4804 24.8946 49.7348 25 50 25H51C52.4445 25 53.8749 24.7155 55.2095 24.1627C56.5441 23.6099 57.7567 22.7996 58.7782 21.7782C59.7996 20.7567 60.6099 19.5441 61.1627 18.2095C61.7155 16.8749 62 15.4445 62 14V12C62 11.7348 61.8946 11.4804 61.7071 11.2929C61.5196 11.1054 61.2652 11 61 11Z" fill="black"/>
<path d="M47 32C43.7529 31.9905 40.592 33.0442 38 35C37.8949 35.0788 37.8064 35.1775 37.7395 35.2905C37.6726 35.4035 37.6286 35.5286 37.6101 35.6586C37.5915 35.7886 37.5987 35.921 37.6313 36.0482C37.6639 36.1754 37.7212 36.2949 37.8 36.4C37.8788 36.5051 37.9775 36.5936 38.0905 36.6605C38.2035 36.7274 38.3286 36.7714 38.4586 36.79C38.5886 36.8085 38.721 36.8013 38.8482 36.7687C38.9754 36.7361 39.0949 36.6788 39.2 36.6C41.4461 34.9045 44.1858 33.9913 47 34C49.5712 34 52.0846 34.7624 54.2224 36.1909C56.3603 37.6194 58.0265 39.6497 59.0104 42.0251C59.9944 44.4006 60.2518 47.0144 59.7502 49.5362C59.2486 52.0579 58.0105 54.3743 56.1924 56.1924C54.3743 58.0105 52.0579 59.2486 49.5362 59.7502C47.0144 60.2518 44.4006 59.9944 42.0251 59.0104C39.6497 58.0265 37.6194 56.3603 36.1909 54.2224C34.7624 52.0846 34 49.5712 34 47C33.9978 44.196 34.9107 41.4679 36.6 39.23C36.6808 39.1249 36.74 39.005 36.7745 38.877C36.8089 38.7491 36.8177 38.6156 36.8006 38.4842C36.7834 38.3528 36.7405 38.2261 36.6743 38.1113C36.6082 37.9964 36.5201 37.8958 36.415 37.815C36.3099 37.7342 36.19 37.675 36.062 37.6405C35.9341 37.6061 35.8006 37.5973 35.6692 37.6144C35.5378 37.6316 35.4111 37.6745 35.2963 37.7407C35.1814 37.8068 35.0808 37.8949 35 38C32.9726 40.7032 31.9173 44.0118 32.0051 47.3897C32.0929 50.7676 33.3186 54.0169 35.4837 56.6112C37.6488 59.2055 40.6265 60.9927 43.9342 61.6834C47.2419 62.374 50.6859 61.9276 53.7082 60.4164C56.7305 58.9053 59.1541 56.4179 60.5862 53.3574C62.0183 50.2968 62.3751 46.8424 61.5987 43.5537C60.8224 40.2651 58.9584 37.3349 56.3088 35.2379C53.6591 33.1409 50.379 32 47 32V32Z" fill="black"/>
<path d="M51.1 37.13C51.0242 37.0219 50.9277 36.9298 50.8162 36.8591C50.7046 36.7884 50.5801 36.7406 50.45 36.7183C50.3198 36.6959 50.1865 36.6996 50.0578 36.7291C49.9291 36.7586 49.8074 36.8133 49.7 36.89L46.43 39.18C46.2128 39.3314 46.0645 39.5628 46.0176 39.8233C45.9708 40.0839 46.0291 40.3524 46.18 40.57L48.47 43.85C48.5619 43.9825 48.6844 44.0908 48.8272 44.1656C48.97 44.2405 49.1287 44.2797 49.29 44.28C49.4973 44.2816 49.7 44.2187 49.87 44.1C49.9781 44.0242 50.0702 43.9278 50.1409 43.8162C50.2115 43.7046 50.2594 43.5802 50.2817 43.45C50.304 43.3199 50.3003 43.1866 50.2709 43.0578C50.2414 42.9291 50.1867 42.8075 50.11 42.7L49.22 41.43C50.3348 41.874 51.2908 42.6421 51.9647 43.635C52.6385 44.6279 52.9991 45.8 53 47C53 47.2652 53.1053 47.5196 53.2929 47.7071C53.4804 47.8946 53.7347 48 54 48C54.2652 48 54.5195 47.8946 54.7071 47.7071C54.8946 47.5196 55 47.2652 55 47C54.998 45.328 54.4722 43.6986 53.4965 42.3408C52.5207 40.983 51.1441 39.9651 49.56 39.43L50.85 38.52C51.0671 38.3686 51.2154 38.1373 51.2623 37.8767C51.3092 37.6161 51.2508 37.3476 51.1 37.13V37.13Z" fill="black"/>
<path d="M36.41 48.39C36.2973 48.63 36.2846 48.905 36.3746 49.1544C36.4646 49.4038 36.65 49.6073 36.89 49.72L40.51 51.41C40.6456 51.4694 40.792 51.5001 40.94 51.5C41.1296 51.4986 41.3148 51.4433 41.4742 51.3406C41.6335 51.2379 41.7604 51.092 41.84 50.92L43.53 47.3C43.6334 47.0633 43.6412 46.7957 43.5517 46.5534C43.4622 46.311 43.2824 46.1127 43.05 46C42.81 45.8873 42.535 45.8746 42.2856 45.9646C42.0362 46.0546 41.8328 46.24 41.72 46.48L41.07 47.89C41.0254 47.5954 41.002 47.298 41 47C41.0011 45.9478 41.2788 44.9144 41.8054 44.0035C42.332 43.0925 43.0888 42.3361 44 41.81C44.1195 41.7475 44.2251 41.6614 44.3105 41.5571C44.3959 41.4527 44.4593 41.3321 44.4969 41.2025C44.5345 41.073 44.5455 40.9372 44.5292 40.8033C44.5129 40.6695 44.4698 40.5402 44.4023 40.4235C44.3348 40.3067 44.2443 40.2048 44.1364 40.1239C44.0285 40.043 43.9054 39.9847 43.7744 39.9526C43.6434 39.9205 43.5073 39.9153 43.3742 39.9372C43.2411 39.9591 43.1138 40.0077 43 40.08C41.7851 40.7815 40.7759 41.7901 40.0739 43.0047C39.3718 44.2192 39.0015 45.5971 39 47C39.0044 47.5282 39.0647 48.0545 39.18 48.57L37.74 47.9C37.6206 47.8445 37.4913 47.8132 37.3597 47.8078C37.2281 47.8025 37.0968 47.8231 36.9732 47.8687C36.8496 47.9142 36.7363 47.9837 36.6396 48.0732C36.543 48.1626 36.4649 48.2703 36.41 48.39V48.39Z" fill="black"/>
<path d="M42.64 52.56C42.5088 52.7884 42.473 53.0594 42.5404 53.314C42.6078 53.5687 42.7729 53.7864 43 53.92C44.4457 54.7666 46.1223 55.1335 47.7895 54.9683C49.4567 54.803 51.0286 54.114 52.28 53L52.42 54.59C52.4425 54.8393 52.5577 55.0711 52.7429 55.2396C52.928 55.4081 53.1696 55.501 53.42 55.5H53.51C53.7737 55.4771 54.0176 55.3506 54.1882 55.1481C54.3588 54.9456 54.4421 54.6838 54.42 54.42L54.07 50.42C54.0495 50.1563 53.9255 49.9115 53.7249 49.7391C53.5244 49.5667 53.2637 49.4807 53 49.5L49 49.85C48.8685 49.8613 48.7405 49.8985 48.6234 49.9595C48.5064 50.0205 48.4025 50.1041 48.3179 50.2055C48.2333 50.3068 48.1696 50.4239 48.1305 50.5499C48.0914 50.676 48.0776 50.8086 48.09 50.94C48.1153 51.2019 48.243 51.4433 48.4451 51.6118C48.6473 51.7803 48.9077 51.8623 49.17 51.84L50.71 51.71C49.7685 52.4492 48.6274 52.8899 47.4334 52.9755C46.2395 53.061 45.0472 52.7875 44.01 52.19C43.8958 52.1239 43.7698 52.081 43.639 52.0638C43.5082 52.0466 43.3753 52.0555 43.248 52.0899C43.1206 52.1243 43.0013 52.1835 42.897 52.2642C42.7927 52.3449 42.7053 52.4454 42.64 52.56V52.56Z" fill="black"/>
</svg>
