<svg width="292" height="292" viewBox="0 0 292 292" fill="none" xmlns="http://www.w3.org/2000/svg">
<g filter="url(#filter0_d_975_6)">
<rect x="3.75" y="-3.75" width="262.5" height="262.5" rx="21.25" transform="matrix(1 0 0 -1 11 269.5)" stroke="url(#paint0_linear_975_6)" stroke-width="7.5" shape-rendering="crispEdges"/>
</g>
<path d="M210.04 153.894L213.354 150.58L208.383 145.609L206.726 143.952L215.011 135.665L216.668 137.322L219.982 134.008L216.668 130.694L210.04 124.066L206.726 120.751L203.412 124.066L205.069 125.723L196.781 134.008L195.124 132.351L190.153 127.38L186.839 130.694L190.153 134.008L155.348 168.812C154.432 169.729 154.432 171.21 155.348 172.126L157.008 173.786L148.72 182.073C147.804 182.99 147.804 184.471 148.72 185.387L150.377 187.044L125.52 211.9L128.834 215.214L153.691 190.356L155.348 192.013C155.805 192.47 156.405 192.7 157.005 192.7C157.605 192.7 158.205 192.47 158.663 192.013L166.95 183.726L168.609 185.385C169.066 185.842 169.666 186.072 170.266 186.072C170.866 186.072 171.466 185.842 171.923 185.385L206.728 150.58L210.04 153.894ZM208.383 129.037L211.697 132.351L203.412 140.638L200.095 137.322L208.383 129.037ZM157.005 187.042L153.691 183.728L160.322 177.098L163.636 180.412L157.005 187.042ZM170.266 180.414L168.614 178.762C168.612 178.759 168.612 178.757 168.609 178.755L161.981 172.126C161.979 172.124 161.977 172.124 161.974 172.122L160.322 170.469L165.295 165.496L170.269 170.469L173.583 167.155L168.609 162.182L171.923 158.868L176.895 163.841L180.209 160.527L175.237 155.554L178.552 152.24L183.525 157.211L186.839 153.897L181.866 148.926L185.18 145.612L190.153 150.585L193.467 147.271L188.494 142.298L193.467 137.324L195.124 138.981L201.755 145.612L203.412 147.269L170.266 180.414Z" fill="white"/>
<path d="M141.312 171.297V109.188C141.312 105.311 144.467 102.156 148.344 102.156H157.857C159.027 112.687 167.973 120.906 178.812 120.906C190.445 120.906 199.906 111.445 199.906 99.8125C199.906 88.1805 190.445 78.7188 178.812 78.7188C167.973 78.7188 159.027 86.9383 157.857 97.4688H148.344C141.882 97.4688 136.625 102.726 136.625 109.188V171.297C136.625 180.991 128.741 188.875 119.047 188.875C109.353 188.875 101.469 180.991 101.469 171.297V144.344H115.531C121.993 144.344 127.25 139.087 127.25 132.625V95.125C127.25 89.3406 123.027 84.55 117.505 83.6055C116.593 80.7812 113.968 78.7188 110.844 78.7188C106.967 78.7188 103.812 81.8734 103.812 85.75C103.812 89.6266 106.967 92.7812 110.844 92.7812C113.795 92.7812 116.319 90.9484 117.359 88.3656C120.348 89.1742 122.562 91.8836 122.562 95.125V132.625C122.562 136.502 119.408 139.656 115.531 139.656H82.7188C78.8422 139.656 75.6875 136.502 75.6875 132.625V95.125C75.6875 91.8836 77.9023 89.1742 80.8906 88.3656C81.9312 90.9484 84.4555 92.7812 87.4062 92.7812C91.2828 92.7812 94.4375 89.6266 94.4375 85.75C94.4375 81.8734 91.2828 78.7188 87.4062 78.7188C84.282 78.7188 81.657 80.7812 80.7453 83.6055C75.2234 84.55 71 89.3406 71 95.125V132.625C71 139.087 76.257 144.344 82.7188 144.344H96.7812V171.297C96.7812 183.573 106.77 193.562 119.047 193.562C131.323 193.562 141.312 183.573 141.312 171.297ZM178.812 83.4062C187.857 83.4062 195.219 90.768 195.219 99.8125C195.219 108.857 187.857 116.219 178.812 116.219C169.768 116.219 162.406 108.857 162.406 99.8125C162.406 90.768 169.768 83.4062 178.812 83.4062ZM110.844 88.0938C109.55 88.0938 108.5 87.0437 108.5 85.75C108.5 84.4563 109.55 83.4062 110.844 83.4062C112.137 83.4062 113.188 84.4563 113.188 85.75C113.188 87.0437 112.137 88.0938 110.844 88.0938ZM87.4062 83.4062C88.7 83.4062 89.75 84.4563 89.75 85.75C89.75 87.0437 88.7 88.0938 87.4062 88.0938C86.1125 88.0938 85.0625 87.0437 85.0625 85.75C85.0625 84.4563 86.1125 83.4062 87.4062 83.4062Z" fill="white"/>
<path d="M178.812 111.531C185.274 111.531 190.531 106.274 190.531 99.8125C190.531 93.3508 185.274 88.0938 178.812 88.0938C172.351 88.0938 167.094 93.3508 167.094 99.8125C167.094 106.274 172.351 111.531 178.812 111.531ZM178.812 92.7812C182.689 92.7812 185.844 95.9359 185.844 99.8125C185.844 103.689 182.689 106.844 178.812 106.844C174.936 106.844 171.781 103.689 171.781 99.8125C171.781 95.9359 174.936 92.7812 178.812 92.7812Z" fill="white"/>
<path d="M75.6875 184.188H71V188.875H75.6875V184.188Z" fill="white"/>
<path d="M85.0625 184.188H80.375V188.875H85.0625V184.188Z" fill="white"/>
<path d="M75.6875 193.562H71V198.25H75.6875V193.562Z" fill="white"/>
<path d="M85.0625 193.562H80.375V198.25H85.0625V193.562Z" fill="white"/>
<path d="M94.4375 193.562H89.75V198.25H94.4375V193.562Z" fill="white"/>
<path d="M75.6875 202.938H71V207.625H75.6875V202.938Z" fill="white"/>
<path d="M85.0625 202.938H80.375V207.625H85.0625V202.938Z" fill="white"/>
<path d="M94.4375 202.938H89.75V207.625H94.4375V202.938Z" fill="white"/>
<path d="M75.6875 212.312H71V217H75.6875V212.312Z" fill="white"/>
<path d="M85.0625 212.312H80.375V217H85.0625V212.312Z" fill="white"/>
<path d="M94.4375 212.312H89.75V217H94.4375V212.312Z" fill="white"/>
<path d="M103.812 202.938H99.125V207.625H103.812V202.938Z" fill="white"/>
<path d="M103.812 212.312H99.125V217H103.812V212.312Z" fill="white"/>
<path d="M113.188 212.312H108.5V217H113.188V212.312Z" fill="white"/>
<path d="M218.656 188.875H211.625V181.844C211.625 180.548 210.577 179.5 209.281 179.5H195.219C193.923 179.5 192.875 180.548 192.875 181.844V188.875H185.844C184.548 188.875 183.5 189.923 183.5 191.219V205.281C183.5 206.577 184.548 207.625 185.844 207.625H192.875V214.656C192.875 215.952 193.923 217 195.219 217H209.281C210.577 217 211.625 215.952 211.625 214.656V207.625H218.656C219.952 207.625 221 206.577 221 205.281V191.219C221 189.923 219.952 188.875 218.656 188.875ZM216.312 202.938H209.281C207.985 202.938 206.938 203.985 206.938 205.281V212.312H197.562V205.281C197.562 203.985 196.515 202.938 195.219 202.938H188.188V193.562H195.219C196.515 193.562 197.562 192.515 197.562 191.219V184.188H206.938V191.219C206.938 192.515 207.985 193.562 209.281 193.562H216.312V202.938Z" fill="white"/>
<path d="M221 95.125H216.312V99.8125H221V95.125Z" fill="white"/>
<path d="M211.625 95.125H206.938V99.8125H211.625V95.125Z" fill="white"/>
<path d="M221 85.75H216.312V90.4375H221V85.75Z" fill="white"/>
<path d="M211.625 85.75H206.938V90.4375H211.625V85.75Z" fill="white"/>
<path d="M221 76.375H216.312V81.0625H221V76.375Z" fill="white"/>
<path d="M211.625 76.375H206.938V81.0625H211.625V76.375Z" fill="white"/>
<path d="M202.25 76.375H197.562V81.0625H202.25V76.375Z" fill="white"/>
<path d="M221 67H216.312V71.6875H221V67Z" fill="white"/>
<path d="M211.625 67H206.938V71.6875H211.625V67Z" fill="white"/>
<path d="M202.25 67H197.562V71.6875H202.25V67Z" fill="white"/>
<path d="M192.875 67H188.188V71.6875H192.875V67Z" fill="white"/>
<defs>
<filter id="filter0_d_975_6" x="0" y="0" width="292" height="292" filterUnits="userSpaceOnUse" color-interpolation-filters="sRGB">
<feFlood flood-opacity="0" result="BackgroundImageFix"/>
<feColorMatrix in="SourceAlpha" type="matrix" values="0 0 0 0 0 0 0 0 0 0 0 0 0 0 0 0 0 0 127 0" result="hardAlpha"/>
<feMorphology radius="5" operator="dilate" in="SourceAlpha" result="effect1_dropShadow_975_6"/>
<feOffset dy="4"/>
<feGaussianBlur stdDeviation="3"/>
<feComposite in2="hardAlpha" operator="out"/>
<feColorMatrix type="matrix" values="0 0 0 0 0 0 0 0 0 0 0 0 0 0 0 0 0 0 0.1 0"/>
<feBlend mode="normal" in2="BackgroundImageFix" result="effect1_dropShadow_975_6"/>
<feBlend mode="normal" in="SourceGraphic" in2="effect1_dropShadow_975_6" result="shape"/>
</filter>
<linearGradient id="paint0_linear_975_6" x1="135" y1="0" x2="135" y2="270" gradientUnits="userSpaceOnUse">
<stop stop-color="#370372"/>
<stop offset="1" stop-color="#08A6A9"/>
</linearGradient>
</defs>
</svg>
