<svg width="290" height="290" viewBox="0 0 290 290" fill="none" xmlns="http://www.w3.org/2000/svg">
<g opacity="0.75" filter="url(#filter0_d_1006_406)">
<path d="M251 276H31C17.1929 276 6 264.807 6 251V31C6 17.1929 17.1929 6 31 6H251C264.807 6 276 17.1929 276 31V251C276 264.807 264.807 276 251 276Z" fill="url(#paint0_linear_1006_406)"/>
</g>
<path d="M217.848 155.274L221.825 151.297L215.86 145.331L213.871 143.343L223.814 133.398L225.802 135.386L229.779 131.409L225.802 127.432L217.848 119.478L213.871 115.501L209.894 119.478L211.883 121.466L201.938 131.408L199.949 129.42L193.984 123.455L190.007 127.432L193.984 131.409L152.219 173.175C151.958 173.436 151.75 173.746 151.609 174.087C151.467 174.428 151.394 174.794 151.394 175.163C151.394 175.533 151.467 175.899 151.609 176.24C151.75 176.581 151.958 176.891 152.219 177.152L154.21 179.143L144.265 189.088C144.004 189.349 143.796 189.659 143.655 190C143.513 190.341 143.44 190.707 143.44 191.077C143.44 191.446 143.513 191.812 143.655 192.153C143.796 192.494 144.004 192.804 144.265 193.065L146.253 195.054L116.424 224.88L120.401 228.857L150.23 199.028L152.219 201.016C152.767 201.564 153.487 201.84 154.207 201.84C154.927 201.84 155.647 201.564 156.195 201.016L166.14 191.071L168.132 193.062C168.393 193.324 168.702 193.531 169.044 193.673C169.385 193.814 169.751 193.887 170.12 193.886C170.84 193.886 171.56 193.611 172.109 193.062L213.874 151.297L217.848 155.274V155.274ZM215.86 125.444L219.837 129.421L209.894 139.366L205.915 135.386L215.86 125.444V125.444ZM154.207 195.051L150.23 191.074L158.187 183.117L162.164 187.094L154.207 195.051ZM170.12 187.097L168.137 185.114L160.178 177.152L158.187 175.164L164.155 169.195L170.123 175.164L174.1 171.187L168.132 165.219L172.109 161.242L178.074 167.21L182.051 163.233L176.085 157.265L180.062 153.288L186.03 159.253L190.007 155.276L184.039 149.311L188.016 145.334L193.984 151.302L197.961 147.325L191.993 141.357L197.961 135.389L199.949 137.378L207.906 145.335L209.894 147.323L170.12 187.097V187.097ZM135.375 176.156V101.625C135.378 99.3883 136.269 97.2441 137.85 95.6626C139.432 94.0811 141.576 93.1912 143.813 93.188H155.228C156.632 105.825 167.367 115.688 180.375 115.688C194.333 115.688 205.688 104.334 205.688 90.376C205.688 76.418 194.333 65.064 180.375 65.064C167.367 65.064 156.632 74.927 155.228 87.564H143.813C136.059 87.564 129.751 93.872 129.751 101.627V176.158C129.751 187.791 120.29 197.252 108.657 197.252C97.024 197.252 87.563 187.791 87.563 176.158V143.813H104.438C112.192 143.813 118.501 137.505 118.501 129.751V84.751C118.501 77.81 113.433 72.061 106.807 70.928C105.713 67.539 102.563 65.064 98.814 65.064C96.5773 65.0674 94.4331 65.9576 92.8516 67.5393C91.2701 69.121 90.3802 71.2653 90.377 73.502C90.3802 75.7389 91.2702 77.8833 92.8519 79.4651C94.4337 81.0468 96.5781 81.9368 98.815 81.94C102.356 81.94 105.385 79.741 106.634 76.641C110.22 77.611 112.878 80.862 112.878 84.752V129.752C112.875 131.989 111.985 134.133 110.403 135.715C108.822 137.296 106.678 138.187 104.441 138.19H65.063C62.8264 138.187 60.6824 137.297 59.1009 135.715C57.5194 134.134 56.6294 131.99 56.626 129.753V84.753C56.626 80.863 59.284 77.612 62.87 76.642C64.119 79.741 67.148 81.941 70.689 81.941C72.9257 81.9378 75.07 81.0479 76.6517 79.4664C78.2334 77.8849 79.1236 75.7407 79.127 73.504C79.1236 71.2674 78.2336 69.1234 76.6521 67.5419C75.0706 65.9604 72.9266 65.0704 70.69 65.067C66.941 65.067 63.791 67.542 62.697 70.931C56.068 72.06 51 77.809 51 84.75V129.75C51 137.504 57.308 143.813 65.063 143.813H81.938V176.157C81.938 190.889 93.925 202.876 108.657 202.876C123.389 202.876 135.376 190.889 135.376 176.157L135.375 176.156ZM180.375 70.688C191.228 70.688 200.062 79.522 200.062 90.376C200.062 101.23 191.228 110.064 180.375 110.064C169.522 110.064 160.688 101.23 160.688 90.377C160.688 79.524 169.522 70.69 180.375 70.69V70.688ZM98.813 76.313C97.26 76.313 96 75.053 96 73.5C96 71.947 97.26 70.688 98.813 70.688C100.366 70.688 101.626 71.948 101.626 73.501C101.626 75.054 100.366 76.314 98.814 76.314L98.813 76.313ZM70.688 70.688C72.24 70.688 73.501 71.948 73.501 73.501C73.501 75.054 72.241 76.314 70.689 76.314C69.137 76.314 67.877 75.054 67.877 73.502C67.877 71.95 69.137 70.69 70.69 70.69L70.688 70.688ZM180.375 104.438C188.129 104.438 194.438 98.13 194.438 90.376C194.438 82.622 188.129 76.314 180.375 76.314C172.621 76.314 166.312 82.622 166.312 90.377C166.312 98.132 172.621 104.44 180.375 104.44V104.438ZM180.375 81.938C182.612 81.9414 184.756 82.8316 186.337 84.4133C187.919 85.995 188.809 88.1393 188.812 90.376C188.809 92.6127 187.919 94.757 186.337 96.3387C184.756 97.9204 182.612 98.8106 180.375 98.814C178.138 98.8106 175.994 97.9206 174.413 96.3391C172.831 94.7576 171.941 92.6136 171.938 90.377C171.941 88.1404 172.831 85.9964 174.413 84.4149C175.994 82.8334 178.138 81.9434 180.375 81.94V81.938ZM56.625 191.625H51V197.25H56.625V191.625ZM67.875 191.625H62.25V197.25H67.875V191.625ZM56.625 202.875H51V208.5H56.625V202.875ZM67.875 202.875H62.25V208.5H67.875V202.875ZM79.125 202.875H73.5V208.5H79.125V202.875ZM56.625 214.125H51V219.75H56.625V214.125ZM67.875 214.125H62.25V219.75H67.875V214.125ZM79.125 214.125H73.5V219.75H79.125V214.125ZM56.625 225.375H51V231H56.625V225.375ZM67.875 225.375H62.25V231H67.875V225.375ZM79.125 225.375H73.5V231H79.125V225.375ZM90.375 214.125H84.75V219.75H90.375V214.125ZM90.375 225.375H84.75V231H90.375V225.375ZM101.625 225.375H96V231H101.625V225.375ZM228.188 197.25H219.75V188.812C219.75 188.443 219.678 188.077 219.536 187.736C219.395 187.394 219.188 187.084 218.927 186.823C218.666 186.562 218.356 186.355 218.014 186.214C217.673 186.072 217.307 186 216.938 186H200.062C199.693 186 199.327 186.072 198.986 186.214C198.644 186.355 198.334 186.562 198.073 186.823C197.812 187.084 197.605 187.394 197.464 187.736C197.322 188.077 197.25 188.443 197.25 188.812V197.25H188.812C188.443 197.25 188.077 197.322 187.736 197.464C187.394 197.605 187.084 197.812 186.823 198.073C186.562 198.334 186.355 198.644 186.214 198.986C186.072 199.327 186 199.693 186 200.062V216.938C186 217.307 186.072 217.673 186.214 218.014C186.355 218.356 186.562 218.666 186.823 218.927C187.084 219.188 187.394 219.395 187.736 219.536C188.077 219.678 188.443 219.75 188.812 219.75H197.25V228.188C197.25 228.557 197.322 228.923 197.464 229.264C197.605 229.606 197.812 229.916 198.073 230.177C198.334 230.438 198.644 230.645 198.986 230.786C199.327 230.928 199.693 231 200.062 231H216.938C217.307 231 217.673 230.928 218.014 230.786C218.356 230.645 218.666 230.438 218.927 230.177C219.188 229.916 219.395 229.606 219.536 229.264C219.678 228.923 219.75 228.557 219.75 228.188V219.75H228.188C228.557 219.75 228.923 219.678 229.264 219.536C229.606 219.395 229.916 219.188 230.177 218.927C230.438 218.666 230.645 218.356 230.786 218.014C230.928 217.673 231 217.307 231 216.938V200.062C231 199.693 230.928 199.327 230.786 198.986C230.645 198.644 230.438 198.334 230.177 198.073C229.916 197.812 229.606 197.605 229.264 197.464C228.923 197.322 228.557 197.25 228.188 197.25ZM225.375 214.125H216.938C216.568 214.125 216.203 214.197 215.861 214.338C215.52 214.48 215.209 214.687 214.948 214.948C214.687 215.209 214.48 215.52 214.338 215.861C214.197 216.203 214.125 216.568 214.125 216.938V225.375H202.875V216.938C202.875 216.568 202.803 216.203 202.662 215.861C202.52 215.52 202.313 215.209 202.052 214.948C201.791 214.687 201.48 214.48 201.139 214.338C200.797 214.197 200.432 214.125 200.062 214.125H191.625V202.875H200.062C200.432 202.875 200.797 202.803 201.139 202.662C201.48 202.52 201.791 202.313 202.052 202.052C202.313 201.791 202.52 201.48 202.662 201.139C202.803 200.797 202.875 200.432 202.875 200.062V191.625H214.125V200.062C214.125 200.432 214.197 200.797 214.338 201.139C214.48 201.48 214.687 201.791 214.948 202.052C215.209 202.313 215.52 202.52 215.861 202.662C216.203 202.803 216.568 202.875 216.938 202.875H225.375V214.125ZM231 84.75H225.375V90.375H231V84.75ZM219.75 84.75H214.125V90.375H219.75V84.75ZM231 73.5H225.375V79.125H231V73.5ZM219.75 73.5H214.125V79.125H219.75V73.5ZM231 62.25H225.375V67.875H231V62.25ZM219.75 62.25H214.125V67.875H219.75V62.25ZM208.5 62.25H202.875V67.875H208.5V62.25ZM231 51H225.375V56.625H231V51ZM219.75 51H214.125V56.625H219.75V51ZM208.5 51H202.875V56.625H208.5V51ZM197.25 51H191.625V56.625H197.25V51Z" fill="#00401B"/>
<defs>
<filter id="filter0_d_1006_406" x="0" y="0" width="290" height="290" filterUnits="userSpaceOnUse" color-interpolation-filters="sRGB">
<feFlood flood-opacity="0" result="BackgroundImageFix"/>
<feColorMatrix in="SourceAlpha" type="matrix" values="0 0 0 0 0 0 0 0 0 0 0 0 0 0 0 0 0 0 127 0" result="hardAlpha"/>
<feOffset dx="4" dy="4"/>
<feGaussianBlur stdDeviation="5"/>
<feColorMatrix type="matrix" values="0 0 0 0 0 0 0 0 0 0 0 0 0 0 0 0 0 0 0.1 0"/>
<feBlend mode="normal" in2="BackgroundImageFix" result="effect1_dropShadow_1006_406"/>
<feBlend mode="normal" in="SourceGraphic" in2="effect1_dropShadow_1006_406" result="shape"/>
</filter>
<linearGradient id="paint0_linear_1006_406" x1="141" y1="276" x2="141" y2="6" gradientUnits="userSpaceOnUse">
<stop stop-color="#05893D"/>
<stop offset="1" stop-color="#46E48A"/>
</linearGradient>
</defs>
</svg>
