<?xml version="1.0" encoding="UTF-8"?>
<svg width="700pt" height="700pt" version="1.1" viewBox="0 0 700 700" xmlns="http://www.w3.org/2000/svg">
 <g>
  <path d="m471.91 285.83h13.438c1.2578 6.5234 4.7305 12.406 9.832 16.66 5.0977 4.2539 11.512 6.6094 18.152 6.6758h46.668c6.6445-0.0625 13.059-2.418 18.164-6.6719 5.1016-4.2539 8.5781-10.141 9.8359-16.664h18.668c3.2188 0 5.832-2.6094 5.832-5.832s-2.6133-5.832-5.832-5.832h-18.668c-1.2578-6.5234-4.7344-12.41-9.8359-16.664-5.1055-4.2539-11.52-6.6094-18.164-6.6719-3.2227 0-5.832 2.6133-5.832 5.8359 0 3.2188 2.6094 5.832 5.832 5.832 3.5938 0.019531 7.0898 1.1523 10.012 3.2422 2.9219 2.0898 5.125 5.0312 6.3086 8.4258h-16.32c-3.2227 0-5.832 2.6094-5.832 5.832s2.6094 5.832 5.832 5.832h16.32c-1.1836 3.3945-3.3867 6.3359-6.3086 8.4258-2.9219 2.0898-6.418 3.2227-10.012 3.2422h-46.668c-3.5898-0.019531-7.0898-1.1523-10.012-3.2422-2.9219-2.0898-5.125-5.0312-6.3047-8.4258h16.316c3.2227 0 5.8359-2.6094 5.8359-5.832s-2.6133-5.832-5.8359-5.832h-16.32 0.003906c1.1797-3.3945 3.3828-6.3359 6.3047-8.4258 2.9219-2.0898 6.4219-3.2227 10.012-3.2422h23.336c3.2188 0 5.832-2.6133 5.832-5.832 0-3.2227-2.6133-5.8359-5.832-5.8359h-23.336c-6.6406 0.066407-13.055 2.4219-18.152 6.6758-5.1016 4.2539-8.5742 10.137-9.832 16.66h-13.438c-1.0508-23.582-8.957-46.344-22.742-65.5v-45.336c0.011719-10.824 4.3203-21.203 11.973-28.855 7.6562-7.6562 18.035-11.965 28.859-11.977h46.668c13.062-0.039062 25.637-4.9609 35.262-13.793 9.625-8.8359 15.602-20.945 16.758-33.957 6.625-1.1641 12.633-4.6055 16.98-9.7383 4.3516-5.1289 6.7695-11.621 6.832-18.344 0-10.422-5.5586-20.051-14.582-25.262-9.0273-5.207-20.145-5.207-29.168 0-9.0234 5.2109-14.582 14.84-14.582 25.262 0.0625 6.5586 2.3633 12.898 6.5195 17.973 4.1602 5.0703 9.9258 8.5703 16.348 9.918-1.1016 9.9492-5.8242 19.145-13.27 25.836-7.4414 6.6875-17.09 10.406-27.098 10.438h-46.668c-13.918 0.015625-27.266 5.5547-37.105 15.395-9.8438 9.8438-15.379 23.188-15.395 37.105v31.199c-21.621-22.059-50.812-35.082-81.668-36.441v-83.438c6.5234-1.2578 12.406-4.7305 16.66-9.832 4.2539-5.0977 6.6094-11.512 6.6758-18.152 0-10.422-5.5586-20.051-14.586-25.262-9.0234-5.207-20.141-5.207-29.164 0-9.0273 5.2109-14.586 14.84-14.586 25.262 0.066407 6.6406 2.4219 13.055 6.6758 18.152 4.2539 5.1016 10.137 8.5742 16.66 9.832v83.441c-14.855 0.52734-29.488 3.7852-43.168 9.6016-2.8477 1.3516-4.1094 4.7188-2.8477 7.6055 1.2617 2.8906 4.5898 4.2539 7.5156 3.082 34.93-15.273 75.254-11.551 106.8 9.8594 31.543 21.41 49.891 57.516 48.59 95.617-1.3008 38.098-22.066 72.867-54.996 92.078-32.93 19.207-73.414 20.172-107.22 2.5508-33.809-17.617-56.203-51.359-59.316-89.355-3.1133-37.996 13.492-74.93 43.98-97.816 2.3867-1.9922 2.793-5.5039 0.92578-7.9883-1.8633-2.4805-5.3516-3.0664-7.9258-1.3281-4.9727 3.8008-9.6523 7.9727-14 12.473v-31.141c-0.015625-13.918-5.5508-27.262-15.395-37.105-9.8398-9.8398-23.188-15.379-37.105-15.395h-46.668c-10.008-0.03125-19.656-3.75-27.098-10.438-7.4453-6.6914-12.168-15.887-13.27-25.836 6.4219-1.3477 12.188-4.8477 16.348-9.918 4.1562-5.0742 6.457-11.414 6.5195-17.973 0-10.422-5.5586-20.051-14.582-25.262-9.0234-5.207-20.141-5.207-29.168 0-9.0234 5.2109-14.582 14.84-14.582 25.262 0.0625 6.7227 2.4805 13.215 6.832 18.344 4.3477 5.1328 10.355 8.5781 16.98 9.7383 1.1562 13.012 7.1328 25.121 16.758 33.957 9.625 8.832 22.199 13.754 35.262 13.793h46.668c10.824 0.011719 21.203 4.3203 28.859 11.977 7.6523 7.6523 11.961 18.031 11.973 28.855v44.945c-13.965 19.23-21.965 42.145-23 65.891h-13.164c-1.2578-6.5234-4.7344-12.41-9.8359-16.664-5.1055-4.2539-11.523-6.6094-18.164-6.6719h-46.668c-6.6406 0.066407-13.055 2.4219-18.156 6.6758-5.1016 4.2539-8.5742 10.137-9.8281 16.66h-18.684c-3.2188 0-5.832 2.6094-5.832 5.832s2.6133 5.832 5.832 5.832h18.684c1.2539 6.5234 4.7305 12.406 9.8281 16.66 5.1016 4.2539 11.516 6.6094 18.156 6.6758 3.2227 0 5.832-2.6133 5.832-5.8359 0-3.2188-2.6094-5.832-5.832-5.832-3.5938-0.019531-7.0898-1.1523-10.012-3.2422-2.9219-2.0898-5.125-5.0312-6.3086-8.4258h16.32c3.2227 0 5.832-2.6094 5.832-5.832s-2.6094-5.832-5.832-5.832h-16.32c1.1836-3.3945 3.3867-6.3359 6.3086-8.4258 2.9219-2.0898 6.418-3.2227 10.012-3.2422h46.668c3.5898 0.019531 7.0898 1.1523 10.012 3.2422 2.9219 2.0898 5.125 5.0312 6.3047 8.4258h-16.316c-3.2227 0-5.8359 2.6094-5.8359 5.832s2.6133 5.832 5.8359 5.832h16.32-0.003906c-1.1797 3.3945-3.3828 6.3359-6.3047 8.4258-2.9219 2.0898-6.4219 3.2227-10.012 3.2422h-23.336c-3.2188 0-5.832 2.6133-5.832 5.832 0 3.2227 2.6133 5.8359 5.832 5.8359h23.336c6.6406-0.066407 13.055-2.4219 18.156-6.6758 5.0977-4.2539 8.5742-10.137 9.832-16.66h13.434c1.0508 23.582 8.957 46.344 22.742 65.5v45.336c-0.011719 10.824-4.3203 21.203-11.973 28.855-7.6562 7.6562-18.035 11.965-28.859 11.977h-46.668c-13.062 0.039062-25.641 4.9609-35.262 13.793-9.625 8.832-15.602 20.945-16.758 33.957-6.625 1.1602-12.633 4.6055-16.98 9.7383-4.3516 5.1289-6.7695 11.621-6.832 18.344 0 10.422 5.5586 20.051 14.582 25.262 9.0273 5.207 20.145 5.207 29.168 0 9.0234-5.2109 14.582-14.84 14.582-25.262-0.0625-6.5586-2.3633-12.898-6.5195-17.973-4.1602-5.0703-9.9258-8.5703-16.348-9.918 1.1016-9.9492 5.8242-19.145 13.27-25.836 7.4414-6.6875 17.09-10.406 27.098-10.438h46.668c13.918-0.015625 27.266-5.5547 37.105-15.395 9.8438-9.8438 15.379-23.188 15.395-37.105v-31.199c21.621 22.059 50.812 35.082 81.668 36.441v83.434c-6.5234 1.2578-12.41 4.7344-16.664 9.8398-4.2539 5.1016-6.6094 11.52-6.6719 18.16 0 10.422 5.5586 20.051 14.586 25.262 9.0234 5.207 20.141 5.207 29.164 0 9.0273-5.2109 14.586-14.84 14.586-25.262-0.0625-6.6406-2.418-13.059-6.6719-18.164-4.2539-5.1016-10.141-8.5781-16.664-9.8359v-83.434c30.855-1.3594 60.047-14.383 81.668-36.441v31.199c0.015625 13.918 5.5508 27.262 15.395 37.105 9.8398 9.8398 23.188 15.379 37.105 15.395h46.668c10.008 0.03125 19.656 3.75 27.098 10.438 7.4453 6.6914 12.168 15.887 13.27 25.836-6.4219 1.3477-12.188 4.8477-16.348 9.918-4.1562 5.0742-6.457 11.414-6.5195 17.973 0 10.422 5.5586 20.051 14.582 25.262 9.0234 5.207 20.141 5.207 29.168 0 9.0234-5.2109 14.582-14.84 14.582-25.262-0.0625-6.7227-2.4805-13.215-6.832-18.344-4.3477-5.1328-10.355-8.5781-16.98-9.7383-1.1562-13.012-7.1328-25.125-16.758-33.957-9.6211-8.832-22.199-13.754-35.262-13.793h-46.668c-10.824-0.011719-21.203-4.3203-28.859-11.977-7.6523-7.6523-11.961-18.031-11.973-28.855v-45.336c13.785-19.156 21.691-41.918 22.742-65.5zm93.922-239.16c0-4.6445 1.8438-9.0938 5.125-12.375 3.2852-3.2812 7.7344-5.125 12.375-5.125 4.6445 0 9.0938 1.8438 12.375 5.125s5.125 7.7305 5.125 12.375c0 4.6406-1.8438 9.0898-5.125 12.375-3.2812 3.2812-7.7305 5.125-12.375 5.125-4.6367-0.007813-9.0859-1.8516-12.367-5.1328s-5.125-7.7305-5.1328-12.367zm-233.33 0c0-4.6445 1.8438-9.0938 5.125-12.375s7.7344-5.125 12.375-5.125 9.0938 1.8438 12.375 5.125 5.125 7.7305 5.125 12.375c0 4.6406-1.8438 9.0898-5.125 12.375-3.2812 3.2812-7.7344 5.125-12.375 5.125-4.6406-0.007813-9.0898-1.8516-12.367-5.1328-3.2812-3.2812-5.1289-7.7305-5.1328-12.367zm-233.33 0c0-4.6445 1.8438-9.0938 5.125-12.375s7.7305-5.125 12.375-5.125c4.6406 0 9.0898 1.8438 12.375 5.125 3.2812 3.2812 5.125 7.7305 5.125 12.375 0 4.6406-1.8438 9.0898-5.125 12.375-3.2852 3.2812-7.7344 5.125-12.375 5.125-4.6406-0.007813-9.0898-1.8516-12.371-5.1328s-5.125-7.7305-5.1289-12.367zm35 466.67v-0.003907c0 4.6445-1.8438 9.0938-5.125 12.375-3.2852 3.2812-7.7344 5.125-12.375 5.125-4.6445 0-9.0938-1.8438-12.375-5.125s-5.125-7.7305-5.125-12.375c0-4.6406 1.8438-9.0898 5.125-12.375 3.2812-3.2812 7.7305-5.125 12.375-5.125 4.6367 0.007813 9.0859 1.8516 12.367 5.1328s5.125 7.7305 5.1328 12.367zm233.33 0v-0.003907c0 4.6445-1.8438 9.0938-5.125 12.375s-7.7344 5.125-12.375 5.125-9.0938-1.8438-12.375-5.125-5.125-7.7305-5.125-12.375c0-4.6406 1.8438-9.0898 5.125-12.375 3.2812-3.2812 7.7344-5.125 12.375-5.125 4.6406 0.007813 9.0898 1.8516 12.367 5.1328 3.2812 3.2812 5.1289 7.7305 5.1328 12.367zm233.33 0v-0.003907c0 4.6445-1.8438 9.0938-5.125 12.375s-7.7305 5.125-12.375 5.125c-4.6406 0-9.0898-1.8438-12.375-5.125-3.2812-3.2812-5.125-7.7305-5.125-12.375 0-4.6406 1.8438-9.0898 5.125-12.375 3.2852-3.2812 7.7344-5.125 12.375-5.125 4.6406 0.007813 9.0898 1.8516 12.371 5.1328s5.125 7.7305 5.1289 12.367z"/>
  <path d="m373.33 320.83h-70c-3.2188 0-5.832 2.6133-5.832 5.8359 0 3.2188 2.6133 5.832 5.832 5.832h40.832l0.003907 17.5c0 3.2227 2.6094 5.832 5.832 5.832s5.832-2.6094 5.832-5.832v-17.5h17.5c10.422 0 20.051-5.5586 25.262-14.582 5.207-9.0273 5.207-20.145 0-29.168-5.2109-9.0234-14.84-14.582-25.262-14.582h-46.664c-6.2539 0-12.031-3.3359-15.156-8.75-3.125-5.4141-3.125-12.086 0-17.5 3.125-5.4141 8.9023-8.75 15.156-8.75h70c3.2188 0 5.832-2.6133 5.832-5.8359 0-3.2188-2.6133-5.832-5.832-5.832h-40.836v-17.5c0-3.2227-2.6094-5.832-5.832-5.832s-5.832 2.6094-5.832 5.832v17.5h-17.5c-10.422 0-20.051 5.5586-25.262 14.582-5.207 9.0273-5.207 20.145 0 29.168 5.2109 9.0234 14.84 14.582 25.262 14.582h46.668-0.003907c6.2539 0 12.031 3.3359 15.156 8.75 3.125 5.4141 3.125 12.086 0 17.5-3.125 5.4141-8.9023 8.75-15.156 8.75z"/>
 </g>
</svg>
