<svg width="292" height="292" viewBox="0 0 292 292" fill="none" xmlns="http://www.w3.org/2000/svg">
<g filter="url(#filter0_d_975_12)">
<rect x="3.75" y="-3.75" width="262.5" height="262.5" rx="21.25" transform="matrix(1 0 0 -1 11 269.5)" stroke="url(#paint0_linear_975_12)" stroke-width="7.5" shape-rendering="crispEdges"/>
</g>
<path d="M146 83.4062C138.12 83.4062 130.416 85.743 123.864 90.1211C117.312 94.4992 112.205 100.722 109.189 108.002C106.174 115.283 105.384 123.294 106.922 131.023C108.459 138.752 112.254 145.852 117.826 151.424C123.398 156.996 130.498 160.791 138.227 162.328C145.956 163.866 153.967 163.077 161.248 160.061C168.528 157.045 174.751 151.938 179.129 145.386C183.507 138.834 185.844 131.13 185.844 123.25C185.832 112.686 181.63 102.559 174.161 95.0892C166.691 87.6196 156.564 83.418 146 83.4062V83.4062ZM148.344 120.88V109.227C152.979 109.182 157.507 109.002 161.863 108.691C162.727 112.476 163.247 116.331 163.418 120.209C158.593 120.6 153.532 120.827 148.344 120.88V120.88ZM163.46 124.907C163.365 128.992 162.885 133.059 162.027 137.055C157.603 137.383 153.01 137.576 148.344 137.625V125.567C153.534 125.515 158.608 125.292 163.46 124.907V124.907ZM148.344 104.54V96.8462C151.276 96.7217 154.187 96.2793 157.024 95.5267C158.483 98.2613 159.689 101.124 160.626 104.078C156.659 104.342 152.549 104.498 148.344 104.54ZM146 88.0938C150.103 88.1024 154.172 88.8341 158.02 90.2553C154.16 91.6101 150.091 92.2783 146 92.2296C141.909 92.2783 137.84 91.6101 133.98 90.2553C137.828 88.8341 141.897 88.1024 146 88.0938V88.0938ZM134.069 95.243C137.187 96.1709 140.407 96.7094 143.656 96.8462V104.54C139.084 104.494 134.621 104.316 130.336 104.008C131.302 100.975 132.552 98.0405 134.069 95.243V95.243ZM127.526 120.124C127.701 116.25 128.226 112.4 129.094 108.62C133.766 108.978 138.652 109.178 143.656 109.227V120.88C138.09 120.823 132.663 120.568 127.526 120.124ZM143.656 125.567V137.624C138.612 137.572 133.647 137.353 128.898 136.974C128.044 132.977 127.569 128.907 127.479 124.82C132.648 125.259 138.086 125.511 143.656 125.567ZM128.528 92.7859C128.899 93.0227 129.303 93.242 129.71 93.4604C128.007 96.7013 126.625 100.101 125.583 103.611C122.817 103.341 120.139 103.019 117.581 102.638C120.499 98.6223 124.228 95.2656 128.528 92.7859V92.7859ZM114.881 106.946C117.901 107.441 121.072 107.86 124.394 108.204C123.562 111.972 123.047 115.804 122.853 119.659C118.722 119.191 114.848 118.595 111.298 117.882C111.878 114.064 113.089 110.368 114.881 106.946V106.946ZM110.844 123.25C110.844 123.024 110.873 122.806 110.878 122.581C114.547 123.299 118.54 123.895 122.778 124.363C122.834 128.445 123.245 132.514 124.007 136.525C120.057 136.105 116.328 135.569 112.881 134.931C111.541 131.182 110.852 127.231 110.844 123.25V123.25ZM128.528 153.714C122.903 150.483 118.274 145.768 115.148 140.084C118.299 140.587 121.652 141.006 125.139 141.345C126.227 145.399 127.761 149.321 129.71 153.039C129.303 153.258 128.899 153.478 128.528 153.714V153.714ZM143.656 142.312V149.654C140.407 149.791 137.187 150.329 134.069 151.257C132.44 148.234 131.12 145.054 130.129 141.766C134.514 142.081 139.053 142.265 143.656 142.312ZM146 158.406C141.897 158.398 137.828 157.666 133.98 156.245C137.841 154.89 141.909 154.222 146 154.27C150.091 154.222 154.16 154.89 158.02 156.245C154.172 157.666 150.103 158.398 146 158.406V158.406ZM157.024 150.973C154.187 150.221 151.276 149.778 148.344 149.654V142.312C152.567 142.269 156.742 142.116 160.79 141.847C159.832 145.003 158.571 148.06 157.024 150.973V150.973ZM163.472 153.714C162.827 153.302 162.157 152.93 161.467 152.6C163.287 149.044 164.73 145.307 165.772 141.451C169.653 141.096 173.373 140.64 176.852 140.084C173.726 145.768 169.097 150.483 163.472 153.714V153.714ZM181.156 123.25C181.148 127.231 180.459 131.182 179.119 134.931C175.361 135.626 171.256 136.195 166.911 136.63C167.68 132.623 168.097 128.556 168.16 124.477C172.792 123.993 177.148 123.358 181.122 122.581C181.127 122.806 181.156 123.024 181.156 123.25ZM180.702 117.882C176.852 118.655 172.615 119.288 168.091 119.771C167.904 115.912 167.395 112.076 166.568 108.302C170.261 107.947 173.787 107.492 177.119 106.946C178.911 110.368 180.122 114.064 180.702 117.882ZM165.385 103.703C164.388 100.32 163.076 97.0385 161.467 93.9005C162.157 93.5703 162.827 93.1981 163.472 92.7859C167.772 95.2656 171.501 98.6223 174.419 102.638C171.547 103.065 168.516 103.415 165.385 103.702V103.703Z" fill="white"/>
<path d="M209.281 95.125V90.1046C211.491 89.5342 213.416 88.1775 214.697 86.289C215.977 84.4005 216.525 82.1097 216.238 79.8461C215.95 77.5824 214.847 75.5014 213.135 73.993C211.423 72.4845 209.219 71.6523 206.937 71.6523C204.656 71.6523 202.452 72.4845 200.74 73.993C199.028 75.5014 197.925 77.5824 197.637 79.8461C197.35 82.1097 197.898 84.4005 199.178 86.289C200.459 88.1775 202.384 89.5342 204.594 90.1046V92.7812H187.563C183.265 86.9012 177.767 82.0004 171.434 78.403C165.101 74.8056 158.076 72.5934 150.824 71.9127C143.573 71.232 136.259 72.0983 129.367 74.4543C122.475 76.8103 116.161 80.6023 110.844 85.5797V81.0625C110.844 80.7547 110.783 80.4498 110.665 80.1655C110.548 79.8811 110.375 79.6227 110.157 79.405C109.94 79.1873 109.681 79.0147 109.397 78.897C109.113 78.7792 108.808 78.7186 108.5 78.7187H94.1046C93.5342 76.5094 92.1775 74.5839 90.289 73.3032C88.4005 72.0226 86.1097 71.4747 83.8461 71.7622C81.5824 72.0497 79.5014 73.1529 77.993 74.865C76.4845 76.5772 75.6523 78.7806 75.6523 81.0625C75.6523 83.3443 76.4845 85.5478 77.993 87.2599C79.5014 88.972 81.5824 90.0752 83.8461 90.3627C86.1097 90.6503 88.4005 90.1023 90.289 88.8217C92.1775 87.541 93.5342 85.6156 94.1046 83.4062H106.156V90.4375H106.255C98.6066 99.6603 94.426 111.268 94.4375 123.25C94.793 136.595 98.8523 149.579 106.162 160.75H87.4062V155.73C89.6156 155.159 91.541 153.803 92.8217 151.914C94.1023 150.025 94.6503 147.735 94.3627 145.471C94.0752 143.207 92.972 141.126 91.2599 139.618C89.5478 138.11 87.3443 137.277 85.0625 137.277C82.7806 137.277 80.5772 138.11 78.865 139.618C77.1529 141.126 76.0497 143.207 75.7622 145.471C75.4747 147.735 76.0226 150.025 77.3032 151.914C78.5839 153.803 80.5094 155.159 82.7187 155.73V163.094C82.7186 163.402 82.7792 163.706 82.897 163.991C83.0147 164.275 83.1873 164.534 83.405 164.751C83.6227 164.969 83.8811 165.141 84.1655 165.259C84.4498 165.377 84.7547 165.438 85.0625 165.437H109.433C110.33 166.623 111.248 167.788 112.21 168.905C113.77 170.726 115.135 172.706 116.282 174.812H103.812C103.505 174.812 103.2 174.873 102.915 174.991C102.631 175.108 102.373 175.281 102.155 175.499C101.937 175.716 101.765 175.975 101.647 176.259C101.529 176.544 101.469 176.848 101.469 177.156V193.562H96.4484C95.8779 191.353 94.5213 189.428 92.6328 188.147C90.7442 186.866 88.4534 186.318 86.1898 186.606C83.9262 186.893 81.8451 187.997 80.3367 189.709C78.8283 191.421 77.9961 193.624 77.9961 195.906C77.9961 198.188 78.8283 200.392 80.3367 202.104C81.8451 203.816 83.9262 204.919 86.1898 205.206C88.4534 205.494 90.7442 204.946 92.6328 203.665C94.5213 202.385 95.8779 200.459 96.4484 198.25H103.812C104.12 198.25 104.425 198.189 104.709 198.072C104.994 197.954 105.252 197.781 105.47 197.564C105.688 197.346 105.86 197.088 105.978 196.803C106.096 196.519 106.156 196.214 106.156 195.906V179.5H118.401C119.586 182.756 120.201 186.191 120.219 189.655V190.704C119.282 191.535 118.587 192.604 118.205 193.797C117.824 194.99 117.772 196.264 118.053 197.484C118.335 198.705 118.94 199.827 119.805 200.733C120.67 201.639 121.763 202.295 122.969 202.632C122.707 203.337 122.57 204.081 122.562 204.833V205.73C122.565 207.475 123.259 209.148 124.493 210.383C125.727 211.617 127.401 212.311 129.146 212.312H162.854C164.599 212.311 166.272 211.617 167.507 210.383C168.741 209.148 169.435 207.475 169.437 205.73V204.833C169.43 204.081 169.293 203.337 169.031 202.632C170.237 202.295 171.33 201.639 172.195 200.733C173.06 199.827 173.665 198.705 173.947 197.484C174.228 196.264 174.176 194.99 173.794 193.797C173.413 192.604 172.718 191.535 171.781 190.704V189.655C171.882 182.003 174.723 174.641 179.79 168.905C180.106 168.539 180.406 168.155 180.714 167.781H188.187V191.219C188.187 191.527 188.248 191.831 188.366 192.116C188.483 192.4 188.656 192.659 188.874 192.876C189.091 193.094 189.35 193.266 189.634 193.384C189.919 193.502 190.223 193.563 190.531 193.562H197.895C198.466 195.772 199.822 197.697 201.711 198.978C203.599 200.259 205.89 200.807 208.154 200.519C210.417 200.231 212.499 199.128 214.007 197.416C215.515 195.704 216.348 193.501 216.348 191.219C216.348 188.937 215.515 186.733 214.007 185.021C212.499 183.309 210.417 182.206 208.154 181.918C205.89 181.631 203.599 182.179 201.711 183.459C199.822 184.74 198.466 186.666 197.895 188.875H192.875V165.437C192.875 165.13 192.814 164.825 192.697 164.54C192.579 164.256 192.406 163.998 192.189 163.78C191.971 163.562 191.713 163.39 191.428 163.272C191.144 163.154 190.839 163.094 190.531 163.094H184.269C190.154 154.631 194.265 145.063 196.352 134.969H204.594V139.989C202.384 140.559 200.459 141.916 199.178 143.805C197.898 145.693 197.35 147.984 197.637 150.248C197.925 152.511 199.028 154.592 200.74 156.101C202.452 157.609 204.656 158.441 206.937 158.441C209.219 158.441 211.423 157.609 213.135 156.101C214.847 154.592 215.95 152.511 216.238 150.248C216.525 147.984 215.977 145.693 214.697 143.805C213.416 141.916 211.491 140.559 209.281 139.989V132.625C209.281 132.317 209.221 132.012 209.103 131.728C208.985 131.444 208.813 131.185 208.595 130.968C208.377 130.75 208.119 130.577 207.834 130.459C207.55 130.342 207.245 130.281 206.937 130.281H197.098C197.397 127.949 197.552 125.601 197.562 123.25C197.57 114.194 195.176 105.298 190.626 97.4687H206.937C207.245 97.4688 207.55 97.4082 207.834 97.2905C208.119 97.1727 208.377 97.0001 208.595 96.7824C208.813 96.5648 208.985 96.3064 209.103 96.022C209.221 95.7376 209.281 95.4328 209.281 95.125V95.125ZM85.0625 85.75C84.1354 85.75 83.2291 85.475 82.4582 84.96C81.6874 84.4449 81.0866 83.7128 80.7318 82.8563C80.377 81.9998 80.2842 81.0573 80.465 80.148C80.6459 79.2387 81.0923 78.4035 81.7479 77.7479C82.4035 77.0923 83.2387 76.6459 84.148 76.465C85.0573 76.2842 85.9998 76.377 86.8563 76.7318C87.7128 77.0866 88.4449 77.6874 88.96 78.4582C89.475 79.2291 89.75 80.1354 89.75 81.0625C89.7485 82.3052 89.2542 83.4967 88.3755 84.3755C87.4967 85.2542 86.3052 85.7485 85.0625 85.75V85.75ZM80.375 146.687C80.375 145.76 80.6499 144.854 81.1649 144.083C81.68 143.312 82.4121 142.712 83.2686 142.357C84.1252 142.002 85.0677 141.909 85.9769 142.09C86.8862 142.271 87.7215 142.717 88.377 143.373C89.0326 144.028 89.479 144.864 89.6599 145.773C89.8408 146.682 89.7479 147.625 89.3931 148.481C89.0384 149.338 88.4376 150.07 87.6667 150.585C86.8958 151.1 85.9896 151.375 85.0625 151.375C83.8197 151.374 82.6282 150.879 81.7495 150C80.8707 149.122 80.3764 147.93 80.375 146.687ZM87.4062 200.594C86.4791 200.594 85.5728 200.319 84.802 199.804C84.0311 199.289 83.4303 198.557 83.0755 197.7C82.7207 196.844 82.6279 195.901 82.8088 194.992C82.9896 194.082 83.4361 193.247 84.0916 192.592C84.7472 191.936 85.5824 191.49 86.4917 191.309C87.401 191.128 88.3435 191.221 89.2 191.576C90.0566 191.93 90.7887 192.531 91.3037 193.302C91.8188 194.073 92.0937 194.979 92.0937 195.906C92.0923 197.149 91.598 198.34 90.7192 199.219C89.8404 200.098 88.649 200.592 87.4062 200.594V200.594ZM206.937 186.531C207.865 186.531 208.771 186.806 209.542 187.321C210.313 187.836 210.913 188.568 211.268 189.425C211.623 190.281 211.716 191.224 211.535 192.133C211.354 193.042 210.908 193.878 210.252 194.533C209.596 195.189 208.761 195.635 207.852 195.816C206.943 195.997 206 195.904 205.144 195.549C204.287 195.195 203.555 194.594 203.04 193.823C202.525 193.052 202.25 192.146 202.25 191.219C202.251 189.976 202.746 188.784 203.624 187.906C204.503 187.027 205.695 186.533 206.937 186.531ZM211.625 149.031C211.625 149.958 211.35 150.865 210.835 151.635C210.32 152.406 209.588 153.007 208.731 153.362C207.875 153.717 206.932 153.81 206.023 153.629C205.114 153.448 204.278 153.001 203.623 152.346C202.967 151.69 202.521 150.855 202.34 149.946C202.159 149.036 202.252 148.094 202.607 147.237C202.962 146.381 203.562 145.649 204.333 145.134C205.104 144.619 206.01 144.344 206.937 144.344C208.18 144.345 209.372 144.839 210.25 145.718C211.129 146.597 211.624 147.788 211.625 149.031V149.031ZM164.75 205.73C164.749 206.233 164.549 206.714 164.194 207.07C163.838 207.425 163.356 207.625 162.854 207.625H129.146C128.644 207.625 128.162 207.425 127.806 207.07C127.45 206.714 127.25 206.233 127.25 205.73V204.833C127.25 204.33 127.45 203.848 127.806 203.493C128.162 203.137 128.644 202.938 129.146 202.937H162.854C163.356 202.938 163.838 203.137 164.194 203.493C164.549 203.848 164.749 204.33 164.75 204.833V205.73ZM167.094 198.25H124.906C124.285 198.25 123.688 198.003 123.249 197.563C122.809 197.124 122.562 196.528 122.562 195.906C122.562 195.285 122.809 194.688 123.249 194.249C123.688 193.809 124.285 193.562 124.906 193.562H167.094C167.715 193.562 168.311 193.809 168.751 194.249C169.191 194.688 169.437 195.285 169.437 195.906C169.437 196.528 169.191 197.124 168.751 197.563C168.311 198.003 167.715 198.25 167.094 198.25ZM192.875 123.25C192.364 138.932 186.493 153.965 176.24 165.843C170.622 172.232 167.393 180.372 167.103 188.875H124.897C124.607 180.372 121.378 172.232 115.76 165.843C105.507 153.965 99.6355 138.932 99.125 123.25C99.125 110.818 104.064 98.8951 112.854 90.1043C121.645 81.3136 133.568 76.375 146 76.375C158.432 76.375 170.355 81.3136 179.146 90.1043C187.936 98.8951 192.875 110.818 192.875 123.25V123.25ZM202.25 81.0625C202.25 80.1354 202.525 79.2291 203.04 78.4582C203.555 77.6874 204.287 77.0866 205.144 76.7318C206 76.377 206.943 76.2842 207.852 76.465C208.761 76.6459 209.596 77.0923 210.252 77.7479C210.908 78.4035 211.354 79.2387 211.535 80.148C211.716 81.0573 211.623 81.9998 211.268 82.8563C210.913 83.7128 210.313 84.4449 209.542 84.96C208.771 85.475 207.865 85.75 206.937 85.75C205.695 85.7485 204.503 85.2542 203.624 84.3755C202.746 83.4967 202.251 82.3052 202.25 81.0625V81.0625Z" fill="white"/>
<path d="M153.031 174.812H148.344V179.5H153.031V174.812Z" fill="white"/>
<path d="M148.344 170.125H143.656V174.812H148.344V170.125Z" fill="white"/>
<path d="M143.656 174.812H138.969V179.5H143.656V174.812Z" fill="white"/>
<path d="M157.719 179.5H153.031V184.188H157.719V179.5Z" fill="white"/>
<path d="M138.969 179.5H134.281V184.188H138.969V179.5Z" fill="white"/>
<defs>
<filter id="filter0_d_975_12" x="0" y="0" width="292" height="292" filterUnits="userSpaceOnUse" color-interpolation-filters="sRGB">
<feFlood flood-opacity="0" result="BackgroundImageFix"/>
<feColorMatrix in="SourceAlpha" type="matrix" values="0 0 0 0 0 0 0 0 0 0 0 0 0 0 0 0 0 0 127 0" result="hardAlpha"/>
<feMorphology radius="5" operator="dilate" in="SourceAlpha" result="effect1_dropShadow_975_12"/>
<feOffset dy="4"/>
<feGaussianBlur stdDeviation="3"/>
<feComposite in2="hardAlpha" operator="out"/>
<feColorMatrix type="matrix" values="0 0 0 0 0 0 0 0 0 0 0 0 0 0 0 0 0 0 0.1 0"/>
<feBlend mode="normal" in2="BackgroundImageFix" result="effect1_dropShadow_975_12"/>
<feBlend mode="normal" in="SourceGraphic" in2="effect1_dropShadow_975_12" result="shape"/>
</filter>
<linearGradient id="paint0_linear_975_12" x1="135" y1="0" x2="135" y2="270" gradientUnits="userSpaceOnUse">
<stop stop-color="#370372"/>
<stop offset="1" stop-color="#08A6A9"/>
</linearGradient>
</defs>
</svg>
