<svg width="290" height="290" viewBox="0 0 290 290" fill="none" xmlns="http://www.w3.org/2000/svg">
<g opacity="0.75" filter="url(#filter0_d_1006_411)">
<path d="M251 276H31C17.1929 276 6 264.807 6 251V31C6 17.1929 17.1929 6 31 6H251C264.807 6 276 17.1929 276 31V251C276 264.807 264.807 276 251 276Z" fill="url(#paint0_linear_1006_411)"/>
</g>
<path d="M141.417 71.1044C131.961 71.1043 122.717 73.9086 114.854 79.1624C106.991 84.4165 100.863 91.8839 97.244 100.62C93.6249 109.357 92.678 118.971 94.523 128.245C96.3688 137.52 100.923 146.039 107.609 152.725C114.296 159.412 122.815 163.966 132.089 165.811C141.364 167.656 150.977 166.709 159.714 163.09C168.451 159.471 175.918 153.343 181.172 145.48C186.425 137.618 189.229 128.374 189.23 118.917C189.215 106.241 184.173 94.0886 175.209 85.1252C166.246 76.1618 154.093 71.1195 141.417 71.1044V71.1044ZM144.23 116.073V102.089C149.792 102.034 155.226 101.818 160.452 101.446C161.489 105.988 162.114 110.614 162.319 115.268C156.529 115.737 150.455 116.01 144.23 116.073V116.073ZM162.37 120.905C162.256 125.808 161.68 130.689 160.65 135.483C155.342 135.877 149.83 136.108 144.231 136.167V121.697C150.285 121.641 156.335 121.377 162.37 120.904V120.904V120.905ZM144.231 96.4654V87.2324C147.75 87.0833 151.243 86.5525 154.648 85.6494C156.399 88.9311 157.845 92.3661 158.97 95.9114C154.209 96.2284 149.278 96.4154 144.231 96.4654ZM141.417 76.7294C146.34 76.7399 151.223 77.618 155.842 79.3234C151.209 80.949 146.327 81.7508 141.417 81.6924C136.507 81.7504 131.626 80.9484 126.993 79.3234C131.611 77.6184 136.494 76.7404 141.417 76.7294ZM127.1 85.3084C130.841 86.4222 134.705 87.0685 138.604 87.2324V96.4654C133.117 96.4104 127.762 96.1964 122.62 95.8264C123.779 92.1874 125.279 88.6664 127.1 85.3084V85.3084ZM119.248 115.165C119.459 110.517 120.089 105.896 121.13 101.361C126.736 101.79 132.6 102.03 138.605 102.089V116.072C131.925 116.004 125.413 115.698 119.249 115.164L119.248 115.165ZM138.604 121.698V136.166C132.551 136.103 126.593 135.84 120.894 135.386C119.87 130.589 119.3 125.706 119.192 120.801C125.65 121.34 132.125 121.639 138.605 121.698H138.604ZM120.451 82.3594C120.896 82.6434 121.38 82.9064 121.87 83.1684C119.826 87.0574 118.167 91.1374 116.916 95.3484C113.597 95.0244 110.384 94.6374 107.314 94.1814C110.815 89.3628 115.29 85.3349 120.45 82.3594V82.3594H120.451ZM104.074 99.3514C107.864 99.9672 111.671 100.47 115.49 100.86C114.492 105.382 113.873 109.98 113.641 114.606C108.683 114.045 104.035 113.33 99.774 112.474C100.47 107.892 101.923 103.457 104.073 99.3514H104.074ZM99.23 118.916C99.23 118.645 99.265 118.383 99.271 118.113C103.674 118.974 108.466 119.689 113.552 120.251C113.619 125.15 114.112 130.033 115.027 134.846C110.287 134.343 105.812 133.699 101.675 132.933C100.067 128.435 99.2402 123.694 99.231 118.916H99.23ZM120.451 155.473C113.7 151.596 108.146 145.938 104.394 139.116C108.176 139.72 112.2 140.222 116.384 140.629C117.69 145.495 119.53 150.201 121.87 154.662C121.38 154.925 120.896 155.188 120.451 155.472V155.473ZM138.605 141.79V150.6C134.706 150.764 130.842 151.41 127.101 152.523C125.145 148.896 123.561 145.08 122.372 141.134C127.775 141.518 133.189 141.737 138.605 141.789V141.79ZM141.417 161.103C136.494 161.093 131.611 160.216 126.993 158.51C131.626 156.884 136.508 156.082 141.417 156.14C146.327 156.082 151.208 156.884 155.841 158.51C151.223 160.216 146.34 161.093 141.417 161.103V161.103ZM154.646 152.184C151.241 151.281 147.749 150.75 144.23 150.601V141.791C149.213 141.745 154.194 141.559 159.166 141.233C158.016 145.021 156.503 148.688 154.647 152.184H154.646ZM162.384 155.473C161.61 154.978 160.806 154.532 159.977 154.135C162.161 149.869 163.893 145.386 165.143 140.758C169.8 140.332 174.264 139.784 178.44 139.117C174.688 145.938 169.134 151.596 162.384 155.473V155.473V155.473ZM183.605 118.916C183.595 123.694 182.768 128.434 181.16 132.933C176.65 133.767 171.725 134.45 166.51 134.973C167.433 130.165 167.934 125.284 168.009 120.388C173.567 119.808 178.795 119.046 183.564 118.113C183.569 118.383 183.605 118.645 183.605 118.916ZM183.06 112.475C178.44 113.403 173.355 114.162 167.927 114.742C167.702 110.111 167.091 105.507 166.099 100.978C170.53 100.553 174.762 100.007 178.76 99.3524C180.91 103.459 182.363 107.894 183.06 112.476V112.475ZM164.679 95.4594C163.482 91.4003 161.908 87.4621 159.977 83.6964C160.806 83.3003 161.61 82.8538 162.384 82.3594C167.543 85.3354 172.019 89.3634 175.519 94.1814C172.073 94.6944 168.436 95.1144 164.679 95.4594ZM217.354 85.1664V79.1424C220.005 78.4579 222.316 76.83 223.853 74.5638C225.389 72.2976 226.047 69.5487 225.702 66.8324C225.356 64.1164 224.033 61.6184 221.978 59.8084C219.923 57.9985 217.279 57 214.541 57C211.803 57 209.159 57.9987 207.105 59.8087C205.05 61.6187 203.726 64.1158 203.381 66.8321C203.036 69.5483 203.693 72.2971 205.23 74.5634C206.767 76.8298 209.078 78.4579 211.729 79.1424V82.3544H191.292C186.134 75.2983 179.537 69.4174 171.937 65.1005C164.337 60.7835 155.908 58.1288 147.206 57.3118C138.504 56.4949 129.727 57.5343 121.457 60.3613C113.186 63.1884 105.61 67.7387 99.229 73.7114V68.2904C99.2294 67.7339 99.0645 67.1898 98.7553 66.7271C98.446 66.2644 98.0064 65.9039 97.492 65.6914C97.1508 65.5503 96.7852 65.4776 96.416 65.4774H79.142C78.4569 62.8269 76.8288 60.5172 74.5628 58.981C72.2968 57.4448 69.5485 56.7876 66.8327 57.1325C64.1169 57.4774 61.62 58.8008 59.8099 60.8546C57.9999 62.9084 57.0008 65.5518 57 68.2894C57.0008 71.027 57.9999 73.6704 59.8099 75.7242C61.62 77.7781 64.1169 79.1014 66.8327 79.4463C69.5485 79.7912 72.2968 79.134 74.5628 77.5978C76.8288 76.0616 78.4569 73.7519 79.142 71.1014H93.604V79.5394H93.722C84.5435 90.6074 79.5267 104.538 79.541 118.916C79.9676 134.931 84.8387 150.511 93.61 163.916H71.104V157.892C73.755 157.207 76.066 155.579 77.603 153.313C79.1396 151.047 79.7969 148.298 79.4518 145.582C79.1067 142.866 77.7828 140.369 75.7284 138.559C73.6739 136.749 71.0298 135.75 68.2917 135.75C65.5537 135.75 62.9095 136.748 60.855 138.558C58.8005 140.369 57.4768 142.866 57.1318 145.582C56.7868 148.298 57.4443 151.047 58.981 153.313C60.518 155.579 62.828 157.207 65.48 157.892V166.729C65.4799 167.099 65.5526 167.465 65.694 167.806C65.8353 168.147 66.0427 168.457 66.304 168.718C66.5653 168.979 66.8756 169.186 67.217 169.327C67.558 169.469 67.9237 169.542 68.293 169.541H97.538L100.871 173.702C102.743 175.888 104.381 178.264 105.757 180.791H90.791C90.4218 180.792 90.0562 180.864 89.715 181.005C89.3737 181.147 89.0637 181.354 88.8025 181.615C88.5413 181.876 88.3342 182.186 88.193 182.527C88.052 182.869 87.979 183.234 87.979 183.604V203.291H81.955C81.2711 200.64 79.6429 198.329 77.376 196.793C75.6845 195.646 73.7124 194.982 71.6717 194.871C69.6309 194.76 67.5985 195.208 65.7928 196.165C63.987 197.122 62.4762 198.553 61.4225 200.304C60.3688 202.055 59.812 204.061 59.812 206.104C59.8121 208.842 60.8107 211.487 62.6207 213.541C64.4307 215.595 66.9278 216.919 69.644 217.264C72.36 217.609 75.109 216.951 77.376 215.415C79.6424 213.879 81.2705 211.568 81.955 208.916H90.792C91.1613 208.917 91.527 208.844 91.868 208.702C92.2094 208.561 92.5197 208.354 92.781 208.093C93.0418 207.832 93.249 207.522 93.391 207.18C93.5323 206.839 93.6051 206.474 93.605 206.104V186.416H108.297C109.719 190.323 110.457 194.446 110.479 198.603V199.861C109.355 200.858 108.52 202.141 108.063 203.572C107.606 205.003 107.543 206.533 107.88 207.997C108.217 209.461 108.944 210.808 109.982 211.895C111.02 212.983 112.332 213.77 113.779 214.175C113.465 215.021 113.3 215.914 113.291 216.815V217.892C113.294 219.987 114.127 221.994 115.608 223.475C117.089 224.956 119.097 225.789 121.191 225.791H161.64C163.734 225.789 165.742 224.956 167.223 223.475C168.704 221.995 169.537 219.987 169.54 217.892V216.815C169.531 215.914 169.366 215.02 169.052 214.175C170.5 213.77 171.812 212.983 172.85 211.895C173.888 210.808 174.614 209.462 174.951 207.997C175.288 206.532 175.226 205.004 174.769 203.572C174.311 202.141 173.477 200.859 172.353 199.861V198.603C172.473 189.42 175.883 180.585 181.963 173.702L183.072 172.354H192.04V200.479C192.04 200.849 192.113 201.214 192.254 201.555C192.395 201.896 192.603 202.206 192.864 202.468C193.125 202.73 193.435 202.937 193.776 203.077C194.118 203.219 194.483 203.291 194.853 203.291H203.69C204.374 205.943 206.002 208.253 208.268 209.79C210.535 211.326 213.284 211.984 216 211.639C218.716 211.294 221.213 209.97 223.024 207.916C224.834 205.862 225.832 203.218 225.832 200.479C225.832 197.74 224.834 195.096 223.024 193.042C221.214 190.988 218.716 189.664 216 189.319C213.283 188.974 210.534 189.631 208.268 191.168C206.002 192.704 204.374 195.015 203.69 197.666H197.665V169.541C197.666 169.172 197.594 168.806 197.452 168.465C197.311 168.123 197.104 167.813 196.842 167.552C196.58 167.292 196.27 167.085 195.929 166.943C195.588 166.802 195.222 166.729 194.853 166.729H187.338C194.4 156.574 199.333 145.093 201.838 132.979H211.728V139.003C209.077 139.688 206.766 141.316 205.229 143.582C203.692 145.848 203.034 148.597 203.379 151.314C203.724 154.03 205.048 156.528 207.103 158.338C209.157 160.148 211.802 161.147 214.54 161.146C217.278 161.147 219.923 160.148 221.978 158.338C224.033 156.528 225.357 154.031 225.702 151.314C226.047 148.598 225.389 145.849 223.852 143.582C222.315 141.316 220.004 139.688 217.353 139.003V130.166C217.353 129.797 217.28 129.431 217.139 129.089C216.997 128.748 216.79 128.438 216.529 128.177C216.268 127.916 215.958 127.709 215.617 127.567C215.275 127.426 214.91 127.353 214.54 127.353H202.733C203.092 124.555 203.278 121.738 203.29 118.916C203.299 108.049 200.426 97.3744 194.966 87.9784H214.54C214.91 87.9784 215.275 87.9054 215.617 87.7644C215.958 87.623 216.268 87.4157 216.529 87.1544C217.056 86.6265 217.352 85.9113 217.353 85.1654V85.1654L217.354 85.1664ZM68.291 73.9164C67.179 73.9164 66.091 73.5864 65.166 72.9684C64.2411 72.3503 63.5201 71.472 63.094 70.4444C62.668 69.4174 62.557 68.2854 62.774 67.1944C62.9915 66.1035 63.5274 65.1015 64.3138 64.3149C65.1003 63.5282 66.1022 62.9922 67.193 62.7744C68.284 62.5564 69.415 62.6684 70.443 63.0944C71.471 63.5204 72.349 64.2414 72.967 65.1664C73.585 66.0914 73.915 67.1794 73.915 68.2914C73.9137 69.7828 73.3206 71.2128 72.266 72.2674C71.2114 73.322 69.7814 73.9151 68.29 73.9164V73.9164H68.291ZM62.666 147.041C62.666 145.928 62.996 144.841 63.614 143.916C64.232 142.991 65.11 142.27 66.138 141.844C67.166 141.418 68.297 141.307 69.388 141.524C70.479 141.741 71.481 142.277 72.268 143.064C73.0546 143.851 73.5905 144.853 73.808 145.944C74.026 147.035 73.914 148.166 73.488 149.194C73.062 150.222 72.341 151.1 71.416 151.718C70.491 152.336 69.403 152.666 68.291 152.666C66.8 152.664 65.37 152.071 64.315 151.017C63.2606 149.963 62.6676 148.533 62.666 147.042V147.041ZM71.103 211.729C69.991 211.729 68.903 211.399 67.978 210.781C67.053 210.163 66.332 209.284 65.906 208.256C65.48 207.228 65.369 206.097 65.586 205.006C65.8037 203.916 66.3396 202.914 67.1261 202.127C67.9125 201.341 68.9143 200.805 70.005 200.587C71.096 200.37 72.227 200.481 73.255 200.907C74.2826 201.334 75.1608 202.055 75.779 202.979C76.397 203.904 76.727 204.991 76.727 206.104C76.7257 207.596 76.1326 209.026 75.078 210.08C74.0234 211.135 72.5934 211.728 71.102 211.729V211.729H71.103ZM214.54 194.854C215.653 194.854 216.74 195.184 217.665 195.802C218.59 196.42 219.311 197.298 219.737 198.326C220.163 199.354 220.274 200.485 220.057 201.576C219.84 202.667 219.304 203.67 218.518 204.456C217.731 205.243 216.729 205.779 215.638 205.996C214.547 206.214 213.415 206.103 212.387 205.677C211.359 205.252 210.481 204.53 209.863 203.604C209.245 202.679 208.915 201.591 208.915 200.479C208.916 198.988 209.509 197.558 210.564 196.503C211.619 195.449 213.049 194.856 214.54 194.854V194.854ZM220.165 149.854C220.165 150.966 219.835 152.054 219.217 152.979C218.599 153.904 217.721 154.625 216.693 155.05C215.665 155.476 214.534 155.588 213.443 155.371C212.352 155.154 211.349 154.619 210.563 153.831C209.776 153.044 209.24 152.042 209.023 150.951C208.806 149.86 208.918 148.729 209.343 147.701C209.769 146.673 210.49 145.795 211.415 145.176C212.34 144.558 213.427 144.228 214.54 144.228C216.031 144.23 217.461 144.823 218.516 145.877C219.571 146.932 220.164 148.362 220.165 149.853V149.853V149.854ZM163.915 217.892C163.915 218.191 163.856 218.487 163.742 218.763C163.627 219.039 163.46 219.289 163.248 219.5C162.821 219.926 162.243 220.166 161.64 220.166H121.192C120.589 220.166 120.01 219.926 119.584 219.5C119.158 219.074 118.917 218.495 118.917 217.892V216.815C118.918 216.212 119.158 215.634 119.584 215.207C120.011 214.781 120.589 214.541 121.192 214.541H161.641C162.244 214.541 162.822 214.781 163.249 215.207C163.461 215.418 163.628 215.669 163.743 215.945C163.857 216.221 163.916 216.517 163.916 216.815V217.892H163.915ZM166.728 208.916H116.104C115.358 208.916 114.643 208.62 114.115 208.092C113.588 207.565 113.292 206.849 113.292 206.103C113.292 205.357 113.589 204.642 114.116 204.115C114.644 203.587 115.359 203.291 116.105 203.291H166.73C167.476 203.291 168.191 203.588 168.719 204.115C169.246 204.643 169.543 205.358 169.543 206.104C169.543 206.85 169.246 207.565 168.719 208.093C168.191 208.62 167.476 208.916 166.73 208.916H166.728ZM197.665 118.916C197.053 137.735 190.007 155.775 177.703 170.027C170.962 177.695 167.087 187.463 166.739 197.666H116.093C115.745 187.463 111.87 177.695 105.129 170.027C92.825 155.775 85.779 137.735 85.166 118.916C85.166 103.998 91.0923 89.6906 101.641 79.1417C112.19 68.5927 126.498 62.6664 141.416 62.6664C156.334 62.6664 170.642 68.5927 181.191 79.1417C191.74 89.6906 197.666 103.998 197.666 118.916V118.916H197.665ZM208.915 68.2914C208.915 67.1794 209.245 66.0914 209.863 65.1664C210.481 64.2414 211.36 63.5204 212.388 63.0944C213.416 62.6684 214.546 62.5574 215.638 62.7744C216.729 62.9913 217.732 63.5273 218.518 64.3144C219.304 65.1013 219.84 66.1035 220.057 67.1944C220.274 68.2854 220.163 69.4164 219.737 70.4444C219.311 71.4724 218.59 72.3504 217.665 72.9684C216.74 73.5864 215.653 73.9164 214.54 73.9164C213.049 73.9151 211.619 73.322 210.564 72.2674C209.509 71.2128 208.916 69.7828 208.915 68.2914V68.2914ZM149.855 180.791H144.23V186.416H149.855V180.791Z" fill="#004647"/>
<path d="M144.23 175.166H138.605V180.791H144.23V175.166Z" fill="#004647"/>
<path d="M138.605 180.791H132.98V186.416H138.605V180.791ZM155.479 186.416H149.855V192.041H155.479V186.416Z" fill="#004647"/>
<path d="M132.98 186.416H127.355V192.041H132.98V186.416Z" fill="#004647"/>
<defs>
<filter id="filter0_d_1006_411" x="0" y="0" width="290" height="290" filterUnits="userSpaceOnUse" color-interpolation-filters="sRGB">
<feFlood flood-opacity="0" result="BackgroundImageFix"/>
<feColorMatrix in="SourceAlpha" type="matrix" values="0 0 0 0 0 0 0 0 0 0 0 0 0 0 0 0 0 0 127 0" result="hardAlpha"/>
<feOffset dx="4" dy="4"/>
<feGaussianBlur stdDeviation="5"/>
<feColorMatrix type="matrix" values="0 0 0 0 0 0 0 0 0 0 0 0 0 0 0 0 0 0 0.1 0"/>
<feBlend mode="normal" in2="BackgroundImageFix" result="effect1_dropShadow_1006_411"/>
<feBlend mode="normal" in="SourceGraphic" in2="effect1_dropShadow_1006_411" result="shape"/>
</filter>
<linearGradient id="paint0_linear_1006_411" x1="141" y1="276" x2="141" y2="6" gradientUnits="userSpaceOnUse">
<stop stop-color="#26BFC1"/>
<stop offset="1" stop-color="#70F1F3"/>
</linearGradient>
</defs>
</svg>
