<svg width="292" height="292" viewBox="0 0 292 292" fill="none" xmlns="http://www.w3.org/2000/svg">
<g filter="url(#filter0_d_975_14)">
<rect x="3.75" y="-3.75" width="262.5" height="262.5" rx="21.25" transform="matrix(1 0 0 -1 11 269.5)" stroke="url(#paint0_linear_975_14)" stroke-width="7.5" shape-rendering="crispEdges"/>
</g>
<path d="M180.83 143.665H184.669C185.029 145.528 186.021 147.209 187.478 148.424C188.935 149.64 190.768 150.313 192.665 150.332H205.998C207.897 150.314 209.73 149.641 211.188 148.426C212.646 147.21 213.639 145.528 213.998 143.665H219.332C220.252 143.665 220.998 142.919 220.998 141.998C220.998 141.078 220.252 140.332 219.332 140.332H213.998C213.639 138.468 212.646 136.786 211.188 135.571C209.729 134.356 207.897 133.683 205.998 133.665C205.078 133.665 204.332 134.411 204.332 135.332C204.332 136.252 205.078 136.998 205.998 136.998C207.025 137.004 208.024 137.328 208.859 137.925C209.694 138.522 210.323 139.362 210.661 140.332H205.999C205.078 140.332 204.332 141.078 204.332 141.998C204.332 142.919 205.078 143.665 205.999 143.665H210.661C210.323 144.634 209.694 145.475 208.859 146.072C208.024 146.669 207.025 146.993 205.998 146.998H192.665C191.639 146.993 190.639 146.669 189.804 146.072C188.969 145.475 188.34 144.634 188.003 143.665H192.665C193.585 143.665 194.332 142.919 194.332 141.998C194.332 141.078 193.585 140.332 192.665 140.332H188.002H188.003C188.34 139.362 188.969 138.522 189.804 137.925C190.639 137.328 191.639 137.004 192.665 136.998H199.332C200.252 136.998 200.998 136.252 200.998 135.332C200.998 134.411 200.252 133.665 199.332 133.665H192.665C190.767 133.684 188.935 134.357 187.478 135.572C186.021 136.788 185.029 138.468 184.669 140.332H180.83C180.53 133.594 178.271 127.091 174.332 121.618V108.665C174.336 105.573 175.567 102.607 177.753 100.421C179.94 98.2337 182.906 97.0027 185.998 96.9993H199.332C203.064 96.9881 206.657 95.5819 209.407 93.0585C212.157 90.534 213.865 87.0743 214.195 83.3567C216.088 83.0241 217.804 82.0409 219.046 80.5744C220.29 79.109 220.98 77.2542 220.998 75.3334C220.998 72.3557 219.41 69.6046 216.832 68.1158C214.253 66.6281 211.076 66.6281 208.498 68.1158C205.92 69.6046 204.332 72.3557 204.332 75.3334C204.35 77.2072 205.007 79.0184 206.195 80.4684C207.383 81.917 209.031 82.917 210.866 83.302C210.551 86.1446 209.202 88.7719 207.074 90.6836C204.948 92.5943 202.191 93.6567 199.332 93.6658H185.998C182.022 93.6703 178.208 95.2528 175.397 98.0643C172.584 100.877 171.003 104.689 170.998 108.665V117.579C164.821 111.277 156.481 107.556 147.665 107.168V83.3289C149.528 82.9695 151.209 81.9773 152.425 80.5198C153.64 79.0634 154.313 77.2307 154.332 75.3336C154.332 72.356 152.744 69.6049 150.165 68.1161C147.586 66.6284 144.41 66.6284 141.832 68.1161C139.253 69.6049 137.665 72.356 137.665 75.3336C137.684 77.2309 138.357 79.0636 139.572 80.5198C140.787 81.9774 142.468 82.9695 144.332 83.3289V107.169C140.088 107.319 135.907 108.25 131.998 109.912C131.185 110.298 130.824 111.26 131.185 112.085C131.545 112.911 132.496 113.3 133.332 112.965C143.312 108.602 154.833 109.665 163.846 115.782C172.858 121.899 178.101 132.215 177.729 143.101C177.357 153.986 171.424 163.92 162.016 169.408C152.607 174.896 141.041 175.172 131.382 170.137C121.722 165.104 115.324 155.463 114.434 144.608C113.545 133.752 118.289 123.2 127 116.661C127.682 116.092 127.798 115.088 127.265 114.379C126.732 113.67 125.735 113.502 125 113.999C123.579 115.085 122.242 116.277 121 117.563V108.665C120.996 104.689 119.414 100.876 116.601 98.0643C113.79 95.253 109.976 93.6704 106 93.6658H92.6664C89.8069 93.6569 87.0504 92.5944 84.9241 90.6836C82.7969 88.7718 81.4475 86.1445 81.1327 83.302C82.9675 82.917 84.615 81.917 85.8035 80.4684C86.991 79.0186 87.6484 77.2073 87.6662 75.3333C87.6662 72.3557 86.0781 69.6046 83.5 68.1158C80.9219 66.6281 77.7454 66.6281 75.1663 68.1158C72.5882 69.6046 71 72.3557 71 75.3333C71.0179 77.2541 71.7087 79.109 72.952 80.5744C74.1942 82.0408 75.9106 83.0252 77.8034 83.3567C78.1338 87.0743 79.8413 90.5339 82.5914 93.0585C85.3414 95.5818 88.934 96.9881 92.6662 96.9992H106C109.092 97.0026 112.058 98.2336 114.245 100.421C116.432 102.607 117.663 105.573 117.666 108.665V121.506C113.676 127.001 111.39 133.548 111.095 140.332H107.334C106.974 138.468 105.981 136.786 104.523 135.571C103.065 134.356 101.231 133.683 99.3337 133.665H86C84.1027 133.684 82.27 134.357 80.8126 135.572C79.355 136.787 78.3628 138.468 78.0046 140.332H72.6663C71.7466 140.332 71 141.078 71 141.998C71 142.919 71.7467 143.664 72.6663 143.664H78.0046C78.3628 145.528 79.3561 147.209 80.8126 148.424C82.2702 149.64 84.1029 150.313 86 150.332C86.9208 150.332 87.6663 149.585 87.6663 148.664C87.6663 147.745 86.9207 146.998 86 146.998C84.9732 146.993 83.9743 146.669 83.1394 146.072C82.3046 145.475 81.6751 144.634 81.337 143.664H85.9998C86.9206 143.664 87.6661 142.919 87.6661 141.998C87.6661 141.077 86.9206 140.332 85.9998 140.332H81.337C81.6751 139.362 82.3046 138.522 83.1394 137.925C83.9743 137.328 84.9731 137.004 86 136.998H99.3337C100.359 137.004 101.359 137.328 102.194 137.925C103.029 138.522 103.659 139.362 103.996 140.332H99.3339C98.4131 140.332 97.6665 141.077 97.6665 141.998C97.6665 142.919 98.4131 143.664 99.3339 143.664H103.997H103.996C103.659 144.634 103.029 145.475 102.194 146.072C101.359 146.669 100.359 146.993 99.3337 146.998H92.6663C91.7466 146.998 91 147.745 91 148.664C91 149.585 91.7467 150.332 92.6663 150.332H99.3337C101.231 150.313 103.064 149.64 104.521 148.424C105.978 147.209 106.971 145.528 107.33 143.664H111.169C111.469 150.402 113.728 156.905 117.666 162.378V175.331C117.663 178.424 116.432 181.389 114.245 183.575C112.058 185.763 109.093 186.994 106 186.997H92.6663C88.9343 187.008 85.3403 188.415 82.5915 190.938C79.8415 193.461 78.1338 196.922 77.8035 200.64C75.9106 200.971 74.194 201.956 72.952 203.422C71.7087 204.888 71.0179 206.742 71.0001 208.663C71.0001 211.641 72.5882 214.392 75.1663 215.881C77.7456 217.368 80.922 217.368 83.5 215.881C86.0781 214.392 87.6663 211.641 87.6663 208.663C87.6484 206.789 86.9911 204.978 85.8036 203.528C84.615 202.08 82.9677 201.08 81.1327 200.694C81.4475 197.852 82.7968 195.225 84.9242 193.313C87.0503 191.402 89.807 190.34 92.6664 190.331H106C109.977 190.326 113.79 188.744 116.602 185.932C119.414 183.12 120.995 179.307 121 175.331V166.417C127.177 172.72 135.518 176.44 144.334 176.829V200.666C142.47 201.026 140.788 202.019 139.573 203.478C138.357 204.935 137.684 206.769 137.666 208.666C137.666 211.644 139.255 214.395 141.834 215.884C144.412 217.372 147.588 217.372 150.166 215.884C152.746 214.395 154.334 211.644 154.334 208.666C154.316 206.769 153.643 204.935 152.427 203.477C151.212 202.019 149.53 201.026 147.666 200.666V176.829C156.482 176.44 164.823 172.719 171 166.417V175.331C171.004 179.307 172.586 183.12 175.399 185.932C178.21 188.744 182.024 190.326 186 190.331H199.334C202.193 190.34 204.95 191.402 207.076 193.313C209.203 195.225 210.552 197.852 210.867 200.694C209.032 201.08 207.385 202.079 206.196 203.528C205.009 204.978 204.352 206.789 204.334 208.663C204.334 211.641 205.922 214.392 208.5 215.881C211.078 217.368 214.255 217.368 216.834 215.881C219.412 214.392 221 211.641 221 208.663C220.982 206.742 220.291 204.888 219.048 203.422C217.806 201.956 216.089 200.971 214.197 200.64C213.866 196.922 212.159 193.461 209.409 190.938C206.66 188.415 203.066 187.008 199.334 186.997H186C182.908 186.994 179.942 185.763 177.755 183.575C175.568 181.389 174.337 178.424 174.334 175.331V162.378C178.272 156.905 180.531 150.402 180.832 143.664L180.83 143.665ZM207.665 75.3346C207.665 74.0077 208.191 72.7365 209.129 71.799C210.068 70.8615 211.339 70.3347 212.665 70.3347C213.992 70.3347 215.263 70.8615 216.2 71.799C217.138 72.7365 217.665 74.0077 217.665 75.3346C217.665 76.6605 217.138 77.9317 216.2 78.8703C215.263 79.8077 213.992 80.3345 212.665 80.3345C211.34 80.3323 210.069 79.8055 209.131 78.868C208.194 77.9306 207.667 76.6594 207.665 75.3347L207.665 75.3346ZM140.999 75.3346C140.999 74.0077 141.526 72.7365 142.463 71.799C143.401 70.8615 144.673 70.3347 145.999 70.3347C147.325 70.3347 148.597 70.8615 149.535 71.799C150.472 72.7365 150.999 74.0077 150.999 75.3346C150.999 76.6605 150.472 77.9317 149.535 78.8703C148.597 79.8077 147.325 80.3345 145.999 80.3345C144.673 80.3323 143.402 79.8055 142.466 78.868C141.528 77.9306 141 76.6594 140.999 75.3347L140.999 75.3346ZM74.3336 75.3346C74.3336 74.0077 74.8604 72.7365 75.7979 71.799C76.7354 70.8615 78.0066 70.3347 79.3336 70.3347C80.6595 70.3347 81.9307 70.8615 82.8693 71.799C83.8068 72.7365 84.3336 74.0077 84.3336 75.3346C84.3336 76.6605 83.8068 77.9317 82.8693 78.8703C81.9307 79.8077 80.6595 80.3345 79.3336 80.3345C78.0077 80.3323 76.7365 79.8055 75.799 78.868C74.8615 77.9306 74.3347 76.6594 74.3336 75.3347L74.3336 75.3346ZM84.3336 208.666V208.665C84.3336 209.992 83.8068 211.263 82.8693 212.201C81.9307 213.138 80.6595 213.665 79.3336 213.665C78.0066 213.665 76.7354 213.138 75.7979 212.201C74.8604 211.263 74.3336 209.992 74.3336 208.665C74.3336 207.339 74.8604 206.068 75.7979 205.129C76.7354 204.192 78.0066 203.665 79.3336 203.665C80.6583 203.667 81.9295 204.194 82.867 205.132C83.8045 206.069 84.3313 207.34 84.3335 208.665L84.3336 208.666ZM150.999 208.666V208.665C150.999 209.992 150.472 211.263 149.535 212.201C148.597 213.138 147.325 213.665 145.999 213.665C144.673 213.665 143.401 213.138 142.463 212.201C141.526 211.263 140.999 209.992 140.999 208.665C140.999 207.339 141.526 206.068 142.463 205.129C143.401 204.192 144.673 203.665 145.999 203.665C147.325 203.667 148.596 204.194 149.533 205.132C150.47 206.069 150.998 207.34 150.999 208.665L150.999 208.666ZM217.665 208.666V208.665C217.665 209.992 217.138 211.263 216.2 212.201C215.263 213.138 213.992 213.665 212.665 213.665C211.339 213.665 210.068 213.138 209.129 212.201C208.191 211.263 207.665 209.992 207.665 208.665C207.665 207.339 208.191 206.068 209.129 205.129C210.068 204.192 211.339 203.665 212.665 203.665C213.991 203.667 215.262 204.194 216.199 205.132C217.137 206.069 217.663 207.34 217.665 208.665L217.665 208.666Z" fill="white"/>
<path d="M152.664 153.664H132.664C131.745 153.664 130.998 154.411 130.998 155.332C130.998 156.251 131.745 156.998 132.664 156.998H144.331L144.332 161.998C144.332 162.919 145.077 163.664 145.998 163.664C146.919 163.664 147.664 162.919 147.664 161.998V156.998H152.664C155.642 156.998 158.393 155.41 159.882 152.832C161.37 150.253 161.37 147.076 159.882 144.498C158.393 141.92 155.642 140.332 152.664 140.332H139.332C137.545 140.332 135.894 139.379 135.001 137.832C134.109 136.285 134.109 134.379 135.001 132.832C135.894 131.285 137.545 130.332 139.332 130.332H159.332C160.251 130.332 160.998 129.586 160.998 128.665C160.998 127.745 160.251 126.999 159.332 126.999H147.664V121.999C147.664 121.078 146.919 120.333 145.998 120.333C145.077 120.333 144.332 121.078 144.332 121.999V126.999H139.332C136.354 126.999 133.603 128.587 132.114 131.165C130.626 133.744 130.626 136.92 132.114 139.498C133.603 142.076 136.354 143.665 139.332 143.665H152.665H152.664C154.451 143.665 156.102 144.618 156.995 146.165C157.887 147.711 157.887 149.618 156.995 151.164C156.102 152.711 154.451 153.664 152.664 153.664V153.664Z" fill="white"/>
<defs>
<filter id="filter0_d_975_14" x="0" y="0" width="292" height="292" filterUnits="userSpaceOnUse" color-interpolation-filters="sRGB">
<feFlood flood-opacity="0" result="BackgroundImageFix"/>
<feColorMatrix in="SourceAlpha" type="matrix" values="0 0 0 0 0 0 0 0 0 0 0 0 0 0 0 0 0 0 127 0" result="hardAlpha"/>
<feMorphology radius="5" operator="dilate" in="SourceAlpha" result="effect1_dropShadow_975_14"/>
<feOffset dy="4"/>
<feGaussianBlur stdDeviation="3"/>
<feComposite in2="hardAlpha" operator="out"/>
<feColorMatrix type="matrix" values="0 0 0 0 0 0 0 0 0 0 0 0 0 0 0 0 0 0 0.1 0"/>
<feBlend mode="normal" in2="BackgroundImageFix" result="effect1_dropShadow_975_14"/>
<feBlend mode="normal" in="SourceGraphic" in2="effect1_dropShadow_975_14" result="shape"/>
</filter>
<linearGradient id="paint0_linear_975_14" x1="135" y1="0" x2="135" y2="270" gradientUnits="userSpaceOnUse">
<stop stop-color="#370372"/>
<stop offset="1" stop-color="#08A6A9"/>
</linearGradient>
</defs>
</svg>
