<svg width="290" height="290" viewBox="0 0 290 290" fill="none" xmlns="http://www.w3.org/2000/svg">
<g opacity="0.75" filter="url(#filter0_d_1006_409)">
<path d="M251 276H31C17.1929 276 6 264.807 6 251V31C6 17.1929 17.1929 6 31 6H251C264.807 6 276 17.1929 276 31V251C276 264.807 264.807 276 251 276Z" fill="url(#paint0_linear_1006_409)"/>
</g>
<path fill-rule="evenodd" clip-rule="evenodd" d="M125.884 171.288C127.878 169.294 128.998 166.591 128.998 163.771C128.998 160.952 127.878 158.248 125.884 156.255L125.879 156.25C121.728 152.1 114.998 152.1 110.847 156.25L61.1124 205.986C59.1195 207.979 58 210.683 58 213.501C58 216.32 59.1195 219.023 61.1124 221.017L61.1174 221.023C63.1109 223.016 65.8144 224.136 68.6334 224.136C71.4524 224.136 74.1559 223.016 76.1494 221.023L125.884 171.288V171.288ZM122.905 168.308L73.1704 218.043C70.6654 220.549 66.6024 220.549 64.0974 218.043C62.8931 216.84 62.2161 215.207 62.2152 213.505C62.2142 211.803 62.8895 210.17 64.0924 208.965L113.827 159.23C116.333 156.724 120.395 156.724 122.9 159.23C124.105 160.433 124.782 162.065 124.783 163.768C124.784 165.47 124.108 167.103 122.905 168.308V168.308ZM218.573 75.1499C220.567 73.1564 221.686 70.4529 221.686 67.6339C221.686 64.8149 220.567 62.1114 218.573 60.1179L218.568 60.1129C216.575 58.1197 213.871 57 211.052 57C208.233 57 205.53 58.1197 203.536 60.1129L153.801 109.848C151.808 111.841 150.688 114.545 150.688 117.364C150.688 120.183 151.808 122.886 153.801 124.88L153.806 124.885C155.8 126.878 158.503 127.998 161.322 127.998C164.141 127.998 166.845 126.878 168.838 124.885L218.573 75.1499ZM215.594 72.1699L165.859 121.905C164.656 123.107 163.024 123.783 161.322 123.783C159.621 123.783 157.989 123.107 156.785 121.905L156.78 121.9C154.274 119.394 154.274 115.332 156.78 112.827L206.516 63.0919C209.021 60.5869 213.083 60.5869 215.588 63.0919C216.793 64.295 217.47 65.9273 217.471 67.6297C217.472 69.3321 216.797 70.9652 215.594 72.1699V72.1699Z" fill="#004041"/>
<path fill-rule="evenodd" clip-rule="evenodd" d="M109.045 145.903C105.051 150.86 104.143 157.479 106.318 163.193L110.256 161.693C108.438 156.918 109.452 151.31 113.299 147.463L114.49 146.272C115.022 145.74 115.23 144.964 115.035 144.237C114.939 143.88 114.751 143.555 114.489 143.293C114.228 143.031 113.902 142.843 113.545 142.747L95.0899 137.802C94.6494 137.685 94.1827 137.713 93.7596 137.883C93.3365 138.053 92.9798 138.355 92.7429 138.744C89.3169 144.412 87.5626 150.933 87.682 157.555C87.8014 164.177 89.7898 170.63 93.4179 176.171L96.9389 173.857C90.6969 164.362 90.2389 152.181 95.5659 142.292L109.044 145.904L109.045 145.903ZM120.918 174.42C126.013 174.954 131.296 173.269 135.2 169.364L148.176 156.388L162.61 160.256C161.712 161.467 160.714 162.628 159.616 163.726L144.589 178.753C134.858 188.484 120.247 190.361 108.634 184.382L106.705 188.128C119.903 194.923 136.509 192.792 147.568 181.732L162.595 166.706C164.59 164.713 166.339 162.487 167.803 160.076C167.972 159.797 168.073 159.482 168.099 159.156C168.126 158.83 168.076 158.503 167.954 158.2C167.832 157.897 167.642 157.626 167.398 157.409C167.154 157.192 166.862 157.035 166.547 156.949L148.092 152.004C147.365 151.809 146.589 152.017 146.057 152.549L132.221 166.385C129.251 169.355 125.233 170.636 121.358 170.23L120.918 174.42V174.42ZM169.084 136.496C172.746 131.951 173.814 126.009 172.289 120.649L168.236 121.802C169.522 126.319 168.387 131.38 164.83 134.937L163.639 136.128C163.107 136.661 162.899 137.436 163.094 138.163C163.289 138.89 163.856 139.458 164.583 139.652L183.038 144.598C183.478 144.716 183.945 144.688 184.368 144.518C184.791 144.348 185.148 144.046 185.385 143.656C192.083 132.616 192.141 118.679 185.559 107.589L181.936 109.739C184.644 114.32 186.124 119.522 186.234 124.842C186.343 130.162 185.079 135.42 182.562 140.108L169.084 136.497V136.496ZM156.961 107.954C151.944 107.5 146.769 109.194 142.928 113.035L129.953 126.011L115.518 122.143C116.429 120.915 117.431 119.755 118.513 118.673L133.539 103.646C143.091 94.0943 157.347 92.1103 168.852 97.6953L170.692 93.9043C157.617 87.5573 141.416 89.8113 130.56 100.667L115.533 115.694C113.494 117.734 111.758 119.962 110.326 122.323C109.982 122.89 109.925 123.586 110.172 124.201C110.294 124.505 110.485 124.776 110.73 124.992C110.974 125.209 111.266 125.366 111.582 125.451L130.037 130.396C130.764 130.591 131.54 130.383 132.072 129.851L145.908 116.015C148.829 113.094 152.766 111.806 156.582 112.151L156.962 107.954H156.961ZM193.667 151.461L204.603 148.99C205.147 148.866 205.62 148.531 205.918 148.059C206.216 147.587 206.315 147.016 206.193 146.471C206.069 145.927 205.734 145.453 205.262 145.155C204.79 144.857 204.219 144.758 203.674 144.88L192.738 147.351C192.193 147.475 191.72 147.81 191.422 148.282C191.124 148.754 191.026 149.326 191.148 149.87C191.404 151.004 192.533 151.717 193.667 151.46V151.461ZM84.7549 127.955L73.8189 130.426C73.2745 130.55 72.8015 130.885 72.5035 131.357C72.2054 131.829 72.1067 132.401 72.2289 132.945C72.353 133.49 72.6877 133.963 73.1599 134.261C73.632 134.559 74.2031 134.658 74.7479 134.535L85.6839 132.064C86.2283 131.94 86.7013 131.605 86.9993 131.133C87.2973 130.661 87.3961 130.09 87.2739 129.545C87.1498 129.001 86.815 128.528 86.3429 128.23C85.8707 127.932 85.2997 127.833 84.7549 127.955ZM185.324 164.813L194.611 172.046C195.052 172.389 195.611 172.543 196.165 172.474C196.72 172.405 197.224 172.119 197.568 171.678C197.91 171.237 198.064 170.678 197.995 170.124C197.926 169.569 197.64 169.065 197.2 168.721L187.913 161.489C187.472 161.147 186.913 160.993 186.358 161.062C185.804 161.131 185.3 161.417 184.956 161.857C184.614 162.298 184.46 162.857 184.529 163.411C184.598 163.965 184.884 164.47 185.324 164.813V164.813ZM93.0979 114.603L83.8109 107.371C83.3698 107.029 82.8108 106.875 82.2565 106.944C81.7022 107.012 81.1978 107.298 80.8539 107.738C80.5112 108.179 80.3574 108.738 80.4262 109.293C80.495 109.847 80.7808 110.351 81.2209 110.695L90.5089 117.927C90.95 118.27 91.5089 118.424 92.0632 118.355C92.6175 118.286 93.1219 118 93.4659 117.56C93.8084 117.119 93.9621 116.56 93.8931 116.006C93.8241 115.451 93.5381 114.947 93.0979 114.603V114.603ZM175.647 172.451L178.231 182.687C178.515 183.815 179.661 184.499 180.788 184.214C181.915 183.929 182.601 182.784 182.316 181.657L179.733 171.42C179.595 170.879 179.249 170.414 178.769 170.128C178.29 169.842 177.717 169.758 177.175 169.893C176.633 170.031 176.169 170.377 175.882 170.857C175.596 171.336 175.511 171.91 175.647 172.451V172.451ZM102.775 106.965L100.192 96.7293C100.055 96.1879 99.7082 95.7231 99.2287 95.4366C98.7492 95.1502 98.1757 95.0656 97.6339 95.2013C97.0925 95.3386 96.6276 95.685 96.3412 96.1645C96.0548 96.644 95.9702 97.2175 96.1059 97.7593L98.6889 107.995C98.8264 108.537 99.1729 109.001 99.6524 109.287C100.132 109.574 100.705 109.658 101.247 109.522C101.788 109.385 102.253 109.039 102.54 108.559C102.826 108.08 102.911 107.506 102.775 106.964V106.965Z" fill="#004041"/>
<defs>
<filter id="filter0_d_1006_409" x="0" y="0" width="290" height="290" filterUnits="userSpaceOnUse" color-interpolation-filters="sRGB">
<feFlood flood-opacity="0" result="BackgroundImageFix"/>
<feColorMatrix in="SourceAlpha" type="matrix" values="0 0 0 0 0 0 0 0 0 0 0 0 0 0 0 0 0 0 127 0" result="hardAlpha"/>
<feOffset dx="4" dy="4"/>
<feGaussianBlur stdDeviation="5"/>
<feColorMatrix type="matrix" values="0 0 0 0 0 0 0 0 0 0 0 0 0 0 0 0 0 0 0.1 0"/>
<feBlend mode="normal" in2="BackgroundImageFix" result="effect1_dropShadow_1006_409"/>
<feBlend mode="normal" in="SourceGraphic" in2="effect1_dropShadow_1006_409" result="shape"/>
</filter>
<linearGradient id="paint0_linear_1006_409" x1="141" y1="276" x2="141" y2="6" gradientUnits="userSpaceOnUse">
<stop stop-color="#098A76"/>
<stop offset="1" stop-color="#07F1CC"/>
</linearGradient>
</defs>
</svg>
