<svg width="292" height="292" viewBox="0 0 292 292" fill="none" xmlns="http://www.w3.org/2000/svg">
<g filter="url(#filter0_d_975_10)">
<rect x="3.75" y="-3.75" width="262.5" height="262.5" rx="21.25" transform="matrix(1 0 0 -1 11 269.5)" stroke="url(#paint0_linear_975_10)" stroke-width="7.5" shape-rendering="crispEdges"/>
</g>
<path fill-rule="evenodd" clip-rule="evenodd" d="M134.274 167.506C137.733 164.047 137.733 158.439 134.274 154.979L134.27 154.975C130.811 151.516 125.202 151.516 121.743 154.975C111.894 164.825 90.1462 186.572 80.2974 196.422C76.8384 199.88 76.8384 205.489 80.2974 208.948L80.3013 208.952C83.7603 212.411 89.3687 212.411 92.8283 208.952L134.274 167.506ZM131.791 165.023L90.3451 206.469C88.2575 208.557 84.8721 208.557 82.7844 206.469C82.7839 206.469 82.78 206.465 82.78 206.465C80.6923 204.377 80.6923 200.992 82.78 198.904L124.226 157.459C126.314 155.37 129.699 155.37 131.787 157.458C131.787 157.459 131.791 157.463 131.791 157.463C133.879 159.55 133.879 162.936 131.791 165.023ZM211.515 87.3917C214.974 83.9322 214.974 78.3243 211.515 74.8648L211.511 74.8608C208.051 71.4019 202.443 71.4019 198.984 74.8608C189.135 84.7103 167.387 106.457 157.538 116.307C154.079 119.766 154.079 125.374 157.538 128.833L157.542 128.838C161.001 132.297 166.61 132.297 170.069 128.838L211.515 87.3917ZM209.032 84.9086L167.586 126.355C165.498 128.443 162.113 128.443 160.025 126.355L160.021 126.351C157.933 124.263 157.933 120.878 160.021 118.789L201.467 77.3434C203.555 75.2558 206.94 75.2558 209.028 77.3434C209.028 77.344 209.032 77.3479 209.032 77.3479C211.12 79.4356 211.12 82.821 209.032 84.9086Z" fill="white"/>
<path fill-rule="evenodd" clip-rule="evenodd" d="M120.241 146.353C116.913 150.484 116.155 156 117.968 160.761L121.25 159.512C119.735 155.532 120.58 150.859 123.786 147.653L124.778 146.66C125.222 146.217 125.395 145.57 125.233 144.964C125.071 144.359 124.597 143.885 123.991 143.723L108.612 139.602C107.858 139.4 107.062 139.72 106.657 140.388C100.845 149.967 101.032 162.165 107.219 171.576L110.154 169.648C104.952 161.735 104.571 151.585 109.009 143.344L120.241 146.353ZM130.135 170.117C134.381 170.562 138.784 169.158 142.037 165.904L152.85 155.091L164.879 158.314C164.131 159.323 163.299 160.29 162.384 161.205L149.861 173.728C141.752 181.837 129.576 183.401 119.899 178.419L118.291 181.541C129.29 187.203 143.128 185.427 152.344 176.211L164.866 163.689C166.566 161.989 168.012 160.131 169.206 158.164C169.492 157.692 169.54 157.112 169.334 156.599C169.128 156.086 168.693 155.701 168.159 155.558L152.78 151.437C152.174 151.275 151.527 151.448 151.084 151.891L139.554 163.421C137.08 165.896 133.731 166.964 130.501 166.626L130.135 170.117ZM170.274 138.514C173.325 134.726 174.216 129.775 172.945 125.308L169.567 126.268C170.639 130.033 169.692 134.25 166.728 137.214L165.736 138.207C165.293 138.65 165.119 139.296 165.282 139.903C165.444 140.508 165.917 140.982 166.523 141.144L181.902 145.265C182.656 145.467 183.453 145.147 183.858 144.48C189.439 135.28 189.487 123.666 184.003 114.424L180.984 116.216C185.586 123.971 185.759 133.625 181.505 141.523L170.274 138.514ZM160.171 114.729C155.99 114.351 151.678 115.763 148.477 118.963L137.664 129.776L125.635 126.553C126.384 125.544 127.216 124.577 128.131 123.662L140.653 111.139C148.613 103.179 160.492 101.526 170.08 106.18L171.614 103.021C160.718 97.7319 147.217 99.61 138.171 108.657L125.648 121.179C123.949 122.879 122.502 124.735 121.309 126.703C121.022 127.175 120.975 127.755 121.18 128.268C121.386 128.78 121.822 129.166 122.355 129.309L137.735 133.43C138.34 133.593 138.987 133.419 139.43 132.976L150.96 121.446C153.394 119.012 156.675 117.939 159.855 118.226L160.171 114.729ZM190.759 150.985L199.873 148.926C200.818 148.712 201.412 147.771 201.198 146.826C200.985 145.881 200.044 145.287 199.099 145.5L189.985 147.56C189.04 147.773 188.446 148.714 188.66 149.659C188.873 150.604 189.814 151.199 190.759 150.985ZM99.9998 131.396L90.8863 133.456C89.9414 133.67 89.3476 134.61 89.561 135.555C89.7745 136.5 90.7155 137.094 91.6605 136.881L100.774 134.821C101.719 134.608 102.313 133.667 102.099 132.722C101.886 131.777 100.945 131.183 99.9998 131.396ZM183.807 162.112L191.546 168.139C192.311 168.734 193.415 168.597 194.01 167.832C194.606 167.068 194.468 165.964 193.704 165.368L185.964 159.341C185.2 158.746 184.096 158.884 183.5 159.648C182.905 160.412 183.042 161.516 183.807 162.112ZM106.952 120.27L99.2127 114.243C98.4481 113.647 97.3442 113.784 96.7487 114.549C96.1532 115.313 96.2908 116.417 97.0549 117.013L104.795 123.04C105.559 123.635 106.663 123.498 107.259 122.734C107.854 121.969 107.717 120.865 106.952 120.27ZM175.743 168.476L177.896 177.007C178.133 177.946 179.088 178.516 180.027 178.279C180.967 178.042 181.537 177.087 181.3 176.148L179.148 167.617C178.91 166.678 177.955 166.108 177.016 166.345C176.076 166.582 175.506 167.537 175.743 168.476ZM115.016 113.905L112.863 105.375C112.626 104.435 111.671 103.865 110.732 104.102C109.792 104.339 109.222 105.294 109.459 106.234L111.612 114.764C111.849 115.703 112.804 116.273 113.743 116.036C114.683 115.799 115.253 114.844 115.016 113.905Z" fill="white"/>
<defs>
<filter id="filter0_d_975_10" x="0" y="0" width="292" height="292" filterUnits="userSpaceOnUse" color-interpolation-filters="sRGB">
<feFlood flood-opacity="0" result="BackgroundImageFix"/>
<feColorMatrix in="SourceAlpha" type="matrix" values="0 0 0 0 0 0 0 0 0 0 0 0 0 0 0 0 0 0 127 0" result="hardAlpha"/>
<feMorphology radius="5" operator="dilate" in="SourceAlpha" result="effect1_dropShadow_975_10"/>
<feOffset dy="4"/>
<feGaussianBlur stdDeviation="3"/>
<feComposite in2="hardAlpha" operator="out"/>
<feColorMatrix type="matrix" values="0 0 0 0 0 0 0 0 0 0 0 0 0 0 0 0 0 0 0.1 0"/>
<feBlend mode="normal" in2="BackgroundImageFix" result="effect1_dropShadow_975_10"/>
<feBlend mode="normal" in="SourceGraphic" in2="effect1_dropShadow_975_10" result="shape"/>
</filter>
<linearGradient id="paint0_linear_975_10" x1="135" y1="0" x2="135" y2="270" gradientUnits="userSpaceOnUse">
<stop stop-color="#370372"/>
<stop offset="1" stop-color="#08A6A9"/>
</linearGradient>
</defs>
</svg>
