<svg xmlns="http://www.w3.org/2000/svg" xmlns:xlink="http://www.w3.org/1999/xlink" width="377" zoomAndPan="magnify" viewBox="0 0 282.96 283.499996" height="377" preserveAspectRatio="xMidYMid meet" version="1.0"><defs><g/><clipPath id="id1"><path d="M 92.386719 171 L 185.058594 171 L 185.058594 188.789062 L 92.386719 188.789062 Z M 92.386719 171 " clip-rule="nonzero"/></clipPath><clipPath id="id2"><path d="M 107 71.453125 L 145 71.453125 L 145 107 L 107 107 Z M 107 71.453125 " clip-rule="nonzero"/></clipPath><clipPath id="id3"><path d="M 106 71.453125 L 173 71.453125 L 173 146 L 106 146 Z M 106 71.453125 " clip-rule="nonzero"/></clipPath><clipPath id="id4"><path d="M 105 71.453125 L 173 71.453125 L 173 147 L 105 147 Z M 105 71.453125 " clip-rule="nonzero"/></clipPath><clipPath id="id5"><path d="M 63 82 L 96 82 L 96 168 L 63 168 Z M 63 82 " clip-rule="nonzero"/></clipPath><clipPath id="id6"><path d="M 69.34375 80.195312 L 103.566406 83.445312 L 95.515625 168.265625 L 61.289062 165.015625 Z M 69.34375 80.195312 " clip-rule="nonzero"/></clipPath><clipPath id="id7"><path d="M 69.34375 80.195312 L 198.058594 92.417969 L 190.003906 177.234375 L 61.289062 165.015625 Z M 69.34375 80.195312 " clip-rule="nonzero"/></clipPath><clipPath id="id8"><path d="M 69.363281 80.199219 L 100.292969 83.136719 L 92.234375 167.984375 L 61.308594 165.046875 Z M 69.363281 80.199219 " clip-rule="nonzero"/></clipPath><clipPath id="id9"><path d="M 69.363281 80.199219 L 100.292969 83.136719 L 92.238281 167.953125 L 61.3125 165.019531 Z M 69.363281 80.199219 " clip-rule="nonzero"/></clipPath><clipPath id="id10"><path d="M 184 81 L 217 81 L 217 167 L 184 167 Z M 184 81 " clip-rule="nonzero"/></clipPath><clipPath id="id11"><path d="M 187.074219 80.195312 L 221.300781 83.445312 L 213.246094 168.265625 L 179.023438 165.015625 Z M 187.074219 80.195312 " clip-rule="nonzero"/></clipPath><clipPath id="id12"><path d="M 221.648438 83.480469 L 92.933594 71.257812 L 84.882812 156.078125 L 213.597656 168.296875 Z M 221.648438 83.480469 " clip-rule="nonzero"/></clipPath><clipPath id="id13"><path d="M 221.625 83.476562 L 190.699219 80.539062 L 182.644531 165.390625 L 213.570312 168.324219 Z M 221.625 83.476562 " clip-rule="nonzero"/></clipPath><clipPath id="id14"><path d="M 221.625 83.476562 L 190.699219 80.539062 L 182.648438 165.359375 L 213.574219 168.296875 Z M 221.625 83.476562 " clip-rule="nonzero"/></clipPath></defs><g clip-path="url(#id1)"><path fill="#f0bc8a" d="M 138.730469 188.785156 C 164.21875 188.785156 185.007812 185.015625 185.007812 180.390625 C 185.007812 175.769531 164.21875 171.996094 138.730469 171.996094 C 113.242188 171.996094 92.453125 175.769531 92.453125 180.390625 C 92.453125 185.015625 113.242188 188.785156 138.730469 188.785156 " fill-opacity="1" fill-rule="evenodd"/></g><path fill="#ffda68" d="M 180.261719 177.882812 C 180.261719 182.519531 161.667969 186.277344 138.730469 186.277344 C 115.792969 186.277344 97.199219 182.519531 97.199219 177.882812 C 97.199219 173.996094 97.199219 174.003906 97.199219 170.113281 C 97.199219 165.476562 115.792969 161.71875 138.730469 161.71875 C 161.667969 161.71875 180.261719 165.476562 180.261719 170.113281 C 180.261719 174.003906 180.261719 173.996094 180.261719 177.882812 " fill-opacity="1" fill-rule="evenodd"/><path fill="#ffe68c" d="M 138.730469 178.507812 C 161.605469 178.507812 180.261719 174.738281 180.261719 170.113281 C 180.261719 165.488281 161.605469 161.71875 138.730469 161.71875 C 115.855469 161.71875 97.199219 165.488281 97.199219 170.113281 C 97.199219 174.738281 115.855469 178.507812 138.730469 178.507812 " fill-opacity="1" fill-rule="evenodd"/><path fill="#ffda68" d="M 168.136719 169.742188 C 168.136719 173.023438 154.972656 175.683594 138.730469 175.683594 C 122.488281 175.683594 109.324219 173.023438 109.324219 169.742188 C 109.324219 167.105469 109.324219 164.464844 109.324219 161.828125 C 109.324219 158.546875 122.488281 155.882812 138.730469 155.882812 C 154.972656 155.882812 168.136719 158.546875 168.136719 161.828125 C 168.136719 164.464844 168.136719 167.105469 168.136719 169.742188 " fill-opacity="1" fill-rule="evenodd"/><path fill="#ffe68c" d="M 138.730469 167.773438 C 154.925781 167.773438 168.136719 165.101562 168.136719 161.828125 C 168.136719 158.554688 154.925781 155.882812 138.730469 155.882812 C 122.535156 155.882812 109.324219 158.554688 109.324219 161.828125 C 109.324219 165.101562 122.535156 167.773438 138.730469 167.773438 " fill-opacity="1" fill-rule="evenodd"/><g clip-path="url(#id2)"><path fill="#f7cb43" d="M 139.804688 71.457031 L 144.910156 87.273438 C 144.308594 89.191406 143.484375 91.03125 142.46875 92.765625 L 139.804688 84.515625 L 135.09375 99.113281 L 119.753906 99.085938 L 128.207031 105.203125 C 126.742188 105.847656 125.214844 106.402344 123.636719 106.84375 L 107.335938 95.050781 L 132.175781 95.097656 L 139.804688 71.457031 " fill-opacity="1" fill-rule="evenodd"/><path fill="#f2c143" d="M 142.886719 92.03125 L 140.398438 84.324219 L 139.804688 82.488281 L 139.214844 84.324219 L 134.640625 98.492188 L 119.753906 98.464844 L 117.828125 98.460938 L 119.390625 99.589844 L 127.539062 105.488281 C 127.765625 105.394531 127.984375 105.300781 128.207031 105.203125 L 119.753906 99.085938 L 135.09375 99.113281 L 139.804688 84.515625 L 142.46875 92.765625 C 142.609375 92.523438 142.75 92.277344 142.886719 92.03125 Z M 139.804688 71.457031 L 144.910156 87.273438 C 144.804688 87.605469 144.695312 87.9375 144.578125 88.261719 L 139.804688 73.480469 L 132.769531 95.289062 L 132.628906 95.71875 L 132.175781 95.71875 L 109.261719 95.675781 L 124.390625 106.625 C 124.140625 106.699219 123.890625 106.773438 123.636719 106.84375 L 107.335938 95.050781 L 132.175781 95.097656 L 139.804688 71.457031 " fill-opacity="1" fill-rule="evenodd"/></g><path fill="#f6c52e" d="M 128.9375 105.730469 L 130.570312 106.914062 C 129.140625 107.582031 127.652344 108.160156 126.105469 108.632812 L 124.394531 107.394531 C 125.964844 106.941406 127.480469 106.382812 128.9375 105.730469 Z M 145.273438 88.394531 L 146.054688 90.816406 C 145.375 92.585938 144.507812 94.28125 143.472656 95.875 L 142.785156 93.742188 C 143.808594 92.054688 144.644531 90.265625 145.273438 88.394531 " fill-opacity="1" fill-rule="evenodd"/><path fill="#f2c143" d="M 128.9375 105.730469 L 130.570312 106.914062 C 130.355469 107.011719 130.136719 107.113281 129.917969 107.210938 L 128.273438 106.019531 C 128.496094 105.925781 128.714844 105.828125 128.9375 105.730469 Z M 143.902344 95.1875 C 143.761719 95.417969 143.621094 95.648438 143.472656 95.875 L 142.785156 93.742188 C 142.929688 93.503906 143.066406 93.261719 143.203125 93.019531 Z M 125.144531 107.167969 L 126.84375 108.398438 C 126.597656 108.480469 126.355469 108.558594 126.105469 108.632812 L 124.394531 107.394531 C 124.648438 107.324219 124.898438 107.246094 125.144531 107.167969 Z M 145.273438 88.394531 L 146.054688 90.816406 C 145.9375 91.117188 145.816406 91.414062 145.691406 91.710938 L 144.929688 89.359375 C 145.050781 89.039062 145.164062 88.71875 145.273438 88.394531 " fill-opacity="1" fill-rule="evenodd"/><path fill="#eeb217" d="M 137.90625 117.046875 L 141.269531 117.046875 L 141.269531 144.042969 L 137.90625 144.042969 L 137.90625 117.046875 " fill-opacity="1" fill-rule="evenodd"/><path fill="#f7cb43" d="M 140.390625 117.046875 L 141.75 117.046875 L 141.75 144.042969 L 140.390625 144.042969 L 140.390625 117.046875 " fill-opacity="1" fill-rule="evenodd"/><path fill="#f5bf17" d="M 140.390625 117.046875 L 140.859375 117.046875 L 140.859375 144.042969 L 140.390625 144.042969 L 140.390625 117.046875 " fill-opacity="1" fill-rule="evenodd"/><path fill="#e19d15" d="M 137.90625 117.046875 L 141.269531 117.046875 L 141.269531 121.628906 L 139.804688 120.5625 L 137.90625 122.203125 L 137.90625 117.046875 " fill-opacity="1" fill-rule="evenodd"/><path fill="#e8b239" d="M 140.390625 117.046875 L 141.75 117.046875 L 141.75 121.980469 L 140.390625 120.988281 L 140.390625 117.046875 " fill-opacity="1" fill-rule="evenodd"/><path fill="#e6a815" d="M 140.390625 117.046875 L 140.859375 117.046875 L 140.859375 121.332031 L 140.390625 120.988281 L 140.390625 117.046875 " fill-opacity="1" fill-rule="evenodd"/><g clip-path="url(#id3)"><path fill="#f5bf17" d="M 139.804688 84.515625 L 135.09375 99.113281 L 119.753906 99.085938 L 132.863281 108.570312 L 117.992188 132.113281 L 139.597656 113.46875 L 152.199219 122.660156 L 147.429688 108.078125 L 159.855469 99.085938 L 144.519531 99.113281 Z M 139.804688 71.457031 L 147.4375 95.097656 L 172.273438 95.050781 L 152.152344 109.613281 L 159.871094 133.226562 L 139.804688 118.585938 L 106.386719 145.53125 L 127.460938 109.613281 L 107.335938 95.050781 L 132.175781 95.097656 L 139.804688 71.457031 " fill-opacity="1" fill-rule="evenodd"/></g><g clip-path="url(#id4)"><path fill="#eeb217" d="M 139.804688 84.515625 L 135.09375 99.113281 L 119.753906 99.085938 L 132.863281 108.570312 L 117.992188 132.113281 L 139.597656 113.46875 L 152.199219 122.660156 L 147.429688 108.078125 L 159.855469 99.085938 L 144.519531 99.113281 Z M 134.640625 98.492188 L 119.753906 98.464844 L 117.828125 98.460938 L 119.390625 99.589844 L 132.023438 108.734375 L 117.46875 131.78125 L 115.238281 135.3125 L 118.398438 132.582031 L 139.628906 114.257812 L 151.832031 123.164062 L 153.386719 124.296875 L 152.789062 122.46875 L 148.164062 108.316406 L 160.222656 99.589844 L 161.78125 98.460938 L 159.855469 98.464844 L 144.96875 98.492188 L 140.398438 84.324219 L 139.804688 82.488281 L 139.214844 84.324219 Z M 146.84375 95.289062 L 139.804688 73.480469 L 132.769531 95.289062 L 132.628906 95.71875 L 132.175781 95.71875 L 109.261719 95.675781 L 127.824219 109.109375 L 128.296875 109.449219 L 127.988281 109.945312 L 107.992188 143.574219 L 139.398438 118.113281 L 139.773438 117.792969 L 140.171875 118.082031 L 158.683594 131.589844 L 151.558594 109.804688 L 151.417969 109.375 L 151.785156 109.109375 L 170.347656 95.675781 L 147.4375 95.71875 L 146.984375 95.71875 Z M 139.804688 71.457031 L 147.4375 95.097656 L 172.273438 95.050781 L 152.152344 109.613281 L 159.871094 133.226562 L 139.804688 118.585938 L 105.1875 146.824219 L 127.460938 109.613281 L 107.335938 95.050781 L 132.175781 95.097656 L 139.804688 71.457031 " fill-opacity="1" fill-rule="evenodd"/></g><path fill="#b90505" d="M 127.398438 140.824219 L 151.773438 140.824219 C 152.265625 140.824219 152.667969 141.226562 152.667969 141.714844 L 152.667969 142.851562 L 126.507812 142.851562 L 126.507812 141.714844 C 126.507812 141.226562 126.90625 140.824219 127.398438 140.824219 " fill-opacity="1" fill-rule="evenodd"/><path fill="#c50505" d="M 127.398438 140.824219 L 139.257812 140.824219 C 139.046875 141.535156 138.703125 142.21875 138.246094 142.851562 L 126.507812 142.851562 L 126.507812 141.714844 C 126.507812 141.226562 126.90625 140.824219 127.398438 140.824219 " fill-opacity="1" fill-rule="evenodd"/><path fill="#c50505" d="M 126.28125 142.851562 L 152.894531 142.851562 C 153.625 142.851562 154.222656 143.449219 154.222656 144.179688 L 154.222656 160.484375 C 154.222656 161.214844 153.625 161.8125 152.894531 161.8125 L 126.28125 161.8125 C 125.546875 161.8125 124.949219 161.214844 124.949219 160.484375 L 124.949219 144.179688 C 124.949219 143.449219 125.546875 142.851562 126.28125 142.851562 " fill-opacity="1" fill-rule="evenodd"/><path fill="#d40605" d="M 126.28125 142.851562 L 140.910156 142.851562 C 142.515625 144.820312 143.449219 147.164062 143.449219 149.683594 C 143.449219 155.496094 138.484375 160.382812 131.746094 161.8125 L 126.28125 161.8125 C 125.546875 161.8125 124.949219 161.214844 124.949219 160.484375 L 124.949219 144.179688 C 124.949219 143.449219 125.546875 142.851562 126.28125 142.851562 " fill-opacity="1" fill-rule="evenodd"/><path fill="#b90505" d="M 123.304688 159.910156 L 124.949219 159.910156 C 131.109375 161.359375 148.0625 161.359375 154.222656 159.910156 L 155.867188 159.910156 C 156.28125 159.910156 156.617188 160.246094 156.617188 160.660156 L 156.617188 162.65625 C 156.617188 165.527344 122.554688 165.527344 122.554688 162.65625 L 122.554688 160.660156 C 122.554688 160.246094 122.894531 159.910156 123.304688 159.910156 " fill-opacity="1" fill-rule="evenodd"/><path fill="#db1712" d="M 124.949219 159.910156 C 131.109375 161.359375 148.0625 161.359375 154.222656 159.910156 C 154.957031 159.910156 156.589844 159.621094 156.617188 160.640625 C 153.109375 162.902344 126.066406 162.902344 122.554688 160.640625 C 122.582031 159.621094 124.21875 159.910156 124.949219 159.910156 " fill-opacity="1" fill-rule="evenodd"/><path fill="#f7cb43" d="M 139.585938 156.703125 C 145.382812 156.703125 150.113281 153.8125 150.113281 150.269531 C 150.113281 146.722656 145.382812 143.832031 139.585938 143.832031 C 133.789062 143.832031 129.058594 146.722656 129.058594 150.269531 C 129.058594 153.8125 133.789062 156.703125 139.585938 156.703125 " fill-opacity="1" fill-rule="evenodd"/><path fill="#f5bf17" d="M 139.585938 155.933594 C 144.691406 155.933594 148.855469 153.390625 148.855469 150.269531 C 148.855469 147.148438 144.691406 144.601562 139.585938 144.601562 C 134.480469 144.601562 130.320312 147.148438 130.320312 150.269531 C 130.320312 153.390625 134.480469 155.933594 139.585938 155.933594 " fill-opacity="1" fill-rule="evenodd"/><path fill="#facd50" d="M 139.585938 143.832031 C 140.835938 143.832031 142.03125 143.964844 143.140625 144.207031 L 132.78125 155.179688 C 130.507812 154 129.058594 152.238281 129.058594 150.269531 C 129.058594 146.714844 133.773438 143.832031 139.585938 143.832031 " fill-opacity="1" fill-rule="evenodd"/><path fill="#f9c632" d="M 139.585938 144.601562 C 140.605469 144.601562 141.582031 144.703125 142.5 144.886719 L 133.421875 154.5 C 131.519531 153.460938 130.320312 151.949219 130.320312 150.269531 C 130.320312 147.136719 134.46875 144.601562 139.585938 144.601562 " fill-opacity="1" fill-rule="evenodd"/><path fill="#ffffff" d="M 138.125 146.058594 C 138.769531 146.058594 139.292969 145.894531 139.292969 145.695312 C 139.292969 145.496094 138.769531 145.332031 138.125 145.332031 C 137.480469 145.332031 136.957031 145.496094 136.957031 145.695312 C 136.957031 145.894531 137.480469 146.058594 138.125 146.058594 " fill-opacity="1" fill-rule="evenodd"/><g clip-path="url(#id5)"><g clip-path="url(#id6)"><g clip-path="url(#id7)"><g clip-path="url(#id8)"><g clip-path="url(#id9)"><path fill="#f6bf16" d="M 89.367188 87.277344 C 89.613281 86.945312 89.453125 86.136719 89.429688 85.292969 C 89.414062 84.875 89.414062 84.429688 89.515625 84.046875 C 89.609375 83.664062 89.785156 83.320312 90.085938 83.09375 C 89.792969 83.398438 89.644531 83.792969 89.585938 84.214844 C 89.527344 84.636719 89.570312 85.097656 89.617188 85.519531 C 89.714844 86.367188 89.90625 87.117188 89.550781 87.367188 C 90.015625 87.5 90.367188 87.441406 90.609375 87.230469 C 90.851562 87.019531 91.003906 86.675781 91.050781 86.210938 C 91.09375 85.742188 91.066406 85.183594 90.945312 84.539062 C 90.820312 83.898438 90.625 83.191406 90.34375 82.464844 C 89.578125 82.585938 88.996094 82.898438 88.566406 83.28125 C 88.148438 83.671875 87.914062 84.152344 87.835938 84.636719 C 87.707031 85.625 88.261719 86.636719 89.367188 87.277344 Z M 87.050781 90.796875 C 87.210938 90.375 86.835938 89.53125 86.574219 88.617188 C 86.445312 88.160156 86.335938 87.683594 86.320312 87.234375 C 86.304688 86.789062 86.394531 86.378906 86.636719 86.050781 C 86.421875 86.460938 86.375 86.921875 86.4375 87.402344 C 86.503906 87.878906 86.660156 88.363281 86.828125 88.8125 C 87.160156 89.714844 87.554688 90.492188 87.265625 90.851562 C 88.269531 90.921875 88.589844 90.257812 88.449219 89.214844 C 88.371094 88.691406 88.183594 88.074219 87.894531 87.40625 C 87.601562 86.738281 87.203125 86.007812 86.722656 85.296875 C 85.261719 85.996094 84.65625 87.210938 84.796875 88.296875 C 84.933594 89.394531 85.769531 90.355469 87.050781 90.796875 Z M 84.976562 94.65625 C 85.023438 94.15625 84.449219 93.304688 83.945312 92.351562 C 83.699219 91.875 83.476562 91.378906 83.351562 90.890625 C 83.226562 90.402344 83.210938 89.933594 83.390625 89.523438 C 83.328125 89.769531 83.3125 90.023438 83.332031 90.277344 C 83.363281 90.535156 83.425781 90.792969 83.515625 91.046875 C 83.695312 91.558594 83.972656 92.054688 84.253906 92.515625 C 84.832031 93.445312 85.410156 94.21875 85.203125 94.671875 C 86.257812 94.554688 86.417969 93.742188 86.023438 92.621094 C 85.609375 91.488281 84.648438 90.035156 83.285156 88.675781 C 82.957031 88.949219 82.683594 89.246094 82.46875 89.554688 C 82.25 89.859375 82.105469 90.183594 82.007812 90.503906 C 81.804688 91.144531 81.839844 91.796875 82.039062 92.375 C 82.4375 93.539062 83.5625 94.429688 84.976562 94.65625 Z M 83.125 98.835938 C 83.058594 98.273438 82.28125 97.4375 81.550781 96.472656 C 81.183594 95.992188 80.835938 95.484375 80.605469 94.972656 C 80.378906 94.464844 80.25 93.945312 80.347656 93.460938 C 80.316406 94.027344 80.519531 94.589844 80.8125 95.117188 C 81.105469 95.644531 81.503906 96.140625 81.90625 96.601562 C 82.707031 97.523438 83.472656 98.273438 83.363281 98.8125 C 83.890625 98.65625 84.167969 98.351562 84.21875 97.933594 C 84.242188 97.726562 84.214844 97.492188 84.136719 97.234375 C 84.0625 96.976562 83.941406 96.699219 83.773438 96.402344 C 83.105469 95.226562 81.777344 93.785156 80.066406 92.554688 C 79.472656 93.277344 79.183594 94.054688 79.109375 94.792969 C 79.046875 95.53125 79.210938 96.234375 79.546875 96.832031 C 80.230469 98.039062 81.585938 98.820312 83.125 98.835938 Z M 81.484375 103.324219 C 81.3125 102.71875 80.3125 101.90625 79.367188 100.964844 C 78.894531 100.492188 78.425781 99.984375 78.082031 99.460938 C 77.742188 98.9375 77.523438 98.390625 77.527344 97.84375 C 77.613281 98.472656 77.917969 99.054688 78.328125 99.585938 C 78.742188 100.121094 79.265625 100.609375 79.773438 101.050781 C 80.789062 101.941406 81.75 102.660156 81.738281 103.269531 C 82.007812 103.144531 82.195312 102.988281 82.3125 102.804688 C 82.433594 102.621094 82.484375 102.410156 82.472656 102.175781 C 82.449219 101.710938 82.167969 101.148438 81.710938 100.550781 C 81.25 99.953125 80.59375 99.308594 79.800781 98.675781 C 79.007812 98.046875 78.078125 97.429688 77.054688 96.894531 C 76.085938 98.679688 76.363281 100.453125 77.316406 101.660156 C 78.265625 102.871094 79.851562 103.53125 81.484375 103.324219 Z M 80.058594 108.128906 C 79.5 106.851562 75.257812 105.066406 74.929688 102.65625 C 75.300781 104.007812 76.625 105.023438 77.851562 105.863281 C 79.078125 106.703125 80.238281 107.375 80.320312 108.039062 C 81.367188 107.363281 81.023438 106.261719 79.832031 105.0625 C 78.652344 103.871094 76.625 102.566406 74.261719 101.679688 C 73.519531 103.761719 74.128906 105.65625 75.335938 106.847656 C 76.550781 108.042969 78.355469 108.5625 80.058594 108.128906 Z M 78.855469 113.261719 C 78.066406 111.929688 73.265625 110.480469 72.554688 107.902344 C 73.167969 109.328125 74.714844 110.269531 76.160156 111.042969 C 77.605469 111.816406 78.929688 112.417969 79.121094 113.128906 C 79.632812 112.703125 79.753906 112.203125 79.5625 111.65625 C 79.371094 111.113281 78.882812 110.527344 78.15625 109.941406 C 76.707031 108.773438 74.363281 107.59375 71.699219 106.921875 C 71.21875 109.277344 72.140625 111.257812 73.621094 112.40625 C 75.097656 113.566406 77.105469 113.921875 78.855469 113.261719 Z M 77.898438 118.730469 C 76.867188 117.367188 71.539062 116.304688 70.433594 113.59375 C 71.269531 115.074219 73.070312 115.929688 74.710938 116.613281 C 76.355469 117.292969 77.859375 117.808594 78.164062 118.558594 C 78.648438 118.046875 78.703125 117.488281 78.429688 116.917969 C 78.152344 116.347656 77.539062 115.761719 76.691406 115.203125 C 74.988281 114.089844 72.3125 113.0625 69.382812 112.625 C 69.179688 115.234375 70.453125 117.277344 72.179688 118.359375 C 73.921875 119.453125 76.113281 119.621094 77.898438 118.730469 Z M 77.214844 124.558594 C 76.566406 123.875 74.800781 123.378906 72.996094 122.707031 C 72.09375 122.371094 71.179688 121.988281 70.398438 121.515625 C 69.617188 121.042969 68.96875 120.476562 68.585938 119.769531 C 69.671875 121.285156 71.6875 122.023438 73.535156 122.59375 C 75.386719 123.164062 77.042969 123.570312 77.472656 124.351562 C 78.375 123.148438 77.429688 121.921875 75.472656 120.878906 C 73.507812 119.84375 70.539062 119 67.347656 118.835938 C 67.457031 121.679688 69.066406 123.75 71.058594 124.738281 C 73.054688 125.734375 75.425781 125.691406 77.214844 124.558594 Z M 76.859375 130.765625 C 76.082031 130.101562 74.140625 129.742188 72.132812 129.199219 C 70.117188 128.65625 68.054688 127.921875 67.074219 126.480469 C 68.414062 128.003906 70.652344 128.59375 72.691406 129.023438 C 74.734375 129.453125 76.558594 129.722656 77.105469 130.515625 C 77.511719 129.828125 77.429688 129.183594 76.960938 128.589844 C 76.5 127.996094 75.652344 127.453125 74.542969 126.988281 C 72.335938 126.070312 69.0625 125.449219 65.644531 125.59375 C 65.867188 127.121094 66.476562 128.40625 67.308594 129.414062 C 68.132812 130.417969 69.195312 131.144531 70.316406 131.578125 C 72.574219 132.441406 75.097656 132.152344 76.859375 130.765625 Z M 76.914062 137.378906 C 76.003906 136.75 73.886719 136.566406 71.6875 136.191406 C 69.484375 135.816406 67.1875 135.246094 65.980469 133.789062 C 67.582031 135.292969 70.046875 135.691406 72.265625 135.945312 C 74.488281 136.195312 76.457031 136.300781 77.144531 137.085938 C 77.484375 136.316406 77.324219 135.640625 76.75 135.054688 C 76.183594 134.46875 75.222656 133.972656 73.984375 133.585938 C 71.523438 132.820312 67.972656 132.472656 64.351562 132.984375 C 64.554688 133.796875 64.875 134.535156 65.246094 135.191406 C 65.628906 135.851562 66.082031 136.433594 66.582031 136.929688 C 67.597656 137.925781 68.796875 138.589844 70.054688 138.933594 C 71.308594 139.277344 72.601562 139.300781 73.789062 139.03125 C 74.980469 138.765625 76.058594 138.207031 76.914062 137.378906 Z M 77.503906 144.417969 C 76.457031 143.855469 74.195312 143.898438 71.804688 143.746094 C 70.609375 143.667969 69.386719 143.542969 68.28125 143.253906 C 67.179688 142.96875 66.171875 142.515625 65.445312 141.796875 C 67.335938 143.246094 69.996094 143.394531 72.382812 143.417969 C 74.769531 143.4375 76.886719 143.328125 77.710938 144.082031 C 77.980469 143.226562 77.699219 142.535156 77.027344 141.972656 C 76.34375 141.414062 75.261719 140.988281 73.910156 140.707031 C 71.195312 140.152344 67.382812 140.148438 63.621094 141.105469 C 63.785156 141.53125 63.96875 141.9375 64.171875 142.320312 C 64.378906 142.699219 64.609375 143.0625 64.851562 143.394531 C 65.332031 144.066406 65.894531 144.644531 66.492188 145.121094 C 67.691406 146.082031 69.078125 146.65625 70.445312 146.875 C 73.210938 147.308594 75.925781 146.355469 77.503906 144.417969 Z M 78.851562 151.871094 C 77.652344 151.425781 75.273438 151.769531 72.726562 151.925781 C 70.183594 152.078125 67.484375 152.023438 65.71875 150.640625 C 66.8125 151.308594 68.09375 151.597656 69.386719 151.679688 C 70.6875 151.761719 72.027344 151.644531 73.289062 151.5 C 75.816406 151.207031 78.03125 150.816406 79.019531 151.492188 C 79.171875 150.558594 78.773438 149.871094 77.980469 149.367188 C 77.179688 148.867188 75.980469 148.546875 74.503906 148.414062 C 73.03125 148.28125 71.285156 148.332031 69.433594 148.597656 C 67.578125 148.863281 65.605469 149.347656 63.691406 150.105469 C 64.613281 151.898438 65.921875 153.242188 67.335938 154.125 C 68.769531 155.011719 70.308594 155.4375 71.804688 155.476562 C 73.292969 155.515625 74.71875 155.167969 75.9375 154.539062 C 76.546875 154.222656 77.105469 153.839844 77.59375 153.390625 C 78.082031 152.945312 78.511719 152.433594 78.851562 151.871094 Z M 81.320312 159.652344 C 79.984375 159.40625 77.554688 160.1875 74.914062 160.785156 C 73.589844 161.082031 72.222656 161.328125 70.914062 161.34375 C 69.605469 161.359375 68.347656 161.136719 67.292969 160.507812 C 68.578125 161.082031 69.972656 161.195312 71.359375 161.074219 C 72.742188 160.953125 74.125 160.601562 75.417969 160.234375 C 78.007812 159.492188 80.261719 158.703125 81.425781 159.226562 C 81.417969 158.730469 81.273438 158.324219 81.019531 157.988281 C 80.769531 157.652344 80.40625 157.394531 79.9375 157.195312 C 79.011719 156.804688 77.6875 156.660156 76.113281 156.742188 C 72.980469 156.921875 68.816406 157.972656 65.058594 160.222656 C 66.382812 162.078125 68.035156 163.371094 69.722656 164.105469 C 70.570312 164.476562 71.433594 164.707031 72.269531 164.816406 C 73.105469 164.925781 73.941406 164.910156 74.722656 164.792969 C 76.292969 164.554688 77.703125 163.902344 78.835938 162.996094 C 79.402344 162.546875 79.902344 162.03125 80.316406 161.472656 C 80.734375 160.910156 81.082031 160.296875 81.320312 159.652344 Z M 91.777344 89.164062 C 92.019531 88.902344 92.742188 88.886719 93.484375 88.863281 C 93.851562 88.847656 94.21875 88.816406 94.527344 88.734375 C 94.839844 88.65625 95.09375 88.523438 95.238281 88.273438 C 95.03125 88.515625 94.722656 88.625 94.371094 88.671875 C 94.023438 88.730469 93.632812 88.726562 93.25 88.714844 C 92.488281 88.6875 91.796875 88.671875 91.65625 89.019531 C 91.195312 88.261719 91.5625 87.714844 92.386719 87.53125 C 92.589844 87.480469 92.816406 87.453125 93.070312 87.453125 C 93.324219 87.453125 93.597656 87.476562 93.886719 87.523438 C 94.464844 87.617188 95.089844 87.804688 95.734375 88.109375 C 95.714844 88.714844 95.585938 89.195312 95.34375 89.515625 C 95.117188 89.859375 94.789062 90.058594 94.398438 90.140625 C 93.640625 90.316406 92.621094 90.003906 91.777344 89.164062 Z M 89.40625 92.316406 C 89.683594 92.046875 90.492188 92.042969 91.308594 92.003906 C 92.136719 91.972656 92.945312 91.886719 93.296875 91.40625 C 92.800781 91.871094 91.90625 91.882812 91.058594 91.859375 C 90.222656 91.84375 89.453125 91.8125 89.277344 92.171875 C 88.816406 91.40625 89.234375 90.847656 90.148438 90.664062 C 91.050781 90.464844 92.433594 90.652344 93.847656 91.230469 C 93.820312 91.855469 93.636719 92.308594 93.363281 92.65625 C 93.089844 92.996094 92.707031 93.199219 92.273438 93.296875 C 91.40625 93.472656 90.289062 93.167969 89.40625 92.316406 Z M 87.226562 95.882812 C 87.542969 95.597656 88.445312 95.601562 89.34375 95.550781 C 90.253906 95.503906 91.171875 95.421875 91.574219 94.914062 C 91.011719 95.40625 90.003906 95.410156 89.074219 95.402344 C 88.148438 95.394531 87.296875 95.355469 87.09375 95.726562 C 86.851562 95.328125 86.863281 94.996094 87.054688 94.730469 C 87.242188 94.464844 87.613281 94.273438 88.121094 94.175781 C 88.628906 94.078125 89.253906 94.070312 89.953125 94.160156 C 90.652344 94.253906 91.421875 94.445312 92.203125 94.734375 C 92.070312 95.980469 91.324219 96.667969 90.34375 96.867188 C 89.359375 97.054688 88.160156 96.761719 87.226562 95.882812 Z M 85.257812 99.824219 C 85.613281 99.527344 86.597656 99.519531 87.597656 99.464844 C 88.59375 99.402344 89.621094 99.304688 90.082031 98.773438 C 89.441406 99.292969 88.320312 99.3125 87.304688 99.316406 C 86.289062 99.316406 85.355469 99.28125 85.117188 99.671875 C 84.875 99.257812 84.898438 98.90625 85.121094 98.628906 C 85.34375 98.355469 85.753906 98.152344 86.316406 98.046875 C 87.433594 97.835938 89.074219 98 90.789062 98.570312 C 90.683594 99.21875 90.425781 99.730469 90.039062 100.097656 C 89.667969 100.472656 89.171875 100.710938 88.625 100.820312 C 87.542969 101.039062 86.234375 100.738281 85.257812 99.824219 Z M 83.5 104.136719 C 83.910156 103.820312 84.96875 103.796875 86.070312 103.726562 C 87.171875 103.652344 88.285156 103.523438 88.828125 102.964844 C 88.089844 103.515625 86.875 103.566406 85.757812 103.574219 C 84.636719 103.585938 83.636719 103.5625 83.355469 103.972656 C 82.859375 103.105469 83.507812 102.488281 84.726562 102.253906 C 85.953125 102.019531 87.753906 102.175781 89.609375 102.738281 C 89.476562 103.425781 89.152344 103.953125 88.726562 104.355469 C 88.507812 104.554688 88.261719 104.71875 87.992188 104.847656 C 87.726562 104.980469 87.441406 105.078125 87.140625 105.140625 C 85.9375 105.386719 84.519531 105.085938 83.5 104.136719 Z M 81.972656 108.800781 C 82.425781 108.460938 83.585938 108.425781 84.777344 108.328125 C 85.972656 108.230469 87.203125 108.074219 87.808594 107.46875 C 86.992188 108.066406 85.660156 108.140625 84.445312 108.171875 C 83.234375 108.203125 82.140625 108.195312 81.820312 108.628906 C 81.570312 108.175781 81.625 107.785156 81.902344 107.472656 C 82.1875 107.160156 82.703125 106.933594 83.371094 106.800781 C 84.703125 106.53125 86.667969 106.667969 88.675781 107.214844 C 88.492188 107.933594 88.140625 108.511719 87.644531 108.9375 C 87.160156 109.367188 86.550781 109.65625 85.890625 109.800781 C 84.570312 110.085938 83.046875 109.792969 81.972656 108.800781 Z M 80.691406 113.820312 C 81.183594 113.449219 82.441406 113.390625 83.738281 113.261719 C 84.386719 113.199219 85.042969 113.117188 85.621094 112.96875 C 86.203125 112.820312 86.707031 112.613281 87.042969 112.285156 C 86.136719 112.9375 84.691406 113.042969 83.382812 113.105469 C 82.070312 113.164062 80.882812 113.171875 80.53125 113.640625 C 80.265625 113.164062 80.339844 112.75 80.652344 112.414062 C 80.960938 112.078125 81.519531 111.824219 82.25 111.671875 C 83.707031 111.367188 85.816406 111.464844 87.984375 111.992188 C 87.78125 112.761719 87.359375 113.371094 86.824219 113.84375 C 86.28125 114.308594 85.613281 114.628906 84.898438 114.796875 C 83.464844 115.132812 81.828125 114.851562 80.691406 113.820312 Z M 79.6875 119.203125 C 80.769531 118.394531 85.074219 118.820312 86.542969 117.402344 C 85.5625 118.121094 84.003906 118.277344 82.585938 118.375 C 81.175781 118.472656 79.910156 118.507812 79.515625 119.015625 C 79.246094 118.515625 79.320312 118.070312 79.664062 117.710938 C 80.007812 117.347656 80.613281 117.066406 81.394531 116.886719 C 82.960938 116.523438 85.246094 116.578125 87.570312 117.074219 C 87.324219 117.886719 86.878906 118.550781 86.28125 119.058594 C 85.695312 119.570312 84.96875 119.929688 84.191406 120.125 C 82.648438 120.523438 80.890625 120.269531 79.6875 119.203125 Z M 78.996094 124.953125 C 80.152344 124.0625 84.765625 124.375 86.355469 122.824219 C 85.285156 123.613281 83.625 123.832031 82.105469 123.980469 C 80.585938 124.128906 79.230469 124.210938 78.8125 124.757812 C 78.523438 124.238281 78.609375 123.761719 78.980469 123.371094 C 79.351562 122.976562 79.992188 122.660156 80.835938 122.445312 C 82.523438 122.015625 84.964844 122 87.457031 122.441406 C 86.921875 124.171875 85.476562 125.304688 83.8125 125.78125 C 82.152344 126.253906 80.277344 126.046875 78.996094 124.953125 Z M 78.679688 131.085938 C 79.289062 130.585938 80.824219 130.378906 82.421875 130.078125 C 84.019531 129.773438 85.652344 129.382812 86.507812 128.539062 C 85.367188 129.414062 83.601562 129.710938 81.988281 129.929688 C 80.375 130.148438 78.925781 130.285156 78.488281 130.886719 C 78.171875 130.34375 78.265625 129.835938 78.65625 129.40625 C 79.042969 128.972656 79.730469 128.613281 80.628906 128.355469 C 82.421875 127.835938 85.023438 127.730469 87.683594 128.089844 C 87.117188 129.933594 85.585938 131.1875 83.816406 131.761719 C 82.054688 132.332031 80.054688 132.191406 78.679688 131.085938 Z M 78.828125 137.601562 C 79.46875 137.042969 81.089844 136.742188 82.769531 136.34375 C 84.457031 135.941406 86.195312 135.449219 87.078125 134.519531 C 85.890625 135.492188 84.015625 135.898438 82.304688 136.214844 C 80.601562 136.527344 79.078125 136.746094 78.617188 137.402344 C 78.277344 136.847656 78.355469 136.304688 78.765625 135.828125 C 79.171875 135.351562 79.886719 134.941406 80.835938 134.625 C 82.730469 133.988281 85.492188 133.75 88.320312 133.988281 C 87.753906 135.9375 86.140625 137.332031 84.285156 138.035156 C 82.4375 138.734375 80.3125 138.703125 78.828125 137.601562 Z M 79.574219 144.496094 C 80.21875 143.863281 81.921875 143.4375 83.683594 142.902344 C 85.445312 142.363281 87.25 141.730469 88.164062 140.710938 C 86.9375 141.796875 84.980469 142.351562 83.1875 142.796875 C 81.40625 143.242188 79.792969 143.578125 79.347656 144.300781 C 78.957031 143.738281 79.03125 143.160156 79.433594 142.632812 C 79.839844 142.105469 80.59375 141.625 81.578125 141.234375 C 83.546875 140.445312 86.460938 140.027344 89.453125 140.078125 C 89.324219 140.589844 89.113281 141.070312 88.855469 141.515625 C 88.597656 141.960938 88.28125 142.371094 87.917969 142.75 C 87.207031 143.5 86.308594 144.117188 85.34375 144.550781 C 83.425781 145.417969 81.183594 145.558594 79.574219 144.496094 Z M 81.132812 151.710938 C 81.769531 150.984375 83.515625 150.375 85.324219 149.644531 C 86.230469 149.28125 87.148438 148.886719 87.949219 148.449219 C 88.75 148.011719 89.4375 147.527344 89.890625 146.964844 C 89.269531 147.574219 88.464844 148.066406 87.574219 148.492188 C 86.6875 148.914062 85.71875 149.265625 84.796875 149.585938 C 82.957031 150.226562 81.292969 150.726562 80.878906 151.53125 C 79.984375 150.414062 80.988281 149.105469 83.015625 148.125 C 85.035156 147.128906 88.070312 146.449219 91.210938 146.207031 C 90.980469 147.257812 90.453125 148.210938 89.75 149.042969 C 89.398438 149.460938 88.996094 149.851562 88.558594 150.207031 C 88.128906 150.558594 87.664062 150.875 87.175781 151.152344 C 86.199219 151.699219 85.136719 152.078125 84.089844 152.199219 C 83.046875 152.320312 82.011719 152.183594 81.132812 151.710938 Z M 83.835938 159.0625 C 84.402344 158.214844 86.144531 157.328125 87.9375 156.308594 C 88.835938 155.800781 89.746094 155.265625 90.535156 154.707031 C 90.929688 154.429688 91.289062 154.148438 91.609375 153.859375 C 91.929688 153.566406 92.203125 153.265625 92.414062 152.964844 C 91.824219 153.644531 91.027344 154.257812 90.152344 154.8125 C 89.277344 155.367188 88.3125 155.871094 87.390625 156.332031 C 85.558594 157.257812 83.878906 158.023438 83.550781 158.914062 C 83.28125 158.667969 83.140625 158.378906 83.109375 158.070312 C 83.078125 157.761719 83.148438 157.441406 83.320312 157.109375 C 83.667969 156.441406 84.394531 155.757812 85.394531 155.117188 C 87.402344 153.824219 90.503906 152.738281 93.71875 152.035156 C 93.554688 153.0625 93.078125 154.058594 92.429688 154.976562 C 92.105469 155.433594 91.722656 155.886719 91.316406 156.304688 C 90.910156 156.722656 90.464844 157.117188 89.992188 157.476562 C 89.050781 158.195312 88.007812 158.769531 86.949219 159.074219 C 85.894531 159.378906 84.804688 159.417969 83.835938 159.0625 Z M 87.121094 167.46875 C 87.121094 167.46875 86.917969 167.214844 86.539062 166.734375 C 86.164062 166.253906 85.636719 165.527344 85.011719 164.570312 C 84.398438 163.601562 83.699219 162.390625 82.992188 160.945312 C 82.289062 159.503906 81.582031 157.820312 80.933594 155.9375 C 80.285156 154.050781 79.6875 151.96875 79.195312 149.722656 C 78.703125 147.480469 78.304688 145.085938 78.015625 142.589844 C 77.734375 140.089844 77.558594 137.492188 77.503906 134.847656 C 77.460938 132.203125 77.515625 129.515625 77.703125 126.832031 C 78.070312 121.464844 78.90625 116.136719 80.109375 111.25 C 80.710938 108.808594 81.398438 106.480469 82.144531 104.304688 C 82.894531 102.132812 83.703125 100.121094 84.53125 98.304688 C 86.1875 94.667969 87.914062 91.835938 89.25 89.972656 C 89.578125 89.5 89.886719 89.09375 90.15625 88.738281 C 90.421875 88.378906 90.667969 88.09375 90.855469 87.851562 C 91.046875 87.613281 91.195312 87.429688 91.300781 87.3125 C 91.402344 87.195312 91.457031 87.132812 91.457031 87.132812 L 91.511719 87.179688 C 91.511719 87.179688 91.460938 87.242188 91.359375 87.363281 C 91.253906 87.480469 91.109375 87.664062 90.917969 87.902344 C 90.730469 88.144531 90.488281 88.429688 90.230469 88.792969 C 89.964844 89.148438 89.65625 89.554688 89.335938 90.03125 C 88.015625 91.902344 86.316406 94.742188 84.695312 98.378906 C 83.886719 100.195312 83.097656 102.207031 82.363281 104.378906 C 81.640625 106.550781 80.972656 108.882812 80.394531 111.320312 C 79.234375 116.195312 78.441406 121.515625 78.121094 126.859375 C 77.957031 129.53125 77.921875 132.207031 77.988281 134.839844 C 78.0625 137.464844 78.257812 140.046875 78.554688 142.527344 C 78.863281 145.003906 79.28125 147.375 79.785156 149.59375 C 80.289062 151.8125 80.898438 153.867188 81.550781 155.722656 C 82.207031 157.578125 82.917969 159.226562 83.621094 160.640625 C 84.324219 162.054688 85.023438 163.230469 85.628906 164.171875 C 86.25 165.105469 86.769531 165.808594 87.136719 166.273438 C 87.507812 166.738281 87.707031 166.984375 87.707031 166.984375 Z M 92.398438 86.394531 C 92.402344 86.164062 92.542969 85.945312 92.746094 85.722656 C 92.953125 85.5 93.230469 85.285156 93.492188 85.042969 C 94.03125 84.570312 94.539062 84.023438 94.527344 83.183594 C 94.503906 83.410156 94.445312 83.609375 94.363281 83.785156 C 94.285156 83.964844 94.183594 84.128906 94.066406 84.269531 C 93.828125 84.558594 93.523438 84.777344 93.234375 84.996094 C 92.648438 85.414062 92.105469 85.773438 92.214844 86.285156 C 91.8125 85.945312 91.597656 85.5625 91.550781 85.171875 C 91.527344 84.976562 91.546875 84.777344 91.601562 84.578125 C 91.660156 84.382812 91.757812 84.195312 91.890625 84.011719 C 92.402344 83.265625 93.523438 82.695312 94.824219 82.617188 C 95.117188 83.472656 95.246094 84.207031 95.246094 84.796875 C 95.253906 85.398438 95.132812 85.863281 94.898438 86.191406 C 94.671875 86.527344 94.332031 86.714844 93.902344 86.753906 C 93.480469 86.800781 92.964844 86.6875 92.398438 86.394531 " fill-opacity="1" fill-rule="evenodd"/></g></g></g></g></g><g clip-path="url(#id10)"><g clip-path="url(#id11)"><g clip-path="url(#id12)"><g clip-path="url(#id13)"><g clip-path="url(#id14)"><path fill="#f6bf16" d="M 200.648438 86.667969 C 200.472656 86.292969 200.777344 85.527344 200.960938 84.707031 C 201.054688 84.296875 201.136719 83.859375 201.113281 83.464844 C 201.089844 83.070312 200.984375 82.703125 200.730469 82.417969 C 200.960938 82.777344 201.03125 83.191406 201.011719 83.617188 C 200.988281 84.042969 200.863281 84.484375 200.734375 84.890625 C 200.480469 85.707031 200.148438 86.40625 200.449219 86.71875 C 199.96875 86.761719 199.636719 86.636719 199.4375 86.386719 C 199.238281 86.132812 199.15625 85.765625 199.199219 85.300781 C 199.242188 84.832031 199.375 84.285156 199.613281 83.679688 C 199.859375 83.070312 200.183594 82.417969 200.59375 81.753906 C 201.324219 82.019531 201.839844 82.433594 202.1875 82.890625 C 202.523438 83.351562 202.664062 83.867188 202.648438 84.359375 C 202.589844 85.355469 201.855469 86.246094 200.648438 86.667969 Z M 202.261719 90.558594 C 202.183594 90.113281 202.710938 89.355469 203.140625 88.507812 C 203.351562 88.082031 203.550781 87.632812 203.648438 87.199219 C 203.75 86.761719 203.734375 86.34375 203.558594 85.972656 C 203.695312 86.417969 203.65625 86.878906 203.5 87.335938 C 203.347656 87.796875 203.105469 88.242188 202.855469 88.652344 C 202.355469 89.476562 201.824219 90.164062 202.042969 90.570312 C 201.039062 90.453125 200.851562 89.738281 201.183594 88.742188 C 201.359375 88.238281 201.660156 87.671875 202.070312 87.066406 C 202.484375 86.464844 203.015625 85.828125 203.621094 85.21875 C 204.925781 86.179688 205.289062 87.484375 204.945312 88.527344 C 204.605469 89.578125 203.601562 90.363281 202.261719 90.558594 Z M 203.574219 94.738281 C 203.621094 94.238281 204.34375 93.511719 205.019531 92.667969 C 205.351562 92.246094 205.664062 91.800781 205.878906 91.347656 C 206.09375 90.890625 206.195312 90.433594 206.097656 89.996094 C 206.113281 90.25 206.078125 90.503906 206.007812 90.75 C 205.933594 90.996094 205.824219 91.234375 205.6875 91.46875 C 205.414062 91.9375 205.046875 92.371094 204.683594 92.773438 C 203.945312 93.574219 203.230469 94.226562 203.34375 94.710938 C 202.335938 94.398438 202.328125 93.570312 202.929688 92.542969 C 203.546875 91.511719 204.765625 90.261719 206.359375 89.183594 C 206.632812 89.515625 206.84375 89.855469 206.996094 90.199219 C 207.152344 90.539062 207.234375 90.886719 207.269531 91.21875 C 207.347656 91.886719 207.191406 92.519531 206.886719 93.050781 C 206.277344 94.117188 205.007812 94.78125 203.574219 94.738281 Z M 204.605469 99.191406 C 204.773438 98.652344 205.695312 97.976562 206.597656 97.167969 C 207.046875 96.765625 207.480469 96.332031 207.804688 95.871094 C 208.125 95.414062 208.347656 94.929688 208.34375 94.433594 C 208.265625 95 207.964844 95.511719 207.578125 95.972656 C 207.1875 96.4375 206.703125 96.851562 206.222656 97.226562 C 205.261719 97.980469 204.367188 98.574219 204.375 99.125 C 203.886719 98.871094 203.671875 98.519531 203.699219 98.101562 C 203.714844 97.890625 203.789062 97.664062 203.914062 97.425781 C 204.03125 97.1875 204.207031 96.9375 204.425781 96.679688 C 205.304688 95.652344 206.878906 94.484375 208.792969 93.597656 C 209.238281 94.417969 209.375 95.238281 209.308594 95.976562 C 209.230469 96.714844 208.9375 97.375 208.496094 97.898438 C 207.597656 98.953125 206.121094 99.46875 204.605469 99.191406 Z M 205.371094 103.910156 C 205.65625 103.34375 206.785156 102.738281 207.894531 101.988281 C 208.449219 101.613281 209.003906 101.207031 209.4375 100.753906 C 209.871094 100.304688 210.1875 99.808594 210.285156 99.269531 C 210.085938 99.875 209.679688 100.386719 209.175781 100.832031 C 208.667969 101.277344 208.0625 101.65625 207.480469 102 C 206.316406 102.679688 205.234375 103.207031 205.132812 103.804688 C 204.890625 103.632812 204.738281 103.445312 204.65625 103.242188 C 204.570312 103.039062 204.5625 102.820312 204.617188 102.59375 C 204.726562 102.140625 205.109375 101.644531 205.667969 101.144531 C 206.234375 100.640625 207 100.132812 207.898438 99.660156 C 208.796875 99.191406 209.824219 98.757812 210.933594 98.429688 C 211.546875 100.363281 210.9375 102.050781 209.777344 103.058594 C 208.617188 104.070312 206.9375 104.417969 205.371094 103.910156 Z M 205.867188 108.898438 C 206.65625 107.746094 211.160156 106.792969 211.9375 104.484375 C 211.316406 105.742188 209.824219 106.492188 208.460938 107.085938 C 207.101562 107.679688 205.835938 108.121094 205.628906 108.757812 C 204.726562 107.894531 205.273438 106.882812 206.667969 105.925781 C 208.050781 104.976562 210.285156 104.082031 212.773438 103.652344 C 213.113281 105.839844 212.15625 107.585938 210.746094 108.523438 C 209.328125 109.472656 207.457031 109.640625 205.867188 108.898438 Z M 206.082031 114.164062 C 207.109375 113.003906 212.097656 112.484375 213.28125 110.082031 C 212.410156 111.367188 210.714844 112.003906 209.148438 112.492188 C 207.582031 112.980469 206.167969 113.320312 205.847656 113.984375 C 205.425781 113.46875 205.398438 112.953125 205.691406 112.453125 C 205.980469 111.957031 206.570312 111.472656 207.394531 111.035156 C 209.039062 110.160156 211.5625 109.445312 214.304688 109.28125 C 214.335938 111.6875 213.054688 113.457031 211.386719 114.308594 C 209.71875 115.167969 207.675781 115.140625 206.082031 114.164062 Z M 205.996094 119.714844 C 207.261719 118.566406 212.695312 118.527344 214.292969 116.074219 C 213.195312 117.371094 211.261719 117.871094 209.523438 118.234375 C 207.78125 118.59375 206.207031 118.816406 205.765625 119.496094 C 205.386719 118.898438 205.4375 118.34375 205.8125 117.835938 C 206.191406 117.328125 206.90625 116.867188 207.84375 116.480469 C 209.722656 115.707031 212.546875 115.199219 215.503906 115.320312 C 215.214844 117.921875 213.578125 119.6875 211.679688 120.425781 C 209.761719 121.171875 207.578125 120.925781 205.996094 119.714844 Z M 205.570312 125.566406 C 206.332031 125.019531 208.160156 124.863281 210.058594 124.542969 C 211.007812 124.382812 211.976562 124.179688 212.835938 123.859375 C 213.691406 123.542969 214.433594 123.109375 214.941406 122.488281 C 213.59375 123.769531 211.472656 124.117188 209.550781 124.328125 C 207.628906 124.542969 205.921875 124.625 205.351562 125.3125 C 204.691406 123.964844 205.851562 122.9375 207.972656 122.28125 C 210.09375 121.632812 213.167969 121.363281 216.335938 121.804688 C 215.695312 124.574219 213.722656 126.304688 211.582031 126.902344 C 209.433594 127.503906 207.113281 127.019531 205.570312 125.566406 Z M 204.75 131.730469 C 205.640625 131.222656 207.609375 131.234375 209.6875 131.082031 C 211.765625 130.925781 213.929688 130.59375 215.167969 129.363281 C 213.5625 130.605469 211.253906 130.761719 209.167969 130.804688 C 207.085938 130.839844 205.242188 130.761719 204.554688 131.4375 C 204.285156 130.6875 204.488281 130.070312 205.0625 129.574219 C 205.625 129.078125 206.558594 128.703125 207.734375 128.457031 C 210.078125 127.96875 213.410156 127.976562 216.734375 128.761719 C 216.230469 130.21875 215.390625 131.367188 214.382812 132.199219 C 213.386719 133.03125 212.203125 133.542969 211.023438 133.757812 C 208.644531 134.183594 206.21875 133.425781 204.75 131.730469 Z M 203.453125 138.214844 C 204.460938 137.765625 206.578125 137.984375 208.808594 138.03125 C 211.042969 138.078125 213.402344 137.949219 214.863281 136.746094 C 213.007812 137.921875 210.515625 137.851562 208.285156 137.683594 C 206.054688 137.511719 204.105469 137.242188 203.277344 137.886719 C 203.089844 137.066406 203.375 136.429688 204.050781 135.964844 C 204.714844 135.492188 205.753906 135.1875 207.042969 135.039062 C 209.605469 134.75 213.15625 135.082031 216.613281 136.265625 C 216.261719 137.023438 215.8125 137.6875 215.324219 138.265625 C 214.824219 138.839844 214.269531 139.324219 213.683594 139.71875 C 212.5 140.503906 211.195312 140.933594 209.894531 141.03125 C 208.597656 141.132812 207.324219 140.914062 206.207031 140.425781 C 205.089844 139.9375 204.136719 139.191406 203.453125 138.214844 Z M 201.546875 145.015625 C 202.679688 144.660156 204.898438 145.128906 207.269531 145.429688 C 208.457031 145.578125 209.683594 145.683594 210.820312 145.609375 C 211.957031 145.535156 213.035156 145.28125 213.882812 144.714844 C 211.753906 145.78125 209.113281 145.425781 206.765625 145 C 204.417969 144.566406 202.359375 144.0625 201.40625 144.648438 C 201.300781 143.757812 201.707031 143.128906 202.476562 142.707031 C 203.25 142.285156 204.394531 142.070312 205.777344 142.050781 C 208.546875 142.015625 212.289062 142.730469 215.804688 144.375 C 215.566406 144.765625 215.308594 145.128906 215.035156 145.464844 C 214.761719 145.800781 214.46875 146.109375 214.167969 146.394531 C 213.570312 146.960938 212.90625 147.421875 212.226562 147.78125 C 210.871094 148.5 209.402344 148.800781 208.015625 148.757812 C 205.21875 148.664062 202.730469 147.214844 201.546875 145.015625 Z M 198.824219 152.082031 C 200.082031 151.871094 202.351562 152.65625 204.824219 153.289062 C 207.296875 153.917969 209.957031 154.375 211.953125 153.347656 C 210.75 153.796875 209.441406 153.839844 208.152344 153.675781 C 206.859375 153.515625 205.566406 153.144531 204.351562 152.765625 C 201.929688 152 199.824219 151.199219 198.726562 151.679688 C 198.75 150.734375 199.273438 150.136719 200.148438 149.789062 C 201.03125 149.445312 202.269531 149.359375 203.742188 149.507812 C 205.214844 149.652344 206.917969 150.03125 208.6875 150.640625 C 210.457031 151.253906 212.304688 152.097656 214.042969 153.203125 C 212.796875 154.789062 211.261719 155.863281 209.703125 156.464844 C 208.132812 157.066406 206.539062 157.195312 205.0625 156.949219 C 203.59375 156.707031 202.257812 156.101562 201.179688 155.253906 C 200.640625 154.828125 200.167969 154.34375 199.773438 153.8125 C 199.375 153.28125 199.046875 152.699219 198.824219 152.082031 Z M 194.929688 159.261719 C 196.289062 159.273438 198.527344 160.496094 201.011719 161.582031 C 202.253906 162.121094 203.550781 162.621094 204.832031 162.878906 C 206.117188 163.140625 207.394531 163.160156 208.546875 162.742188 C 207.179688 163.0625 205.785156 162.910156 204.449219 162.53125 C 203.113281 162.152344 201.820312 161.546875 200.621094 160.945312 C 198.214844 159.726562 196.148438 158.527344 194.910156 158.824219 C 195.011719 158.335938 195.226562 157.964844 195.539062 157.683594 C 195.847656 157.402344 196.257812 157.214844 196.753906 157.109375 C 197.738281 156.898438 199.0625 157.003906 200.59375 157.382812 C 203.636719 158.148438 207.527344 159.964844 210.796875 162.882812 C 209.144531 164.457031 207.28125 165.414062 205.484375 165.816406 C 204.582031 166.019531 203.691406 166.085938 202.851562 166.035156 C 202.007812 165.984375 201.191406 165.816406 200.445312 165.550781 C 198.945312 165.023438 197.6875 164.117188 196.742188 163.015625 C 196.269531 162.464844 195.878906 161.863281 195.574219 161.238281 C 195.273438 160.609375 195.046875 159.941406 194.929688 159.261719 Z M 197.925781 88.066406 C 197.738281 87.761719 197.03125 87.609375 196.308594 87.445312 C 195.949219 87.363281 195.597656 87.265625 195.308594 87.125 C 195.015625 86.988281 194.789062 86.808594 194.695312 86.539062 C 194.855469 86.8125 195.136719 86.980469 195.472656 87.09375 C 195.800781 87.21875 196.1875 87.285156 196.5625 87.347656 C 197.320312 87.464844 198 87.574219 198.074219 87.945312 C 198.667969 87.289062 198.410156 86.683594 197.636719 86.34375 C 197.445312 86.257812 197.226562 86.1875 196.980469 86.140625 C 196.730469 86.089844 196.457031 86.0625 196.164062 86.054688 C 195.578125 86.039062 194.929688 86.105469 194.238281 86.28125 C 194.144531 86.882812 194.179688 87.378906 194.355469 87.738281 C 194.515625 88.117188 194.800781 88.378906 195.167969 88.527344 C 195.882812 88.84375 196.941406 88.730469 197.925781 88.066406 Z M 199.664062 91.609375 C 199.441406 91.289062 198.644531 91.132812 197.851562 90.941406 C 197.046875 90.753906 196.265625 90.519531 196.015625 89.980469 C 196.414062 90.53125 197.289062 90.710938 198.125 90.847656 C 198.949219 90.992188 199.710938 91.105469 199.816406 91.488281 C 200.414062 90.824219 200.109375 90.195312 199.242188 89.84375 C 198.394531 89.476562 197 89.402344 195.503906 89.707031 C 195.414062 90.324219 195.511719 90.800781 195.710938 91.195312 C 195.917969 91.578125 196.253906 91.851562 196.660156 92.027344 C 197.480469 92.367188 198.632812 92.277344 199.664062 91.609375 Z M 201.132812 95.519531 C 200.875 95.179688 199.988281 95.011719 199.113281 94.792969 C 198.230469 94.578125 197.34375 94.324219 197.046875 93.75 C 197.503906 94.339844 198.496094 94.535156 199.410156 94.699219 C 200.316406 94.867188 201.160156 94.988281 201.292969 95.394531 C 201.601562 95.046875 201.65625 94.714844 201.519531 94.417969 C 201.382812 94.121094 201.054688 93.863281 200.574219 93.675781 C 200.09375 93.484375 199.480469 93.355469 198.78125 93.316406 C 198.074219 93.273438 197.28125 93.316406 196.460938 93.453125 C 196.355469 94.703125 196.957031 95.519531 197.886719 95.898438 C 198.816406 96.269531 200.046875 96.207031 201.132812 95.519531 Z M 202.324219 99.761719 C 202.03125 99.402344 201.0625 99.210938 200.09375 98.96875 C 199.128906 98.71875 198.136719 98.429688 197.78125 97.820312 C 198.316406 98.453125 199.414062 98.683594 200.410156 98.875 C 201.40625 99.066406 202.328125 99.207031 202.488281 99.636719 C 202.808594 99.277344 202.851562 98.925781 202.683594 98.613281 C 202.515625 98.300781 202.148438 98.023438 201.621094 97.816406 C 200.558594 97.398438 198.917969 97.25 197.128906 97.488281 C 197.109375 98.148438 197.269531 98.695312 197.574219 99.128906 C 197.871094 99.570312 198.3125 99.894531 198.828125 100.105469 C 199.851562 100.523438 201.195312 100.472656 202.324219 99.761719 Z M 203.238281 104.328125 C 202.894531 103.941406 201.859375 103.71875 200.789062 103.441406 C 199.722656 103.160156 198.652344 102.824219 198.226562 102.171875 C 198.847656 102.851562 200.03125 103.128906 201.125 103.351562 C 202.222656 103.570312 203.214844 103.738281 203.414062 104.191406 C 204.0625 103.433594 203.539062 102.707031 202.390625 102.25 C 201.226562 101.785156 199.429688 101.601562 197.5 101.800781 C 197.5 102.503906 197.71875 103.082031 198.066406 103.558594 C 198.238281 103.792969 198.453125 104.003906 198.691406 104.179688 C 198.925781 104.359375 199.191406 104.507812 199.476562 104.628906 C 200.609375 105.097656 202.058594 105.066406 203.238281 104.328125 Z M 203.863281 109.195312 C 203.480469 108.777344 202.347656 108.523438 201.195312 108.203125 C 200.039062 107.882812 198.859375 107.496094 198.382812 106.789062 C 199.070312 107.53125 200.363281 107.851562 201.550781 108.113281 C 202.734375 108.371094 203.808594 108.566406 204.042969 109.054688 C 204.375 108.660156 204.394531 108.261719 204.179688 107.902344 C 203.960938 107.542969 203.496094 107.222656 202.867188 106.96875 C 201.609375 106.449219 199.652344 106.214844 197.578125 106.378906 C 197.621094 107.117188 197.859375 107.75 198.265625 108.261719 C 198.660156 108.777344 199.203125 109.175781 199.828125 109.4375 C 201.066406 109.96875 202.617188 109.964844 203.863281 109.195312 Z M 204.175781 114.367188 C 203.761719 113.910156 202.535156 113.617188 201.285156 113.246094 C 200.664062 113.058594 200.03125 112.855469 199.492188 112.601562 C 198.949219 112.347656 198.492188 112.046875 198.226562 111.664062 C 198.992188 112.472656 200.390625 112.851562 201.667969 113.15625 C 202.941406 113.460938 204.109375 113.691406 204.367188 114.21875 C 204.71875 113.800781 204.71875 113.378906 204.480469 112.992188 C 204.234375 112.605469 203.734375 112.25 203.046875 111.964844 C 201.675781 111.386719 199.585938 111.089844 197.355469 111.199219 C 197.410156 111.992188 197.710938 112.671875 198.148438 113.234375 C 198.589844 113.792969 199.191406 114.234375 199.859375 114.535156 C 201.203125 115.132812 202.867188 115.164062 204.175781 114.367188 Z M 204.148438 119.839844 C 203.238281 118.84375 198.929688 118.453125 197.753906 116.785156 C 198.582031 117.675781 200.082031 118.121094 201.457031 118.480469 C 202.824219 118.84375 204.0625 119.117188 204.351562 119.6875 C 204.710938 119.25 204.722656 118.800781 204.453125 118.378906 C 204.183594 117.957031 203.640625 117.570312 202.90625 117.246094 C 201.4375 116.59375 199.183594 116.21875 196.808594 116.265625 C 196.898438 117.113281 197.207031 117.847656 197.699219 118.460938 C 198.175781 119.070312 198.824219 119.5625 199.550781 119.902344 C 200.992188 120.578125 202.765625 120.660156 204.148438 119.839844 Z M 203.742188 125.617188 C 202.777344 124.527344 198.1875 123.964844 196.917969 122.144531 C 197.820312 123.121094 199.410156 123.648438 200.875 124.078125 C 202.335938 124.511719 203.65625 124.84375 203.960938 125.464844 C 204.34375 125.003906 204.347656 124.523438 204.058594 124.066406 C 203.769531 123.609375 203.199219 123.179688 202.40625 122.808594 C 200.832031 122.070312 198.441406 121.59375 195.90625 121.558594 C 196.105469 123.359375 197.3125 124.746094 198.859375 125.527344 C 200.402344 126.304688 202.28125 126.449219 203.742188 125.617188 Z M 202.902344 131.699219 C 202.394531 131.097656 200.929688 130.601562 199.417969 130.007812 C 197.902344 129.410156 196.371094 128.71875 195.695312 127.726562 C 196.648438 128.800781 198.324219 129.425781 199.871094 129.945312 C 201.414062 130.460938 202.808594 130.867188 203.128906 131.542969 C 203.539062 131.070312 203.542969 130.554688 203.242188 130.054688 C 202.941406 129.558594 202.332031 129.074219 201.5 128.652344 C 199.835938 127.804688 197.304688 127.210938 194.621094 127.066406 C 194.832031 128.980469 196.101562 130.5 197.730469 131.398438 C 199.351562 132.292969 201.34375 132.53125 202.902344 131.699219 Z M 201.527344 138.074219 C 201.007812 137.40625 199.46875 136.804688 197.894531 136.097656 C 196.3125 135.386719 194.699219 134.570312 194.007812 133.496094 C 194.988281 134.671875 196.757812 135.425781 198.375 136.054688 C 199.992188 136.683594 201.445312 137.1875 201.773438 137.917969 C 202.214844 137.433594 202.238281 136.886719 201.925781 136.34375 C 201.617188 135.800781 200.988281 135.261719 200.117188 134.773438 C 198.375 133.789062 195.710938 133.035156 192.886719 132.738281 C 193.078125 134.757812 194.398438 136.433594 196.085938 137.472656 C 197.773438 138.507812 199.863281 138.875 201.527344 138.074219 Z M 199.5 144.707031 C 198.988281 143.964844 197.394531 143.222656 195.765625 142.363281 C 194.132812 141.507812 192.480469 140.542969 191.777344 139.371094 C 192.777344 140.667969 194.59375 141.582031 196.269531 142.355469 C 197.9375 143.128906 199.457031 143.761719 199.757812 144.554688 C 200.246094 144.078125 200.285156 143.496094 199.988281 142.902344 C 199.691406 142.304688 199.039062 141.691406 198.144531 141.125 C 196.359375 139.980469 193.574219 139.019531 190.628906 138.507812 C 190.660156 139.03125 190.777344 139.546875 190.945312 140.03125 C 191.113281 140.515625 191.347656 140.980469 191.632812 141.417969 C 192.191406 142.289062 192.957031 143.0625 193.824219 143.671875 C 195.542969 144.882812 197.71875 145.445312 199.5 144.707031 Z M 196.613281 151.496094 C 196.125 150.660156 194.523438 149.738281 192.882812 148.679688 C 192.0625 148.148438 191.234375 147.59375 190.53125 147.011719 C 189.824219 146.429688 189.242188 145.824219 188.90625 145.1875 C 189.394531 145.902344 190.097656 146.539062 190.886719 147.121094 C 191.679688 147.707031 192.566406 148.234375 193.410156 148.71875 C 195.101562 149.695312 196.640625 150.5 196.894531 151.367188 C 197.984375 150.441406 197.242188 148.964844 195.4375 147.621094 C 193.640625 146.261719 190.789062 145.023438 187.746094 144.195312 C 187.777344 145.273438 188.117188 146.304688 188.652344 147.257812 C 188.917969 147.730469 189.238281 148.191406 189.601562 148.621094 C 189.957031 149.050781 190.355469 149.445312 190.78125 149.808594 C 191.636719 150.535156 192.609375 151.105469 193.613281 151.421875 C 194.613281 151.734375 195.660156 151.796875 196.613281 151.496094 Z M 192.570312 158.210938 C 192.175781 157.269531 190.632812 156.070312 189.0625 154.730469 C 188.277344 154.0625 187.484375 153.367188 186.8125 152.671875 C 186.480469 152.324219 186.175781 151.980469 185.917969 151.632812 C 185.660156 151.285156 185.445312 150.941406 185.296875 150.605469 C 185.746094 151.382812 186.414062 152.136719 187.167969 152.84375 C 187.925781 153.554688 188.777344 154.230469 189.59375 154.859375 C 191.222656 156.113281 192.722656 157.179688 192.878906 158.117188 C 193.191406 157.921875 193.382812 157.667969 193.472656 157.371094 C 193.5625 157.074219 193.554688 156.746094 193.449219 156.386719 C 193.230469 155.667969 192.644531 154.855469 191.785156 154.039062 C 190.054688 152.394531 187.214844 150.742188 184.191406 149.445312 C 184.160156 150.488281 184.4375 151.554688 184.902344 152.578125 C 185.136719 153.089844 185.425781 153.605469 185.746094 154.09375 C 186.066406 154.578125 186.429688 155.050781 186.824219 155.492188 C 187.613281 156.375 188.53125 157.136719 189.511719 157.636719 C 190.488281 158.128906 191.554688 158.378906 192.570312 158.210938 Z M 187.765625 165.847656 C 187.765625 165.847656 188.011719 165.632812 188.472656 165.234375 C 188.929688 164.832031 189.585938 164.21875 190.382812 163.394531 C 191.164062 162.558594 192.082031 161.503906 193.046875 160.21875 C 194.011719 158.929688 195.019531 157.414062 196.011719 155.683594 C 197.003906 153.957031 197.980469 152.019531 198.886719 149.910156 C 199.792969 147.800781 200.636719 145.523438 201.390625 143.125 C 202.132812 140.722656 202.796875 138.207031 203.347656 135.617188 C 203.890625 133.03125 204.339844 130.378906 204.660156 127.707031 C 205.3125 122.371094 205.492188 116.976562 205.230469 111.953125 C 205.097656 109.441406 204.863281 107.023438 204.539062 104.746094 C 204.210938 102.472656 203.792969 100.34375 203.324219 98.40625 C 202.382812 94.523438 201.21875 91.417969 200.257812 89.332031 C 200.023438 88.808594 199.796875 88.351562 199.597656 87.949219 C 199.40625 87.546875 199.21875 87.222656 199.078125 86.949219 C 198.933594 86.679688 198.824219 86.472656 198.742188 86.335938 C 198.664062 86.199219 198.625 86.128906 198.625 86.128906 L 198.558594 86.164062 C 198.558594 86.164062 198.601562 86.234375 198.679688 86.375 C 198.757812 86.507812 198.867188 86.714844 199.007812 86.988281 C 199.144531 87.257812 199.332031 87.585938 199.519531 87.988281 C 199.710938 88.390625 199.9375 88.847656 200.164062 89.375 C 201.105469 91.460938 202.238281 94.570312 203.148438 98.445312 C 203.601562 100.382812 203.996094 102.511719 204.308594 104.777344 C 204.613281 107.050781 204.828125 109.460938 204.9375 111.964844 C 205.160156 116.972656 204.9375 122.347656 204.246094 127.65625 C 203.902344 130.308594 203.433594 132.945312 202.875 135.515625 C 202.304688 138.085938 201.628906 140.582031 200.871094 142.960938 C 200.101562 145.335938 199.246094 147.589844 198.332031 149.671875 C 197.417969 151.753906 196.433594 153.660156 195.445312 155.359375 C 194.453125 157.054688 193.445312 158.542969 192.488281 159.796875 C 191.527344 161.054688 190.625 162.082031 189.851562 162.890625 C 189.066406 163.691406 188.421875 164.28125 187.972656 164.671875 C 187.519531 165.054688 187.277344 165.257812 187.277344 165.257812 Z M 197.839844 85.226562 C 197.875 85 197.777344 84.757812 197.621094 84.5 C 197.460938 84.246094 197.230469 83.984375 197.015625 83.695312 C 196.578125 83.128906 196.183594 82.496094 196.351562 81.671875 C 196.332031 81.898438 196.351562 82.105469 196.398438 82.296875 C 196.441406 82.484375 196.511719 82.664062 196.601562 82.828125 C 196.777344 83.152344 197.039062 83.429688 197.277344 83.695312 C 197.777344 84.214844 198.242188 84.675781 198.035156 85.15625 C 198.496094 84.894531 198.78125 84.5625 198.898438 84.183594 C 198.960938 83.996094 198.980469 83.796875 198.964844 83.59375 C 198.941406 83.390625 198.878906 83.1875 198.785156 82.980469 C 198.421875 82.152344 197.429688 81.382812 196.164062 81.058594 C 195.71875 81.847656 195.453125 82.542969 195.34375 83.121094 C 195.222656 83.710938 195.253906 84.191406 195.421875 84.554688 C 195.582031 84.929688 195.878906 85.179688 196.292969 85.296875 C 196.699219 85.421875 197.226562 85.410156 197.839844 85.226562 " fill-opacity="1" fill-rule="evenodd"/></g></g></g></g></g><g fill="#c60505" fill-opacity="1"><g transform="translate(102.433092, 76.553267)"><g><path d="M 2.164062 -1.574219 L 3.972656 -2.894531 L 3.867188 -3.035156 C 3.496094 -3.269531 2.878906 -4.34375 2.089844 -6.171875 L 0.492188 -10.203125 L 0.613281 -10.289062 L 3.945312 -7.523438 C 5.457031 -6.21875 6.273438 -5.296875 6.398438 -4.878906 L 6.5 -4.734375 L 8.308594 -6.054688 L 8.207031 -6.195312 C 7.835938 -6.429688 7.21875 -7.503906 6.429688 -9.332031 L 5.375 -11.949219 C 4.582031 -13.777344 4.234375 -15.027344 4.300781 -15.582031 L 4.199219 -15.722656 L 3.226562 -15.015625 L 3.332031 -14.875 C 3.703125 -14.640625 4.324219 -13.589844 5.113281 -11.757812 L 6.734375 -7.671875 L 6.625 -7.59375 L 3.222656 -10.378906 C 1.699219 -11.675781 0.902344 -12.597656 0.789062 -13.023438 L 0.6875 -13.164062 L -1.097656 -11.867188 L -0.996094 -11.722656 C -0.636719 -11.480469 -0.0273438 -10.421875 0.773438 -8.597656 L 2.394531 -4.511719 L 2.289062 -4.433594 L -1.117188 -7.21875 C -2.632812 -8.503906 -3.4375 -9.4375 -3.546875 -9.863281 L -3.652344 -10.003906 L -5.78125 -8.457031 L -5.675781 -8.3125 C -5.140625 -8.199219 -4.058594 -7.484375 -2.546875 -6.179688 L -0.378906 -4.371094 C 1.132812 -3.066406 1.949219 -2.144531 2.058594 -1.71875 Z M 2.164062 -1.574219 "/></g></g></g><g fill="#c60505" fill-opacity="1"><g transform="translate(118.389768, 66.54535)"><g><path d="M 0.421875 -0.167969 L 2.863281 -1.152344 L 2.796875 -1.316406 C 2.398438 -1.597656 1.789062 -2.675781 1.070312 -4.46875 L 0.046875 -7.003906 C -0.6875 -8.820312 -0.992188 -10.007812 -0.902344 -10.484375 L -0.964844 -10.648438 L -3.40625 -9.664062 L -3.34375 -9.5 C -2.957031 -9.214844 -2.34375 -8.152344 -1.609375 -6.335938 L -0.585938 -3.800781 C 0.136719 -2.011719 0.433594 -0.804688 0.355469 -0.332031 Z M 0.421875 -0.167969 "/></g></g></g><g fill="#c60505" fill-opacity="1"><g transform="translate(127.404699, 63.285277)"><g><path d="M 0.445312 -0.0742188 L 1.671875 -0.285156 L 1.644531 -0.457031 C 1.328125 -0.820312 0.953125 -2 0.628906 -3.902344 L -0.226562 -8.949219 L -0.0664062 -8.976562 L 3.710938 -4.441406 C 5.085938 -2.714844 5.769531 -1.570312 5.824219 -1.164062 L 5.855469 -0.992188 L 8.132812 -1.378906 L 7.046875 -7.78125 C 6.722656 -9.699219 6.71875 -10.945312 6.925781 -11.378906 L 6.898438 -11.550781 L 5.65625 -11.34375 L 5.6875 -11.167969 C 6.015625 -10.808594 6.390625 -9.640625 6.714844 -7.722656 L 7.601562 -2.488281 L 7.472656 -2.46875 L 3.542969 -7.1875 C 2.179688 -8.929688 1.488281 -10.042969 1.433594 -10.449219 L 1.402344 -10.621094 L -1.234375 -10.175781 L -1.207031 -10 C -0.882812 -9.671875 -0.523438 -8.765625 -0.292969 -7.425781 L 0.3125 -3.851562 C 0.632812 -1.945312 0.625 -0.683594 0.417969 -0.25 Z M 0.445312 -0.0742188 "/></g></g></g><g fill="#c60505" fill-opacity="1"><g transform="translate(142.377203, 61.532236)"><g><path d="M 0.453125 0.0429688 L 1.6875 0.160156 L 1.707031 -0.015625 C 1.496094 -0.445312 1.4375 -1.6875 1.617188 -3.609375 L 2.097656 -8.703125 L 2.257812 -8.6875 L 4.734375 -3.328125 C 5.617188 -1.308594 5.980469 -0.0234375 5.929688 0.382812 L 5.910156 0.558594 L 8.210938 0.773438 L 8.820312 -5.691406 C 9.003906 -7.628906 9.324219 -8.832031 9.636719 -9.199219 L 9.652344 -9.371094 L 8.402344 -9.492188 L 8.382812 -9.316406 C 8.609375 -8.882812 8.667969 -7.660156 8.488281 -5.722656 L 7.988281 -0.4375 L 7.855469 -0.449219 L 5.28125 -6.023438 C 4.417969 -8.058594 4.035156 -9.316406 4.089844 -9.722656 L 4.105469 -9.894531 L 1.441406 -10.148438 L 1.425781 -9.972656 C 1.652344 -9.570312 1.765625 -8.601562 1.636719 -7.25 L 1.296875 -3.636719 C 1.117188 -1.714844 0.78125 -0.5 0.46875 -0.132812 Z M 0.453125 0.0429688 "/></g></g></g><g fill="#c60505" fill-opacity="1"><g transform="translate(157.284315, 63.680539)"><g><path d="M 4.847656 2.023438 C 7.199219 2.914062 9.398438 2.351562 10.125 0.4375 C 10.671875 -1.011719 9.800781 -2.34375 8.5 -2.835938 C 7.0625 -3.378906 5.835938 -2.859375 5.441406 -1.816406 C 5.148438 -1.039062 5.542969 -0.183594 6.296875 0.101562 C 6.597656 0.214844 6.90625 0.222656 7.089844 0.148438 L 7.125 0.0546875 C 6.480469 0.0625 6.03125 -0.484375 6.257812 -1.085938 C 6.503906 -1.730469 7.261719 -2.035156 8.203125 -1.679688 C 9.148438 -1.324219 9.675781 -0.402344 9.292969 0.609375 C 8.796875 1.921875 7.429688 2.390625 5.664062 1.722656 C 3.859375 1.039062 2.644531 -0.828125 3.273438 -2.496094 C 3.886719 -4.113281 5.546875 -4.703125 7.515625 -4.035156 C 7.648438 -3.890625 7.875 -3.742188 8.039062 -3.679688 C 8.257812 -3.597656 8.5 -3.617188 8.582031 -3.835938 C 8.660156 -4.039062 8.496094 -4.226562 8.277344 -4.308594 C 8.015625 -4.410156 7.675781 -4.460938 7.339844 -4.398438 C 6.421875 -4.902344 5.945312 -5.835938 6.257812 -6.65625 C 6.609375 -7.585938 7.597656 -7.929688 8.855469 -7.453125 C 9.855469 -7.074219 10.375 -6.347656 10.109375 -5.636719 C 9.917969 -5.128906 9.371094 -4.929688 8.90625 -5.105469 C 8.34375 -5.316406 8.058594 -5.800781 8.417969 -6.210938 L 8.269531 -6.316406 C 8.132812 -6.242188 8.023438 -6.078125 7.972656 -5.941406 C 7.777344 -5.421875 8.078125 -4.777344 8.859375 -4.480469 C 9.691406 -4.164062 10.542969 -4.46875 10.800781 -5.152344 C 11.175781 -6.136719 10.195312 -7.273438 8.707031 -7.839844 C 6.871094 -8.53125 5.335938 -8.191406 4.941406 -7.152344 C 4.605469 -6.261719 5.113281 -5.367188 6.355469 -4.726562 L 6.296875 -4.574219 C 3.953125 -5.367188 2.148438 -4.597656 1.527344 -2.957031 C 0.851562 -1.179688 2.332031 1.070312 4.847656 2.023438 Z M 4.847656 2.023438 "/></g></g></g><g fill="#c60505" fill-opacity="1"><g transform="translate(171.73291, 69.949339)"><g><path d="M 6.238281 4.914062 C 7.503906 5.863281 9.261719 5.667969 10.316406 4.265625 C 11.210938 3.074219 11.066406 1.683594 10.121094 0.972656 C 9.304688 0.355469 8.3125 0.582031 7.792969 1.269531 C 7.316406 1.902344 7.476562 2.734375 7.992188 3.121094 C 8.109375 3.210938 8.277344 3.300781 8.394531 3.316406 L 8.472656 3.191406 C 7.9375 2.953125 7.882812 2.417969 8.242188 1.9375 C 8.585938 1.480469 9.296875 1.265625 9.867188 1.695312 C 10.59375 2.242188 10.601562 3.179688 10.03125 3.941406 C 9.371094 4.816406 8.183594 4.933594 7.332031 4.289062 C 5.742188 3.09375 6.503906 0.867188 7.429688 -1.144531 L 7.554688 -1.160156 C 8.339844 0.273438 10.660156 0.792969 11.820312 -0.75 C 12.691406 -1.90625 12.5 -3.40625 10.574219 -4.855469 L 6.515625 -7.90625 L 6.410156 -7.769531 C 6.375 -7.28125 5.773438 -6.214844 4.597656 -4.648438 L 2.953125 -2.464844 C 1.792969 -0.921875 0.925781 -0.0351562 0.46875 0.132812 L 0.363281 0.273438 L 2.546875 1.917969 L 2.652344 1.777344 C 2.6875 1.292969 3.21875 0.152344 4.378906 -1.390625 L 8.097656 -6.335938 L 9.851562 -5.015625 C 11.371094 -3.871094 11.296875 -2.609375 10.550781 -1.617188 C 9.75 -0.550781 8.265625 -0.769531 7.625 -1.621094 C 7.863281 -2.007812 7.691406 -2.414062 7.457031 -2.589844 C 7.164062 -2.808594 6.835938 -2.761719 6.652344 -2.515625 C 6.449219 -2.25 6.484375 -1.929688 6.800781 -1.691406 C 6.882812 -1.628906 7 -1.59375 7.09375 -1.597656 L 7.136719 -1.457031 C 6.613281 -0.882812 6.179688 -0.675781 5.550781 0.261719 C 4.515625 1.804688 4.675781 3.738281 6.238281 4.914062 Z M 6.238281 4.914062 "/></g></g></g><g fill="#c60505" fill-opacity="1"><g transform="translate(135.969871, 154.919068)"><g><path d="M 4.78125 0 L 3.03125 0 L 3.03125 -4.78125 L 3.046875 -5.5625 L 3.078125 -6.421875 C 2.785156 -6.140625 2.582031 -5.953125 2.46875 -5.859375 L 1.53125 -5.09375 L 0.6875 -6.140625 L 3.34375 -8.265625 L 4.78125 -8.265625 Z M 4.78125 0 "/></g></g></g><g fill="#c60505" fill-opacity="1"><g transform="translate(111.52717, 205.007961)"><g><path d="M 2.375 0 L 0.890625 0 L 0.890625 -7.109375 L 4.96875 -7.109375 L 4.96875 -5.875 L 2.375 -5.875 L 2.375 -4.046875 L 4.796875 -4.046875 L 4.796875 -2.8125 L 2.375 -2.8125 Z M 2.375 0 "/></g></g></g><g fill="#c60505" fill-opacity="1"><g transform="translate(116.99399, 205.007961)"><g><path d="M 0.890625 0 L 0.890625 -7.109375 L 2.40625 -7.109375 L 2.40625 0 Z M 0.890625 0 "/></g></g></g><g fill="#c60505" fill-opacity="1"><g transform="translate(120.291591, 205.007961)"><g><path d="M 2.40625 -3.953125 L 2.890625 -3.953125 C 3.367188 -3.953125 3.71875 -4.03125 3.9375 -4.1875 C 4.164062 -4.351562 4.28125 -4.609375 4.28125 -4.953125 C 4.28125 -5.285156 4.164062 -5.519531 3.9375 -5.65625 C 3.707031 -5.800781 3.347656 -5.875 2.859375 -5.875 L 2.40625 -5.875 Z M 2.40625 -2.734375 L 2.40625 0 L 0.890625 0 L 0.890625 -7.109375 L 2.96875 -7.109375 C 3.9375 -7.109375 4.648438 -6.929688 5.109375 -6.578125 C 5.578125 -6.234375 5.8125 -5.703125 5.8125 -4.984375 C 5.8125 -4.566406 5.695312 -4.191406 5.46875 -3.859375 C 5.238281 -3.535156 4.910156 -3.28125 4.484375 -3.09375 C 5.554688 -1.5 6.253906 -0.46875 6.578125 0 L 4.90625 0 L 3.203125 -2.734375 Z M 2.40625 -2.734375 "/></g></g></g><g fill="#c60505" fill-opacity="1"><g transform="translate(126.867339, 205.007961)"><g><path d="M 5.09375 -1.96875 C 5.09375 -1.332031 4.859375 -0.828125 4.390625 -0.453125 C 3.929688 -0.0859375 3.289062 0.09375 2.46875 0.09375 C 1.707031 0.09375 1.035156 -0.046875 0.453125 -0.328125 L 0.453125 -1.734375 C 0.929688 -1.515625 1.335938 -1.363281 1.671875 -1.28125 C 2.003906 -1.195312 2.3125 -1.15625 2.59375 -1.15625 C 2.925781 -1.15625 3.175781 -1.21875 3.34375 -1.34375 C 3.519531 -1.46875 3.609375 -1.65625 3.609375 -1.90625 C 3.609375 -2.039062 3.570312 -2.160156 3.5 -2.265625 C 3.425781 -2.378906 3.3125 -2.484375 3.15625 -2.578125 C 3.007812 -2.679688 2.703125 -2.847656 2.234375 -3.078125 C 1.796875 -3.273438 1.46875 -3.46875 1.25 -3.65625 C 1.039062 -3.84375 0.867188 -4.0625 0.734375 -4.3125 C 0.609375 -4.5625 0.546875 -4.851562 0.546875 -5.1875 C 0.546875 -5.820312 0.757812 -6.316406 1.1875 -6.671875 C 1.613281 -7.035156 2.203125 -7.21875 2.953125 -7.21875 C 3.316406 -7.21875 3.664062 -7.171875 4 -7.078125 C 4.34375 -6.992188 4.695312 -6.875 5.0625 -6.71875 L 4.578125 -5.546875 C 4.191406 -5.703125 3.875 -5.8125 3.625 -5.875 C 3.382812 -5.9375 3.144531 -5.96875 2.90625 -5.96875 C 2.613281 -5.96875 2.390625 -5.898438 2.234375 -5.765625 C 2.085938 -5.628906 2.015625 -5.457031 2.015625 -5.25 C 2.015625 -5.113281 2.046875 -4.992188 2.109375 -4.890625 C 2.171875 -4.796875 2.269531 -4.703125 2.40625 -4.609375 C 2.539062 -4.515625 2.859375 -4.347656 3.359375 -4.109375 C 4.023438 -3.785156 4.476562 -3.460938 4.71875 -3.140625 C 4.96875 -2.828125 5.09375 -2.4375 5.09375 -1.96875 Z M 5.09375 -1.96875 "/></g></g></g><g fill="#c60505" fill-opacity="1"><g transform="translate(132.353613, 205.007961)"><g><path d="M 3.640625 0 L 2.125 0 L 2.125 -5.859375 L 0.203125 -5.859375 L 0.203125 -7.109375 L 5.578125 -7.109375 L 5.578125 -5.859375 L 3.640625 -5.859375 Z M 3.640625 0 "/></g></g></g><g fill="#c60505" fill-opacity="1"><g transform="translate(138.121983, 205.007961)"><g/></g></g><g fill="#c60505" fill-opacity="1"><g transform="translate(140.709481, 205.007961)"><g><path d="M 2.40625 -3.765625 L 2.90625 -3.765625 C 3.363281 -3.765625 3.707031 -3.851562 3.9375 -4.03125 C 4.164062 -4.21875 4.28125 -4.488281 4.28125 -4.84375 C 4.28125 -5.195312 4.179688 -5.457031 3.984375 -5.625 C 3.796875 -5.789062 3.5 -5.875 3.09375 -5.875 L 2.40625 -5.875 Z M 5.8125 -4.890625 C 5.8125 -4.128906 5.570312 -3.546875 5.09375 -3.140625 C 4.613281 -2.734375 3.929688 -2.53125 3.046875 -2.53125 L 2.40625 -2.53125 L 2.40625 0 L 0.890625 0 L 0.890625 -7.109375 L 3.171875 -7.109375 C 4.035156 -7.109375 4.691406 -6.921875 5.140625 -6.546875 C 5.585938 -6.179688 5.8125 -5.628906 5.8125 -4.890625 Z M 5.8125 -4.890625 "/></g></g></g><g fill="#c60505" fill-opacity="1"><g transform="translate(146.964223, 205.007961)"><g><path d="M 0.890625 0 L 0.890625 -7.109375 L 2.40625 -7.109375 L 2.40625 -1.25 L 5.296875 -1.25 L 5.296875 0 Z M 0.890625 0 "/></g></g></g><g fill="#c60505" fill-opacity="1"><g transform="translate(152.591552, 205.007961)"><g><path d="M 5.25 0 L 4.734375 -1.6875 L 2.140625 -1.6875 L 1.625 0 L 0 0 L 2.515625 -7.140625 L 4.359375 -7.140625 L 6.875 0 Z M 4.375 -2.953125 C 3.894531 -4.492188 3.625 -5.363281 3.5625 -5.5625 C 3.507812 -5.757812 3.46875 -5.921875 3.4375 -6.046875 C 3.332031 -5.628906 3.023438 -4.597656 2.515625 -2.953125 Z M 4.375 -2.953125 "/></g></g></g><g fill="#c60505" fill-opacity="1"><g transform="translate(159.463992, 205.007961)"><g><path d="M 3.921875 -5.96875 C 3.347656 -5.96875 2.90625 -5.753906 2.59375 -5.328125 C 2.28125 -4.898438 2.125 -4.300781 2.125 -3.53125 C 2.125 -1.945312 2.722656 -1.15625 3.921875 -1.15625 C 4.421875 -1.15625 5.023438 -1.28125 5.734375 -1.53125 L 5.734375 -0.265625 C 5.148438 -0.0234375 4.5 0.09375 3.78125 0.09375 C 2.738281 0.09375 1.941406 -0.21875 1.390625 -0.84375 C 0.847656 -1.46875 0.578125 -2.367188 0.578125 -3.546875 C 0.578125 -4.285156 0.710938 -4.929688 0.984375 -5.484375 C 1.253906 -6.046875 1.640625 -6.472656 2.140625 -6.765625 C 2.648438 -7.066406 3.242188 -7.21875 3.921875 -7.21875 C 4.609375 -7.21875 5.300781 -7.050781 6 -6.71875 L 5.515625 -5.484375 C 5.242188 -5.617188 4.972656 -5.734375 4.703125 -5.828125 C 4.441406 -5.921875 4.179688 -5.96875 3.921875 -5.96875 Z M 3.921875 -5.96875 "/></g></g></g><g fill="#c60505" fill-opacity="1"><g transform="translate(165.81115, 205.007961)"><g><path d="M 5 0 L 0.890625 0 L 0.890625 -7.109375 L 5 -7.109375 L 5 -5.875 L 2.40625 -5.875 L 2.40625 -4.3125 L 4.8125 -4.3125 L 4.8125 -3.078125 L 2.40625 -3.078125 L 2.40625 -1.25 L 5 -1.25 Z M 5 0 "/></g></g></g><path stroke-linecap="butt" transform="matrix(0.748758, 0, 0, 0.747359, 107.143506, 208.504457)" fill="none" stroke-linejoin="miter" d="M 0.00136903 -0.000737519 L 91.840961 -0.000737519 " stroke="#863030" stroke-width="1" stroke-opacity="1" stroke-miterlimit="4"/></svg>