<svg xmlns="http://www.w3.org/2000/svg" xmlns:xlink="http://www.w3.org/1999/xlink" width="377" zoomAndPan="magnify" viewBox="0 0 282.96 283.499996" height="377" preserveAspectRatio="xMidYMid meet" version="1.0"><defs><g/><clipPath id="id1"><path d="M 92.386719 171 L 185.058594 171 L 185.058594 188.789062 L 92.386719 188.789062 Z M 92.386719 171 " clip-rule="nonzero"/></clipPath><clipPath id="id2"><path d="M 107 71.453125 L 145 71.453125 L 145 107 L 107 107 Z M 107 71.453125 " clip-rule="nonzero"/></clipPath><clipPath id="id3"><path d="M 106 71.453125 L 173 71.453125 L 173 146 L 106 146 Z M 106 71.453125 " clip-rule="nonzero"/></clipPath><clipPath id="id4"><path d="M 105 71.453125 L 173 71.453125 L 173 147 L 105 147 Z M 105 71.453125 " clip-rule="nonzero"/></clipPath><clipPath id="id5"><path d="M 66 82 L 99 82 L 99 168 L 66 168 Z M 66 82 " clip-rule="nonzero"/></clipPath><clipPath id="id6"><path d="M 72.570312 80.195312 L 106.792969 83.445312 L 98.742188 168.265625 L 64.515625 165.015625 Z M 72.570312 80.195312 " clip-rule="nonzero"/></clipPath><clipPath id="id7"><path d="M 72.570312 80.195312 L 201.28125 92.417969 L 193.230469 177.234375 L 64.515625 165.015625 Z M 72.570312 80.195312 " clip-rule="nonzero"/></clipPath><clipPath id="id8"><path d="M 72.589844 80.199219 L 103.519531 83.136719 L 95.460938 167.984375 L 64.535156 165.046875 Z M 72.589844 80.199219 " clip-rule="nonzero"/></clipPath><clipPath id="id9"><path d="M 72.589844 80.199219 L 103.519531 83.136719 L 95.464844 167.953125 L 64.539062 165.019531 Z M 72.589844 80.199219 " clip-rule="nonzero"/></clipPath><clipPath id="id10"><path d="M 184 81 L 217 81 L 217 167 L 184 167 Z M 184 81 " clip-rule="nonzero"/></clipPath><clipPath id="id11"><path d="M 187.074219 80.195312 L 221.300781 83.445312 L 213.246094 168.265625 L 179.023438 165.015625 Z M 187.074219 80.195312 " clip-rule="nonzero"/></clipPath><clipPath id="id12"><path d="M 221.648438 83.480469 L 92.933594 71.257812 L 84.882812 156.078125 L 213.597656 168.296875 Z M 221.648438 83.480469 " clip-rule="nonzero"/></clipPath><clipPath id="id13"><path d="M 221.625 83.476562 L 190.699219 80.539062 L 182.644531 165.390625 L 213.570312 168.324219 Z M 221.625 83.476562 " clip-rule="nonzero"/></clipPath><clipPath id="id14"><path d="M 221.625 83.476562 L 190.699219 80.539062 L 182.648438 165.359375 L 213.574219 168.296875 Z M 221.625 83.476562 " clip-rule="nonzero"/></clipPath></defs><g clip-path="url(#id1)"><path fill="#f0bc8a" d="M 138.730469 188.785156 C 164.21875 188.785156 185.007812 185.015625 185.007812 180.390625 C 185.007812 175.769531 164.21875 171.996094 138.730469 171.996094 C 113.242188 171.996094 92.453125 175.769531 92.453125 180.390625 C 92.453125 185.015625 113.242188 188.785156 138.730469 188.785156 " fill-opacity="1" fill-rule="evenodd"/></g><path fill="#ffda68" d="M 180.261719 177.882812 C 180.261719 182.519531 161.667969 186.277344 138.730469 186.277344 C 115.792969 186.277344 97.199219 182.519531 97.199219 177.882812 C 97.199219 173.996094 97.199219 174.003906 97.199219 170.113281 C 97.199219 165.476562 115.792969 161.71875 138.730469 161.71875 C 161.667969 161.71875 180.261719 165.476562 180.261719 170.113281 C 180.261719 174.003906 180.261719 173.996094 180.261719 177.882812 " fill-opacity="1" fill-rule="evenodd"/><path fill="#ffe68c" d="M 138.730469 178.507812 C 161.605469 178.507812 180.261719 174.738281 180.261719 170.113281 C 180.261719 165.488281 161.605469 161.71875 138.730469 161.71875 C 115.855469 161.71875 97.199219 165.488281 97.199219 170.113281 C 97.199219 174.738281 115.855469 178.507812 138.730469 178.507812 " fill-opacity="1" fill-rule="evenodd"/><path fill="#ffda68" d="M 168.136719 169.742188 C 168.136719 173.023438 154.972656 175.683594 138.730469 175.683594 C 122.488281 175.683594 109.324219 173.023438 109.324219 169.742188 C 109.324219 167.105469 109.324219 164.464844 109.324219 161.828125 C 109.324219 158.546875 122.488281 155.882812 138.730469 155.882812 C 154.972656 155.882812 168.136719 158.546875 168.136719 161.828125 C 168.136719 164.464844 168.136719 167.105469 168.136719 169.742188 " fill-opacity="1" fill-rule="evenodd"/><path fill="#ffe68c" d="M 138.730469 167.773438 C 154.925781 167.773438 168.136719 165.101562 168.136719 161.828125 C 168.136719 158.554688 154.925781 155.882812 138.730469 155.882812 C 122.535156 155.882812 109.324219 158.554688 109.324219 161.828125 C 109.324219 165.101562 122.535156 167.773438 138.730469 167.773438 " fill-opacity="1" fill-rule="evenodd"/><g clip-path="url(#id2)"><path fill="#f7cb43" d="M 139.804688 71.457031 L 144.910156 87.273438 C 144.308594 89.191406 143.484375 91.03125 142.46875 92.765625 L 139.804688 84.515625 L 135.09375 99.113281 L 119.753906 99.085938 L 128.207031 105.203125 C 126.742188 105.847656 125.214844 106.402344 123.636719 106.84375 L 107.335938 95.050781 L 132.175781 95.097656 L 139.804688 71.457031 " fill-opacity="1" fill-rule="evenodd"/><path fill="#f2c143" d="M 142.886719 92.03125 L 140.398438 84.324219 L 139.804688 82.488281 L 139.214844 84.324219 L 134.640625 98.492188 L 119.753906 98.464844 L 117.828125 98.460938 L 119.390625 99.589844 L 127.539062 105.488281 C 127.765625 105.394531 127.984375 105.300781 128.207031 105.203125 L 119.753906 99.085938 L 135.09375 99.113281 L 139.804688 84.515625 L 142.46875 92.765625 C 142.609375 92.523438 142.75 92.277344 142.886719 92.03125 Z M 139.804688 71.457031 L 144.910156 87.273438 C 144.804688 87.605469 144.695312 87.9375 144.578125 88.261719 L 139.804688 73.480469 L 132.769531 95.289062 L 132.628906 95.71875 L 132.175781 95.71875 L 109.261719 95.675781 L 124.390625 106.625 C 124.140625 106.699219 123.890625 106.773438 123.636719 106.84375 L 107.335938 95.050781 L 132.175781 95.097656 L 139.804688 71.457031 " fill-opacity="1" fill-rule="evenodd"/></g><path fill="#f6c52e" d="M 128.9375 105.730469 L 130.570312 106.914062 C 129.140625 107.582031 127.652344 108.160156 126.105469 108.632812 L 124.394531 107.394531 C 125.964844 106.941406 127.480469 106.382812 128.9375 105.730469 Z M 145.273438 88.394531 L 146.054688 90.816406 C 145.375 92.585938 144.507812 94.28125 143.472656 95.875 L 142.785156 93.742188 C 143.808594 92.054688 144.644531 90.265625 145.273438 88.394531 " fill-opacity="1" fill-rule="evenodd"/><path fill="#f2c143" d="M 128.9375 105.730469 L 130.570312 106.914062 C 130.355469 107.011719 130.136719 107.113281 129.917969 107.210938 L 128.273438 106.019531 C 128.496094 105.925781 128.714844 105.828125 128.9375 105.730469 Z M 143.902344 95.1875 C 143.761719 95.417969 143.621094 95.648438 143.472656 95.875 L 142.785156 93.742188 C 142.929688 93.503906 143.066406 93.261719 143.203125 93.019531 Z M 125.144531 107.167969 L 126.84375 108.398438 C 126.597656 108.480469 126.355469 108.558594 126.105469 108.632812 L 124.394531 107.394531 C 124.648438 107.324219 124.898438 107.246094 125.144531 107.167969 Z M 145.273438 88.394531 L 146.054688 90.816406 C 145.9375 91.117188 145.816406 91.414062 145.691406 91.710938 L 144.929688 89.359375 C 145.050781 89.039062 145.164062 88.71875 145.273438 88.394531 " fill-opacity="1" fill-rule="evenodd"/><path fill="#eeb217" d="M 137.90625 117.046875 L 141.269531 117.046875 L 141.269531 144.042969 L 137.90625 144.042969 L 137.90625 117.046875 " fill-opacity="1" fill-rule="evenodd"/><path fill="#f7cb43" d="M 140.390625 117.046875 L 141.75 117.046875 L 141.75 144.042969 L 140.390625 144.042969 L 140.390625 117.046875 " fill-opacity="1" fill-rule="evenodd"/><path fill="#f5bf17" d="M 140.390625 117.046875 L 140.859375 117.046875 L 140.859375 144.042969 L 140.390625 144.042969 L 140.390625 117.046875 " fill-opacity="1" fill-rule="evenodd"/><path fill="#e19d15" d="M 137.90625 117.046875 L 141.269531 117.046875 L 141.269531 121.628906 L 139.804688 120.5625 L 137.90625 122.203125 L 137.90625 117.046875 " fill-opacity="1" fill-rule="evenodd"/><path fill="#e8b239" d="M 140.390625 117.046875 L 141.75 117.046875 L 141.75 121.980469 L 140.390625 120.988281 L 140.390625 117.046875 " fill-opacity="1" fill-rule="evenodd"/><path fill="#e6a815" d="M 140.390625 117.046875 L 140.859375 117.046875 L 140.859375 121.332031 L 140.390625 120.988281 L 140.390625 117.046875 " fill-opacity="1" fill-rule="evenodd"/><g clip-path="url(#id3)"><path fill="#f5bf17" d="M 139.804688 84.515625 L 135.09375 99.113281 L 119.753906 99.085938 L 132.863281 108.570312 L 117.992188 132.113281 L 139.597656 113.46875 L 152.199219 122.660156 L 147.429688 108.078125 L 159.855469 99.085938 L 144.519531 99.113281 Z M 139.804688 71.457031 L 147.4375 95.097656 L 172.273438 95.050781 L 152.152344 109.613281 L 159.871094 133.226562 L 139.804688 118.585938 L 106.386719 145.53125 L 127.460938 109.613281 L 107.335938 95.050781 L 132.175781 95.097656 L 139.804688 71.457031 " fill-opacity="1" fill-rule="evenodd"/></g><g clip-path="url(#id4)"><path fill="#eeb217" d="M 139.804688 84.515625 L 135.09375 99.113281 L 119.753906 99.085938 L 132.863281 108.570312 L 117.992188 132.113281 L 139.597656 113.46875 L 152.199219 122.660156 L 147.429688 108.078125 L 159.855469 99.085938 L 144.519531 99.113281 Z M 134.640625 98.492188 L 119.753906 98.464844 L 117.828125 98.460938 L 119.390625 99.589844 L 132.023438 108.734375 L 117.46875 131.78125 L 115.238281 135.3125 L 118.398438 132.582031 L 139.628906 114.257812 L 151.832031 123.164062 L 153.386719 124.296875 L 152.789062 122.46875 L 148.164062 108.316406 L 160.222656 99.589844 L 161.78125 98.460938 L 159.855469 98.464844 L 144.96875 98.492188 L 140.398438 84.324219 L 139.804688 82.488281 L 139.214844 84.324219 Z M 146.84375 95.289062 L 139.804688 73.480469 L 132.769531 95.289062 L 132.628906 95.71875 L 132.175781 95.71875 L 109.261719 95.675781 L 127.824219 109.109375 L 128.296875 109.449219 L 127.988281 109.945312 L 107.992188 143.574219 L 139.398438 118.113281 L 139.773438 117.792969 L 140.171875 118.082031 L 158.683594 131.589844 L 151.558594 109.804688 L 151.417969 109.375 L 151.785156 109.109375 L 170.347656 95.675781 L 147.4375 95.71875 L 146.984375 95.71875 Z M 139.804688 71.457031 L 147.4375 95.097656 L 172.273438 95.050781 L 152.152344 109.613281 L 159.871094 133.226562 L 139.804688 118.585938 L 105.1875 146.824219 L 127.460938 109.613281 L 107.335938 95.050781 L 132.175781 95.097656 L 139.804688 71.457031 " fill-opacity="1" fill-rule="evenodd"/></g><path fill="#b90505" d="M 127.398438 140.824219 L 151.773438 140.824219 C 152.265625 140.824219 152.667969 141.226562 152.667969 141.714844 L 152.667969 142.851562 L 126.507812 142.851562 L 126.507812 141.714844 C 126.507812 141.226562 126.90625 140.824219 127.398438 140.824219 " fill-opacity="1" fill-rule="evenodd"/><path fill="#c50505" d="M 127.398438 140.824219 L 139.257812 140.824219 C 139.046875 141.535156 138.703125 142.21875 138.246094 142.851562 L 126.507812 142.851562 L 126.507812 141.714844 C 126.507812 141.226562 126.90625 140.824219 127.398438 140.824219 " fill-opacity="1" fill-rule="evenodd"/><path fill="#c50505" d="M 126.28125 142.851562 L 152.894531 142.851562 C 153.625 142.851562 154.222656 143.449219 154.222656 144.179688 L 154.222656 160.484375 C 154.222656 161.214844 153.625 161.8125 152.894531 161.8125 L 126.28125 161.8125 C 125.546875 161.8125 124.949219 161.214844 124.949219 160.484375 L 124.949219 144.179688 C 124.949219 143.449219 125.546875 142.851562 126.28125 142.851562 " fill-opacity="1" fill-rule="evenodd"/><path fill="#d40605" d="M 126.28125 142.851562 L 140.910156 142.851562 C 142.515625 144.820312 143.449219 147.164062 143.449219 149.683594 C 143.449219 155.496094 138.484375 160.382812 131.746094 161.8125 L 126.28125 161.8125 C 125.546875 161.8125 124.949219 161.214844 124.949219 160.484375 L 124.949219 144.179688 C 124.949219 143.449219 125.546875 142.851562 126.28125 142.851562 " fill-opacity="1" fill-rule="evenodd"/><path fill="#b90505" d="M 123.304688 159.910156 L 124.949219 159.910156 C 131.109375 161.359375 148.0625 161.359375 154.222656 159.910156 L 155.867188 159.910156 C 156.28125 159.910156 156.617188 160.246094 156.617188 160.660156 L 156.617188 162.65625 C 156.617188 165.527344 122.554688 165.527344 122.554688 162.65625 L 122.554688 160.660156 C 122.554688 160.246094 122.894531 159.910156 123.304688 159.910156 " fill-opacity="1" fill-rule="evenodd"/><path fill="#db1712" d="M 124.949219 159.910156 C 131.109375 161.359375 148.0625 161.359375 154.222656 159.910156 C 154.957031 159.910156 156.589844 159.621094 156.617188 160.640625 C 153.109375 162.902344 126.066406 162.902344 122.554688 160.640625 C 122.582031 159.621094 124.21875 159.910156 124.949219 159.910156 " fill-opacity="1" fill-rule="evenodd"/><path fill="#f7cb43" d="M 139.585938 156.703125 C 145.382812 156.703125 150.113281 153.8125 150.113281 150.269531 C 150.113281 146.722656 145.382812 143.832031 139.585938 143.832031 C 133.789062 143.832031 129.058594 146.722656 129.058594 150.269531 C 129.058594 153.8125 133.789062 156.703125 139.585938 156.703125 " fill-opacity="1" fill-rule="evenodd"/><path fill="#f5bf17" d="M 139.585938 155.933594 C 144.691406 155.933594 148.855469 153.390625 148.855469 150.269531 C 148.855469 147.148438 144.691406 144.601562 139.585938 144.601562 C 134.480469 144.601562 130.320312 147.148438 130.320312 150.269531 C 130.320312 153.390625 134.480469 155.933594 139.585938 155.933594 " fill-opacity="1" fill-rule="evenodd"/><path fill="#facd50" d="M 139.585938 143.832031 C 140.835938 143.832031 142.03125 143.964844 143.140625 144.207031 L 132.78125 155.179688 C 130.507812 154 129.058594 152.238281 129.058594 150.269531 C 129.058594 146.714844 133.773438 143.832031 139.585938 143.832031 " fill-opacity="1" fill-rule="evenodd"/><path fill="#f9c632" d="M 139.585938 144.601562 C 140.605469 144.601562 141.582031 144.703125 142.5 144.886719 L 133.421875 154.5 C 131.519531 153.460938 130.320312 151.949219 130.320312 150.269531 C 130.320312 147.136719 134.46875 144.601562 139.585938 144.601562 " fill-opacity="1" fill-rule="evenodd"/><path fill="#ffffff" d="M 138.125 146.058594 C 138.769531 146.058594 139.292969 145.894531 139.292969 145.695312 C 139.292969 145.496094 138.769531 145.332031 138.125 145.332031 C 137.480469 145.332031 136.957031 145.496094 136.957031 145.695312 C 136.957031 145.894531 137.480469 146.058594 138.125 146.058594 " fill-opacity="1" fill-rule="evenodd"/><g clip-path="url(#id5)"><g clip-path="url(#id6)"><g clip-path="url(#id7)"><g clip-path="url(#id8)"><g clip-path="url(#id9)"><path fill="#f6bf16" d="M 92.59375 87.277344 C 92.839844 86.945312 92.679688 86.136719 92.65625 85.292969 C 92.640625 84.875 92.640625 84.429688 92.742188 84.046875 C 92.835938 83.664062 93.011719 83.320312 93.3125 83.09375 C 93.019531 83.398438 92.871094 83.792969 92.8125 84.214844 C 92.753906 84.636719 92.796875 85.097656 92.84375 85.519531 C 92.941406 86.367188 93.132812 87.117188 92.777344 87.367188 C 93.242188 87.5 93.59375 87.441406 93.835938 87.230469 C 94.078125 87.019531 94.230469 86.675781 94.277344 86.210938 C 94.320312 85.742188 94.292969 85.183594 94.171875 84.539062 C 94.046875 83.898438 93.851562 83.191406 93.570312 82.464844 C 92.804688 82.585938 92.222656 82.898438 91.792969 83.28125 C 91.375 83.671875 91.140625 84.152344 91.0625 84.636719 C 90.933594 85.625 91.488281 86.636719 92.59375 87.277344 Z M 90.277344 90.796875 C 90.4375 90.375 90.0625 89.53125 89.800781 88.617188 C 89.671875 88.160156 89.5625 87.683594 89.546875 87.234375 C 89.53125 86.789062 89.621094 86.378906 89.863281 86.050781 C 89.648438 86.460938 89.601562 86.921875 89.664062 87.402344 C 89.730469 87.878906 89.886719 88.363281 90.054688 88.8125 C 90.386719 89.714844 90.777344 90.492188 90.488281 90.851562 C 91.496094 90.921875 91.816406 90.257812 91.675781 89.214844 C 91.597656 88.691406 91.410156 88.074219 91.121094 87.40625 C 90.828125 86.738281 90.425781 86.007812 89.949219 85.296875 C 88.488281 85.996094 87.882812 87.210938 88.023438 88.296875 C 88.160156 89.394531 88.996094 90.355469 90.277344 90.796875 Z M 88.203125 94.65625 C 88.25 94.15625 87.675781 93.304688 87.171875 92.351562 C 86.925781 91.875 86.699219 91.378906 86.578125 90.890625 C 86.453125 90.402344 86.4375 89.933594 86.617188 89.523438 C 86.550781 89.769531 86.539062 90.023438 86.558594 90.277344 C 86.585938 90.535156 86.652344 90.792969 86.742188 91.046875 C 86.921875 91.558594 87.199219 92.054688 87.480469 92.515625 C 88.058594 93.445312 88.636719 94.21875 88.429688 94.671875 C 89.484375 94.554688 89.644531 93.742188 89.25 92.621094 C 88.835938 91.488281 87.875 90.035156 86.511719 88.675781 C 86.183594 88.949219 85.910156 89.246094 85.695312 89.554688 C 85.476562 89.859375 85.332031 90.183594 85.234375 90.503906 C 85.03125 91.144531 85.066406 91.796875 85.265625 92.375 C 85.664062 93.539062 86.789062 94.429688 88.203125 94.65625 Z M 86.351562 98.835938 C 86.285156 98.273438 85.507812 97.4375 84.777344 96.472656 C 84.410156 95.992188 84.0625 95.484375 83.832031 94.972656 C 83.605469 94.464844 83.476562 93.945312 83.574219 93.460938 C 83.542969 94.027344 83.746094 94.589844 84.039062 95.117188 C 84.332031 95.644531 84.730469 96.140625 85.132812 96.601562 C 85.933594 97.523438 86.699219 98.273438 86.589844 98.8125 C 87.117188 98.65625 87.394531 98.351562 87.445312 97.933594 C 87.46875 97.726562 87.441406 97.492188 87.363281 97.234375 C 87.289062 96.976562 87.167969 96.699219 87 96.402344 C 86.332031 95.226562 85.003906 93.785156 83.292969 92.554688 C 82.699219 93.277344 82.410156 94.054688 82.335938 94.792969 C 82.273438 95.53125 82.4375 96.234375 82.773438 96.832031 C 83.457031 98.039062 84.8125 98.820312 86.351562 98.835938 Z M 84.710938 103.324219 C 84.539062 102.71875 83.539062 101.90625 82.59375 100.964844 C 82.121094 100.492188 81.652344 99.984375 81.308594 99.460938 C 80.96875 98.9375 80.75 98.390625 80.753906 97.84375 C 80.839844 98.472656 81.144531 99.054688 81.554688 99.585938 C 81.96875 100.121094 82.492188 100.609375 83 101.050781 C 84.015625 101.941406 84.976562 102.660156 84.964844 103.269531 C 85.234375 103.144531 85.421875 102.988281 85.539062 102.804688 C 85.660156 102.621094 85.710938 102.410156 85.699219 102.175781 C 85.675781 101.710938 85.394531 101.148438 84.9375 100.550781 C 84.476562 99.953125 83.820312 99.308594 83.027344 98.675781 C 82.234375 98.046875 81.304688 97.429688 80.28125 96.894531 C 79.3125 98.679688 79.589844 100.453125 80.542969 101.660156 C 81.492188 102.871094 83.078125 103.53125 84.710938 103.324219 Z M 83.285156 108.128906 C 82.726562 106.851562 78.484375 105.066406 78.15625 102.65625 C 78.527344 104.007812 79.851562 105.023438 81.078125 105.863281 C 82.304688 106.703125 83.464844 107.375 83.542969 108.039062 C 84.59375 107.363281 84.25 106.261719 83.058594 105.0625 C 81.878906 103.871094 79.851562 102.566406 77.488281 101.679688 C 76.746094 103.761719 77.355469 105.65625 78.5625 106.847656 C 79.777344 108.042969 81.582031 108.5625 83.285156 108.128906 Z M 82.082031 113.261719 C 81.292969 111.929688 76.492188 110.480469 75.78125 107.902344 C 76.394531 109.328125 77.941406 110.269531 79.386719 111.042969 C 80.832031 111.816406 82.15625 112.417969 82.347656 113.128906 C 82.859375 112.703125 82.980469 112.203125 82.789062 111.65625 C 82.597656 111.113281 82.109375 110.527344 81.382812 109.941406 C 79.933594 108.773438 77.589844 107.59375 74.925781 106.921875 C 74.445312 109.277344 75.367188 111.257812 76.84375 112.40625 C 78.320312 113.566406 80.332031 113.921875 82.082031 113.261719 Z M 81.125 118.730469 C 80.09375 117.367188 74.765625 116.304688 73.660156 113.59375 C 74.496094 115.074219 76.296875 115.929688 77.9375 116.613281 C 79.582031 117.292969 81.085938 117.808594 81.390625 118.558594 C 81.875 118.046875 81.929688 117.488281 81.65625 116.917969 C 81.378906 116.347656 80.765625 115.761719 79.917969 115.203125 C 78.214844 114.089844 75.539062 113.0625 72.609375 112.625 C 72.40625 115.234375 73.679688 117.277344 75.40625 118.359375 C 77.148438 119.453125 79.339844 119.621094 81.125 118.730469 Z M 80.4375 124.558594 C 79.792969 123.875 78.027344 123.378906 76.222656 122.707031 C 75.320312 122.371094 74.40625 121.988281 73.625 121.515625 C 72.84375 121.042969 72.195312 120.476562 71.8125 119.769531 C 72.898438 121.285156 74.914062 122.023438 76.761719 122.59375 C 78.613281 123.164062 80.269531 123.570312 80.699219 124.351562 C 81.601562 123.148438 80.65625 121.921875 78.699219 120.878906 C 76.734375 119.84375 73.765625 119 70.574219 118.835938 C 70.683594 121.679688 72.292969 123.75 74.285156 124.738281 C 76.28125 125.734375 78.652344 125.691406 80.4375 124.558594 Z M 80.085938 130.765625 C 79.308594 130.101562 77.367188 129.742188 75.359375 129.199219 C 73.34375 128.65625 71.28125 127.921875 70.300781 126.480469 C 71.640625 128.003906 73.878906 128.59375 75.917969 129.023438 C 77.960938 129.453125 79.78125 129.722656 80.332031 130.515625 C 80.738281 129.828125 80.65625 129.183594 80.1875 128.589844 C 79.726562 127.996094 78.878906 127.453125 77.769531 126.988281 C 75.558594 126.070312 72.289062 125.449219 68.871094 125.59375 C 69.09375 127.121094 69.703125 128.40625 70.535156 129.414062 C 71.359375 130.417969 72.421875 131.144531 73.542969 131.578125 C 75.800781 132.441406 78.324219 132.152344 80.085938 130.765625 Z M 80.140625 137.378906 C 79.230469 136.75 77.113281 136.566406 74.910156 136.191406 C 72.710938 135.816406 70.414062 135.246094 69.207031 133.789062 C 70.808594 135.292969 73.273438 135.691406 75.492188 135.945312 C 77.714844 136.195312 79.683594 136.300781 80.371094 137.085938 C 80.710938 136.316406 80.550781 135.640625 79.976562 135.054688 C 79.410156 134.46875 78.449219 133.972656 77.210938 133.585938 C 74.75 132.820312 71.199219 132.472656 67.578125 132.984375 C 67.78125 133.796875 68.101562 134.535156 68.472656 135.191406 C 68.851562 135.851562 69.308594 136.433594 69.804688 136.929688 C 70.824219 137.925781 72.023438 138.589844 73.28125 138.933594 C 74.535156 139.277344 75.828125 139.300781 77.015625 139.03125 C 78.207031 138.765625 79.285156 138.207031 80.140625 137.378906 Z M 80.730469 144.417969 C 79.683594 143.855469 77.417969 143.898438 75.03125 143.746094 C 73.835938 143.667969 72.613281 143.542969 71.507812 143.253906 C 70.40625 142.96875 69.398438 142.515625 68.671875 141.796875 C 70.5625 143.246094 73.222656 143.394531 75.605469 143.417969 C 77.996094 143.4375 80.113281 143.328125 80.9375 144.082031 C 81.207031 143.226562 80.925781 142.535156 80.253906 141.972656 C 79.570312 141.414062 78.488281 140.988281 77.136719 140.707031 C 74.421875 140.152344 70.609375 140.148438 66.847656 141.105469 C 67.011719 141.53125 67.195312 141.9375 67.398438 142.320312 C 67.601562 142.699219 67.835938 143.0625 68.078125 143.394531 C 68.558594 144.066406 69.121094 144.644531 69.71875 145.121094 C 70.917969 146.082031 72.304688 146.65625 73.671875 146.875 C 76.4375 147.308594 79.152344 146.355469 80.730469 144.417969 Z M 82.078125 151.871094 C 80.878906 151.425781 78.5 151.769531 75.953125 151.925781 C 73.410156 152.078125 70.710938 152.023438 68.945312 150.640625 C 70.039062 151.308594 71.316406 151.597656 72.613281 151.679688 C 73.914062 151.761719 75.253906 151.644531 76.515625 151.5 C 79.042969 151.207031 81.257812 150.816406 82.246094 151.492188 C 82.398438 150.558594 82 149.871094 81.207031 149.367188 C 80.40625 148.867188 79.203125 148.546875 77.730469 148.414062 C 76.257812 148.28125 74.511719 148.332031 72.660156 148.597656 C 70.804688 148.863281 68.832031 149.347656 66.917969 150.105469 C 67.839844 151.898438 69.148438 153.242188 70.5625 154.125 C 71.996094 155.011719 73.535156 155.4375 75.03125 155.476562 C 76.519531 155.515625 77.945312 155.167969 79.164062 154.539062 C 79.773438 154.222656 80.332031 153.839844 80.820312 153.390625 C 81.308594 152.945312 81.738281 152.433594 82.078125 151.871094 Z M 84.546875 159.652344 C 83.210938 159.40625 80.78125 160.1875 78.140625 160.785156 C 76.816406 161.082031 75.449219 161.328125 74.140625 161.34375 C 72.832031 161.359375 71.574219 161.136719 70.519531 160.507812 C 71.804688 161.082031 73.199219 161.195312 74.585938 161.074219 C 75.96875 160.953125 77.347656 160.601562 78.644531 160.234375 C 81.234375 159.492188 83.488281 158.703125 84.652344 159.226562 C 84.644531 158.730469 84.5 158.324219 84.246094 157.988281 C 83.996094 157.652344 83.632812 157.394531 83.164062 157.195312 C 82.238281 156.804688 80.914062 156.660156 79.339844 156.742188 C 76.207031 156.921875 72.042969 157.972656 68.285156 160.222656 C 69.609375 162.078125 71.261719 163.371094 72.949219 164.105469 C 73.796875 164.476562 74.660156 164.707031 75.496094 164.816406 C 76.332031 164.925781 77.167969 164.910156 77.949219 164.792969 C 79.519531 164.554688 80.929688 163.902344 82.0625 162.996094 C 82.628906 162.546875 83.128906 162.03125 83.542969 161.472656 C 83.960938 160.910156 84.308594 160.296875 84.546875 159.652344 Z M 95.003906 89.164062 C 95.246094 88.902344 95.96875 88.886719 96.710938 88.863281 C 97.078125 88.847656 97.445312 88.816406 97.753906 88.734375 C 98.066406 88.65625 98.320312 88.523438 98.464844 88.273438 C 98.257812 88.515625 97.949219 88.625 97.597656 88.671875 C 97.25 88.730469 96.859375 88.726562 96.476562 88.714844 C 95.714844 88.6875 95.023438 88.671875 94.882812 89.019531 C 94.421875 88.261719 94.789062 87.714844 95.613281 87.53125 C 95.816406 87.480469 96.042969 87.453125 96.296875 87.453125 C 96.550781 87.453125 96.824219 87.476562 97.113281 87.523438 C 97.691406 87.617188 98.316406 87.804688 98.960938 88.109375 C 98.941406 88.714844 98.8125 89.195312 98.570312 89.515625 C 98.34375 89.859375 98.015625 90.058594 97.625 90.140625 C 96.867188 90.316406 95.847656 90.003906 95.003906 89.164062 Z M 92.632812 92.316406 C 92.910156 92.046875 93.71875 92.042969 94.535156 92.003906 C 95.363281 91.972656 96.171875 91.886719 96.523438 91.40625 C 96.027344 91.871094 95.132812 91.882812 94.285156 91.859375 C 93.445312 91.84375 92.679688 91.8125 92.503906 92.171875 C 92.042969 91.40625 92.460938 90.847656 93.375 90.664062 C 94.277344 90.464844 95.660156 90.652344 97.074219 91.230469 C 97.046875 91.855469 96.863281 92.308594 96.589844 92.65625 C 96.316406 92.996094 95.933594 93.199219 95.5 93.296875 C 94.632812 93.472656 93.515625 93.167969 92.632812 92.316406 Z M 90.453125 95.882812 C 90.769531 95.597656 91.671875 95.601562 92.570312 95.550781 C 93.480469 95.503906 94.398438 95.421875 94.800781 94.914062 C 94.238281 95.40625 93.226562 95.410156 92.300781 95.402344 C 91.375 95.394531 90.523438 95.355469 90.320312 95.726562 C 90.078125 95.328125 90.089844 94.996094 90.28125 94.730469 C 90.46875 94.464844 90.839844 94.273438 91.347656 94.175781 C 91.855469 94.078125 92.480469 94.070312 93.179688 94.160156 C 93.878906 94.253906 94.648438 94.445312 95.429688 94.734375 C 95.296875 95.980469 94.550781 96.667969 93.570312 96.867188 C 92.585938 97.054688 91.386719 96.761719 90.453125 95.882812 Z M 88.484375 99.824219 C 88.839844 99.527344 89.824219 99.519531 90.824219 99.464844 C 91.820312 99.402344 92.847656 99.304688 93.308594 98.773438 C 92.667969 99.292969 91.546875 99.3125 90.53125 99.316406 C 89.515625 99.316406 88.582031 99.28125 88.34375 99.671875 C 88.101562 99.257812 88.125 98.90625 88.347656 98.628906 C 88.570312 98.355469 88.980469 98.152344 89.542969 98.046875 C 90.660156 97.835938 92.300781 98 94.015625 98.570312 C 93.910156 99.21875 93.648438 99.730469 93.265625 100.097656 C 92.894531 100.472656 92.398438 100.710938 91.851562 100.820312 C 90.769531 101.039062 89.460938 100.738281 88.484375 99.824219 Z M 86.726562 104.136719 C 87.136719 103.820312 88.195312 103.796875 89.296875 103.726562 C 90.398438 103.652344 91.511719 103.523438 92.054688 102.964844 C 91.316406 103.515625 90.101562 103.566406 88.984375 103.574219 C 87.863281 103.585938 86.863281 103.5625 86.582031 103.972656 C 86.085938 103.105469 86.734375 102.488281 87.953125 102.253906 C 89.179688 102.019531 90.980469 102.175781 92.835938 102.738281 C 92.703125 103.425781 92.378906 103.953125 91.953125 104.355469 C 91.734375 104.554688 91.488281 104.71875 91.21875 104.847656 C 90.953125 104.980469 90.667969 105.078125 90.367188 105.140625 C 89.164062 105.386719 87.746094 105.085938 86.726562 104.136719 Z M 85.199219 108.800781 C 85.652344 108.460938 86.8125 108.425781 88.003906 108.328125 C 89.199219 108.230469 90.429688 108.074219 91.035156 107.46875 C 90.21875 108.066406 88.886719 108.140625 87.671875 108.171875 C 86.460938 108.203125 85.367188 108.195312 85.046875 108.628906 C 84.796875 108.175781 84.847656 107.785156 85.128906 107.472656 C 85.414062 107.160156 85.929688 106.933594 86.597656 106.800781 C 87.925781 106.53125 89.894531 106.667969 91.902344 107.214844 C 91.71875 107.933594 91.367188 108.511719 90.871094 108.9375 C 90.386719 109.367188 89.777344 109.65625 89.113281 109.800781 C 87.796875 110.085938 86.273438 109.792969 85.199219 108.800781 Z M 83.917969 113.820312 C 84.410156 113.449219 85.667969 113.390625 86.964844 113.261719 C 87.613281 113.199219 88.269531 113.117188 88.847656 112.96875 C 89.429688 112.820312 89.933594 112.613281 90.269531 112.285156 C 89.363281 112.9375 87.917969 113.042969 86.609375 113.105469 C 85.296875 113.164062 84.109375 113.171875 83.753906 113.640625 C 83.492188 113.164062 83.566406 112.75 83.878906 112.414062 C 84.1875 112.078125 84.746094 111.824219 85.476562 111.671875 C 86.933594 111.367188 89.042969 111.464844 91.210938 111.992188 C 91.007812 112.761719 90.585938 113.371094 90.050781 113.84375 C 89.507812 114.308594 88.839844 114.628906 88.125 114.796875 C 86.691406 115.132812 85.054688 114.851562 83.917969 113.820312 Z M 82.914062 119.203125 C 83.996094 118.394531 88.300781 118.820312 89.769531 117.402344 C 88.789062 118.121094 87.230469 118.277344 85.8125 118.375 C 84.402344 118.472656 83.136719 118.507812 82.742188 119.015625 C 82.472656 118.515625 82.546875 118.070312 82.890625 117.710938 C 83.234375 117.347656 83.839844 117.066406 84.621094 116.886719 C 86.1875 116.523438 88.472656 116.578125 90.796875 117.074219 C 90.550781 117.886719 90.105469 118.550781 89.507812 119.058594 C 88.921875 119.570312 88.195312 119.929688 87.417969 120.125 C 85.875 120.523438 84.117188 120.269531 82.914062 119.203125 Z M 82.222656 124.953125 C 83.378906 124.0625 87.992188 124.375 89.582031 122.824219 C 88.511719 123.613281 86.851562 123.832031 85.332031 123.980469 C 83.8125 124.128906 82.457031 124.210938 82.039062 124.757812 C 81.75 124.238281 81.835938 123.761719 82.207031 123.371094 C 82.578125 122.976562 83.21875 122.660156 84.0625 122.445312 C 85.75 122.015625 88.191406 122 90.683594 122.441406 C 90.148438 124.171875 88.703125 125.304688 87.039062 125.78125 C 85.378906 126.253906 83.503906 126.046875 82.222656 124.953125 Z M 81.90625 131.085938 C 82.515625 130.585938 84.050781 130.378906 85.648438 130.078125 C 87.246094 129.773438 88.878906 129.382812 89.734375 128.539062 C 88.59375 129.414062 86.828125 129.710938 85.210938 129.929688 C 83.601562 130.148438 82.152344 130.285156 81.714844 130.886719 C 81.398438 130.34375 81.492188 129.835938 81.882812 129.40625 C 82.269531 128.972656 82.957031 128.613281 83.855469 128.355469 C 85.648438 127.835938 88.25 127.730469 90.910156 128.089844 C 90.34375 129.933594 88.8125 131.1875 87.042969 131.761719 C 85.28125 132.332031 83.28125 132.191406 81.90625 131.085938 Z M 82.054688 137.601562 C 82.695312 137.042969 84.316406 136.742188 85.996094 136.34375 C 87.683594 135.941406 89.421875 135.449219 90.304688 134.519531 C 89.117188 135.492188 87.242188 135.898438 85.53125 136.214844 C 83.828125 136.527344 82.304688 136.746094 81.84375 137.402344 C 81.503906 136.847656 81.582031 136.304688 81.992188 135.828125 C 82.398438 135.351562 83.113281 134.941406 84.0625 134.625 C 85.957031 133.988281 88.71875 133.75 91.542969 133.988281 C 90.980469 135.9375 89.367188 137.332031 87.511719 138.035156 C 85.664062 138.734375 83.539062 138.703125 82.054688 137.601562 Z M 82.800781 144.496094 C 83.445312 143.863281 85.148438 143.4375 86.910156 142.902344 C 88.671875 142.363281 90.476562 141.730469 91.390625 140.710938 C 90.164062 141.796875 88.207031 142.351562 86.414062 142.796875 C 84.632812 143.242188 83.019531 143.578125 82.574219 144.300781 C 82.183594 143.738281 82.257812 143.160156 82.660156 142.632812 C 83.0625 142.105469 83.820312 141.625 84.804688 141.234375 C 86.773438 140.445312 89.6875 140.027344 92.679688 140.078125 C 92.550781 140.589844 92.339844 141.070312 92.082031 141.515625 C 91.824219 141.960938 91.507812 142.371094 91.144531 142.75 C 90.433594 143.5 89.535156 144.117188 88.570312 144.550781 C 86.652344 145.417969 84.410156 145.558594 82.800781 144.496094 Z M 84.359375 151.710938 C 84.996094 150.984375 86.742188 150.375 88.550781 149.644531 C 89.457031 149.28125 90.375 148.886719 91.175781 148.449219 C 91.976562 148.011719 92.664062 147.527344 93.113281 146.964844 C 92.496094 147.574219 91.691406 148.066406 90.800781 148.492188 C 89.914062 148.914062 88.945312 149.265625 88.023438 149.585938 C 86.183594 150.226562 84.519531 150.726562 84.105469 151.53125 C 83.210938 150.414062 84.214844 149.105469 86.242188 148.125 C 88.261719 147.128906 91.296875 146.449219 94.4375 146.207031 C 94.207031 147.257812 93.679688 148.210938 92.976562 149.042969 C 92.625 149.460938 92.222656 149.851562 91.785156 150.207031 C 91.355469 150.558594 90.890625 150.875 90.402344 151.152344 C 89.425781 151.699219 88.363281 152.078125 87.316406 152.199219 C 86.273438 152.320312 85.238281 152.183594 84.359375 151.710938 Z M 87.0625 159.0625 C 87.628906 158.214844 89.371094 157.328125 91.164062 156.308594 C 92.0625 155.800781 92.972656 155.265625 93.761719 154.707031 C 94.15625 154.429688 94.515625 154.148438 94.835938 153.859375 C 95.15625 153.566406 95.429688 153.265625 95.640625 152.964844 C 95.050781 153.644531 94.253906 154.257812 93.378906 154.8125 C 92.503906 155.367188 91.539062 155.871094 90.617188 156.332031 C 88.785156 157.257812 87.105469 158.023438 86.777344 158.914062 C 86.507812 158.667969 86.367188 158.378906 86.335938 158.070312 C 86.304688 157.761719 86.375 157.441406 86.542969 157.109375 C 86.894531 156.441406 87.621094 155.757812 88.621094 155.117188 C 90.628906 153.824219 93.730469 152.738281 96.941406 152.035156 C 96.777344 153.0625 96.304688 154.058594 95.652344 154.976562 C 95.328125 155.433594 94.949219 155.886719 94.542969 156.304688 C 94.132812 156.722656 93.691406 157.117188 93.21875 157.476562 C 92.277344 158.195312 91.234375 158.769531 90.175781 159.074219 C 89.121094 159.378906 88.03125 159.417969 87.0625 159.0625 Z M 90.347656 167.46875 C 90.347656 167.46875 90.144531 167.214844 89.765625 166.734375 C 89.390625 166.253906 88.863281 165.527344 88.238281 164.570312 C 87.625 163.601562 86.921875 162.390625 86.21875 160.945312 C 85.515625 159.503906 84.808594 157.820312 84.160156 155.9375 C 83.511719 154.050781 82.914062 151.96875 82.421875 149.722656 C 81.929688 147.480469 81.53125 145.085938 81.242188 142.589844 C 80.960938 140.089844 80.785156 137.492188 80.730469 134.847656 C 80.6875 132.203125 80.742188 129.515625 80.929688 126.832031 C 81.296875 121.464844 82.132812 116.136719 83.335938 111.25 C 83.9375 108.808594 84.625 106.480469 85.371094 104.304688 C 86.121094 102.132812 86.929688 100.121094 87.757812 98.304688 C 89.414062 94.667969 91.140625 91.835938 92.476562 89.972656 C 92.804688 89.5 93.113281 89.09375 93.382812 88.738281 C 93.648438 88.378906 93.894531 88.09375 94.082031 87.851562 C 94.273438 87.613281 94.421875 87.429688 94.527344 87.3125 C 94.628906 87.195312 94.683594 87.132812 94.683594 87.132812 L 94.738281 87.179688 C 94.738281 87.179688 94.6875 87.242188 94.585938 87.363281 C 94.480469 87.480469 94.335938 87.664062 94.144531 87.902344 C 93.957031 88.144531 93.714844 88.429688 93.457031 88.792969 C 93.191406 89.148438 92.882812 89.554688 92.5625 90.03125 C 91.242188 91.902344 89.542969 94.742188 87.921875 98.378906 C 87.113281 100.195312 86.324219 102.207031 85.589844 104.378906 C 84.867188 106.550781 84.199219 108.882812 83.621094 111.320312 C 82.460938 116.195312 81.667969 121.515625 81.347656 126.859375 C 81.183594 129.53125 81.148438 132.207031 81.214844 134.839844 C 81.289062 137.464844 81.484375 140.046875 81.78125 142.527344 C 82.089844 145.003906 82.507812 147.375 83.011719 149.59375 C 83.515625 151.8125 84.125 153.867188 84.777344 155.722656 C 85.433594 157.578125 86.144531 159.226562 86.847656 160.640625 C 87.550781 162.054688 88.246094 163.230469 88.855469 164.171875 C 89.476562 165.105469 89.996094 165.808594 90.363281 166.273438 C 90.734375 166.738281 90.933594 166.984375 90.933594 166.984375 Z M 95.625 86.394531 C 95.628906 86.164062 95.769531 85.945312 95.972656 85.722656 C 96.179688 85.5 96.457031 85.285156 96.71875 85.042969 C 97.257812 84.570312 97.765625 84.023438 97.753906 83.183594 C 97.730469 83.410156 97.671875 83.609375 97.589844 83.785156 C 97.511719 83.964844 97.410156 84.128906 97.292969 84.269531 C 97.054688 84.558594 96.75 84.777344 96.460938 84.996094 C 95.875 85.414062 95.332031 85.773438 95.441406 86.285156 C 95.039062 85.945312 94.824219 85.5625 94.777344 85.171875 C 94.753906 84.976562 94.773438 84.777344 94.828125 84.578125 C 94.886719 84.382812 94.984375 84.195312 95.117188 84.011719 C 95.628906 83.265625 96.75 82.695312 98.050781 82.617188 C 98.34375 83.472656 98.472656 84.207031 98.472656 84.796875 C 98.480469 85.398438 98.355469 85.863281 98.125 86.191406 C 97.898438 86.527344 97.558594 86.714844 97.128906 86.753906 C 96.707031 86.800781 96.191406 86.6875 95.625 86.394531 " fill-opacity="1" fill-rule="evenodd"/></g></g></g></g></g><g clip-path="url(#id10)"><g clip-path="url(#id11)"><g clip-path="url(#id12)"><g clip-path="url(#id13)"><g clip-path="url(#id14)"><path fill="#f6bf16" d="M 200.648438 86.667969 C 200.472656 86.292969 200.777344 85.527344 200.960938 84.707031 C 201.054688 84.296875 201.136719 83.859375 201.113281 83.464844 C 201.089844 83.070312 200.984375 82.703125 200.730469 82.417969 C 200.960938 82.777344 201.03125 83.191406 201.011719 83.617188 C 200.988281 84.042969 200.863281 84.484375 200.734375 84.890625 C 200.480469 85.707031 200.148438 86.40625 200.449219 86.71875 C 199.96875 86.761719 199.636719 86.636719 199.4375 86.386719 C 199.238281 86.132812 199.15625 85.765625 199.199219 85.300781 C 199.242188 84.832031 199.375 84.285156 199.613281 83.679688 C 199.859375 83.070312 200.183594 82.417969 200.59375 81.753906 C 201.324219 82.019531 201.839844 82.433594 202.1875 82.890625 C 202.523438 83.351562 202.664062 83.867188 202.648438 84.359375 C 202.589844 85.355469 201.855469 86.246094 200.648438 86.667969 Z M 202.261719 90.558594 C 202.183594 90.113281 202.710938 89.355469 203.140625 88.507812 C 203.351562 88.082031 203.550781 87.632812 203.648438 87.199219 C 203.75 86.761719 203.734375 86.34375 203.558594 85.972656 C 203.695312 86.417969 203.65625 86.878906 203.5 87.335938 C 203.347656 87.796875 203.105469 88.242188 202.855469 88.652344 C 202.355469 89.476562 201.824219 90.164062 202.042969 90.570312 C 201.039062 90.453125 200.851562 89.738281 201.183594 88.742188 C 201.359375 88.238281 201.660156 87.671875 202.070312 87.066406 C 202.484375 86.464844 203.015625 85.828125 203.621094 85.21875 C 204.925781 86.179688 205.289062 87.484375 204.945312 88.527344 C 204.605469 89.578125 203.601562 90.363281 202.261719 90.558594 Z M 203.574219 94.738281 C 203.621094 94.238281 204.34375 93.511719 205.019531 92.667969 C 205.351562 92.246094 205.664062 91.800781 205.878906 91.347656 C 206.09375 90.890625 206.195312 90.433594 206.097656 89.996094 C 206.113281 90.25 206.078125 90.503906 206.007812 90.75 C 205.933594 90.996094 205.824219 91.234375 205.6875 91.46875 C 205.414062 91.9375 205.046875 92.371094 204.683594 92.773438 C 203.945312 93.574219 203.230469 94.226562 203.34375 94.710938 C 202.335938 94.398438 202.328125 93.570312 202.929688 92.542969 C 203.546875 91.511719 204.765625 90.261719 206.359375 89.183594 C 206.632812 89.515625 206.84375 89.855469 206.996094 90.199219 C 207.152344 90.539062 207.234375 90.886719 207.269531 91.21875 C 207.347656 91.886719 207.191406 92.519531 206.886719 93.050781 C 206.277344 94.117188 205.007812 94.78125 203.574219 94.738281 Z M 204.605469 99.191406 C 204.773438 98.652344 205.695312 97.976562 206.597656 97.167969 C 207.046875 96.765625 207.480469 96.332031 207.804688 95.871094 C 208.125 95.414062 208.347656 94.929688 208.34375 94.433594 C 208.265625 95 207.964844 95.511719 207.578125 95.972656 C 207.1875 96.4375 206.703125 96.851562 206.222656 97.226562 C 205.261719 97.980469 204.367188 98.574219 204.375 99.125 C 203.886719 98.871094 203.671875 98.519531 203.699219 98.101562 C 203.714844 97.890625 203.789062 97.664062 203.914062 97.425781 C 204.03125 97.1875 204.207031 96.9375 204.425781 96.679688 C 205.304688 95.652344 206.878906 94.484375 208.792969 93.597656 C 209.238281 94.417969 209.375 95.238281 209.308594 95.976562 C 209.230469 96.714844 208.9375 97.375 208.496094 97.898438 C 207.597656 98.953125 206.121094 99.46875 204.605469 99.191406 Z M 205.371094 103.910156 C 205.65625 103.34375 206.785156 102.738281 207.894531 101.988281 C 208.449219 101.613281 209.003906 101.207031 209.4375 100.753906 C 209.871094 100.304688 210.1875 99.808594 210.285156 99.269531 C 210.085938 99.875 209.679688 100.386719 209.175781 100.832031 C 208.667969 101.277344 208.0625 101.65625 207.480469 102 C 206.316406 102.679688 205.234375 103.207031 205.132812 103.804688 C 204.890625 103.632812 204.738281 103.445312 204.65625 103.242188 C 204.570312 103.039062 204.5625 102.820312 204.617188 102.59375 C 204.726562 102.140625 205.109375 101.644531 205.667969 101.144531 C 206.234375 100.640625 207 100.132812 207.898438 99.660156 C 208.796875 99.191406 209.824219 98.757812 210.933594 98.429688 C 211.546875 100.363281 210.9375 102.050781 209.777344 103.058594 C 208.617188 104.070312 206.9375 104.417969 205.371094 103.910156 Z M 205.867188 108.898438 C 206.65625 107.746094 211.160156 106.792969 211.9375 104.484375 C 211.316406 105.742188 209.824219 106.492188 208.460938 107.085938 C 207.101562 107.679688 205.835938 108.121094 205.628906 108.757812 C 204.726562 107.894531 205.273438 106.882812 206.667969 105.925781 C 208.050781 104.976562 210.285156 104.082031 212.773438 103.652344 C 213.113281 105.839844 212.15625 107.585938 210.746094 108.523438 C 209.328125 109.472656 207.457031 109.640625 205.867188 108.898438 Z M 206.082031 114.164062 C 207.109375 113.003906 212.097656 112.484375 213.28125 110.082031 C 212.410156 111.367188 210.714844 112.003906 209.148438 112.492188 C 207.582031 112.980469 206.167969 113.320312 205.847656 113.984375 C 205.425781 113.46875 205.398438 112.953125 205.691406 112.453125 C 205.980469 111.957031 206.570312 111.472656 207.394531 111.035156 C 209.039062 110.160156 211.5625 109.445312 214.304688 109.28125 C 214.335938 111.6875 213.054688 113.457031 211.386719 114.308594 C 209.71875 115.167969 207.675781 115.140625 206.082031 114.164062 Z M 205.996094 119.714844 C 207.261719 118.566406 212.695312 118.527344 214.292969 116.074219 C 213.195312 117.371094 211.261719 117.871094 209.523438 118.234375 C 207.78125 118.59375 206.207031 118.816406 205.765625 119.496094 C 205.386719 118.898438 205.4375 118.34375 205.8125 117.835938 C 206.191406 117.328125 206.90625 116.867188 207.84375 116.480469 C 209.722656 115.707031 212.546875 115.199219 215.503906 115.320312 C 215.214844 117.921875 213.578125 119.6875 211.679688 120.425781 C 209.761719 121.171875 207.578125 120.925781 205.996094 119.714844 Z M 205.570312 125.566406 C 206.332031 125.019531 208.160156 124.863281 210.058594 124.542969 C 211.007812 124.382812 211.976562 124.179688 212.835938 123.859375 C 213.691406 123.542969 214.433594 123.109375 214.941406 122.488281 C 213.59375 123.769531 211.472656 124.117188 209.550781 124.328125 C 207.628906 124.542969 205.921875 124.625 205.351562 125.3125 C 204.691406 123.964844 205.851562 122.9375 207.972656 122.28125 C 210.09375 121.632812 213.167969 121.363281 216.335938 121.804688 C 215.695312 124.574219 213.722656 126.304688 211.582031 126.902344 C 209.433594 127.503906 207.113281 127.019531 205.570312 125.566406 Z M 204.75 131.730469 C 205.640625 131.222656 207.609375 131.234375 209.6875 131.082031 C 211.765625 130.925781 213.929688 130.59375 215.167969 129.363281 C 213.5625 130.605469 211.253906 130.761719 209.167969 130.804688 C 207.085938 130.839844 205.242188 130.761719 204.554688 131.4375 C 204.285156 130.6875 204.488281 130.070312 205.0625 129.574219 C 205.625 129.078125 206.558594 128.703125 207.734375 128.457031 C 210.078125 127.96875 213.410156 127.976562 216.734375 128.761719 C 216.230469 130.21875 215.390625 131.367188 214.382812 132.199219 C 213.386719 133.03125 212.203125 133.542969 211.023438 133.757812 C 208.644531 134.183594 206.21875 133.425781 204.75 131.730469 Z M 203.453125 138.214844 C 204.460938 137.765625 206.578125 137.984375 208.808594 138.03125 C 211.042969 138.078125 213.402344 137.949219 214.863281 136.746094 C 213.007812 137.921875 210.515625 137.851562 208.285156 137.683594 C 206.054688 137.511719 204.105469 137.242188 203.277344 137.886719 C 203.089844 137.066406 203.375 136.429688 204.050781 135.964844 C 204.714844 135.492188 205.753906 135.1875 207.042969 135.039062 C 209.605469 134.75 213.15625 135.082031 216.613281 136.265625 C 216.261719 137.023438 215.8125 137.6875 215.324219 138.265625 C 214.824219 138.839844 214.269531 139.324219 213.683594 139.71875 C 212.5 140.503906 211.195312 140.933594 209.894531 141.03125 C 208.597656 141.132812 207.324219 140.914062 206.207031 140.425781 C 205.089844 139.9375 204.136719 139.191406 203.453125 138.214844 Z M 201.546875 145.015625 C 202.679688 144.660156 204.898438 145.128906 207.269531 145.429688 C 208.457031 145.578125 209.683594 145.683594 210.820312 145.609375 C 211.957031 145.535156 213.035156 145.28125 213.882812 144.714844 C 211.753906 145.78125 209.113281 145.425781 206.765625 145 C 204.417969 144.566406 202.359375 144.0625 201.40625 144.648438 C 201.300781 143.757812 201.707031 143.128906 202.476562 142.707031 C 203.25 142.285156 204.394531 142.070312 205.777344 142.050781 C 208.546875 142.015625 212.289062 142.730469 215.804688 144.375 C 215.566406 144.765625 215.308594 145.128906 215.035156 145.464844 C 214.761719 145.800781 214.46875 146.109375 214.167969 146.394531 C 213.570312 146.960938 212.90625 147.421875 212.226562 147.78125 C 210.871094 148.5 209.402344 148.800781 208.015625 148.757812 C 205.21875 148.664062 202.730469 147.214844 201.546875 145.015625 Z M 198.824219 152.082031 C 200.082031 151.871094 202.351562 152.65625 204.824219 153.289062 C 207.296875 153.917969 209.957031 154.375 211.953125 153.347656 C 210.75 153.796875 209.441406 153.839844 208.152344 153.675781 C 206.859375 153.515625 205.566406 153.144531 204.351562 152.765625 C 201.929688 152 199.824219 151.199219 198.726562 151.679688 C 198.75 150.734375 199.273438 150.136719 200.148438 149.789062 C 201.03125 149.445312 202.269531 149.359375 203.742188 149.507812 C 205.214844 149.652344 206.917969 150.03125 208.6875 150.640625 C 210.457031 151.253906 212.304688 152.097656 214.042969 153.203125 C 212.796875 154.789062 211.261719 155.863281 209.703125 156.464844 C 208.132812 157.066406 206.539062 157.195312 205.0625 156.949219 C 203.59375 156.707031 202.257812 156.101562 201.179688 155.253906 C 200.640625 154.828125 200.167969 154.34375 199.773438 153.8125 C 199.375 153.28125 199.046875 152.699219 198.824219 152.082031 Z M 194.929688 159.261719 C 196.289062 159.273438 198.527344 160.496094 201.011719 161.582031 C 202.253906 162.121094 203.550781 162.621094 204.832031 162.878906 C 206.117188 163.140625 207.394531 163.160156 208.546875 162.742188 C 207.179688 163.0625 205.785156 162.910156 204.449219 162.53125 C 203.113281 162.152344 201.820312 161.546875 200.621094 160.945312 C 198.214844 159.726562 196.148438 158.527344 194.910156 158.824219 C 195.011719 158.335938 195.226562 157.964844 195.539062 157.683594 C 195.847656 157.402344 196.257812 157.214844 196.753906 157.109375 C 197.738281 156.898438 199.0625 157.003906 200.59375 157.382812 C 203.636719 158.148438 207.527344 159.964844 210.796875 162.882812 C 209.144531 164.457031 207.28125 165.414062 205.484375 165.816406 C 204.582031 166.019531 203.691406 166.085938 202.851562 166.035156 C 202.007812 165.984375 201.191406 165.816406 200.445312 165.550781 C 198.945312 165.023438 197.6875 164.117188 196.742188 163.015625 C 196.269531 162.464844 195.878906 161.863281 195.574219 161.238281 C 195.273438 160.609375 195.046875 159.941406 194.929688 159.261719 Z M 197.925781 88.066406 C 197.738281 87.761719 197.03125 87.609375 196.308594 87.445312 C 195.949219 87.363281 195.597656 87.265625 195.308594 87.125 C 195.015625 86.988281 194.789062 86.808594 194.695312 86.539062 C 194.855469 86.8125 195.136719 86.980469 195.472656 87.09375 C 195.800781 87.21875 196.1875 87.285156 196.5625 87.347656 C 197.320312 87.464844 198 87.574219 198.074219 87.945312 C 198.667969 87.289062 198.410156 86.683594 197.636719 86.34375 C 197.445312 86.257812 197.226562 86.1875 196.980469 86.140625 C 196.730469 86.089844 196.457031 86.0625 196.164062 86.054688 C 195.578125 86.039062 194.929688 86.105469 194.238281 86.28125 C 194.144531 86.882812 194.179688 87.378906 194.355469 87.738281 C 194.515625 88.117188 194.800781 88.378906 195.167969 88.527344 C 195.882812 88.84375 196.941406 88.730469 197.925781 88.066406 Z M 199.664062 91.609375 C 199.441406 91.289062 198.644531 91.132812 197.851562 90.941406 C 197.046875 90.753906 196.265625 90.519531 196.015625 89.980469 C 196.414062 90.53125 197.289062 90.710938 198.125 90.847656 C 198.949219 90.992188 199.710938 91.105469 199.816406 91.488281 C 200.414062 90.824219 200.109375 90.195312 199.242188 89.84375 C 198.394531 89.476562 197 89.402344 195.503906 89.707031 C 195.414062 90.324219 195.511719 90.800781 195.710938 91.195312 C 195.917969 91.578125 196.253906 91.851562 196.660156 92.027344 C 197.480469 92.367188 198.632812 92.277344 199.664062 91.609375 Z M 201.132812 95.519531 C 200.875 95.179688 199.988281 95.011719 199.113281 94.792969 C 198.230469 94.578125 197.34375 94.324219 197.046875 93.75 C 197.503906 94.339844 198.496094 94.535156 199.410156 94.699219 C 200.316406 94.867188 201.160156 94.988281 201.292969 95.394531 C 201.601562 95.046875 201.65625 94.714844 201.519531 94.417969 C 201.382812 94.121094 201.054688 93.863281 200.574219 93.675781 C 200.09375 93.484375 199.480469 93.355469 198.78125 93.316406 C 198.074219 93.273438 197.28125 93.316406 196.460938 93.453125 C 196.355469 94.703125 196.957031 95.519531 197.886719 95.898438 C 198.816406 96.269531 200.046875 96.207031 201.132812 95.519531 Z M 202.324219 99.761719 C 202.03125 99.402344 201.0625 99.210938 200.09375 98.96875 C 199.128906 98.71875 198.136719 98.429688 197.78125 97.820312 C 198.316406 98.453125 199.414062 98.683594 200.410156 98.875 C 201.40625 99.066406 202.328125 99.207031 202.488281 99.636719 C 202.808594 99.277344 202.851562 98.925781 202.683594 98.613281 C 202.515625 98.300781 202.148438 98.023438 201.621094 97.816406 C 200.558594 97.398438 198.917969 97.25 197.128906 97.488281 C 197.109375 98.148438 197.269531 98.695312 197.574219 99.128906 C 197.871094 99.570312 198.3125 99.894531 198.828125 100.105469 C 199.851562 100.523438 201.195312 100.472656 202.324219 99.761719 Z M 203.238281 104.328125 C 202.894531 103.941406 201.859375 103.71875 200.789062 103.441406 C 199.722656 103.160156 198.652344 102.824219 198.226562 102.171875 C 198.847656 102.851562 200.03125 103.128906 201.125 103.351562 C 202.222656 103.570312 203.214844 103.738281 203.414062 104.191406 C 204.0625 103.433594 203.539062 102.707031 202.390625 102.25 C 201.226562 101.785156 199.429688 101.601562 197.5 101.800781 C 197.5 102.503906 197.71875 103.082031 198.066406 103.558594 C 198.238281 103.792969 198.453125 104.003906 198.691406 104.179688 C 198.925781 104.359375 199.191406 104.507812 199.476562 104.628906 C 200.609375 105.097656 202.058594 105.066406 203.238281 104.328125 Z M 203.863281 109.195312 C 203.480469 108.777344 202.347656 108.523438 201.195312 108.203125 C 200.039062 107.882812 198.859375 107.496094 198.382812 106.789062 C 199.070312 107.53125 200.363281 107.851562 201.550781 108.113281 C 202.734375 108.371094 203.808594 108.566406 204.042969 109.054688 C 204.375 108.660156 204.394531 108.261719 204.179688 107.902344 C 203.960938 107.542969 203.496094 107.222656 202.867188 106.96875 C 201.609375 106.449219 199.652344 106.214844 197.578125 106.378906 C 197.621094 107.117188 197.859375 107.75 198.265625 108.261719 C 198.660156 108.777344 199.203125 109.175781 199.828125 109.4375 C 201.066406 109.96875 202.617188 109.964844 203.863281 109.195312 Z M 204.175781 114.367188 C 203.761719 113.910156 202.535156 113.617188 201.285156 113.246094 C 200.664062 113.058594 200.03125 112.855469 199.492188 112.601562 C 198.949219 112.347656 198.492188 112.046875 198.226562 111.664062 C 198.992188 112.472656 200.390625 112.851562 201.667969 113.15625 C 202.941406 113.460938 204.109375 113.691406 204.367188 114.21875 C 204.71875 113.800781 204.71875 113.378906 204.480469 112.992188 C 204.234375 112.605469 203.734375 112.25 203.046875 111.964844 C 201.675781 111.386719 199.585938 111.089844 197.355469 111.199219 C 197.410156 111.992188 197.710938 112.671875 198.148438 113.234375 C 198.589844 113.792969 199.191406 114.234375 199.859375 114.535156 C 201.203125 115.132812 202.867188 115.164062 204.175781 114.367188 Z M 204.148438 119.839844 C 203.238281 118.84375 198.929688 118.453125 197.753906 116.785156 C 198.582031 117.675781 200.082031 118.121094 201.457031 118.480469 C 202.824219 118.84375 204.0625 119.117188 204.351562 119.6875 C 204.710938 119.25 204.722656 118.800781 204.453125 118.378906 C 204.183594 117.957031 203.640625 117.570312 202.90625 117.246094 C 201.4375 116.59375 199.183594 116.21875 196.808594 116.265625 C 196.898438 117.113281 197.207031 117.847656 197.699219 118.460938 C 198.175781 119.070312 198.824219 119.5625 199.550781 119.902344 C 200.992188 120.578125 202.765625 120.660156 204.148438 119.839844 Z M 203.742188 125.617188 C 202.777344 124.527344 198.1875 123.964844 196.917969 122.144531 C 197.820312 123.121094 199.410156 123.648438 200.875 124.078125 C 202.335938 124.511719 203.65625 124.84375 203.960938 125.464844 C 204.34375 125.003906 204.347656 124.523438 204.058594 124.066406 C 203.769531 123.609375 203.199219 123.179688 202.40625 122.808594 C 200.832031 122.070312 198.441406 121.59375 195.90625 121.558594 C 196.105469 123.359375 197.3125 124.746094 198.859375 125.527344 C 200.402344 126.304688 202.28125 126.449219 203.742188 125.617188 Z M 202.902344 131.699219 C 202.394531 131.097656 200.929688 130.601562 199.417969 130.007812 C 197.902344 129.410156 196.371094 128.71875 195.695312 127.726562 C 196.648438 128.800781 198.324219 129.425781 199.871094 129.945312 C 201.414062 130.460938 202.808594 130.867188 203.128906 131.542969 C 203.539062 131.070312 203.542969 130.554688 203.242188 130.054688 C 202.941406 129.558594 202.332031 129.074219 201.5 128.652344 C 199.835938 127.804688 197.304688 127.210938 194.621094 127.066406 C 194.832031 128.980469 196.101562 130.5 197.730469 131.398438 C 199.351562 132.292969 201.34375 132.53125 202.902344 131.699219 Z M 201.527344 138.074219 C 201.007812 137.40625 199.46875 136.804688 197.894531 136.097656 C 196.3125 135.386719 194.699219 134.570312 194.007812 133.496094 C 194.988281 134.671875 196.757812 135.425781 198.375 136.054688 C 199.992188 136.683594 201.445312 137.1875 201.773438 137.917969 C 202.214844 137.433594 202.238281 136.886719 201.925781 136.34375 C 201.617188 135.800781 200.988281 135.261719 200.117188 134.773438 C 198.375 133.789062 195.710938 133.035156 192.886719 132.738281 C 193.078125 134.757812 194.398438 136.433594 196.085938 137.472656 C 197.773438 138.507812 199.863281 138.875 201.527344 138.074219 Z M 199.5 144.707031 C 198.988281 143.964844 197.394531 143.222656 195.765625 142.363281 C 194.132812 141.507812 192.480469 140.542969 191.777344 139.371094 C 192.777344 140.667969 194.59375 141.582031 196.269531 142.355469 C 197.9375 143.128906 199.457031 143.761719 199.757812 144.554688 C 200.246094 144.078125 200.285156 143.496094 199.988281 142.902344 C 199.691406 142.304688 199.039062 141.691406 198.144531 141.125 C 196.359375 139.980469 193.574219 139.019531 190.628906 138.507812 C 190.660156 139.03125 190.777344 139.546875 190.945312 140.03125 C 191.113281 140.515625 191.347656 140.980469 191.632812 141.417969 C 192.191406 142.289062 192.957031 143.0625 193.824219 143.671875 C 195.542969 144.882812 197.71875 145.445312 199.5 144.707031 Z M 196.613281 151.496094 C 196.125 150.660156 194.523438 149.738281 192.882812 148.679688 C 192.0625 148.148438 191.234375 147.59375 190.53125 147.011719 C 189.824219 146.429688 189.242188 145.824219 188.90625 145.1875 C 189.394531 145.902344 190.097656 146.539062 190.886719 147.121094 C 191.679688 147.707031 192.566406 148.234375 193.410156 148.71875 C 195.101562 149.695312 196.640625 150.5 196.894531 151.367188 C 197.984375 150.441406 197.242188 148.964844 195.4375 147.621094 C 193.640625 146.261719 190.789062 145.023438 187.746094 144.195312 C 187.777344 145.273438 188.117188 146.304688 188.652344 147.257812 C 188.917969 147.730469 189.238281 148.191406 189.601562 148.621094 C 189.957031 149.050781 190.355469 149.445312 190.78125 149.808594 C 191.636719 150.535156 192.609375 151.105469 193.613281 151.421875 C 194.613281 151.734375 195.660156 151.796875 196.613281 151.496094 Z M 192.570312 158.210938 C 192.175781 157.269531 190.632812 156.070312 189.0625 154.730469 C 188.277344 154.0625 187.484375 153.367188 186.8125 152.671875 C 186.480469 152.324219 186.175781 151.980469 185.917969 151.632812 C 185.660156 151.285156 185.445312 150.941406 185.296875 150.605469 C 185.746094 151.382812 186.414062 152.136719 187.167969 152.84375 C 187.925781 153.554688 188.777344 154.230469 189.59375 154.859375 C 191.222656 156.113281 192.722656 157.179688 192.878906 158.117188 C 193.191406 157.921875 193.382812 157.667969 193.472656 157.371094 C 193.5625 157.074219 193.554688 156.746094 193.449219 156.386719 C 193.230469 155.667969 192.644531 154.855469 191.785156 154.039062 C 190.054688 152.394531 187.214844 150.742188 184.191406 149.445312 C 184.160156 150.488281 184.4375 151.554688 184.902344 152.578125 C 185.136719 153.089844 185.425781 153.605469 185.746094 154.09375 C 186.066406 154.578125 186.429688 155.050781 186.824219 155.492188 C 187.613281 156.375 188.53125 157.136719 189.511719 157.636719 C 190.488281 158.128906 191.554688 158.378906 192.570312 158.210938 Z M 187.765625 165.847656 C 187.765625 165.847656 188.011719 165.632812 188.472656 165.234375 C 188.929688 164.832031 189.585938 164.21875 190.382812 163.394531 C 191.164062 162.558594 192.082031 161.503906 193.046875 160.21875 C 194.011719 158.929688 195.019531 157.414062 196.011719 155.683594 C 197.003906 153.957031 197.980469 152.019531 198.886719 149.910156 C 199.792969 147.800781 200.636719 145.523438 201.390625 143.125 C 202.132812 140.722656 202.796875 138.207031 203.347656 135.617188 C 203.890625 133.03125 204.339844 130.378906 204.660156 127.707031 C 205.3125 122.371094 205.492188 116.976562 205.230469 111.953125 C 205.097656 109.441406 204.863281 107.023438 204.539062 104.746094 C 204.210938 102.472656 203.792969 100.34375 203.324219 98.40625 C 202.382812 94.523438 201.21875 91.417969 200.257812 89.332031 C 200.023438 88.808594 199.796875 88.351562 199.597656 87.949219 C 199.40625 87.546875 199.21875 87.222656 199.078125 86.949219 C 198.933594 86.679688 198.824219 86.472656 198.742188 86.335938 C 198.664062 86.199219 198.625 86.128906 198.625 86.128906 L 198.558594 86.164062 C 198.558594 86.164062 198.601562 86.234375 198.679688 86.375 C 198.757812 86.507812 198.867188 86.714844 199.007812 86.988281 C 199.144531 87.257812 199.332031 87.585938 199.519531 87.988281 C 199.710938 88.390625 199.9375 88.847656 200.164062 89.375 C 201.105469 91.460938 202.238281 94.570312 203.148438 98.445312 C 203.601562 100.382812 203.996094 102.511719 204.308594 104.777344 C 204.613281 107.050781 204.828125 109.460938 204.9375 111.964844 C 205.160156 116.972656 204.9375 122.347656 204.246094 127.65625 C 203.902344 130.308594 203.433594 132.945312 202.875 135.515625 C 202.304688 138.085938 201.628906 140.582031 200.871094 142.960938 C 200.101562 145.335938 199.246094 147.589844 198.332031 149.671875 C 197.417969 151.753906 196.433594 153.660156 195.445312 155.359375 C 194.453125 157.054688 193.445312 158.542969 192.488281 159.796875 C 191.527344 161.054688 190.625 162.082031 189.851562 162.890625 C 189.066406 163.691406 188.421875 164.28125 187.972656 164.671875 C 187.519531 165.054688 187.277344 165.257812 187.277344 165.257812 Z M 197.839844 85.226562 C 197.875 85 197.777344 84.757812 197.621094 84.5 C 197.460938 84.246094 197.230469 83.984375 197.015625 83.695312 C 196.578125 83.128906 196.183594 82.496094 196.351562 81.671875 C 196.332031 81.898438 196.351562 82.105469 196.398438 82.296875 C 196.441406 82.484375 196.511719 82.664062 196.601562 82.828125 C 196.777344 83.152344 197.039062 83.429688 197.277344 83.695312 C 197.777344 84.214844 198.242188 84.675781 198.035156 85.15625 C 198.496094 84.894531 198.78125 84.5625 198.898438 84.183594 C 198.960938 83.996094 198.980469 83.796875 198.964844 83.59375 C 198.941406 83.390625 198.878906 83.1875 198.785156 82.980469 C 198.421875 82.152344 197.429688 81.382812 196.164062 81.058594 C 195.71875 81.847656 195.453125 82.542969 195.34375 83.121094 C 195.222656 83.710938 195.253906 84.191406 195.421875 84.554688 C 195.582031 84.929688 195.878906 85.179688 196.292969 85.296875 C 196.699219 85.421875 197.226562 85.410156 197.839844 85.226562 " fill-opacity="1" fill-rule="evenodd"/></g></g></g></g></g><g fill="#c60505" fill-opacity="1"><g transform="translate(107.502246, 78.18941)"><g><path d="M 3.027344 -4.925781 C 3.605469 -5.917969 3.316406 -7.171875 2.214844 -7.816406 C 1.277344 -8.363281 0.285156 -8.140625 -0.148438 -7.398438 C -0.527344 -6.753906 -0.28125 -6.058594 0.261719 -5.738281 C 0.757812 -5.449219 1.347656 -5.636719 1.582031 -6.039062 C 1.636719 -6.132812 1.6875 -6.261719 1.691406 -6.347656 L 1.59375 -6.390625 C 1.464844 -5.984375 1.082031 -5.902344 0.707031 -6.121094 C 0.347656 -6.332031 0.132812 -6.828125 0.394531 -7.277344 C 0.730469 -7.847656 1.40625 -7.929688 2.003906 -7.582031 C 2.691406 -7.179688 2.875 -6.332031 2.484375 -5.660156 C 1.753906 -4.410156 0.078125 -4.773438 -1.453125 -5.273438 L -1.476562 -5.363281 C -0.503906 -6.050781 -0.324219 -7.773438 -1.539062 -8.480469 C -2.449219 -9.011719 -3.515625 -8.75 -4.402344 -7.234375 L -6.265625 -4.046875 L -6.152344 -3.980469 C -5.800781 -3.996094 -4.980469 -3.652344 -3.746094 -2.929688 L -2.03125 -1.925781 C -0.816406 -1.21875 -0.105469 -0.664062 0.0546875 -0.347656 L 0.167969 -0.285156 L 1.171875 -2.003906 L 1.0625 -2.066406 C 0.707031 -2.050781 -0.160156 -2.339844 -1.375 -3.046875 L -5.261719 -5.320312 L -4.453125 -6.699219 C -3.757812 -7.890625 -2.835938 -7.945312 -2.054688 -7.488281 C -1.21875 -7 -1.253906 -5.910156 -1.8125 -5.375 C -2.113281 -5.515625 -2.390625 -5.355469 -2.5 -5.171875 C -2.632812 -4.941406 -2.570312 -4.710938 -2.378906 -4.597656 C -2.167969 -4.472656 -1.941406 -4.523438 -1.796875 -4.773438 C -1.757812 -4.835938 -1.742188 -4.925781 -1.753906 -4.996094 L -1.652344 -5.035156 C -1.195312 -4.703125 -1.007812 -4.410156 -0.277344 -4.035156 C 0.925781 -3.417969 2.308594 -3.691406 3.027344 -4.925781 Z M 3.027344 -4.925781 "/></g></g></g><g fill="#c60505" fill-opacity="1"><g transform="translate(114.260877, 67.971879)"><g><path d="M 2.492188 -2.210938 C 3.808594 -3.46875 3.785156 -4.925781 2.636719 -6.121094 L 1.171875 -7.652344 C 0.1875 -8.683594 -0.332031 -9.410156 -0.398438 -9.757812 L -0.488281 -9.847656 L -1.109375 -9.253906 L -1.023438 -9.160156 C -0.675781 -9.078125 0.0195312 -8.519531 1.003906 -7.492188 L 2.46875 -5.960938 C 3.417969 -4.96875 3.460938 -3.710938 2.582031 -2.871094 C 1.714844 -2.039062 0.515625 -2.1875 -0.457031 -3.203125 L -1.902344 -4.707031 C -2.886719 -5.738281 -3.414062 -6.457031 -3.480469 -6.804688 L -3.570312 -6.898438 L -4.953125 -5.570312 L -4.863281 -5.480469 C -4.527344 -5.390625 -3.824219 -4.839844 -2.839844 -3.808594 L -1.394531 -2.304688 C -0.328125 -1.1875 1.296875 -1.0625 2.492188 -2.210938 Z M 2.492188 -2.210938 "/></g></g></g><g fill="#c60505" fill-opacity="1"><g transform="translate(122.573986, 60.79044)"><g><path d="M 0.289062 -0.160156 L 1.082031 -0.59375 L 1.019531 -0.707031 C 0.71875 -0.878906 0.175781 -1.601562 -0.496094 -2.835938 L -2.289062 -6.101562 L -2.183594 -6.15625 L 1.496094 -3.9375 C 2.851562 -3.078125 3.59375 -2.453125 3.726562 -2.1875 L 3.789062 -2.078125 L 5.261719 -2.882812 L 2.992188 -7.027344 C 2.3125 -8.269531 2.011719 -9.125 2.050781 -9.472656 L 1.992188 -9.585938 L 1.1875 -9.148438 L 1.25 -9.035156 C 1.5625 -8.867188 2.097656 -8.152344 2.777344 -6.910156 L 4.632812 -3.523438 L 4.550781 -3.476562 L 0.726562 -5.785156 C -0.628906 -6.660156 -1.371094 -7.257812 -1.503906 -7.527344 L -1.566406 -7.636719 L -3.273438 -6.703125 L -3.210938 -6.589844 C -2.910156 -6.4375 -2.445312 -5.902344 -1.972656 -5.035156 L -0.703125 -2.722656 C -0.0273438 -1.488281 0.265625 -0.621094 0.226562 -0.269531 Z M 0.289062 -0.160156 "/></g></g></g><g fill="#c60505" fill-opacity="1"><g transform="translate(132.418386, 56.03041)"><g><path d="M 0.320312 -0.078125 L 1.199219 -0.292969 L 1.167969 -0.417969 C 0.921875 -0.664062 0.585938 -1.5 0.253906 -2.867188 L -0.628906 -6.484375 L -0.515625 -6.511719 L 2.464844 -3.417969 C 3.550781 -2.238281 4.105469 -1.441406 4.167969 -1.148438 L 4.199219 -1.023438 L 5.832031 -1.421875 L 4.710938 -6.015625 C 4.375 -7.390625 4.308594 -8.292969 4.4375 -8.621094 L 4.40625 -8.742188 L 3.515625 -8.527344 L 3.546875 -8.402344 C 3.804688 -8.160156 4.136719 -7.332031 4.472656 -5.957031 L 5.390625 -2.203125 L 5.296875 -2.179688 L 2.199219 -5.402344 C 1.117188 -6.59375 0.558594 -7.367188 0.496094 -7.660156 L 0.464844 -7.78125 L -1.425781 -7.320312 L -1.394531 -7.195312 C -1.144531 -6.972656 -0.835938 -6.335938 -0.601562 -5.375 L 0.0273438 -2.8125 C 0.359375 -1.445312 0.417969 -0.53125 0.289062 -0.203125 Z M 0.320312 -0.078125 "/></g></g></g><g fill="#c60505" fill-opacity="1"><g transform="translate(143.144522, 53.960315)"><g><path d="M 3.816406 0.234375 C 5.644531 0.289062 7.023438 -0.621094 7.066406 -2.109375 C 7.097656 -3.238281 6.179688 -3.945312 5.171875 -3.972656 C 4.054688 -4.003906 3.332031 -3.355469 3.308594 -2.546875 C 3.292969 -1.941406 3.765625 -1.445312 4.351562 -1.429688 C 4.585938 -1.425781 4.800781 -1.492188 4.910156 -1.585938 L 4.914062 -1.660156 C 4.472656 -1.5 4.03125 -1.769531 4.046875 -2.238281 C 4.058594 -2.738281 4.507812 -3.128906 5.242188 -3.109375 C 5.976562 -3.089844 6.558594 -2.582031 6.535156 -1.792969 C 6.503906 -0.773438 5.679688 -0.125 4.304688 -0.164062 C 2.902344 -0.203125 1.621094 -1.199219 1.65625 -2.496094 C 1.691406 -3.753906 2.695312 -4.554688 4.207031 -4.566406 C 4.332031 -4.496094 4.523438 -4.449219 4.652344 -4.445312 C 4.820312 -4.441406 4.984375 -4.511719 4.988281 -4.679688 C 4.992188 -4.839844 4.835938 -4.929688 4.664062 -4.933594 C 4.464844 -4.941406 4.21875 -4.894531 4 -4.773438 C 3.25 -4.902344 2.699219 -5.425781 2.71875 -6.066406 C 2.738281 -6.789062 3.335938 -7.261719 4.316406 -7.234375 C 5.09375 -7.210938 5.625 -6.835938 5.609375 -6.28125 C 5.597656 -5.886719 5.269531 -5.621094 4.910156 -5.632812 C 4.472656 -5.644531 4.160156 -5.90625 4.308594 -6.277344 L 4.183594 -6.3125 C 4.105469 -6.230469 4.070312 -6.089844 4.066406 -5.984375 C 4.054688 -5.582031 4.417969 -5.207031 5.023438 -5.191406 C 5.671875 -5.171875 6.183594 -5.582031 6.199219 -6.117188 C 6.222656 -6.882812 5.277344 -7.429688 4.121094 -7.464844 C 2.695312 -7.503906 1.71875 -6.902344 1.695312 -6.09375 C 1.675781 -5.402344 2.238281 -4.910156 3.246094 -4.761719 L 3.242188 -4.644531 C 1.441406 -4.632812 0.382812 -3.671875 0.34375 -2.394531 C 0.304688 -1.011719 1.859375 0.179688 3.816406 0.234375 Z M 3.816406 0.234375 "/></g></g></g><g fill="#c60505" fill-opacity="1"><g transform="translate(154.53515, 54.823489)"><g><path d="M 5.460938 1.894531 C 6.554688 2.246094 7.71875 1.691406 8.109375 0.476562 C 8.441406 -0.554688 8.011719 -1.476562 7.191406 -1.742188 C 6.484375 -1.96875 5.855469 -1.582031 5.660156 -0.984375 C 5.484375 -0.433594 5.792969 0.101562 6.238281 0.242188 C 6.339844 0.277344 6.476562 0.296875 6.5625 0.28125 L 6.585938 0.175781 C 6.160156 0.140625 5.996094 -0.214844 6.128906 -0.628906 C 6.257812 -1.027344 6.695312 -1.34375 7.191406 -1.183594 C 7.820312 -0.980469 8.046875 -0.335938 7.835938 0.320312 C 7.589844 1.082031 6.804688 1.441406 6.0625 1.203125 C 4.6875 0.761719 4.679688 -0.953125 4.835938 -2.554688 L 4.917969 -2.597656 C 5.800781 -1.796875 7.519531 -1.992188 7.949219 -3.332031 C 8.273438 -4.332031 7.785156 -5.320312 6.113281 -5.855469 L 2.597656 -6.988281 L 2.558594 -6.867188 C 2.652344 -6.527344 2.492188 -5.648438 2.054688 -4.292969 L 1.441406 -2.398438 C 1.011719 -1.058594 0.625 -0.246094 0.351562 -0.0195312 L 0.3125 0.101562 L 2.207031 0.710938 L 2.246094 0.589844 C 2.15625 0.246094 2.25 -0.660156 2.679688 -2 L 4.058594 -6.285156 L 5.578125 -5.792969 C 6.894531 -5.371094 7.148438 -4.484375 6.871094 -3.625 C 6.574219 -2.703125 5.5 -2.5 4.855469 -2.929688 C 4.929688 -3.253906 4.714844 -3.492188 4.511719 -3.554688 C 4.257812 -3.636719 4.042969 -3.527344 3.976562 -3.316406 C 3.898438 -3.082031 4 -2.871094 4.273438 -2.78125 C 4.34375 -2.757812 4.433594 -2.765625 4.5 -2.789062 L 4.558594 -2.703125 C 4.335938 -2.179688 4.089844 -1.9375 3.878906 -1.144531 C 3.535156 0.167969 4.105469 1.457031 5.460938 1.894531 Z M 5.460938 1.894531 "/></g></g></g><g fill="#c60505" fill-opacity="1"><g transform="translate(165.990779, 59.327115)"><g/></g></g><g fill="#c60505" fill-opacity="1"><g transform="translate(172.956612, 64.112339)"><g><path d="M 2.246094 2.464844 C 3.519531 3.761719 4.972656 3.722656 6.15625 2.554688 L 7.667969 1.070312 C 8.683594 0.0703125 9.402344 -0.457031 9.75 -0.53125 L 9.839844 -0.621094 L 9.238281 -1.234375 L 9.144531 -1.144531 C 9.066406 -0.796875 8.519531 -0.0976562 7.503906 0.90625 L 5.992188 2.390625 C 5.015625 3.351562 3.757812 3.410156 2.90625 2.542969 C 2.0625 1.6875 2.195312 0.484375 3.195312 -0.5 L 4.683594 -1.964844 C 5.699219 -2.964844 6.410156 -3.5 6.757812 -3.570312 L 6.847656 -3.660156 L 5.503906 -5.027344 L 5.414062 -4.9375 C 5.328125 -4.597656 4.789062 -3.890625 3.769531 -2.890625 L 2.285156 -1.425781 C 1.183594 -0.34375 1.082031 1.28125 2.246094 2.464844 Z M 2.246094 2.464844 "/></g></g></g><g fill="#c60505" fill-opacity="1"><g transform="translate(180.250595, 72.326907)"><g><path d="M 0.164062 0.289062 L 1.121094 1.984375 L 1.230469 1.921875 C 1.398438 1.605469 2.164062 1.015625 3.402344 0.3125 L 4.035156 -0.0429688 L 4.085938 0.0507812 C 3.640625 0.582031 3.550781 1.308594 3.996094 2.09375 C 4.875 3.652344 6.339844 3.824219 7.472656 3.1875 C 8.742188 2.46875 9.136719 1.023438 8.105469 -0.800781 L 6.648438 -3.378906 L 6.539062 -3.3125 C 6.371094 -3 5.648438 -2.445312 4.40625 -1.742188 L 2.710938 -0.785156 C 1.460938 -0.078125 0.628906 0.246094 0.273438 0.222656 Z M 4.09375 1.816406 C 3.703125 1.125 3.898438 0.414062 4.484375 0.0820312 C 4.992188 -0.207031 5.460938 -0.136719 5.671875 0.242188 C 5.941406 0.714844 5.597656 1.101562 5.226562 1.265625 L 5.28125 1.367188 C 5.359375 1.371094 5.535156 1.296875 5.621094 1.25 C 6.066406 1 6.363281 0.488281 6.042969 -0.078125 C 5.84375 -0.429688 5.40625 -0.558594 5.007812 -0.457031 L 4.953125 -0.558594 L 7.25 -1.859375 L 7.640625 -1.164062 C 8.554688 0.449219 7.746094 1.613281 6.679688 2.214844 C 5.660156 2.792969 4.582031 2.679688 4.09375 1.816406 Z M 4.09375 1.816406 "/></g></g></g><g fill="#c60505" fill-opacity="1"><g transform="translate(135.972983, 154.723257)"><g><path d="M 5.90625 -6.40625 C 5.90625 -5.894531 5.75 -5.457031 5.4375 -5.09375 C 5.125 -4.726562 4.6875 -4.476562 4.125 -4.34375 L 4.125 -4.3125 C 4.789062 -4.226562 5.296875 -4.023438 5.640625 -3.703125 C 5.984375 -3.378906 6.15625 -2.945312 6.15625 -2.40625 C 6.15625 -1.613281 5.863281 -0.992188 5.28125 -0.546875 C 4.707031 -0.109375 3.890625 0.109375 2.828125 0.109375 C 1.929688 0.109375 1.132812 -0.0351562 0.4375 -0.328125 L 0.4375 -1.8125 C 0.757812 -1.65625 1.113281 -1.523438 1.5 -1.421875 C 1.882812 -1.316406 2.265625 -1.265625 2.640625 -1.265625 C 3.210938 -1.265625 3.632812 -1.363281 3.90625 -1.5625 C 4.1875 -1.757812 4.328125 -2.070312 4.328125 -2.5 C 4.328125 -2.894531 4.164062 -3.171875 3.84375 -3.328125 C 3.53125 -3.492188 3.03125 -3.578125 2.34375 -3.578125 L 1.703125 -3.578125 L 1.703125 -4.90625 L 2.34375 -4.90625 C 2.988281 -4.90625 3.457031 -4.988281 3.75 -5.15625 C 4.039062 -5.332031 4.1875 -5.625 4.1875 -6.03125 C 4.1875 -6.65625 3.796875 -6.96875 3.015625 -6.96875 C 2.742188 -6.96875 2.46875 -6.921875 2.1875 -6.828125 C 1.90625 -6.734375 1.597656 -6.578125 1.265625 -6.359375 L 0.453125 -7.5625 C 1.203125 -8.101562 2.097656 -8.375 3.140625 -8.375 C 3.992188 -8.375 4.664062 -8.195312 5.15625 -7.84375 C 5.65625 -7.5 5.90625 -7.019531 5.90625 -6.40625 Z M 5.90625 -6.40625 "/></g></g></g><g fill="#c60505" fill-opacity="1"><g transform="translate(109.506965, 205.007961)"><g><path d="M 3.640625 0 L 2.125 0 L 2.125 -5.859375 L 0.203125 -5.859375 L 0.203125 -7.109375 L 5.578125 -7.109375 L 5.578125 -5.859375 L 3.640625 -5.859375 Z M 3.640625 0 "/></g></g></g><g fill="#c60505" fill-opacity="1"><g transform="translate(115.275335, 205.007961)"><g><path d="M 6.734375 0 L 5.21875 0 L 5.21875 -3.078125 L 2.40625 -3.078125 L 2.40625 0 L 0.890625 0 L 0.890625 -7.109375 L 2.40625 -7.109375 L 2.40625 -4.328125 L 5.21875 -4.328125 L 5.21875 -7.109375 L 6.734375 -7.109375 Z M 6.734375 0 "/></g></g></g><g fill="#c60505" fill-opacity="1"><g transform="translate(122.896788, 205.007961)"><g><path d="M 0.890625 0 L 0.890625 -7.109375 L 2.40625 -7.109375 L 2.40625 0 Z M 0.890625 0 "/></g></g></g><g fill="#c60505" fill-opacity="1"><g transform="translate(126.194389, 205.007961)"><g><path d="M 2.40625 -3.953125 L 2.890625 -3.953125 C 3.367188 -3.953125 3.71875 -4.03125 3.9375 -4.1875 C 4.164062 -4.351562 4.28125 -4.609375 4.28125 -4.953125 C 4.28125 -5.285156 4.164062 -5.519531 3.9375 -5.65625 C 3.707031 -5.800781 3.347656 -5.875 2.859375 -5.875 L 2.40625 -5.875 Z M 2.40625 -2.734375 L 2.40625 0 L 0.890625 0 L 0.890625 -7.109375 L 2.96875 -7.109375 C 3.9375 -7.109375 4.648438 -6.929688 5.109375 -6.578125 C 5.578125 -6.234375 5.8125 -5.703125 5.8125 -4.984375 C 5.8125 -4.566406 5.695312 -4.191406 5.46875 -3.859375 C 5.238281 -3.535156 4.910156 -3.28125 4.484375 -3.09375 C 5.554688 -1.5 6.253906 -0.46875 6.578125 0 L 4.90625 0 L 3.203125 -2.734375 Z M 2.40625 -2.734375 "/></g></g></g><g fill="#c60505" fill-opacity="1"><g transform="translate(132.770137, 205.007961)"><g><path d="M 6.796875 -3.625 C 6.796875 -2.457031 6.460938 -1.5625 5.796875 -0.9375 C 5.128906 -0.3125 4.164062 0 2.90625 0 L 0.890625 0 L 0.890625 -7.109375 L 3.125 -7.109375 C 4.289062 -7.109375 5.191406 -6.800781 5.828125 -6.1875 C 6.472656 -5.582031 6.796875 -4.726562 6.796875 -3.625 Z M 5.234375 -3.59375 C 5.234375 -5.113281 4.554688 -5.875 3.203125 -5.875 L 2.40625 -5.875 L 2.40625 -1.25 L 3.046875 -1.25 C 4.503906 -1.25 5.234375 -2.03125 5.234375 -3.59375 Z M 5.234375 -3.59375 "/></g></g></g><g fill="#c60505" fill-opacity="1"><g transform="translate(140.143534, 205.007961)"><g/></g></g><g fill="#c60505" fill-opacity="1"><g transform="translate(142.731032, 205.007961)"><g><path d="M 2.40625 -3.765625 L 2.90625 -3.765625 C 3.363281 -3.765625 3.707031 -3.851562 3.9375 -4.03125 C 4.164062 -4.21875 4.28125 -4.488281 4.28125 -4.84375 C 4.28125 -5.195312 4.179688 -5.457031 3.984375 -5.625 C 3.796875 -5.789062 3.5 -5.875 3.09375 -5.875 L 2.40625 -5.875 Z M 5.8125 -4.890625 C 5.8125 -4.128906 5.570312 -3.546875 5.09375 -3.140625 C 4.613281 -2.734375 3.929688 -2.53125 3.046875 -2.53125 L 2.40625 -2.53125 L 2.40625 0 L 0.890625 0 L 0.890625 -7.109375 L 3.171875 -7.109375 C 4.035156 -7.109375 4.691406 -6.921875 5.140625 -6.546875 C 5.585938 -6.179688 5.8125 -5.628906 5.8125 -4.890625 Z M 5.8125 -4.890625 "/></g></g></g><g fill="#c60505" fill-opacity="1"><g transform="translate(148.985774, 205.007961)"><g><path d="M 0.890625 0 L 0.890625 -7.109375 L 2.40625 -7.109375 L 2.40625 -1.25 L 5.296875 -1.25 L 5.296875 0 Z M 0.890625 0 "/></g></g></g><g fill="#c60505" fill-opacity="1"><g transform="translate(154.613102, 205.007961)"><g><path d="M 5.25 0 L 4.734375 -1.6875 L 2.140625 -1.6875 L 1.625 0 L 0 0 L 2.515625 -7.140625 L 4.359375 -7.140625 L 6.875 0 Z M 4.375 -2.953125 C 3.894531 -4.492188 3.625 -5.363281 3.5625 -5.5625 C 3.507812 -5.757812 3.46875 -5.921875 3.4375 -6.046875 C 3.332031 -5.628906 3.023438 -4.597656 2.515625 -2.953125 Z M 4.375 -2.953125 "/></g></g></g><g fill="#c60505" fill-opacity="1"><g transform="translate(161.485542, 205.007961)"><g><path d="M 3.921875 -5.96875 C 3.347656 -5.96875 2.90625 -5.753906 2.59375 -5.328125 C 2.28125 -4.898438 2.125 -4.300781 2.125 -3.53125 C 2.125 -1.945312 2.722656 -1.15625 3.921875 -1.15625 C 4.421875 -1.15625 5.023438 -1.28125 5.734375 -1.53125 L 5.734375 -0.265625 C 5.148438 -0.0234375 4.5 0.09375 3.78125 0.09375 C 2.738281 0.09375 1.941406 -0.21875 1.390625 -0.84375 C 0.847656 -1.46875 0.578125 -2.367188 0.578125 -3.546875 C 0.578125 -4.285156 0.710938 -4.929688 0.984375 -5.484375 C 1.253906 -6.046875 1.640625 -6.472656 2.140625 -6.765625 C 2.648438 -7.066406 3.242188 -7.21875 3.921875 -7.21875 C 4.609375 -7.21875 5.300781 -7.050781 6 -6.71875 L 5.515625 -5.484375 C 5.242188 -5.617188 4.972656 -5.734375 4.703125 -5.828125 C 4.441406 -5.921875 4.179688 -5.96875 3.921875 -5.96875 Z M 3.921875 -5.96875 "/></g></g></g><g fill="#c60505" fill-opacity="1"><g transform="translate(167.832701, 205.007961)"><g><path d="M 5 0 L 0.890625 0 L 0.890625 -7.109375 L 5 -7.109375 L 5 -5.875 L 2.40625 -5.875 L 2.40625 -4.3125 L 4.8125 -4.3125 L 4.8125 -3.078125 L 2.40625 -3.078125 L 2.40625 -1.25 L 5 -1.25 Z M 5 0 "/></g></g></g><path stroke-linecap="butt" transform="matrix(0.74603, 0, 0, 0.747359, 99.97359, 208.504457)" fill="none" stroke-linejoin="miter" d="M -0.00125206 -0.000737519 L 114.217953 -0.000737519 " stroke="#863030" stroke-width="1" stroke-opacity="1" stroke-miterlimit="4"/></svg>