<svg xmlns="http://www.w3.org/2000/svg" width="1920" height="1080" fill="none" viewBox="0 0 1920 1080"><rect width="1920" height="1080" fill="#fff"/><path fill="url(#paint0_linear_1007_412)" d="M0 0H1920V1080H0V0Z"/><g filter="url(#filter0_i_1007_412)"><path fill="url(#paint1_linear_1007_412)" fill-opacity=".25" d="M534.331 895.98C533.335 891.54 534.627 887.749 537.661 884.703C540.126 882.227 541.52 879.381 542.357 876.085C542.841 874.201 543.427 872.254 544.406 870.586C550.616 860.021 553.337 848.483 553.895 836.392C554.18 830.164 556.758 825.713 562.399 823.072C565.814 821.466 569.179 819.713 572.685 818.341C576.732 816.747 580.165 814.442 582.88 811.032C585.242 808.072 587.821 805.289 590.069 802.249C593.558 797.547 597.805 793.762 602.848 790.853C607.578 788.12 611.068 784.176 613.675 779.485C614.756 777.544 615.787 775.295 615.895 773.144C616.18 767.531 619.202 763.916 623.528 760.979L633.643 754.085C634.366 753.59 635.055 753.061 635.34 752.002L632.92 752.355C632.55 750.078 633.962 748.826 635.317 747.681C639.985 743.748 642.882 738.704 644.903 733.04C645.768 730.619 646.739 728.238 647.812 725.902C650.208 720.705 650.72 715.508 648.341 710.151C644.322 701.106 642.119 691.547 640.178 681.883C639.079 676.424 638.829 671.056 640.332 665.716C641.971 659.847 640.002 654.963 636.358 650.637C634.133 647.99 631.719 645.252 628.839 643.47C623.158 639.969 622.355 635.068 623.739 629.353C624.946 624.366 626.562 619.471 627.883 614.502C628.384 612.618 628.839 610.654 628.851 608.718C628.868 604.819 626.972 603.288 623.067 603.749C620.671 604.033 618.285 604.642 615.889 604.671C611.802 604.728 609.479 603.06 608.785 599.075C607.049 588.949 605.62 578.776 604.117 568.622C603.946 567.438 604.032 566.197 604.134 565.001C604.544 560.328 606.684 556.998 610.248 556.411C615.975 555.472 618.724 555.91 621.382 560.185C623.004 562.804 625.224 563.863 628.19 563.789C633.091 563.646 637.081 565.428 639.796 569.612C641.487 572.219 643.895 572.988 646.821 572.8C649.24 572.646 651.659 572.572 654.073 572.515C658.399 572.418 661.137 574.513 662.731 578.509C664.069 581.868 665.594 585.164 667.217 588.391C667.883 589.712 668.998 590.816 669.977 591.966C671.383 593.617 673.051 594.129 675.249 593.475C679.154 592.308 683.121 591.306 687.1 590.372C689.149 589.9 691.273 589.632 693.379 589.461C699.105 588.989 703.659 590.896 707.012 595.814C709.921 600.101 710.206 600.084 714.72 597.807C717.128 596.594 719.604 595.285 721.613 593.509C726.64 589.08 727.015 583.023 723.008 577.685C719.957 573.614 716.041 571.332 710.929 570.506C704.075 569.396 697.301 567.768 690.515 566.266C688.751 565.878 687.043 565.201 685.358 564.558C678.112 561.78 674.207 556.651 673.951 548.733C673.768 543.104 673.99 537.537 675.476 532.083C677.742 523.806 677.941 515.262 677.617 506.849C677.429 501.709 675.653 496.449 673.712 491.593C672.078 487.506 671.292 484.159 674.907 480.937C676.33 479.668 676.512 478.028 675.875 476.355C675.231 474.664 674.469 473.019 673.609 471.431C668.537 462.141 667.865 452.486 671.44 442.605C673.381 437.22 674.685 436.69 680.315 437.618C680.616 437.664 680.912 437.704 681.208 437.772C686.781 439.036 690.937 437.385 694.654 432.774C699.424 426.865 702.617 420.723 702.128 412.964C702.031 411.473 702.168 409.884 702.6 408.467C705.691 398.494 707.245 398.141 715.943 398.779C719.108 399.018 722.256 399.393 725.415 399.729C731.256 400.344 736.84 398.887 742.425 397.549C745.06 396.923 747.69 396.155 750.24 395.244C750.997 394.976 751.493 393.991 752.164 393.274C754.817 393.57 756.155 395.767 757.692 397.549C761.847 402.359 767.152 403.742 773.141 401.54C779.91 399.046 784.589 394.248 787.782 388.009C790.259 383.17 792.342 378.127 794.608 373.185C796.873 368.256 800.704 365 805.634 362.933C806.471 362.58 807.33 362.279 808.144 361.88C811.104 360.446 811.406 359.803 811.047 356.558C810.581 352.346 809.937 348.145 809.823 343.927C809.738 340.949 810.25 337.927 810.78 334.978C811.423 331.392 813.871 329.61 817.417 329.178L827.316 327.84C828.187 327.709 829.024 327.271 830.14 326.889C829.81 324.311 828.534 322.273 826.832 320.65C824.521 318.453 823.941 315.869 824.015 312.857C824.185 305.867 826.65 299.896 831.506 294.887C834.352 291.955 837.346 289.149 839.982 286.046C843.312 282.119 843.716 279.506 840.648 275.396C835.519 268.52 835.792 261.41 838.365 253.872C838.906 252.307 839.287 250.679 839.663 249.056C841.075 243.056 844.28 238.263 849.306 234.7C857.11 229.184 865.228 224.26 874.17 220.731C878.24 219.126 882.23 217.27 886.135 215.306C887.86 214.441 889.454 213.171 890.865 211.834C893.046 209.756 894.059 207.252 893.558 204.058C893.142 201.394 893.159 198.627 893.273 195.912C893.473 191.17 895.721 189.263 900.355 190.128C909.127 191.762 917.033 195.399 924.053 200.938C924.405 201.223 924.736 201.547 925.06 201.86C934.487 211.178 945.979 213.609 958.726 212.141C963.524 211.589 967.754 210.063 971.556 207.001C976.793 202.783 982.935 200.517 989.647 200.836C998.401 201.251 1007.12 202.157 1015.85 202.885C1021.82 203.38 1027.14 202.612 1031.42 197.602C1035.25 193.134 1041 192.029 1046.51 190.948C1049.17 190.424 1050.95 191.671 1050.81 194.278C1050.48 200.733 1052.96 206.408 1054.97 212.266C1056.98 218.146 1056.35 223.987 1053.49 229.412C1051.73 232.731 1049.37 235.736 1047.29 238.896C1045.38 241.799 1043.19 244.566 1041.64 247.651C1039.81 251.254 1041.01 253.378 1044.89 254.385C1046.5 254.801 1048.15 255.097 1049.79 255.336C1055.37 256.15 1060.67 257.846 1065.66 260.505C1067.4 261.433 1069.14 262.384 1070.95 263.123C1075.58 265.019 1078.31 263.966 1080.72 259.605C1082.33 256.702 1083.84 253.708 1085.76 251.021C1088.64 247.019 1092.64 245.454 1097.66 246.023C1105.79 246.934 1113.5 249.211 1120.03 254.072C1127.02 259.281 1134.06 259.73 1141.75 256.326C1145.19 254.806 1148.69 254.385 1152.31 255.996C1153.18 256.383 1154.3 256.195 1155.71 256.298L1153.32 261.353C1152.75 262.588 1152.06 263.778 1151.7 265.07C1150.96 267.734 1152.06 270 1154.64 270.136C1160.12 270.432 1165.55 270.062 1169.84 265.804C1174.4 261.278 1175.77 255.802 1173.63 249.968C1169.43 238.464 1173.69 229.647 1181.64 221.74C1181.85 221.524 1182.08 221.33 1182.31 221.125C1186.99 216.708 1187.34 213.702 1183.33 208.693C1181.64 206.598 1179.43 204.919 1177.45 203.063C1174.63 200.416 1172.13 197.661 1172.85 193.295C1173.73 187.984 1177.26 185.263 1181.99 183.698C1186.46 182.218 1190.36 183.015 1193.39 186.829C1194.06 187.654 1194.76 188.468 1195.3 189.362C1197.67 193.239 1201.27 195.248 1205.53 196.295C1206.86 196.619 1208.16 197.018 1209.49 197.28C1215 198.407 1218.92 201.68 1222.2 206.137C1224.97 209.894 1228.01 213.469 1231.26 216.822C1234.89 220.522 1239.6 222.361 1244.77 222.406C1250.82 222.463 1255.31 225.281 1258.45 230.011C1261.53 234.628 1265.55 237.684 1270.52 239.921C1273.24 241.156 1275.65 243.086 1278.21 244.68C1283.22 247.788 1288.15 251.021 1293.26 253.953C1297.37 256.315 1301.96 257.272 1306.69 257.767C1316.55 258.803 1319.3 261.826 1319.73 271.639L1320.13 281.612C1320.18 282.819 1320.26 284.037 1320.48 285.226C1321.87 292.718 1327.43 292.501 1331.5 289.371C1333.86 287.56 1335.57 284.913 1337.77 282.847C1339.83 280.895 1341.9 278.714 1344.39 277.502C1350.74 274.422 1356.06 278.1 1355.84 285.147C1355.78 286.946 1355.64 288.818 1355.11 290.515C1354.13 293.594 1355.27 295.666 1357.54 297.625C1361.54 301.074 1366.05 303.351 1371.22 304.347C1384.25 306.858 1380.81 306.687 1385.99 317.053C1388.22 321.51 1386.6 326.895 1382.58 330.145C1379.65 332.513 1376.54 334.728 1373.28 336.612C1371.67 337.54 1369.54 337.967 1367.65 337.961C1359.88 337.921 1352.31 339.128 1344.78 340.995C1334.87 343.448 1327.07 349.323 1319.7 355.938C1310.01 364.653 1305.16 375.748 1303.7 388.577C1302.58 398.476 1302.48 408.221 1306.54 417.563C1308.29 421.582 1310.53 425.408 1312.04 429.512C1314.01 434.88 1315.8 440.35 1317.06 445.917C1318.06 450.329 1316.34 452.088 1311.88 452.441C1309.91 452.595 1307.94 452.469 1305.97 452.572C1301.13 452.817 1297.32 454.781 1294.55 459.596L1297.4 459.323L1314.51 457.496C1317.67 457.228 1320.7 458.008 1322.18 461.184C1323.71 464.446 1322.76 467.833 1321.31 470.799C1320.73 471.994 1318.66 472.655 1317.13 473.15C1309.05 475.774 1301.72 479.816 1296.01 485.998C1289.84 492.681 1284.94 500.371 1282.8 509.445C1282.44 510.965 1281.48 512.775 1283.63 513.845C1285.76 514.915 1287.5 513.919 1288.92 512.462C1289.92 511.437 1290.56 510.071 1291.36 508.858C1293.84 509.644 1293.54 511.551 1293.47 513.076C1293.3 517.118 1291.85 520.699 1289.23 523.846C1286.05 527.66 1282 530.256 1277.62 532.402C1269.39 536.444 1261.87 541.521 1255.73 548.336C1252.21 552.235 1249.29 556.721 1246.42 561.138C1241.42 568.84 1235.18 574.572 1226.3 577.891C1217.56 581.152 1209.25 585.627 1200.92 589.896C1190.59 595.195 1179.94 598.896 1168.25 600.006C1160 600.791 1152.16 603.837 1144.47 607.167C1136.58 610.582 1128.44 613.451 1120.32 616.297C1114.62 618.295 1108.78 619.912 1102.98 621.58C1100.96 622.16 1098.85 622.519 1096.75 622.764C1095.25 622.935 1093.54 622.821 1093.05 620.965C1092.56 619.109 1093.52 617.76 1095.16 616.895C1095.83 616.542 1096.57 616.309 1097.21 615.916C1098.62 615.05 1100.07 614.208 1101.38 613.195C1104.01 611.185 1104.4 609.916 1103.22 607.929C1101.88 605.681 1099.45 604.554 1097.02 605.789C1093.53 607.569 1090.18 609.62 1087.01 611.925C1082.24 615.375 1077.66 619.086 1073.08 622.775C1071.81 623.8 1070.51 624.983 1069.75 626.378C1067.39 630.767 1065.34 635.321 1063.04 639.75C1062.07 641.605 1061.59 643.45 1062.45 645.38C1063.44 647.577 1062.54 649.182 1061.63 651.231C1058.95 657.299 1054.36 661.546 1049.41 665.605L1021.45 688.795C1018.89 690.918 1016.21 692.9 1013.64 695.034C1009.82 698.228 1005.58 700.157 1000.54 700.675C994.643 701.29 989.514 704.022 985.319 708.127C981.545 711.827 977.276 714.565 972.272 716.056C968.282 717.252 966.05 719.898 964.394 723.547C962.527 727.674 960.278 731.625 958.058 735.581C957.25 737.015 956.237 738.444 954.984 739.486C943.947 748.645 931.737 754.936 916.97 755.181C908.95 755.312 901.693 753.274 895.323 748.384C889.158 743.653 882.435 739.965 875.28 736.965C870.954 735.155 866.963 732.821 863.292 729.747C859.347 726.457 857.292 722.381 855.755 717.668C854.457 713.677 852.761 709.778 850.871 706.015C849.601 703.482 847.677 701.291 844.302 700.05C843.715 701.342 843.089 702.457 842.691 703.653C842.218 705.088 842.025 706.602 841.569 708.042C840.021 712.954 836.514 714.554 831.67 712.584C830.435 712.083 829.234 711.503 827.31 710.649L827.185 715.305C826.985 719.495 825.949 721.089 821.862 722.074C819.426 722.66 816.796 722.574 814.257 722.626C811.61 722.671 808.872 721.686 805.923 723.662C806.663 724.817 807.216 726.013 808.047 726.941C811.177 730.43 814.359 733.874 817.616 737.249C821.247 741.023 821.378 742.845 817.986 746.961C813.671 752.204 808.143 755.909 802.218 759.023C798.882 760.776 795.364 762.211 791.847 763.577C784.856 766.286 778.532 770.1 772.947 775.07C771.57 776.294 770.187 778.161 769.97 779.88C769.304 785.145 769.373 790.473 771.951 795.375C773.289 797.914 774.758 800.39 776.078 802.94C778.105 806.828 776.932 810.471 772.862 812.23C769.059 813.892 765.012 814.74 760.885 813.739C755.318 812.372 749.808 810.761 744.264 809.281C741.93 808.667 739.607 807.898 737.239 807.591C733.124 807.061 731.086 808.314 729.264 812.059C727.938 814.78 726.742 817.547 725.348 820.233C723.008 824.765 719.183 827.628 714.453 829.307C711.749 830.264 709.022 831.203 706.233 831.857C702.22 832.797 700.318 831.419 699.208 827.543C697.814 822.647 698.537 817.917 700.136 813.289C701.292 809.953 701.178 806.925 699.823 803.635C697.802 798.751 696.26 793.667 694.438 788.698C693.994 787.474 693.254 786.358 692.582 785.049C689.247 786.347 687.26 788.368 686.127 791.402C685.285 793.65 684.505 796.104 683.019 797.897C675.585 806.828 672.42 817.438 670.297 828.55L665.737 851.234C663.728 861.23 654.939 866.968 646.241 868.493C643.104 869.046 640.218 867.953 637.656 866.216C635.909 865.032 634.321 863.609 632.698 862.243C629.931 859.909 628.042 859.704 624.894 861.503C624.239 861.873 623.46 862.215 623.044 862.795C619.822 867.292 614.71 868.51 610.037 870.6C605.637 872.569 601.219 874.641 597.178 877.237C591.434 880.937 585.287 883.259 578.565 883.846C573.88 884.256 570.004 886.123 567.157 889.601C564.134 893.455 560.207 895.384 555.533 895.731C549.049 896.227 542.532 896.369 536.036 896.602C535.49 896.625 534.926 896.21 534.328 895.982V895.979L534.331 895.98Z"/></g><defs><filter id="filter0_i_1007_412" width="862.998" height="717.603" x="534" y="183" color-interpolation-filters="sRGB" filterUnits="userSpaceOnUse"><feFlood flood-opacity="0" result="BackgroundImageFix"/><feBlend in="SourceGraphic" in2="BackgroundImageFix" mode="normal" result="shape"/><feColorMatrix in="SourceAlpha" result="hardAlpha" type="matrix" values="0 0 0 0 0 0 0 0 0 0 0 0 0 0 0 0 0 0 127 0"/><feOffset dx="10" dy="4"/><feGaussianBlur stdDeviation="5"/><feComposite in2="hardAlpha" k2="-1" k3="1" operator="arithmetic"/><feColorMatrix type="matrix" values="0 0 0 0 0 0 0 0 0 0 0 0 0 0 0 0 0 0 0.1 0"/><feBlend in2="shape" mode="normal" result="effect1_innerShadow_1007_412"/></filter><linearGradient id="paint0_linear_1007_412" x1="841" x2="1843.3" y1="0" y2="1134.09" gradientUnits="userSpaceOnUse"><stop stop-color="#130226"/><stop offset="1" stop-color="#44068A"/></linearGradient><linearGradient id="paint1_linear_1007_412" x1="1227.65" x2="590.833" y1="283.55" y2="904.34" gradientUnits="userSpaceOnUse"><stop stop-color="#400D79"/><stop offset=".234" stop-color="#370372"/><stop offset=".49" stop-color="#263E7C"/><stop offset=".776" stop-color="#19B7BA"/><stop offset="1" stop-color="#07AA90"/></linearGradient></defs></svg>