<svg xmlns="http://www.w3.org/2000/svg" width="112" height="122"><path style="fill:#010101;stroke:none" d="M0 0L0 109L1 109C2.71318 89.3775 20.6326 71.2913 39 66L39 65C12.7915 49.8506 16.0474 8.3555 47 1C34.8234 -4.10953 13.2649 0 0 0z"/><path style="fill:#fff;stroke:none" d="M39 65L39 66C12.7145 70.6856 0 98.0711 0 122C8.42264 121.344 7.83971 104.915 11.1204 98C17.5795 84.3849 30.4355 74.3846 45 70.8989C65.9462 65.886 87.7848 76.8862 98.5247 95C102.028 100.909 104.281 108.167 104.914 114.999C105.131 117.335 104.896 121.125 108.039 121.534C115.474 122.5 109.148 102.198 107.934 99C102.189 83.8643 88.5719 68.8534 72 66C106.049 44.3606 87.0723 -9.76346 46 0.760803C18.2726 7.8656 9.60622 53.6123 39 65z"/><path style="fill:#010101;stroke:none" d="M64 0L64 1C94.3252 8.20641 99.78 50.5887 72 65L72 66C93.4398 71.8664 110.815 93.6785 111 116L112 116L112 0L64 0M50 6.51775C13.1736 14.3746 25.38 70.3069 62 62.4823C97.772 54.8389 85.4615 -1.04792 50 6.51775M5 122L106 122C102.896 108.963 102.576 97.9763 93.5355 87.0008C75.4029 64.9879 38.5615 63.8567 19.2894 85.0394C9.06513 96.2771 8.30892 108.108 5 122M111.333 120.667L111.667 121.333L111.333 120.667z"/></svg>